<?xml version="1.0" encoding="UTF-8"?>
<!DOCTYPE svg PUBLIC "-//W3C//DTD SVG 1.1//EN" "http://www.w3.org/Graphics/SVG/1.1/DTD/svg11.dtd">
<!-- Creator: CorelDRAW 2020 (64-Bit Evaluation Version) -->
<svg xmlns="http://www.w3.org/2000/svg" xml:space="preserve" width="10.8in" height="10.8in" version="1.1" style="shape-rendering:geometricPrecision; text-rendering:geometricPrecision; image-rendering:optimizeQuality; fill-rule:evenodd; clip-rule:evenodd"
viewBox="0 0 10800 10800"
 xmlns:xlink="http://www.w3.org/1999/xlink"
 xmlns:xodm="http://www.corel.com/coreldraw/odm/2003">
 <defs>
  <style type="text/css">
   <![CDATA[
    .fil3 {fill:#023ACF}
    .fil1 {fill:#21D0B3}
    .fil5 {fill:white}
    .fil4 {fill:white;fill-rule:nonzero}
    .fil0 {fill:url(#id0)}
    .fil2 {fill:url(#id1)}
   ]]>
  </style>
  <linearGradient id="id0" gradientUnits="userSpaceOnUse" x1="6793.2" y1="11164.83" x2="2516.6" y2="133.63">
   <stop offset="0" style="stop-opacity:1; stop-color:#0069FF"/>
   <stop offset="0.6" style="stop-opacity:1; stop-color:#0052E8"/>
   <stop offset="1" style="stop-opacity:1; stop-color:#003BD0"/>
  </linearGradient>
  <linearGradient id="id1" gradientUnits="userSpaceOnUse" xlink:href="#id0" x1="6778.41" y1="11161.96" x2="2531.39" y2="163.28">
  </linearGradient>
 </defs>
 <g id="Layer_x0020_1">
  <metadata id="CorelCorpID_0Corel-Layer"/>
  <g id="_2264022596816">
   <path class="fil0" d="M1888.32 -1726.51c24.78,21.82 725.08,241.24 854.42,292.84 314.86,125.64 486.68,246.61 735.81,421.89 357.69,251.67 796.18,998.21 537.37,1628.75 -185.54,451.99 -729.65,963.99 -1060.68,1242.51 -409.82,344.78 -848.19,712.6 -1282.56,1031.82 -439.22,322.77 -855.29,686.62 -1285.89,1014.44 -216.11,164.5 -451.47,336.86 -653.46,505.31 -186.88,155.86 -442.98,370.25 -644.41,512.61 -115.41,81.58 -201.02,162.61 -316.9,247.37 -163.68,119.7 -222.45,94.56 -220.2,360.14l0.27 3475.33c89.97,26.62 346.02,-217.09 431.37,-284.25 413.34,-325.22 863.54,-659.95 1256.46,-985.47 546.06,-452.37 1111.8,-868.89 1682.41,-1315.39 1124.27,-879.75 2280.01,-1744.62 3312.63,-2682.76 508,-461.51 988.81,-1004.09 1346.97,-1653.37 388.03,-703.43 452.14,-1649.15 4.57,-2345.22 -403.41,-627.37 -1007.87,-982.78 -1805.26,-1193.12 -439.69,-206.81 -2715.75,-475.92 -2892.89,-273.42z"/>
   <path class="fil1" d="M-1447.93 -1652.31l0 2745.83c0,117.4 44.68,91.07 120.19,91.07l3814.46 23.04c123,0 380.55,-0.98 501.66,5.76 200.56,-7.94 213.4,-60.1 357.83,-165.63 566.43,-697.83 309.51,-1434.84 -334.33,-1979.28 -674.79,-570.63 -1826.31,-786.48 -2750.86,-812.47 -407.07,-11.44 -911,0.12 -1336.44,0.12 -124.52,0 -372.51,-50.95 -372.51,91.54z"/>
   <path class="fil2" d="M4416.23 9019.07l3755.1 0c165.82,0 -61.37,-184.92 -109.3,-246.91 -154.37,-199.73 -533.24,-605.93 -720.63,-821.81 -326.36,-376.02 -650.92,-715.43 -969.63,-1094.01 -157.41,-186.99 -319.28,-371.48 -479.69,-544.91 -166.94,-180.5 -313.94,-373.75 -485.29,-553.88 -132.96,-139.79 -382.84,-399.22 -480.96,-542.81 -67.33,-98.5 -160.44,-177.15 -243.32,-275.97 -148.92,-177.6 -122.91,-72.49 -281.75,27.85l-2025.15 1581.85c-132.13,107.87 9.83,175.32 102.63,283.36 173.5,202.02 1875.76,2187.24 1937.98,2187.24z"/>
   <path class="fil1" d="M11918.09 2342.97c1.73,212.51 -104.54,668.42 -233.83,819.65 -2.04,-249.43 -64.61,-363.04 -226.95,-529.15l-327.09 -281.82c-52.03,-38.63 -178.38,-130.37 -239.59,-151.94l-27.07 -12.67c-162.39,-142.63 -968.03,-496.01 -1210.43,-581.09 -745.89,-261.78 -1179.66,-388.78 -1921.81,-568.49 -75.24,-18.23 -125.33,-20.89 -191.02,-48.32 -498.23,-208.06 -319.81,-1040.12 272.76,-940.49 669.75,112.6 2074.41,565.05 2746.74,894.39 373.4,182.93 667.04,339.67 971.99,612.46 4.94,4.43 25.16,21.89 25.67,22.38 2.4,2.27 5.86,5.54 8.2,7.85 2.35,2.31 5.65,5.69 7.96,8.06 210.79,216.64 341.76,418.51 344.46,749.19z"/>
   <path class="fil3" d="M11941.13 1236.42c1.81,221.9 -29.1,363.83 -28.27,465.22l-32.08 0.26c-1.22,-150.28 -59.03,-239.09 -146.78,-351.94 -190.14,-244.53 -459.09,-405.66 -721.45,-559.98 -494.04,-290.57 -1046.8,-503.94 -1593.65,-691.88 -132.18,-45.41 -241.62,-75.31 -379.94,-114.96l-800.94 -220.5c-408.3,-98.86 -858.52,-187.62 -1277.04,-253.92 -197.63,-31.3 -431.2,-30.42 -541.24,-225.81 -151.61,-269.22 -6.04,-614.98 353.44,-617.91 426.53,-3.48 1576.15,289 2013.98,393.96 588.21,141.02 1750.06,567.92 2239.26,892.48 57.79,38.33 101.33,60 158.15,97.89 90.96,60.63 190.73,137.41 272.79,207.7l33.66 30.46c2.33,2.33 5.63,5.73 7.93,8.09 3.23,3.37 12.09,13.41 15.25,16.83 153.49,167.09 246.22,261.34 341.11,510.1 43.48,113.97 84.59,261.66 85.83,413.91z"/>
   <path class="fil1" d="M10879 4692.43c2.08,254.7 -134.16,426.92 -293.48,538.3 -90.95,63.6 -148.83,98.22 -251.22,150.45 -51,26.02 -89.59,41.98 -145.34,63.78 -55.92,21.87 -106.67,33.27 -153.19,56.06 20.86,-59.11 29.48,-26.47 73.38,-102.75 135.72,-235.77 -107.5,-462.52 -227.13,-581.59 -182.34,-181.51 -488.55,-327.96 -716.44,-451.91 -43.33,-23.55 -79.15,-39.9 -119.86,-55.99l-474.28 -196.89c-332.28,-114.72 -674.2,-240.05 -1018.86,-322.33l-530.7 -139.54c-231.3,-105.45 -362,-438.51 -152.41,-707.42 223.7,-286.99 569.78,-131.46 913.11,-49.64l314.4 84.59c344.48,99.11 893.03,279.51 1210.65,418.37 101,44.13 192.59,77.87 289.96,125.6 92.65,45.42 178.5,82.78 267.91,131.82 48.51,26.63 83.5,46.31 132.95,75.03l370.7 237.51c49.78,36.65 72,51.3 115.82,92.42 44.12,41.4 70.78,52.47 113.66,94.65 128.71,126.63 278.8,347.72 280.37,539.49z"/>
   <path class="fil3" d="M11558.47 3468.28c2.86,350.03 -117.3,585.7 -341.96,824.59 -79.85,84.91 -57.83,91.2 -179.02,173.78 9.01,-40.15 47.12,-120.35 46.79,-160.71 -5.94,-728.48 -2064.15,-1499.54 -2835.67,-1692.68 -84.56,-21.17 -194.81,-45.78 -268.7,-82.54 -251.63,-125.21 -378.68,-505.68 -127.62,-784.2 247.25,-274.33 561.59,-110.94 863.14,-28.06l730.31 243.8c81.41,31.49 164.06,64.6 243.28,92.19 74.79,26.06 152.04,65.27 225.69,93.93 259.14,100.78 635.4,296.24 870.07,441.22 72.69,44.92 135.65,85.69 205.63,130.49 89.46,57.31 275.61,223.8 352.21,304.8 87.4,92.39 214.46,271.7 215.85,443.4z"/>
   <path class="fil3" d="M9843.37 5502.58c1.07,130.91 -51.06,225.13 -141.89,305.72 -107.55,95.4 -135.93,116.39 -270.52,179.19 -179.59,83.79 -501.13,191.46 -704.42,197.65 2.86,-2.52 7.59,-9.89 9.01,-7.04l38.79 -25.47c57.6,-33.67 89.67,-46.35 140.46,-100.38 372.65,-396.48 -951.66,-922.1 -1189.62,-999.35 -400.43,-130.02 -588.41,-193.05 -1023.67,-285.11 -356.57,-75.42 -713.31,-56.78 -821.24,-329.19 -113.66,-286.85 66.92,-555.75 374.24,-558.26 94.23,-0.77 186.84,22.57 279.69,39.04 882.6,156.75 2114.6,500.8 2878.2,1018.99l268.36 228.36c72.98,89.26 161.45,193.21 162.62,335.87z"/>
   <path class="fil1" d="M11660.73 276.65c-49.81,-19.63 -27.15,-50.8 -110.99,-162.02 -47.71,-63.32 -71.44,-89.28 -128.01,-144.7 -425.32,-416.69 -1196.47,-736.44 -1777.33,-941.67 -1116.2,-394.37 -1937.26,-537.85 -3121.19,-691.18 -305.76,-39.6 -759.89,35.42 -762.07,-321.19 -0.87,-143.52 111.34,-289.58 266.8,-290.85 1125.53,-9.18 2467.76,285.63 3494.54,635.01 852.78,290.17 1656.47,657.37 2027.43,1511.92 58.89,135.7 74.39,253.88 110.83,404.67z"/>
   <path class="fil1" d="M8613.01 6025.7c2.76,338.12 -699.07,326.4 -1071.61,329.44 20.31,-30.88 244.38,-141.02 -69.81,-349.35 -82.05,-54.41 -150.57,-85.59 -238.67,-129.24 -147.41,-73.02 -369.38,-145.56 -546.74,-187.91 -206.81,-49.39 -363.74,-83.2 -603.33,-114.22 -200.59,-25.98 -424.09,-34.59 -426.61,-342.35 -1.36,-166.4 121.67,-289.61 318.3,-291.21 339.67,-2.77 1209.22,240.78 1512.14,338.27 119.47,38.47 218.66,84.29 333.57,129.77 91.9,36.37 220.27,99.9 313.08,150.58 48.13,26.29 99.92,56.25 139.95,84.06 26.53,18.46 37.94,29.23 64.53,47.57 92.3,63.62 274.18,210.53 275.19,334.59z"/>
   <path class="fil3" d="M10960.7 -1016.41c-52.4,-34.48 -63.17,-58.93 -106.56,-101.85 -213.77,-211.35 -498.06,-353.6 -764.07,-484.32 -586.36,-288.15 -1606.14,-562.18 -2224.9,-680.72 -214.58,-41.11 -418.59,-67.66 -636.44,-96.73 -287.26,-38.34 -528.13,10.25 -530.02,-221.06 -0.59,-72.85 74.86,-160.96 142.99,-161.52 707.95,-5.78 1815.39,235.33 2438.83,479.45 221.17,86.6 658.61,299.78 837.69,441.81 304.09,241.18 291.96,207.94 595.71,509.97 39.96,39.73 231.83,260.8 246.78,314.97z"/>
   <path class="fil3" d="M7235.98 6261.43c1.8,221.39 -682.39,-11.42 -811.62,-64.17 -252.83,-103.2 -637.97,-392.93 -683.39,-404.66 18.64,-13.19 -0.3,-6.59 39.21,-20.24 125.62,-43.46 691.82,61.85 809.37,95.34 160.67,45.77 644.72,185.58 646.43,393.73z"/>
   <path class="fil4" d="M-3439.39 13272.85c-202.51,0 -385.05,-43.66 -547.62,-130.98 -162.57,-87.32 -289.83,-207.62 -381.8,-360.9 -91.97,-153.28 -137.95,-325.6 -137.95,-516.96 0,-191.37 45.98,-363.69 137.95,-516.96 91.96,-153.28 219.23,-273.57 381.8,-360.9 162.57,-87.32 345.11,-130.98 547.62,-130.98 202.51,0 384.59,43.66 546.22,130.98 161.64,87.32 288.91,207.62 381.8,360.9 92.89,153.28 139.34,325.6 139.34,516.96 0,191.37 -46.45,363.69 -139.34,516.96 -92.9,153.28 -220.17,273.57 -381.8,360.9 -161.64,87.32 -343.71,130.98 -546.22,130.98zm0 -384.59c115.19,0 219.23,-26.47 312.13,-79.43 92.89,-52.95 165.82,-126.8 218.77,-221.56 52.95,-94.75 79.43,-202.51 79.43,-323.28 0,-120.76 -26.48,-228.52 -79.43,-323.28 -52.95,-94.76 -125.87,-168.61 -218.77,-221.56 -92.9,-52.95 -196.94,-79.43 -312.13,-79.43 -115.19,0 -219.23,26.47 -312.13,79.43 -92.9,52.95 -165.82,126.8 -218.77,221.56 -52.95,94.75 -79.43,202.51 -79.43,323.28 0,120.76 26.48,228.52 79.43,323.28 52.95,94.75 125.87,168.61 218.77,221.56 92.89,52.95 196.94,79.43 312.13,79.43z"/>
   <path class="fil4" d="M-1396.22 13272.85c-198.8,0 -378.55,-43.2 -539.26,-129.59 -160.71,-86.39 -287.05,-206.23 -379.01,-359.51 -91.97,-153.28 -137.95,-326.53 -137.95,-519.75 0,-193.22 45.98,-366.47 137.95,-519.75 91.96,-153.28 218.3,-273.11 379.01,-359.5 160.71,-86.39 341.39,-129.59 542.05,-129.59 169.07,0 321.88,29.72 458.44,89.18 136.56,59.45 251.28,144.92 344.18,256.39l-289.83 267.54c-131.91,-152.35 -295.41,-228.52 -490.48,-228.52 -120.77,0 -228.52,26.47 -323.28,79.43 -94.75,52.95 -168.6,126.8 -221.56,221.56 -52.95,94.75 -79.43,202.51 -79.43,323.28 0,120.76 26.48,228.52 79.43,323.28 52.95,94.75 126.8,168.61 221.56,221.56 94.76,52.95 202.51,79.43 323.28,79.43 195.08,0 358.57,-77.1 490.48,-231.31l289.83 267.54c-92.89,113.33 -208.09,199.73 -345.57,259.18 -137.48,59.45 -290.76,89.18 -459.83,89.18z"/>
   <polygon class="fil4" points="436.44,12473.02 174.48,12746.13 174.48,13239.41 -274.2,13239.41 -274.2,11288.6 174.48,11288.6 174.48,12199.91 1038.41,11288.6 1540.04,11288.6 731.85,12158.1 1587.42,13239.41 1060.7,13239.41 "/>
   <polygon class="fil4" points="3228.72,12877.11 3228.72,13239.41 1718.24,13239.41 1718.24,11288.6 3192.49,11288.6 3192.49,11650.89 2166.93,11650.89 2166.93,12074.5 3072.66,12074.5 3072.66,12425.64 2166.93,12425.64 2166.93,12877.11 "/>
   <polygon class="fil4" points="3957.74,11656.47 3333.48,11656.47 3333.48,11288.6 5033.46,11288.6 5033.46,11656.47 4409.21,11656.47 4409.21,13239.41 3957.74,13239.41 "/>
   <path class="fil4" d="M7321.48 12233.35l412.46 0 0 791.47c-105.9,79.89 -228.52,141.2 -367.87,183.93 -139.35,42.73 -279.62,64.09 -420.82,64.09 -202.51,0 -384.59,-43.2 -546.22,-129.59 -161.64,-86.39 -288.44,-206.23 -380.41,-359.51 -91.97,-153.28 -137.95,-326.53 -137.95,-519.75 0,-193.22 45.98,-366.47 137.95,-519.75 91.96,-153.28 219.7,-273.11 383.19,-359.5 163.5,-86.39 347.43,-129.59 551.8,-129.59 170.93,0 326.06,28.8 465.41,86.39 139.34,57.59 256.39,141.2 351.15,250.82l-289.83 267.54c-139.34,-146.78 -307.48,-220.16 -504.42,-220.16 -124.48,0 -235.03,26.01 -331.64,78.03 -96.61,52.02 -171.85,125.41 -225.74,220.16 -53.88,94.75 -80.82,203.44 -80.82,326.06 0,120.76 26.94,228.52 80.82,323.28 53.88,94.75 128.66,168.61 224.34,221.56 95.68,52.95 204.83,79.43 327.46,79.43 130.06,0 247.1,-27.87 351.15,-83.61l0 -571.31z"/>
   <polygon class="fil4" points="8107.85,11288.6 8559.32,11288.6 8559.32,12871.54 9537.51,12871.54 9537.51,13239.41 8107.85,13239.41 "/>
   <path class="fil4" d="M10596.03 13272.85c-202.51,0 -385.05,-43.66 -547.62,-130.98 -162.57,-87.32 -289.83,-207.62 -381.8,-360.9 -91.97,-153.28 -137.95,-325.6 -137.95,-516.96 0,-191.37 45.98,-363.69 137.95,-516.96 91.96,-153.28 219.23,-273.57 381.8,-360.9 162.57,-87.32 345.11,-130.98 547.62,-130.98 202.51,0 384.59,43.66 546.22,130.98 161.64,87.32 288.91,207.62 381.8,360.9 92.89,153.28 139.34,325.6 139.34,516.96 0,191.37 -46.45,363.69 -139.34,516.96 -92.9,153.28 -220.17,273.57 -381.8,360.9 -161.64,87.32 -343.71,130.98 -546.22,130.98zm0 -384.59c115.19,0 219.23,-26.47 312.13,-79.43 92.89,-52.95 165.82,-126.8 218.77,-221.56 52.95,-94.75 79.43,-202.51 79.43,-323.28 0,-120.76 -26.48,-228.52 -79.43,-323.28 -52.95,-94.76 -125.87,-168.61 -218.77,-221.56 -92.9,-52.95 -196.94,-79.43 -312.13,-79.43 -115.19,0 -219.23,26.47 -312.13,79.43 -92.9,52.95 -165.82,126.8 -218.77,221.56 -52.95,94.75 -79.43,202.51 -79.43,323.28 0,120.76 26.48,228.52 79.43,323.28 52.95,94.75 125.87,168.61 218.77,221.56 92.89,52.95 196.94,79.43 312.13,79.43z"/>
   <path class="fil4" d="M13401.88 12224.99c111.48,35.3 198.8,94.29 261.96,176.96 63.17,82.68 94.76,184.4 94.76,305.16 0,170.93 -66.42,302.37 -199.26,394.34 -132.84,91.96 -326.52,137.95 -581.06,137.95l-1008.84 0 0 -1950.8 953.11 0c237.81,0 420.35,45.52 547.62,136.56 127.27,91.04 190.9,214.59 190.9,370.65 0,94.75 -22.76,179.29 -68.28,253.6 -45.52,74.32 -109.15,132.84 -190.9,175.57zm-983.76 -596.39l0 459.83 448.69 0c111.47,0 196.01,-19.51 253.6,-58.53 57.59,-39.02 86.39,-96.61 86.39,-172.78 0,-76.17 -28.8,-133.3 -86.39,-171.39 -57.59,-38.09 -142.13,-57.13 -253.6,-57.13l-448.69 0zm526.72 1270.81c118.91,0 208.55,-19.51 268.93,-58.52 60.38,-39.02 90.57,-99.4 90.57,-181.15 0,-161.64 -119.83,-242.46 -359.5,-242.46l-526.72 0 0 482.13 526.72 0z"/>
   <path class="fil4" d="M15166.35 12821.38l-905.73 0 -172.79 418.03 -462.62 0 869.5 -1950.8 445.9 0 872.29 1950.8 -473.77 0 -172.79 -418.03zm-142.13 -342.79l-309.34 -746.88 -309.34 746.88 618.68 0z"/>
   <polygon class="fil4" points="15972.11,11288.6 16423.58,11288.6 16423.58,12871.54 17401.77,12871.54 17401.77,13239.41 15972.11,13239.41 "/>
   <path class="fil5" d="M-6102.94 11171.25c4.83,4.25 141.28,47 166.48,57.06 61.35,24.48 94.83,48.05 143.37,82.2 69.69,49.04 155.13,194.49 104.7,317.35 -36.15,88.06 -142.17,187.82 -206.66,242.09 -79.85,67.18 -165.26,138.85 -249.9,201.04 -85.58,62.89 -166.65,133.78 -250.55,197.65 -42.11,32.06 -87.96,65.63 -127.32,98.46 -36.41,30.37 -86.31,72.14 -125.56,99.88 -22.49,15.89 -39.17,31.68 -61.75,48.2 -31.89,23.32 -43.34,18.43 -42.9,70.17l0.05 677.14c17.53,5.19 67.42,-42.3 84.05,-55.39 80.54,-63.37 168.25,-128.59 244.81,-192.01 106.39,-88.14 216.63,-169.3 327.8,-256.29 219.06,-171.41 444.24,-339.93 645.44,-522.71 98.98,-89.92 192.66,-195.64 262.45,-322.15 75.6,-137.06 88.09,-321.32 0.89,-456.94 -78.6,-122.24 -196.37,-191.49 -351.74,-232.47 -87.49,-23.08 -162.22,-23.93 -254.02,-38.67 -38.54,-6.19 -283.86,-31.2 -309.64,-14.6z"/>
   <path class="fil5" d="M-6752.98 11185.71l0 535c0,22.87 8.7,17.74 23.42,17.74l743.22 0c23.96,0 74.15,2.06 97.74,5.61 44.31,6.69 47.57,-4.98 69.72,-32.27 110.36,-135.97 60.3,-279.57 -65.14,-385.65 -131.48,-111.18 -355.84,-153.24 -535.98,-158.3 -79.31,-2.23 -177.5,0.02 -260.39,0.02 -24.26,0 -72.58,-9.93 -72.58,17.84z"/>
   <path class="fil5" d="M-5610.4 13264.94l731.65 0c32.31,0 -11.96,-36.03 -21.3,-48.11 -30.07,-38.92 -103.9,-118.06 -140.41,-160.13 -63.59,-73.26 -126.83,-139.39 -188.92,-213.16 -30.67,-36.43 -62.21,-72.38 -93.46,-106.17 -32.53,-35.17 -61.17,-72.82 -94.56,-107.92 -25.91,-27.24 -74.59,-77.78 -93.71,-105.76 -13.12,-19.19 -31.26,-34.52 -47.41,-53.77 -29.02,-34.6 -23.94,-14.12 -54.89,5.43l-394.58 308.21c-25.75,21.02 1.91,34.16 20,55.21 33.8,39.36 365.48,426.17 377.6,426.17z"/>
  </g>
 </g>
</svg>
