<svg width="484" height="493" viewBox="0 0 484 493" fill="none" xmlns="http://www.w3.org/2000/svg">
<path d="M181.542 25.846C181.542 25.846 145.658 6.52408 115.295 36.887C84.9322 67.25 123.576 87.952 134.617 127.976C145.658 168 62.8501 145.918 32.4871 176.281C2.12414 206.644 29.6302 249.428 50.4288 255.638C71.2275 261.849 112.535 245.287 118.055 277.03C118.055 277.03 127.716 290.832 101.494 330.856C75.2713 370.88 76.6514 413.664 124.956 423.325C173.261 432.986 184.302 368.119 220.185 377.78C256.069 387.441 246.408 463.349 315.415 452.308C384.421 441.266 349.614 389.498 370.468 366.38C391.322 343.263 418.925 373.64 449.288 350.178C479.651 326.715 431.346 275.65 435.486 241.147C439.627 206.644 472.75 203.883 475.51 174.9C478.27 145.918 457.568 150.058 412.024 111.414C366.48 72.7705 388.562 45.1678 356.819 27.2261C325.076 9.28435 296.093 63.1096 254.689 52.0685C229.621 45.3711 205.155 36.6 181.542 25.846Z" fill="#4C70FF"/>
<path opacity="0.8" d="M181.542 25.846C181.542 25.846 145.658 6.52408 115.295 36.887C84.9322 67.25 123.576 87.952 134.617 127.976C145.658 168 62.8501 145.918 32.4871 176.281C2.12414 206.644 29.6302 249.428 50.4288 255.638C71.2275 261.849 112.535 245.287 118.055 277.03C118.055 277.03 127.716 290.832 101.494 330.856C75.2713 370.88 76.6514 413.664 124.956 423.325C173.261 432.986 184.302 368.119 220.185 377.78C256.069 387.441 246.408 463.349 315.415 452.308C384.421 441.266 349.614 389.498 370.468 366.38C391.322 343.263 418.925 373.64 449.288 350.178C479.651 326.715 431.346 275.65 435.486 241.147C439.627 206.644 472.75 203.883 475.51 174.9C478.27 145.918 457.568 150.058 412.024 111.414C366.48 72.7705 388.562 45.1678 356.819 27.2261C325.076 9.28435 296.093 63.1096 254.689 52.0685C229.621 45.3711 205.155 36.6 181.542 25.846Z" fill="white"/>
<path d="M224.036 342.104C272.134 326.398 302.993 314.501 338.118 314.087C338.118 314.087 388.148 320.532 408.85 314.087C469.382 295.207 474.655 226.448 441.973 175.687C408.132 123.118 347.227 138.12 347.227 138.12C274.328 151.507 225.692 136.74 200.256 124.443C179.872 114.616 155.236 118.274 139.53 134.532C135.992 138.04 133.224 142.247 131.401 146.884C109.029 208.148 134.796 268.018 143.988 304.578C147.383 318.131 175.924 357.81 224.036 342.104Z" stroke="#263238" stroke-linecap="round" stroke-linejoin="round" stroke-dasharray="2 2"/>
<path d="M246.311 88.6696C244.365 111.607 242.323 134.863 242.834 157.787C244.034 213.323 249.61 268.681 253.143 324.093C255.255 357.12 261.783 392.023 255.131 424.843C248.906 455.606 224.409 481 192.321 483.278C157.003 485.79 131.484 452.818 135.335 419.653C138.219 394.811 153.152 371.859 154.036 346.824C155.209 313.121 115.82 317.468 90.2183 295.759C60.0899 270.254 30.348 236.344 21.598 196.817C19.0723 185.458 18.4237 173.355 22.6331 162.438C41.6927 113.139 122.596 100.76 154.036 142.66C186.427 185.859 173.661 248.682 226.672 254.576C279.683 260.469 331.714 237.89 382.765 225.124C433.817 212.357 490.747 243.783 481.914 310.526C473.081 377.269 390.618 375.393 352.333 329.186C314.048 282.979 331.714 188.798 339.567 151.438C343.887 130.957 354.983 112.574 364.713 94.3006C372.373 79.892 382.034 64.8485 379.55 47.8314C372.221 -2.33644 288.461 -16.5242 262.997 26.7706C262.97 26.8258 250.038 44.6157 246.311 88.6696Z" stroke="#263238" stroke-linecap="round" stroke-linejoin="round" stroke-dasharray="2 2"/>
<path d="M358.461 384.625C390.421 384.625 416.33 358.717 416.33 326.756C416.33 294.796 390.421 268.887 358.461 268.887C326.501 268.887 300.592 294.796 300.592 326.756C300.592 358.717 326.501 384.625 358.461 384.625Z" fill="#4C70FF" stroke="#263238" stroke-miterlimit="10"/>
<path opacity="0.3" d="M358.461 384.625C390.421 384.625 416.33 358.717 416.33 326.756C416.33 294.796 390.421 268.887 358.461 268.887C326.501 268.887 300.592 294.796 300.592 326.756C300.592 358.717 326.501 384.625 358.461 384.625Z" fill="white" stroke="#263238" stroke-miterlimit="10"/>
<path d="M358.461 268.888C358.461 268.888 329.188 265.713 324.523 280.191C319.859 294.668 339.539 292.101 336.434 298.823C333.329 305.544 320.383 314.294 325.559 324.176C330.734 334.057 340.05 344.878 329.699 341.262C319.348 337.646 316.767 336.597 318.837 347.983C320.908 359.369 331.769 362.474 349.366 360.915C366.963 359.355 365.403 367.65 375.23 368.685C385.056 369.72 394.897 364.02 394.897 349.529C394.897 335.037 383 338.156 393.861 330.911C404.723 323.665 402.667 305.033 399.561 299.347C396.456 293.661 390.245 296.242 390.245 288.996C390.245 281.75 375.312 267.921 358.461 268.888Z" fill="#263238" stroke="#263238" stroke-miterlimit="10"/>
<path d="M342.354 275.65C342.354 275.65 331.52 274.201 331.879 281.06C332.238 287.919 351.036 301.293 368.743 301.666C386.45 302.038 388.244 292.985 385.718 291.177" stroke="white" stroke-width="0.75" stroke-linecap="round" stroke-linejoin="round"/>
<path d="M353.562 281.391C353.562 281.391 344.894 282.468 345.971 288.292C347.047 294.116 352.471 296.959 360.793 300.216" stroke="white" stroke-width="0.75" stroke-linecap="round" stroke-linejoin="round"/>
<path d="M396.911 316.792C396.911 316.792 396.194 325.832 385.001 331.615C373.808 337.397 363.719 346.037 373.38 350.398C383.041 354.759 388.561 359.783 384.946 360.873" stroke="white" stroke-width="0.75" stroke-linecap="round" stroke-linejoin="round"/>
<path d="M341.637 343.525C341.637 343.525 337.303 353.642 330.803 351.806C324.303 349.97 322.122 344.905 326.469 344.905C330.817 344.905 331.162 347.072 331.162 347.072" stroke="white" stroke-width="0.75" stroke-linecap="round" stroke-linejoin="round"/>
<path d="M376.14 302.121C376.14 302.121 385.015 301.983 383.565 310.65C382.116 319.317 373.808 320.049 371.641 326.549" stroke="white" stroke-width="0.75" stroke-linecap="round" stroke-linejoin="round"/>
<path d="M358.461 384.681C371.449 384.696 384.062 380.319 394.248 372.259C390.19 369.265 382.958 363.979 378.749 361.218C372.662 357.161 364.547 344.533 353.713 346.782C345.018 348.604 321.749 358.624 312.889 362.516C318.302 369.429 325.22 375.018 333.116 378.859C341.012 382.699 349.68 384.69 358.461 384.681Z" fill="white" stroke="#263238" stroke-miterlimit="10"/>
<path d="M351.947 344.878C351.947 344.878 335.91 349.529 333.839 362.985C331.769 376.441 347.034 366.739 347.034 366.739C347.034 366.739 355.052 378.511 362.298 374.895C369.544 371.279 370.579 358.844 366.438 350.564C362.298 342.283 351.947 344.878 351.947 344.878Z" fill="white" stroke="#263238" stroke-miterlimit="10"/>
<path d="M351.519 334.996C351.604 339.405 351.003 343.8 349.739 348.025C347.71 354.277 341.099 362.889 346.978 366.753C352.858 370.617 360.393 358.32 362.353 347.997C364.313 337.674 365.734 325.335 365.734 325.335L351.519 334.996Z" fill="white"/>
<g style="mix-blend-mode:multiply" opacity="0.5">
<path d="M350.152 346.644C352.047 347.33 354.016 347.794 356.018 348.024C357.812 348.231 358.53 347.845 358.778 347.389C358.557 349.97 357.715 357.05 354.776 362.267C353.878 363.868 353.147 365.221 352.567 366.408C356.929 363.468 361 355.27 362.38 348.038C364.34 337.729 365.706 325.418 365.706 325.418L351.491 335.079C351.559 338.976 351.109 342.865 350.152 346.644Z" fill="#4C70FF"/>
</g>
<path d="M351.519 334.996C351.604 339.405 351.003 343.8 349.739 348.025C347.71 354.277 341.099 362.889 346.978 366.753C352.858 370.617 360.393 358.32 362.353 347.997C364.313 337.674 365.734 325.335 365.734 325.335L351.519 334.996Z" stroke="#263238" stroke-miterlimit="10"/>
<path d="M342.838 294.972C342.838 294.972 337.869 315.674 337.869 323.389C337.869 331.104 344.963 340.544 353.962 341.331C365.444 342.256 369.667 326.826 372.152 318.034C374.305 310.402 375.768 303.805 376.127 302.176C358.668 308.774 342.838 294.972 342.838 294.972Z" fill="white"/>
<g style="mix-blend-mode:multiply" opacity="0.5">
<path d="M376.14 302.121C374.404 302.784 372.605 303.27 370.771 303.57C369.957 308.829 367.459 321.76 361.732 329.71C356.874 336.459 351.67 338.902 348.717 339.785C350.362 340.605 352.145 341.11 353.975 341.275C365.458 342.2 369.681 326.77 372.165 317.979" fill="#4C70FF"/>
</g>
<path d="M342.838 294.972C342.838 294.972 337.869 315.674 337.869 323.389C337.869 331.104 344.963 340.544 353.962 341.331C365.444 342.256 369.667 326.826 372.152 318.034C374.305 310.402 375.768 303.805 376.127 302.176C358.668 308.774 342.838 294.972 342.838 294.972Z" stroke="#263238" stroke-miterlimit="10"/>
<path d="M352.306 309.629C351.674 311.881 350.681 314.016 349.366 315.95C347.572 318.2 343.735 316.171 344.867 317.523C345.492 318.316 346.275 318.97 347.166 319.445C348.056 319.92 349.036 320.205 350.042 320.284" stroke="#263238" stroke-linecap="round" stroke-linejoin="round"/>
<path d="M343.624 324.562C343.624 324.562 347.006 329.53 353.989 327.046" stroke="#263238" stroke-linecap="round" stroke-linejoin="round"/>
<path d="M349.021 308.028C348.814 309.257 348.096 310.168 347.42 310.043C346.744 309.919 346.357 308.843 346.564 307.614C346.771 306.386 347.489 305.489 348.165 305.599C348.841 305.71 349.228 306.8 349.021 308.028Z" fill="#263238"/>
<path d="M360.393 311.271C360.09 312.486 359.317 313.341 358.654 313.176C357.992 313.01 357.688 311.906 357.978 310.692C358.268 309.477 359.041 308.635 359.717 308.787C360.393 308.939 360.683 310.07 360.393 311.271Z" fill="#263238"/>
<path d="M344.397 301.955C344.397 301.955 346.205 297.677 351.615 300.161" stroke="#263238" stroke-linecap="round" stroke-linejoin="round"/>
<path d="M357.909 303.791C357.909 303.791 362.877 302.218 364.23 307.173" stroke="#263238" stroke-linecap="round" stroke-linejoin="round"/>
<path d="M157.017 384.626C188.977 384.626 214.886 358.717 214.886 326.757C214.886 294.797 188.977 268.888 157.017 268.888C125.057 268.888 99.1479 294.797 99.1479 326.757C99.1479 358.717 125.057 384.626 157.017 384.626Z" fill="#4C70FF" stroke="#263238" stroke-miterlimit="10"/>
<path opacity="0.3" d="M157.017 384.626C188.977 384.626 214.886 358.717 214.886 326.757C214.886 294.797 188.977 268.888 157.017 268.888C125.057 268.888 99.1479 294.797 99.1479 326.757C99.1479 358.717 125.057 384.626 157.017 384.626Z" fill="white" stroke="#263238" stroke-miterlimit="10"/>
<path d="M120.816 371.845C132.164 380.988 146.547 385.507 161.085 384.498C175.623 383.49 189.243 377.029 199.221 366.408C192.707 358.016 179.361 343.635 164.511 343.635C148.032 343.635 128.462 363.302 120.816 371.845Z" fill="white" stroke="#263238" stroke-miterlimit="10"/>
<path d="M150.613 339.357C150.613 339.357 140.8 340.475 139.958 348.052C139.116 355.629 144.996 368.243 145.561 369.637C146.127 371.031 158.742 358.431 163.503 358.431C168.265 358.431 180.603 365.152 180.603 365.152C180.603 365.152 176.683 349.446 169.672 343.553C162.661 337.66 152.559 337.108 150.613 339.357Z" fill="white" stroke="#263238" stroke-miterlimit="10"/>
<path opacity="0.5" d="M137.709 311.534C137.709 311.534 133.499 307.324 131.263 310.692C129.028 314.059 130.974 317.979 134.024 320.505C137.074 323.03 141.877 323.265 141.877 321.346C141.877 319.428 137.709 311.534 137.709 311.534Z" fill="#4C70FF" stroke="#263238" stroke-miterlimit="10"/>
<path d="M137.709 311.534C137.709 311.534 133.499 307.324 131.263 310.692C129.028 314.059 130.974 317.979 134.024 320.505C137.074 323.03 141.877 323.265 141.877 321.346C141.877 319.428 137.709 311.534 137.709 311.534Z" stroke="#263238" stroke-miterlimit="10"/>
<path d="M173.896 301.776C173.896 301.776 175.855 296.725 178.657 302.052C181.459 307.38 176.131 312.141 176.131 312.141L173.896 301.776Z" fill="white" stroke="#263238" stroke-miterlimit="10"/>
<path d="M141.918 321.402C141.918 321.402 147.521 341.593 148.929 348.604C150.337 355.615 156.782 365.718 161.544 362.406C166.305 359.093 166.043 352.869 163.227 347.542C161.374 343.859 159.872 340.01 158.742 336.045L141.918 321.402Z" fill="white"/>
<g style="mix-blend-mode:multiply" opacity="0.5">
<path d="M163.227 347.486C161.374 343.804 159.872 339.955 158.742 335.99L141.918 321.402C141.918 321.402 146.514 337.963 148.418 346.244C150.851 348.144 153.617 349.572 156.575 350.454C159.132 351.153 161.86 350.841 164.193 349.584C163.916 348.865 163.593 348.165 163.227 347.486Z" fill="#4C70FF"/>
</g>
<path d="M141.918 321.402C141.918 321.402 147.521 341.593 148.929 348.604C150.337 355.615 156.782 365.718 161.544 362.406C166.305 359.093 166.043 352.869 163.227 347.542C161.374 343.859 159.872 340.01 158.742 336.045L141.918 321.402Z" stroke="#263238" stroke-miterlimit="10"/>
<path d="M131.857 300.368C131.857 300.368 145.037 332.112 150.654 339.357C156.272 346.603 171.356 347.21 177.857 336.597C184.357 325.984 177.015 311.644 175.897 305.185C174.779 298.726 171.757 288.085 173.647 286.125C175.538 284.166 183.46 282.758 180.382 277.707C177.305 272.655 172.806 275.181 172.253 271.537C171.701 267.894 174.489 258.909 164.111 257.515C153.732 256.121 135.5 268.446 128.227 277.983C120.954 287.519 118.635 296.159 131.857 300.368Z" fill="#263238" stroke="#263238" stroke-miterlimit="10"/>
<path d="M135.997 290.832C135.997 290.832 127.358 290.183 131.691 281.875C136.025 273.566 164.939 262.374 165.298 268.515C165.656 274.657 159.156 276.465 159.156 276.465" stroke="white" stroke-width="0.75" stroke-linecap="round" stroke-linejoin="round"/>
<path d="M147.618 282.965C147.618 282.965 141.118 281.516 143.284 276.824C145.451 272.131 161.35 269.923 158.466 272.849C156.756 274.563 154.808 276.022 152.683 277.183" stroke="white" stroke-width="0.75" stroke-linecap="round" stroke-linejoin="round"/>
<path d="M168.555 319.442C168.555 319.442 163.793 327.005 156.217 323.361" stroke="white" stroke-width="0.75" stroke-linecap="round" stroke-linejoin="round"/>
<path d="M175.856 305.13C174.807 299.099 172.033 289.369 173.289 286.54C172.447 284.511 169.548 279.777 160.992 279.335C150.047 278.769 138.275 284.939 136.025 290.832C133.775 296.725 139.116 293.592 141.076 297.843C143.036 302.094 137.985 307.104 139.116 310.181C140.248 313.259 145.562 325.363 145.562 325.363C146.404 321.995 159.032 316.378 159.032 316.378C160.858 316.86 162.749 317.051 164.635 316.944C167.161 316.668 165.753 314.418 165.753 314.418L178.685 315.191C177.581 311.12 176.27 307.573 175.856 305.13Z" fill="white"/>
<g style="mix-blend-mode:multiply" opacity="0.5">
<path d="M145.99 293.081C145.465 287.561 141.849 286.471 139.448 286.374C137.957 287.562 136.774 289.091 135.998 290.832C133.762 296.725 139.089 293.592 141.049 297.843C143.009 302.094 137.957 307.104 139.089 310.181C140.221 313.259 145.534 325.363 145.534 325.363C145.81 324.286 147.273 322.975 149.15 321.705C146.39 317.772 143.023 312.983 141.118 310.209C137.53 304.895 146.804 301.638 145.99 293.081Z" fill="#4C70FF"/>
</g>
<path d="M175.856 305.13C174.807 299.099 172.033 289.369 173.289 286.54C172.447 284.511 169.548 279.777 160.992 279.335C150.047 278.769 138.275 284.939 136.025 290.832C133.775 296.725 139.116 293.592 141.076 297.843C143.036 302.094 137.985 307.104 139.116 310.181C140.248 313.259 145.562 325.363 145.562 325.363C146.404 321.995 159.032 316.378 159.032 316.378C160.858 316.86 162.749 317.051 164.635 316.944C167.161 316.668 165.753 314.418 165.753 314.418L178.685 315.191C177.581 311.12 176.27 307.573 175.856 305.13Z" stroke="#263238" stroke-miterlimit="10"/>
<path d="M152.09 303.777C152.449 305.337 152.09 306.759 151.386 306.924C150.682 307.09 149.743 305.958 149.398 304.385C149.053 302.811 149.398 301.404 150.102 301.238C150.806 301.072 151.745 302.204 152.09 303.777Z" fill="#263238"/>
<path d="M168.789 300.341C169.148 301.914 168.789 303.322 168.085 303.488C167.382 303.653 166.443 302.522 166.084 300.948C165.725 299.375 166.084 297.967 166.802 297.801C167.52 297.636 168.43 298.768 168.789 300.341Z" fill="#263238"/>
<path d="M145.561 296.435C145.561 296.435 146.679 290.266 153.138 292.792" stroke="#263238" stroke-linecap="round" stroke-linejoin="round"/>
<path d="M170.501 289.99C165.725 286.898 164.042 291.37 164.042 291.37C164.042 291.37 161.019 294.682 162.248 300.796" stroke="#263238" stroke-linecap="round" stroke-linejoin="round"/>
<path d="M146.403 312.983L154.532 309.629" stroke="#263238" stroke-width="0.5" stroke-linecap="round" stroke-linejoin="round"/>
<path d="M166.043 307.103L172.764 306.538" stroke="#263238" stroke-width="0.5" stroke-linecap="round" stroke-linejoin="round"/>
<path d="M371.994 202.819C403.067 195.342 422.196 164.091 414.719 133.018C407.241 101.944 375.99 82.8161 344.917 90.2933C313.844 97.7705 294.715 129.022 302.193 160.095C309.67 191.168 340.921 210.297 371.994 202.819Z" fill="#4C70FF" stroke="#263238" stroke-miterlimit="10"/>
<path opacity="0.3" d="M371.994 202.819C403.067 195.342 422.196 164.091 414.719 133.018C407.241 101.944 375.99 82.8161 344.917 90.2933C313.844 97.7705 294.715 129.022 302.193 160.095C309.67 191.168 340.921 210.297 371.994 202.819Z" fill="white" stroke="#263238" stroke-miterlimit="10"/>
<path d="M407.885 135.037C415.68 114.019 404.261 90.4005 382.378 82.2842C360.495 74.1678 336.436 84.6266 328.641 105.645C320.845 126.663 332.265 150.281 354.147 158.397C376.03 166.513 400.089 156.054 407.885 135.037Z" fill="#263238" stroke="#263238" stroke-miterlimit="10"/>
<path d="M407.58 112.298C409.493 119.136 409.369 126.383 407.221 133.151" stroke="white" stroke-width="0.75" stroke-linecap="round" stroke-linejoin="round"/>
<path d="M404.654 138.631C404.654 138.631 402.087 141.929 400.624 143.765" stroke="white" stroke-width="0.75" stroke-linecap="round" stroke-linejoin="round"/>
<path d="M344.646 94.7285C344.646 94.7285 338.794 101.629 342.451 110.103" stroke="white" stroke-width="0.75" stroke-linecap="round" stroke-linejoin="round"/>
<path d="M358.461 204.435C369.124 204.454 379.583 201.511 388.672 195.934C381.923 189.709 364.354 174.21 356.073 173.534C347.406 172.83 322.108 180.932 314.007 183.623C319.433 190.144 326.23 195.389 333.913 198.986C341.596 202.583 349.977 204.444 358.461 204.435Z" fill="white" stroke="#263238" stroke-miterlimit="10"/>
<path d="M367.004 180.835C367.238 180.145 367.445 179.455 367.666 178.889C363.222 175.935 359.04 173.782 356.073 173.534C352.47 173.497 348.877 173.909 345.377 174.762C343.845 178.903 343.445 183.043 342.203 190.096C340.519 199.632 343.045 202.434 350.056 198.791C357.067 195.147 364.202 189.24 367.004 180.835Z" fill="white" stroke="#263238" stroke-miterlimit="10"/>
<path d="M350.18 163.155C350.18 163.155 351.864 166.247 349.904 173.534C347.944 180.821 343.004 192.856 345.295 195.147C347.586 197.438 361.401 187.004 361.953 179.151C362.505 171.298 362.519 155.592 362.519 155.592L350.18 163.155Z" fill="white"/>
<g style="mix-blend-mode:multiply" opacity="0.5">
<path d="M350.829 167.876L359.689 174.776L359.013 185.817C360.584 183.9 361.6 181.59 361.953 179.138C362.519 171.285 362.519 155.579 362.519 155.579L350.18 163.142C350.78 164.643 351.003 166.268 350.829 167.876Z" fill="#4C70FF"/>
</g>
<path d="M350.18 163.155C350.18 163.155 351.864 166.247 349.904 173.534C347.944 180.821 343.004 192.856 345.295 195.147C347.586 197.438 361.401 187.004 361.953 179.151C362.505 171.298 362.519 155.592 362.519 155.592L350.18 163.155Z" stroke="#263238" stroke-miterlimit="10"/>
<path d="M336.117 128.666C336.117 128.666 334.157 123.615 331.631 127.286C329.106 130.957 332.183 135.415 333.591 135.415C334.999 135.415 336.117 128.666 336.117 128.666Z" fill="white" stroke="#263238" stroke-miterlimit="10"/>
<path d="M342.603 112.394C342.603 112.394 334.474 128.376 332.514 139.321C330.555 150.265 338.684 166.799 346.813 166.799C354.942 166.799 367.515 154.185 367.515 154.185C367.515 154.185 379.287 154.461 380.971 150.541C382.655 146.622 380.695 143.53 377.603 143.53H371.434C371.434 143.53 369.751 144.372 370.592 136.519C371.434 128.666 373.96 125.023 373.96 125.023C373.96 125.023 352.678 126.692 342.603 112.394Z" fill="white"/>
<g style="mix-blend-mode:multiply" opacity="0.5">
<path d="M364.161 149.12C362.455 153.459 359.649 157.279 356.019 160.204C352.389 163.13 348.061 165.06 343.459 165.806H343.376C344.437 166.425 345.639 166.763 346.867 166.785C354.996 166.785 367.569 154.171 367.569 154.171C367.569 154.171 379.342 154.447 381.026 150.527C382.71 146.608 380.75 143.516 377.658 143.516H371.489C371.489 143.516 369.805 144.358 370.647 136.505C371.489 128.652 374.015 125.009 374.015 125.009C374.015 125.009 372.635 125.105 370.357 125.009H370.261" fill="#4C70FF"/>
</g>
<path d="M342.603 112.394C342.603 112.394 334.474 128.376 332.514 139.321C330.555 150.265 338.684 166.799 346.813 166.799C354.942 166.799 367.515 154.185 367.515 154.185C367.515 154.185 379.287 154.461 380.971 150.541C382.655 146.622 380.695 143.53 377.603 143.53H371.434C371.434 143.53 369.751 144.372 370.592 136.519C371.434 128.666 373.96 125.023 373.96 125.023C373.96 125.023 352.678 126.692 342.603 112.394Z" stroke="#263238" stroke-miterlimit="10"/>
<path d="M344.094 130.281C343.763 131.744 343.072 132.834 342.562 132.723C342.051 132.613 341.913 131.343 342.244 129.853C342.576 128.362 343.266 127.3 343.776 127.41C344.287 127.52 344.397 128.804 344.094 130.281Z" fill="#263238"/>
<path d="M357.274 136.16C356.943 137.623 356.253 138.727 355.742 138.603C355.232 138.479 355.094 137.223 355.425 135.746C355.756 134.269 356.446 133.179 356.957 133.303C357.467 133.427 357.605 134.697 357.274 136.16Z" fill="#263238"/>
<path d="M346.247 133.993C346.247 133.993 340.077 138.479 340.919 139.597C343.222 141.577 346.051 142.843 349.062 143.24C351.588 143.24 351.022 140.163 351.022 140.163" stroke="#263238" stroke-linecap="round" stroke-linejoin="round"/>
<path d="M341.761 146.898C344.845 148.579 348.375 149.263 351.864 148.858C353.304 148.716 354.689 148.236 355.908 147.457C357.127 146.677 358.143 145.62 358.875 144.372" stroke="#263238" stroke-linecap="round" stroke-linejoin="round"/>
<path d="M342.327 123.615C342.327 123.615 344.011 119.971 347.379 124.181" stroke="#263238" stroke-linecap="round" stroke-linejoin="round"/>
<path d="M356.625 128.666C356.625 128.666 362.243 126.982 362.243 132.586" stroke="#263238" stroke-linecap="round" stroke-linejoin="round"/>
<path d="M166.411 203.673C197.947 198.486 219.308 168.716 214.121 137.179C208.934 105.643 179.164 84.2825 147.627 89.4694C116.091 94.6563 94.7303 124.426 99.9172 155.963C105.104 187.499 134.874 208.86 166.411 203.673Z" fill="#4C70FF" stroke="#263238" stroke-miterlimit="10"/>
<path opacity="0.3" d="M166.411 203.673C197.947 198.486 219.308 168.716 214.121 137.179C208.934 105.643 179.164 84.2825 147.627 89.4694C116.091 94.6563 94.7303 124.426 99.9172 155.963C105.104 187.499 134.874 208.86 166.411 203.673Z" fill="white" stroke="#263238" stroke-miterlimit="10"/>
<path d="M117.2 175.922C116.206 179.883 111.679 179.331 113.059 184.202C122.307 195.027 135.221 202.061 149.331 203.959C163.441 205.856 177.755 202.482 189.533 194.484C193.673 189.585 196.157 184.437 196.268 180.297C196.64 167.655 183.281 158.214 182.563 152.128C181.845 146.042 187.614 132.282 187.614 132.282C187.614 132.282 197.717 130.833 201.333 121.82C204.949 112.808 191.203 92.5339 178.919 86.3923C166.636 80.2507 146.072 85.6746 135.97 100.47C125.867 115.265 138.136 128.266 131.636 135.125C125.136 141.984 108.174 142.343 106.366 156.061C104.558 169.78 118.276 171.588 117.2 175.922Z" fill="#263238" stroke="#263238" stroke-miterlimit="10"/>
<path d="M178.961 100.152C178.961 100.152 182.618 109.109 168.375 114.395C154.132 119.681 143.146 116.838 139.475 126.195C135.804 135.553 138.661 142.081 139.075 146.898C139.489 151.714 128.034 150.955 121.133 157.069C114.232 163.183 128.034 170.498 131.719 174.569C135.404 178.641 134.562 184.741 128.047 186.783" stroke="white" stroke-width="0.75" stroke-linecap="round" stroke-linejoin="round"/>
<path d="M135.818 118.881C135.818 118.881 141.103 105.852 149.246 103.809C157.389 101.767 166.346 107.881 172.446 102.181C178.546 96.481 177.332 92.4234 172.847 89.1663" stroke="white" stroke-width="0.75" stroke-linecap="round" stroke-linejoin="round"/>
<path d="M185.061 105.438C185.061 105.438 199.318 114.809 194.432 122.138C189.546 129.466 187.918 120.509 187.918 120.509" stroke="white" stroke-width="0.75" stroke-linecap="round" stroke-linejoin="round"/>
<path d="M125.632 195.174C136.443 202.161 149.275 205.341 162.097 204.211C174.919 203.081 186.998 197.706 196.419 188.936C192.159 185.022 187.64 181.398 182.894 178.088C173.868 171.947 166.65 169.808 161.599 170.139C161.599 170.139 157.624 171.947 150.047 179.165C145.106 183.871 133.237 190.868 125.632 195.174Z" fill="white" stroke="#263238" stroke-miterlimit="10"/>
<path d="M174.945 180.062C174.949 177.661 174.605 175.271 173.923 172.968C170.101 171.058 165.871 170.11 161.599 170.208C161.599 170.208 158.438 171.588 152.407 177.109C152.28 178.13 152.215 179.158 152.214 180.186C152.214 189.668 157.293 197.341 163.572 197.341C169.852 197.341 174.945 189.544 174.945 180.062Z" fill="white" stroke="#263238" stroke-miterlimit="10"/>
<path d="M158.701 151.728C158.701 151.728 158.701 161.844 157.624 171.229C156.548 180.614 157.983 190.717 164.842 191.434C171.701 192.152 170.611 175.922 169.893 169.421C169.468 165.343 169.468 161.231 169.893 157.152L158.701 151.728Z" fill="white"/>
<g style="mix-blend-mode:multiply" opacity="0.5">
<path d="M157.417 173.41L169.604 161.596C169.604 161.223 169.604 160.865 169.604 160.533L167.119 155.91L158.659 151.77C158.659 151.77 158.659 161.886 157.583 171.271C157.541 171.947 157.472 172.679 157.417 173.41Z" fill="#4C70FF"/>
</g>
<path d="M158.701 151.728C158.701 151.728 158.701 161.844 157.624 171.229C156.548 180.614 157.983 190.717 164.842 191.434C171.701 192.152 170.611 175.922 169.893 169.421C169.468 165.343 169.468 161.231 169.893 157.152L158.701 151.728Z" stroke="#263238" stroke-miterlimit="10"/>
<path d="M183.253 106.611C183.253 106.611 183.971 111.304 171.701 117.087C159.432 122.869 153.29 127.548 152.214 132.958C151.137 138.368 150.765 140.549 150.765 140.549C150.765 140.549 148.239 135.484 143.547 138.009C138.854 140.535 143.188 150.293 147.521 150.651C151.855 151.01 152.932 149.561 152.932 149.561C152.932 149.561 167.009 163.638 175.304 163.638C183.598 163.638 186.855 155.703 188.663 141.556C190.416 127.976 183.253 106.611 183.253 106.611Z" fill="white"/>
<g style="mix-blend-mode:multiply" opacity="0.5">
<path d="M156.161 135.567C156.599 131.02 158.216 126.667 160.854 122.938C155.706 126.306 152.904 129.48 152.214 132.958C151.124 138.382 150.765 140.549 150.765 140.549C150.765 140.549 148.239 135.484 143.547 138.01C138.854 140.535 143.188 150.293 147.521 150.652C151.855 151.01 152.932 149.561 152.932 149.561C152.932 149.561 167.009 163.639 175.304 163.639C172.841 162.415 170.526 160.915 168.403 159.167C163.49 155.579 155.761 144.538 156.161 135.567Z" fill="#4C70FF"/>
</g>
<path d="M183.253 106.611C183.253 106.611 183.971 111.304 171.701 117.087C159.432 122.869 153.29 127.548 152.214 132.958C151.137 138.368 150.765 140.549 150.765 140.549C150.765 140.549 148.239 135.484 143.547 138.009C138.854 140.535 143.188 150.293 147.521 150.651C151.855 151.01 152.932 149.561 152.932 149.561C152.932 149.561 167.009 163.638 175.304 163.638C183.598 163.638 186.855 155.703 188.663 141.556C190.416 127.976 183.253 106.611 183.253 106.611Z" stroke="#263238" stroke-miterlimit="10"/>
<path d="M180.755 128.514C180.345 129.633 180.175 130.825 180.256 132.014C180.337 133.203 180.667 134.361 181.224 135.415C183.115 138.962 184.067 140.135 183.363 141.087C183.161 141.414 182.897 141.699 182.585 141.924C182.273 142.149 181.92 142.31 181.546 142.399C181.171 142.487 180.783 142.501 180.404 142.439C180.024 142.378 179.66 142.242 179.333 142.039" stroke="#263238" stroke-linecap="round" stroke-linejoin="round"/>
<path d="M179.333 150.527C179.333 150.527 172.433 153.136 170.1 148.153" stroke="#263238" stroke-linecap="round" stroke-linejoin="round"/>
<path d="M172.474 133.841C172.474 135.346 172.046 136.602 171.522 136.602C170.998 136.602 170.583 135.387 170.583 133.841C170.583 132.296 170.998 131.081 171.522 131.081C172.046 131.081 172.474 132.337 172.474 133.841Z" fill="#263238"/>
<path d="M184.067 133.483C184.593 133.483 185.019 132.265 185.019 130.764C185.019 129.262 184.593 128.045 184.067 128.045C183.541 128.045 183.115 129.262 183.115 130.764C183.115 132.265 183.541 133.483 184.067 133.483Z" fill="#263238"/>
<path d="M165.615 125.919C165.615 125.919 166.995 122.124 172.709 122.842" stroke="#263238" stroke-linecap="round" stroke-linejoin="round"/>
<path d="M180.99 122.124C180.99 122.124 182.646 118.108 186.193 121.42" stroke="#263238" stroke-linecap="round" stroke-linejoin="round"/>
<g clip-path="url(#clip0)">
<path opacity="0.65" d="M278.144 156.143C285.955 148.332 285.955 135.667 278.144 127.856C270.333 120.045 257.669 120.045 249.858 127.856C242.047 135.667 242.047 148.332 249.858 156.143C257.669 163.954 270.333 163.954 278.144 156.143Z" fill="url(#paint0_radial)"/>
<path d="M275.673 153.672C282.12 147.226 282.12 136.773 275.673 130.327C269.227 123.88 258.775 123.88 252.328 130.327C245.881 136.773 245.881 147.226 252.328 153.672C258.775 160.119 269.227 160.119 275.673 153.672Z" fill="url(#paint1_radial)"/>
<path d="M264.535 155.043C271.737 155.043 277.576 149.204 277.576 142.001C277.576 134.799 271.737 128.96 264.535 128.96C257.332 128.96 251.493 134.799 251.493 142.001C251.493 149.204 257.332 155.043 264.535 155.043Z" fill="url(#paint2_linear)"/>
<path d="M263.468 155.043C270.67 155.043 276.509 149.204 276.509 142.001C276.509 134.799 270.67 128.96 263.468 128.96C256.265 128.96 250.427 134.799 250.427 142.001C250.427 149.204 256.265 155.043 263.468 155.043Z" fill="url(#paint3_linear)"/>
<path d="M263.468 152.977C269.53 152.977 274.444 148.063 274.444 142.001C274.444 135.939 269.53 131.025 263.468 131.025C257.406 131.025 252.492 135.939 252.492 142.001C252.492 148.063 257.406 152.977 263.468 152.977Z" fill="url(#paint4_linear)"/>
<path d="M263.468 152.977C269.53 152.977 274.444 148.063 274.444 142.001C274.444 135.939 269.53 131.025 263.468 131.025C257.406 131.025 252.492 135.939 252.492 142.001C252.492 148.063 257.406 152.977 263.468 152.977Z" stroke="#FCA57E" stroke-width="4" stroke-miterlimit="10"/>
<path d="M266.894 136.418C267.061 136.42 267.225 136.373 267.365 136.281C267.506 136.19 267.615 136.058 267.681 135.904C267.746 135.75 267.764 135.58 267.733 135.416C267.701 135.251 267.622 135.1 267.504 134.981C267.386 134.862 267.236 134.781 267.071 134.748C266.907 134.715 266.737 134.731 266.582 134.795C266.428 134.859 266.296 134.968 266.203 135.107C266.11 135.246 266.061 135.41 266.061 135.577C266.06 135.799 266.148 136.012 266.304 136.17C266.46 136.327 266.672 136.417 266.894 136.418ZM267.139 138.611C267.232 138.61 267.324 138.591 267.409 138.555C267.495 138.519 267.573 138.466 267.638 138.399C267.703 138.333 267.755 138.254 267.79 138.168C267.824 138.081 267.842 137.989 267.841 137.896C267.838 137.757 267.795 137.621 267.716 137.507C267.637 137.392 267.526 137.304 267.397 137.252C267.268 137.2 267.127 137.188 266.991 137.217C266.855 137.245 266.73 137.314 266.633 137.413C266.535 137.512 266.47 137.638 266.444 137.775C266.418 137.911 266.433 138.052 266.487 138.18C266.541 138.309 266.631 138.418 266.747 138.494C266.863 138.571 266.999 138.612 267.139 138.611ZM269.07 138.883C269.212 138.885 269.351 138.845 269.47 138.768C269.588 138.691 269.681 138.58 269.737 138.45C269.793 138.32 269.808 138.176 269.782 138.037C269.755 137.898 269.688 137.77 269.588 137.669C269.489 137.569 269.361 137.5 269.223 137.472C269.084 137.444 268.94 137.457 268.809 137.512C268.678 137.566 268.566 137.657 268.488 137.775C268.409 137.893 268.368 138.032 268.368 138.173C268.368 138.266 268.385 138.358 268.42 138.444C268.455 138.53 268.507 138.608 268.572 138.674C268.637 138.74 268.715 138.792 268.8 138.828C268.886 138.864 268.978 138.883 269.07 138.883ZM268.836 140.761C268.957 140.763 269.076 140.729 269.178 140.663C269.28 140.598 269.359 140.503 269.407 140.392C269.455 140.281 269.469 140.158 269.446 140.039C269.424 139.92 269.367 139.811 269.282 139.724C269.197 139.638 269.089 139.579 268.97 139.554C268.852 139.53 268.729 139.541 268.617 139.587C268.505 139.633 268.409 139.711 268.341 139.811C268.274 139.912 268.238 140.03 268.238 140.151C268.236 140.31 268.296 140.464 268.406 140.579C268.516 140.694 268.666 140.761 268.825 140.766L268.836 140.761ZM270.385 141.367C270.506 141.369 270.625 141.335 270.727 141.268C270.829 141.202 270.908 141.107 270.956 140.995C271.004 140.883 271.017 140.76 270.994 140.641C270.971 140.522 270.914 140.412 270.829 140.325C270.743 140.239 270.634 140.18 270.515 140.155C270.396 140.131 270.273 140.143 270.16 140.189C270.048 140.235 269.952 140.313 269.884 140.414C269.817 140.515 269.781 140.634 269.781 140.755C269.778 140.916 269.838 141.071 269.95 141.187C270.061 141.302 270.213 141.369 270.374 141.373L270.385 141.367ZM266.894 140.516C266.975 140.516 267.055 140.5 267.13 140.468C267.205 140.437 267.273 140.391 267.33 140.334C267.388 140.276 267.433 140.208 267.463 140.132C267.494 140.057 267.509 139.977 267.509 139.895C267.507 139.774 267.471 139.656 267.402 139.555C267.334 139.455 267.238 139.377 267.125 139.331C267.013 139.285 266.889 139.274 266.77 139.298C266.651 139.323 266.542 139.382 266.457 139.468C266.371 139.554 266.313 139.664 266.29 139.783C266.267 139.902 266.279 140.025 266.326 140.137C266.373 140.249 266.452 140.345 266.553 140.413C266.654 140.48 266.772 140.516 266.894 140.516ZM266.349 142.01C266.488 142.01 266.621 141.955 266.719 141.857C266.817 141.759 266.872 141.626 266.872 141.487C266.872 141.349 266.817 141.216 266.719 141.118C266.621 141.02 266.488 140.965 266.349 140.965C266.211 140.965 266.078 141.02 265.98 141.118C265.882 141.216 265.827 141.349 265.827 141.487C265.827 141.626 265.882 141.759 265.98 141.857C266.078 141.955 266.211 142.01 266.349 142.01ZM268.284 142.282C268.352 142.281 268.419 142.268 268.481 142.241C268.544 142.215 268.6 142.176 268.648 142.128C268.695 142.08 268.733 142.023 268.758 141.96C268.784 141.897 268.796 141.83 268.796 141.762C268.794 141.661 268.763 141.564 268.706 141.481C268.649 141.398 268.569 141.333 268.475 141.296C268.382 141.258 268.28 141.249 268.181 141.269C268.083 141.289 267.992 141.338 267.921 141.409C267.851 141.481 267.802 141.571 267.782 141.67C267.763 141.769 267.773 141.871 267.811 141.964C267.849 142.057 267.914 142.137 267.997 142.193C268.08 142.25 268.178 142.281 268.279 142.282H268.284ZM269.827 142.886C269.931 142.887 270.034 142.858 270.121 142.801C270.208 142.744 270.277 142.663 270.318 142.567C270.359 142.471 270.37 142.365 270.351 142.262C270.331 142.16 270.282 142.065 270.208 141.991C270.135 141.917 270.041 141.866 269.939 141.846C269.836 141.825 269.73 141.836 269.634 141.875C269.538 141.915 269.455 141.983 269.398 142.07C269.34 142.157 269.309 142.259 269.31 142.363C269.309 142.432 269.322 142.499 269.348 142.563C269.373 142.626 269.411 142.684 269.459 142.732C269.507 142.781 269.565 142.819 269.628 142.846C269.691 142.872 269.758 142.886 269.827 142.886ZM269.065 144.018C269.152 144.019 269.238 143.994 269.311 143.946C269.384 143.898 269.442 143.83 269.476 143.749C269.51 143.669 269.52 143.58 269.503 143.494C269.487 143.408 269.445 143.329 269.384 143.267C269.323 143.205 269.244 143.162 269.158 143.145C269.073 143.127 268.984 143.136 268.903 143.169C268.822 143.202 268.753 143.259 268.704 143.331C268.656 143.404 268.63 143.489 268.63 143.577C268.633 143.686 268.677 143.791 268.752 143.87C268.828 143.949 268.931 143.997 269.04 144.004L269.065 144.018ZM267.514 143.422C267.604 143.423 267.692 143.398 267.767 143.35C267.842 143.301 267.902 143.231 267.937 143.149C267.973 143.066 267.983 142.975 267.966 142.887C267.95 142.799 267.907 142.718 267.844 142.654C267.782 142.59 267.701 142.546 267.613 142.528C267.526 142.51 267.434 142.518 267.351 142.552C267.268 142.586 267.197 142.644 267.147 142.718C267.097 142.793 267.071 142.88 267.071 142.97C267.073 143.082 267.117 143.189 267.195 143.27C267.272 143.352 267.378 143.401 267.49 143.408L267.514 143.422ZM265.582 143.15C265.701 143.15 265.815 143.102 265.9 143.018C265.984 142.934 266.031 142.82 266.031 142.701C266.031 142.582 265.984 142.467 265.9 142.383C265.815 142.299 265.701 142.252 265.582 142.252C265.463 142.252 265.349 142.299 265.265 142.383C265.181 142.467 265.133 142.582 265.133 142.701C265.133 142.82 265.181 142.934 265.265 143.018C265.349 143.102 265.463 143.15 265.582 143.15ZM266.671 144.211C266.768 144.203 266.858 144.158 266.924 144.086C266.99 144.015 267.027 143.921 267.027 143.823C267.027 143.725 266.99 143.631 266.924 143.56C266.858 143.488 266.768 143.443 266.671 143.435C266.62 143.436 266.57 143.446 266.523 143.466C266.476 143.485 266.434 143.514 266.398 143.55C266.362 143.587 266.334 143.629 266.315 143.676C266.296 143.723 266.287 143.774 266.287 143.824C266.286 143.875 266.295 143.925 266.314 143.972C266.333 144.019 266.361 144.061 266.397 144.097C266.432 144.133 266.474 144.162 266.521 144.181C266.567 144.201 266.617 144.211 266.668 144.211H266.671ZM268.219 144.818C268.317 144.809 268.409 144.764 268.476 144.692C268.543 144.619 268.581 144.523 268.581 144.424C268.581 144.325 268.543 144.23 268.476 144.157C268.409 144.084 268.317 144.039 268.219 144.031C268.12 144.039 268.028 144.084 267.961 144.157C267.894 144.23 267.857 144.325 267.857 144.424C267.857 144.523 267.894 144.619 267.961 144.692C268.028 144.764 268.12 144.809 268.219 144.818ZM267.348 145.272C267.41 145.272 267.47 145.255 267.521 145.221C267.572 145.187 267.613 145.139 267.637 145.082C267.66 145.026 267.667 144.963 267.655 144.903C267.644 144.843 267.614 144.787 267.571 144.743C267.528 144.7 267.473 144.67 267.412 144.658C267.352 144.646 267.29 144.652 267.233 144.675C267.176 144.698 267.127 144.738 267.093 144.789C267.059 144.84 267.041 144.9 267.041 144.962C267.043 145.035 267.072 145.104 267.121 145.158C267.171 145.212 267.237 145.247 267.31 145.256L267.348 145.272ZM266.532 145.517C266.604 145.517 266.673 145.488 266.724 145.437C266.775 145.386 266.804 145.317 266.804 145.245C266.804 145.173 266.775 145.103 266.724 145.052C266.673 145.001 266.604 144.973 266.532 144.973C266.46 144.973 266.39 145.001 266.339 145.052C266.288 145.103 266.26 145.173 266.26 145.245C266.26 145.317 266.288 145.386 266.339 145.437C266.39 145.488 266.46 145.517 266.532 145.517ZM265.808 144.701C265.874 144.702 265.94 144.683 265.995 144.647C266.051 144.611 266.095 144.559 266.121 144.498C266.147 144.437 266.155 144.369 266.142 144.304C266.13 144.239 266.099 144.179 266.052 144.131C266.005 144.084 265.946 144.051 265.881 144.038C265.816 144.025 265.748 144.031 265.687 144.056C265.625 144.081 265.573 144.124 265.536 144.179C265.499 144.235 265.479 144.299 265.479 144.366C265.48 144.445 265.508 144.52 265.559 144.58C265.611 144.64 265.681 144.68 265.759 144.692L265.808 144.701ZM264.744 143.933C264.821 143.934 264.897 143.912 264.962 143.87C265.026 143.828 265.077 143.768 265.107 143.697C265.138 143.626 265.146 143.547 265.132 143.472C265.117 143.396 265.081 143.326 265.027 143.271C264.972 143.216 264.903 143.178 264.828 143.163C264.752 143.148 264.673 143.155 264.602 143.184C264.531 143.213 264.469 143.263 264.426 143.327C264.383 143.392 264.36 143.467 264.36 143.544C264.361 143.637 264.395 143.727 264.457 143.797C264.518 143.867 264.603 143.913 264.695 143.925L264.744 143.933ZM267.895 148.804C268.062 148.809 268.227 148.763 268.369 148.674C268.51 148.584 268.622 148.455 268.689 148.301C268.757 148.148 268.777 147.978 268.747 147.813C268.717 147.649 268.639 147.497 268.522 147.377C268.405 147.257 268.255 147.174 268.091 147.14C267.927 147.106 267.757 147.122 267.602 147.185C267.447 147.248 267.314 147.356 267.221 147.495C267.128 147.634 267.078 147.798 267.079 147.966C267.077 148.185 267.162 148.395 267.315 148.552C267.468 148.709 267.676 148.799 267.895 148.804ZM265.794 147.742C265.933 147.745 266.069 147.705 266.186 147.63C266.302 147.554 266.394 147.446 266.448 147.318C266.503 147.191 266.518 147.05 266.492 146.914C266.467 146.777 266.401 146.652 266.304 146.553C266.206 146.454 266.082 146.386 265.946 146.358C265.81 146.33 265.669 146.344 265.54 146.396C265.412 146.449 265.302 146.538 265.225 146.654C265.147 146.769 265.106 146.904 265.106 147.043C265.107 147.218 265.173 147.385 265.291 147.513C265.41 147.641 265.572 147.72 265.745 147.734L265.794 147.742ZM264.597 149.28C264.738 149.282 264.875 149.242 264.993 149.166C265.111 149.089 265.203 148.98 265.258 148.851C265.314 148.722 265.329 148.579 265.303 148.441C265.277 148.303 265.211 148.176 265.112 148.076C265.014 147.976 264.888 147.908 264.75 147.879C264.613 147.851 264.47 147.865 264.34 147.918C264.21 147.971 264.099 148.062 264.021 148.178C263.942 148.295 263.901 148.432 263.901 148.572C263.9 148.665 263.917 148.756 263.951 148.842C263.986 148.927 264.037 149.005 264.102 149.071C264.166 149.137 264.243 149.189 264.329 149.225C264.414 149.261 264.505 149.279 264.597 149.28ZM264.235 146.447C264.315 146.447 264.394 146.43 264.467 146.399C264.54 146.368 264.607 146.323 264.663 146.266C264.719 146.209 264.763 146.142 264.793 146.068C264.822 145.994 264.837 145.915 264.837 145.835C264.837 145.756 264.822 145.677 264.792 145.603C264.763 145.529 264.718 145.462 264.663 145.405C264.607 145.349 264.54 145.304 264.467 145.273C264.394 145.242 264.315 145.226 264.235 145.226C264.156 145.226 264.077 145.242 264.003 145.273C263.93 145.304 263.863 145.349 263.807 145.405C263.751 145.462 263.707 145.529 263.676 145.603C263.646 145.676 263.631 145.755 263.631 145.835C263.631 145.996 263.695 146.151 263.808 146.265C263.921 146.38 264.074 146.445 264.235 146.447ZM263.038 148.004C263.159 148.005 263.278 147.971 263.379 147.905C263.481 147.839 263.56 147.744 263.607 147.633C263.655 147.521 263.668 147.398 263.645 147.279C263.622 147.161 263.564 147.051 263.479 146.965C263.394 146.879 263.285 146.821 263.167 146.797C263.048 146.773 262.925 146.785 262.813 146.831C262.701 146.877 262.606 146.956 262.539 147.057C262.472 147.158 262.436 147.276 262.437 147.397C262.436 147.476 262.452 147.555 262.482 147.628C262.512 147.702 262.556 147.769 262.612 147.825C262.668 147.881 262.734 147.926 262.807 147.957C262.88 147.987 262.959 148.003 263.038 148.004ZM261.748 149.062C261.869 149.064 261.987 149.03 262.088 148.964C262.189 148.898 262.268 148.804 262.315 148.693C262.362 148.583 262.375 148.46 262.353 148.342C262.33 148.224 262.273 148.115 262.189 148.029C262.104 147.944 261.996 147.885 261.878 147.861C261.76 147.837 261.638 147.848 261.526 147.894C261.415 147.94 261.32 148.017 261.253 148.117C261.186 148.217 261.15 148.335 261.15 148.455C261.149 148.535 261.164 148.613 261.194 148.687C261.223 148.76 261.267 148.827 261.323 148.883C261.379 148.94 261.445 148.984 261.518 149.015C261.591 149.046 261.669 149.062 261.748 149.062ZM260.66 147.685C260.763 147.687 260.864 147.658 260.95 147.602C261.037 147.545 261.104 147.465 261.144 147.37C261.184 147.275 261.195 147.171 261.176 147.07C261.156 146.969 261.106 146.876 261.034 146.803C260.961 146.73 260.868 146.681 260.767 146.661C260.666 146.641 260.561 146.652 260.467 146.692C260.372 146.733 260.291 146.8 260.235 146.886C260.179 146.973 260.15 147.074 260.151 147.177C260.154 147.306 260.206 147.429 260.296 147.521C260.385 147.614 260.507 147.67 260.636 147.677L260.66 147.685ZM261.952 146.624C262.083 146.615 262.206 146.556 262.295 146.46C262.385 146.364 262.435 146.237 262.435 146.106C262.435 145.975 262.385 145.848 262.295 145.752C262.206 145.656 262.083 145.597 261.952 145.588C261.822 145.597 261.699 145.656 261.61 145.752C261.52 145.848 261.47 145.975 261.47 146.106C261.47 146.237 261.52 146.364 261.61 146.46C261.699 146.556 261.822 146.615 261.952 146.624ZM263.158 145.065C263.225 145.065 263.292 145.052 263.355 145.026C263.417 145 263.474 144.961 263.521 144.913C263.569 144.865 263.607 144.808 263.632 144.746C263.657 144.683 263.67 144.616 263.669 144.548C263.669 144.412 263.615 144.282 263.52 144.186C263.424 144.091 263.294 144.037 263.158 144.037C263.022 144.037 262.892 144.091 262.796 144.186C262.7 144.282 262.646 144.412 262.646 144.548C262.647 144.677 262.697 144.801 262.785 144.896C262.873 144.99 262.994 145.047 263.122 145.057L263.158 145.065ZM261.313 145.28C261.403 145.282 261.491 145.257 261.566 145.208C261.642 145.159 261.701 145.089 261.736 145.006C261.772 144.924 261.782 144.833 261.765 144.744C261.748 144.656 261.706 144.575 261.643 144.511C261.579 144.447 261.499 144.404 261.411 144.386C261.323 144.368 261.231 144.377 261.148 144.411C261.065 144.446 260.995 144.504 260.945 144.579C260.895 144.653 260.869 144.741 260.87 144.831C260.871 144.942 260.913 145.049 260.988 145.13C261.064 145.212 261.167 145.262 261.278 145.272L261.313 145.28ZM260.029 146.339C260.146 146.338 260.258 146.291 260.341 146.208C260.423 146.125 260.47 146.012 260.47 145.895C260.47 145.778 260.425 145.665 260.343 145.582C260.261 145.498 260.149 145.45 260.032 145.449C259.914 145.45 259.802 145.498 259.72 145.581C259.637 145.665 259.591 145.778 259.591 145.895C259.591 146.012 259.637 146.125 259.72 146.209C259.802 146.292 259.914 146.34 260.032 146.341L260.029 146.339ZM259.732 145.098C259.808 145.099 259.883 145.077 259.947 145.036C260.011 144.994 260.061 144.935 260.091 144.865C260.12 144.795 260.129 144.717 260.115 144.643C260.1 144.568 260.064 144.499 260.011 144.445C259.957 144.391 259.889 144.354 259.815 144.338C259.74 144.323 259.663 144.33 259.592 144.359C259.522 144.388 259.461 144.437 259.419 144.5C259.377 144.564 259.354 144.638 259.354 144.714C259.355 144.808 259.391 144.898 259.454 144.967C259.517 145.036 259.604 145.08 259.697 145.09L259.732 145.098ZM259.732 144.009C259.776 144.009 259.818 144.001 259.858 143.984C259.898 143.967 259.935 143.943 259.965 143.912C259.995 143.881 260.019 143.844 260.035 143.804C260.052 143.764 260.059 143.721 260.059 143.677C260.059 143.591 260.024 143.507 259.963 143.446C259.902 143.384 259.819 143.349 259.732 143.348C259.65 143.356 259.573 143.394 259.517 143.455C259.461 143.516 259.43 143.596 259.43 143.679C259.43 143.762 259.461 143.842 259.517 143.903C259.573 143.964 259.65 144.002 259.732 144.009ZM259.912 143.106C259.966 143.106 260.018 143.09 260.063 143.06C260.108 143.03 260.143 142.988 260.163 142.938C260.184 142.888 260.189 142.834 260.179 142.781C260.168 142.728 260.142 142.68 260.104 142.642C260.066 142.604 260.018 142.578 259.965 142.567C259.912 142.557 259.857 142.562 259.808 142.583C259.758 142.603 259.715 142.638 259.686 142.683C259.656 142.728 259.64 142.78 259.64 142.834C259.641 142.897 259.664 142.958 259.705 143.007C259.746 143.055 259.803 143.087 259.866 143.098L259.912 143.106ZM261.022 142.954C261.085 142.944 261.143 142.916 261.191 142.875C261.239 142.833 261.273 142.778 261.291 142.717C261.309 142.656 261.309 142.592 261.292 142.531C261.274 142.47 261.24 142.415 261.192 142.373C261.145 142.331 261.086 142.303 261.024 142.293C260.961 142.283 260.897 142.29 260.838 142.315C260.78 142.34 260.73 142.381 260.694 142.434C260.658 142.486 260.638 142.547 260.636 142.611C260.636 142.655 260.644 142.699 260.662 142.74C260.679 142.781 260.704 142.818 260.736 142.849C260.767 142.881 260.805 142.905 260.846 142.922C260.887 142.938 260.931 142.946 260.976 142.946L261.022 142.954ZM262.238 142.48C262.34 142.479 262.438 142.437 262.51 142.364C262.582 142.292 262.622 142.193 262.622 142.091C262.623 141.989 262.583 141.891 262.512 141.818C262.44 141.745 262.343 141.704 262.241 141.702C262.138 141.702 262.039 141.743 261.966 141.816C261.893 141.889 261.852 141.988 261.852 142.091C261.852 142.194 261.893 142.293 261.966 142.366C262.039 142.439 262.138 142.48 262.241 142.48H262.238ZM262.527 143.713C262.613 143.712 262.696 143.686 262.768 143.638C262.839 143.59 262.894 143.522 262.927 143.442C262.959 143.363 262.968 143.275 262.951 143.191C262.933 143.107 262.892 143.029 262.831 142.969C262.77 142.908 262.692 142.867 262.608 142.85C262.523 142.834 262.436 142.843 262.357 142.876C262.277 142.909 262.209 142.964 262.162 143.036C262.114 143.107 262.089 143.192 262.089 143.277C262.089 143.335 262.1 143.392 262.122 143.445C262.144 143.498 262.176 143.546 262.217 143.586C262.258 143.627 262.306 143.659 262.359 143.68C262.412 143.702 262.469 143.713 262.527 143.713ZM261.036 144.042C261.112 144.044 261.188 144.022 261.252 143.981C261.317 143.94 261.367 143.88 261.398 143.81C261.429 143.74 261.438 143.662 261.424 143.586C261.41 143.511 261.374 143.441 261.321 143.386C261.267 143.332 261.199 143.294 261.124 143.278C261.049 143.262 260.971 143.269 260.9 143.297C260.829 143.326 260.768 143.375 260.724 143.438C260.681 143.502 260.658 143.576 260.657 143.653C260.656 143.703 260.665 143.753 260.683 143.8C260.702 143.846 260.729 143.889 260.764 143.925C260.799 143.961 260.841 143.989 260.887 144.009C260.933 144.029 260.983 144.039 261.033 144.039L261.036 144.042ZM256.832 143.468C256.998 143.472 257.161 143.426 257.301 143.336C257.441 143.247 257.551 143.118 257.617 142.965C257.683 142.813 257.702 142.644 257.672 142.481C257.642 142.317 257.564 142.167 257.447 142.048C257.331 141.929 257.182 141.848 257.019 141.815C256.857 141.781 256.687 141.797 256.534 141.86C256.38 141.923 256.249 142.031 256.156 142.169C256.064 142.307 256.015 142.469 256.015 142.635C256.013 142.744 256.033 142.852 256.073 142.953C256.113 143.054 256.173 143.146 256.249 143.223C256.325 143.301 256.415 143.362 256.516 143.404C256.616 143.446 256.723 143.468 256.832 143.468ZM258.701 141.977C258.844 141.98 258.984 141.94 259.104 141.863C259.224 141.785 259.318 141.674 259.374 141.543C259.431 141.412 259.447 141.267 259.421 141.127C259.395 140.987 259.327 140.857 259.227 140.756C259.127 140.654 259 140.584 258.86 140.555C258.72 140.526 258.575 140.54 258.443 140.594C258.311 140.648 258.198 140.74 258.118 140.858C258.039 140.977 257.996 141.116 257.996 141.259C257.996 141.352 258.013 141.444 258.048 141.531C258.083 141.617 258.135 141.696 258.2 141.762C258.266 141.829 258.344 141.882 258.43 141.918C258.516 141.954 258.608 141.973 258.701 141.974V141.977ZM257.915 140.132C258.056 140.134 258.195 140.094 258.313 140.017C258.432 139.941 258.525 139.83 258.581 139.7C258.636 139.57 258.652 139.427 258.626 139.288C258.6 139.149 258.533 139.021 258.434 138.92C258.335 138.819 258.209 138.75 258.07 138.721C257.932 138.693 257.788 138.706 257.657 138.759C257.526 138.812 257.414 138.903 257.335 139.02C257.256 139.137 257.213 139.275 257.213 139.417C257.211 139.604 257.284 139.784 257.415 139.917C257.546 140.051 257.725 140.127 257.912 140.129L257.915 140.132ZM259.719 139.259C259.84 139.26 259.959 139.226 260.061 139.159C260.163 139.093 260.243 138.998 260.29 138.886C260.338 138.774 260.351 138.651 260.328 138.531C260.305 138.412 260.247 138.302 260.162 138.216C260.076 138.129 259.967 138.07 259.848 138.046C259.728 138.022 259.605 138.034 259.493 138.081C259.38 138.127 259.284 138.206 259.217 138.308C259.15 138.409 259.114 138.528 259.115 138.649C259.114 138.729 259.129 138.808 259.159 138.882C259.189 138.956 259.233 139.023 259.29 139.08C259.346 139.137 259.413 139.182 259.486 139.212C259.56 139.243 259.639 139.259 259.719 139.259ZM260.456 141.095C260.578 141.097 260.698 141.063 260.801 140.997C260.903 140.931 260.984 140.836 261.032 140.723C261.08 140.611 261.094 140.487 261.071 140.367C261.049 140.247 260.991 140.137 260.906 140.05C260.82 139.962 260.71 139.903 260.591 139.878C260.471 139.854 260.347 139.865 260.234 139.911C260.121 139.958 260.024 140.036 259.956 140.138C259.888 140.239 259.852 140.358 259.852 140.48C259.851 140.561 259.867 140.642 259.897 140.717C259.928 140.792 259.973 140.86 260.03 140.917C260.088 140.974 260.156 141.019 260.231 141.05C260.306 141.081 260.386 141.096 260.467 141.095H260.456ZM262.089 140.714C262.226 140.713 262.357 140.657 262.453 140.559C262.55 140.461 262.604 140.329 262.603 140.192C262.605 140.056 262.553 139.924 262.458 139.826C262.363 139.728 262.233 139.672 262.097 139.67C261.96 139.667 261.829 139.72 261.731 139.814C261.633 139.909 261.576 140.039 261.574 140.176V140.192C261.574 140.329 261.627 140.461 261.723 140.558C261.818 140.656 261.949 140.712 262.086 140.714H262.089ZM263.506 140.714C263.619 140.706 263.724 140.655 263.801 140.572C263.878 140.489 263.92 140.38 263.92 140.267C263.92 140.154 263.878 140.045 263.801 139.962C263.724 139.879 263.619 139.828 263.506 139.819C263.444 139.814 263.382 139.822 263.324 139.843C263.265 139.863 263.212 139.895 263.166 139.937C263.121 139.979 263.085 140.03 263.06 140.087C263.035 140.144 263.022 140.205 263.022 140.267C263.022 140.329 263.035 140.39 263.06 140.447C263.085 140.503 263.121 140.554 263.166 140.596C263.212 140.638 263.265 140.671 263.324 140.691C263.382 140.711 263.444 140.719 263.506 140.714ZM264.679 140.986C264.754 140.987 264.827 140.965 264.89 140.924C264.952 140.883 265.001 140.824 265.03 140.755C265.059 140.686 265.067 140.61 265.053 140.536C265.039 140.463 265.003 140.395 264.95 140.342C264.897 140.289 264.83 140.252 264.756 140.238C264.683 140.223 264.607 140.23 264.537 140.259C264.468 140.287 264.409 140.336 264.367 140.398C264.326 140.46 264.303 140.533 264.303 140.608C264.303 140.659 264.313 140.71 264.333 140.757C264.353 140.805 264.382 140.847 264.419 140.883C264.456 140.918 264.5 140.945 264.548 140.963C264.596 140.981 264.647 140.989 264.698 140.986H264.679ZM264.831 139.607C264.896 139.608 264.96 139.589 265.015 139.553C265.069 139.517 265.112 139.466 265.137 139.406C265.163 139.346 265.17 139.279 265.157 139.215C265.145 139.151 265.114 139.092 265.068 139.046C265.022 139 264.963 138.968 264.899 138.955C264.835 138.942 264.769 138.949 264.709 138.973C264.648 138.998 264.597 139.04 264.56 139.095C264.524 139.149 264.505 139.213 264.505 139.278C264.504 139.323 264.513 139.367 264.53 139.408C264.548 139.449 264.574 139.487 264.606 139.517C264.638 139.548 264.677 139.572 264.719 139.588C264.761 139.603 264.806 139.61 264.85 139.607H264.831ZM263.95 139.155C264.024 139.155 264.096 139.132 264.157 139.091C264.219 139.049 264.267 138.99 264.295 138.922C264.323 138.853 264.33 138.778 264.315 138.705C264.3 138.632 264.264 138.566 264.211 138.513C264.159 138.461 264.092 138.426 264.019 138.411C263.946 138.397 263.871 138.405 263.803 138.433C263.734 138.462 263.676 138.51 263.635 138.572C263.593 138.633 263.571 138.706 263.571 138.78C263.572 138.879 263.612 138.974 263.682 139.045C263.752 139.115 263.848 139.155 263.947 139.155H263.95ZM262.791 138.883C262.879 138.884 262.966 138.859 263.04 138.811C263.114 138.762 263.172 138.693 263.207 138.612C263.241 138.53 263.251 138.44 263.234 138.353C263.218 138.266 263.176 138.186 263.113 138.123C263.051 138.06 262.972 138.017 262.885 138C262.798 137.982 262.708 137.991 262.626 138.024C262.545 138.058 262.475 138.115 262.425 138.189C262.376 138.262 262.35 138.349 262.35 138.437C262.349 138.495 262.36 138.553 262.382 138.607C262.404 138.661 262.437 138.71 262.478 138.751C262.519 138.793 262.567 138.826 262.621 138.848C262.675 138.871 262.732 138.883 262.791 138.883ZM261.376 138.883C261.479 138.884 261.581 138.855 261.667 138.798C261.754 138.741 261.822 138.66 261.862 138.565C261.903 138.469 261.914 138.364 261.894 138.262C261.875 138.161 261.825 138.067 261.752 137.993C261.68 137.92 261.587 137.869 261.485 137.849C261.384 137.828 261.278 137.838 261.182 137.878C261.087 137.917 261.005 137.984 260.947 138.07C260.889 138.156 260.859 138.257 260.859 138.361C260.859 138.498 260.913 138.63 261.01 138.728C261.107 138.826 261.238 138.882 261.376 138.883ZM259.471 137.577C259.589 137.579 259.705 137.546 259.804 137.482C259.903 137.418 259.981 137.326 260.027 137.218C260.073 137.11 260.087 136.99 260.065 136.874C260.043 136.758 259.987 136.652 259.904 136.568C259.821 136.484 259.716 136.426 259.6 136.403C259.484 136.379 259.365 136.391 259.256 136.436C259.147 136.481 259.054 136.557 258.988 136.655C258.923 136.753 258.888 136.869 258.889 136.987C258.888 137.142 258.949 137.291 259.057 137.401C259.166 137.512 259.313 137.575 259.468 137.577H259.471ZM261.104 137.218C261.207 137.22 261.309 137.19 261.396 137.134C261.483 137.078 261.551 136.997 261.592 136.901C261.633 136.806 261.644 136.701 261.625 136.599C261.606 136.497 261.557 136.403 261.484 136.329C261.411 136.255 261.318 136.205 261.217 136.184C261.115 136.163 261.01 136.173 260.914 136.212C260.818 136.252 260.736 136.318 260.678 136.405C260.62 136.491 260.589 136.592 260.589 136.696C260.589 136.764 260.602 136.832 260.628 136.895C260.654 136.959 260.692 137.016 260.741 137.065C260.789 137.113 260.846 137.152 260.909 137.178C260.973 137.205 261.041 137.218 261.109 137.218H261.104ZM262.521 137.218C262.611 137.22 262.699 137.195 262.774 137.146C262.85 137.097 262.909 137.027 262.944 136.945C262.98 136.863 262.99 136.772 262.973 136.683C262.957 136.595 262.914 136.514 262.852 136.45C262.789 136.386 262.708 136.342 262.62 136.324C262.533 136.306 262.441 136.314 262.358 136.348C262.275 136.382 262.204 136.44 262.154 136.515C262.104 136.589 262.078 136.677 262.078 136.766C262.076 136.827 262.087 136.888 262.11 136.945C262.133 137.001 262.167 137.053 262.21 137.096C262.253 137.139 262.305 137.173 262.362 137.195C262.418 137.217 262.479 137.228 262.54 137.226L262.521 137.218ZM263.686 137.49C263.761 137.49 263.834 137.468 263.896 137.426C263.958 137.385 264.006 137.326 264.035 137.257C264.064 137.188 264.071 137.112 264.057 137.038C264.042 136.965 264.006 136.897 263.953 136.844C263.9 136.792 263.833 136.756 263.759 136.741C263.686 136.726 263.61 136.734 263.541 136.763C263.472 136.791 263.413 136.84 263.371 136.902C263.33 136.964 263.307 137.037 263.307 137.112C263.307 137.162 263.316 137.212 263.335 137.259C263.354 137.306 263.383 137.348 263.418 137.384C263.454 137.419 263.497 137.447 263.544 137.466C263.591 137.485 263.641 137.494 263.691 137.493L263.686 137.49ZM264.578 137.955C264.667 137.954 264.753 137.918 264.815 137.854C264.878 137.79 264.913 137.705 264.913 137.615C264.912 137.549 264.891 137.485 264.854 137.431C264.816 137.377 264.764 137.334 264.703 137.31C264.641 137.286 264.574 137.28 264.51 137.293C264.445 137.307 264.386 137.339 264.34 137.386C264.293 137.433 264.262 137.493 264.25 137.557C264.237 137.622 264.244 137.689 264.27 137.75C264.295 137.811 264.338 137.863 264.393 137.899C264.448 137.936 264.512 137.955 264.578 137.955ZM265.234 138.5C265.306 138.5 265.375 138.471 265.426 138.42C265.477 138.369 265.506 138.3 265.506 138.227C265.506 138.155 265.477 138.086 265.426 138.035C265.375 137.984 265.306 137.955 265.234 137.955C265.162 137.955 265.093 137.984 265.042 138.035C264.99 138.086 264.962 138.155 264.962 138.227C264.962 138.3 264.99 138.369 265.042 138.42C265.093 138.471 265.162 138.5 265.234 138.5Z" fill="white"/>
</g>
<g clip-path="url(#clip1)">
<path opacity="0.65" d="M481.501 248.455C483.961 237.686 477.226 226.962 466.457 224.501C455.688 222.041 444.963 228.776 442.503 239.545C440.042 250.314 446.778 261.039 457.547 263.499C468.316 265.96 479.04 259.224 481.501 248.455Z" fill="url(#paint5_radial)"/>
<path d="M478.089 247.697C480.131 238.812 474.583 229.954 465.698 227.912C456.812 225.871 447.954 231.419 445.912 240.304C443.871 249.19 449.419 258.048 458.304 260.089C467.19 262.131 476.048 256.583 478.089 247.697Z" fill="url(#paint6_radial)"/>
<path d="M462.535 257.043C469.737 257.043 475.576 251.204 475.576 244.001C475.576 236.799 469.737 230.96 462.535 230.96C455.332 230.96 449.493 236.799 449.493 244.001C449.493 251.204 455.332 257.043 462.535 257.043Z" fill="url(#paint7_linear)"/>
<path d="M461.468 257.043C468.67 257.043 474.509 251.204 474.509 244.001C474.509 236.799 468.67 230.96 461.468 230.96C454.265 230.96 448.427 236.799 448.427 244.001C448.427 251.204 454.265 257.043 461.468 257.043Z" fill="url(#paint8_linear)"/>
<path d="M461.468 254.977C467.53 254.977 472.444 250.063 472.444 244.001C472.444 237.939 467.53 233.025 461.468 233.025C455.406 233.025 450.492 237.939 450.492 244.001C450.492 250.063 455.406 254.977 461.468 254.977Z" fill="url(#paint9_linear)"/>
<path d="M461.468 254.977C467.53 254.977 472.444 250.063 472.444 244.001C472.444 237.939 467.53 233.025 461.468 233.025C455.406 233.025 450.492 237.939 450.492 244.001C450.492 250.063 455.406 254.977 461.468 254.977Z" stroke="#B195F4" stroke-width="4" stroke-miterlimit="10"/>
<path fill-rule="evenodd" clip-rule="evenodd" d="M460.736 245.427C460.165 245.428 459.607 245.259 459.132 244.942C458.656 244.625 458.286 244.174 458.067 243.647C457.848 243.12 457.791 242.539 457.902 241.979C458.013 241.419 458.288 240.904 458.691 240.5C459.095 240.096 459.609 239.821 460.169 239.709C460.729 239.598 461.31 239.655 461.838 239.873C462.365 240.091 462.816 240.461 463.134 240.936C463.451 241.411 463.62 241.969 463.62 242.54C463.622 242.92 463.548 243.295 463.404 243.646C463.259 243.997 463.047 244.316 462.779 244.584C462.511 244.852 462.192 245.065 461.842 245.21C461.491 245.354 461.115 245.428 460.736 245.427ZM460.736 238.211C461.592 238.212 462.429 238.466 463.14 238.942C463.852 239.418 464.406 240.095 464.734 240.886C465.061 241.677 465.146 242.547 464.979 243.387C464.812 244.226 464.399 244.997 463.794 245.602C463.188 246.208 462.417 246.62 461.577 246.786C460.737 246.953 459.867 246.867 459.076 246.54C458.285 246.212 457.609 245.657 457.134 244.945C456.658 244.233 456.405 243.396 456.405 242.54C456.405 241.392 456.862 240.291 457.674 239.479C458.486 238.667 459.588 238.211 460.736 238.211ZM464.856 247.095C464.925 247.16 464.981 247.239 465.019 247.326C465.057 247.413 465.076 247.507 465.076 247.603C465.076 247.698 465.057 247.792 465.019 247.879C464.981 247.967 464.925 248.045 464.856 248.11L461.969 250.997C461.832 251.122 461.653 251.19 461.468 251.186C461.283 251.182 461.106 251.106 460.975 250.975C460.845 250.844 460.769 250.668 460.765 250.483C460.761 250.298 460.829 250.119 460.954 249.982L463.841 247.095C463.906 247.026 463.985 246.971 464.072 246.934C464.159 246.896 464.253 246.877 464.348 246.877C464.443 246.877 464.537 246.896 464.624 246.934C464.712 246.971 464.79 247.026 464.856 247.095ZM466.524 238.932C466.524 239.075 466.481 239.214 466.402 239.333C466.323 239.452 466.21 239.544 466.078 239.599C465.947 239.653 465.802 239.667 465.662 239.64C465.522 239.612 465.393 239.543 465.293 239.442C465.192 239.341 465.123 239.213 465.095 239.073C465.068 238.933 465.082 238.788 465.136 238.657C465.191 238.525 465.283 238.412 465.402 238.333C465.52 238.254 465.66 238.211 465.803 238.211C465.994 238.211 466.178 238.287 466.314 238.422C466.45 238.557 466.528 238.741 466.529 238.932H466.524Z" fill="white"/>
</g>
<g clip-path="url(#clip2)">
<path opacity="0.65" d="M39.5006 164.457C41.9611 153.688 35.2257 142.964 24.4568 140.503C13.6878 138.043 2.96328 144.778 0.502796 155.547C-1.95769 166.316 4.77765 177.041 15.5466 179.501C26.3155 181.961 37.0401 175.226 39.5006 164.457Z" fill="url(#paint10_radial)"/>
<path d="M36.0905 163.698C38.132 154.812 32.584 145.954 23.6985 143.913C14.8131 141.871 5.95501 147.419 3.91344 156.305C1.87187 165.19 7.41993 174.048 16.3054 176.09C25.1908 178.131 34.0489 172.583 36.0905 163.698Z" fill="url(#paint11_radial)"/>
<path d="M20.5346 173.043C27.7371 173.043 33.5759 167.204 33.5759 160.001C33.5759 152.799 27.7371 146.96 20.5346 146.96C13.3321 146.96 7.49335 152.799 7.49335 160.001C7.49335 167.204 13.3321 173.043 20.5346 173.043Z" fill="url(#paint12_linear)"/>
<path d="M19.468 173.043C26.6705 173.043 32.5093 167.204 32.5093 160.001C32.5093 152.799 26.6705 146.96 19.468 146.96C12.2655 146.96 6.4267 152.799 6.4267 160.001C6.4267 167.204 12.2655 173.043 19.468 173.043Z" fill="url(#paint13_linear)"/>
<path d="M19.4681 170.977C25.53 170.977 30.4442 166.063 30.4442 160.001C30.4442 153.939 25.53 149.025 19.4681 149.025C13.4062 149.025 8.49197 153.939 8.49197 160.001C8.49197 166.063 13.4062 170.977 19.4681 170.977Z" fill="url(#paint14_linear)"/>
<path d="M19.4681 170.977C25.53 170.977 30.4442 166.063 30.4442 160.001C30.4442 153.939 25.53 149.025 19.4681 149.025C13.4062 149.025 8.49197 153.939 8.49197 160.001C8.49197 166.063 13.4062 170.977 19.4681 170.977Z" stroke="#C3CBE2" stroke-width="4" stroke-miterlimit="10"/>
<path d="M19.4654 152.663L19.3674 152.998V162.7L19.4654 162.798L23.9712 160.137L19.4654 152.663Z" fill="#EDEEEF"/>
<path d="M19.4653 152.663L14.9622 160.137L19.4653 162.798V158.089V152.663Z" fill="white"/>
<path d="M19.4653 163.653L19.4109 163.718V167.176L19.4653 167.337L23.9738 160.992L19.4653 163.653Z" fill="#EDEEEF"/>
<path d="M19.4653 167.337V163.653L14.9622 160.992L19.4653 167.337Z" fill="white"/>
<path d="M23.9711 160.137L19.4653 162.799V158.089L23.9711 160.137Z" fill="#D5D8DB"/>
<path d="M19.4653 158.089V162.799L14.9622 160.137L19.4653 158.089Z" fill="#EDEEEF"/>
</g>
<g clip-path="url(#clip3)">
<path opacity="0.65" d="M181.547 477.282C183.907 466.491 177.073 455.829 166.282 453.468C155.491 451.108 144.829 457.942 142.468 468.733C140.107 479.524 146.942 490.186 157.733 492.547C168.524 494.908 179.186 488.074 181.547 477.282Z" fill="url(#paint15_radial)"/>
<path d="M178.818 476.922C181.188 468.078 175.941 458.988 167.097 456.617C158.254 454.247 149.163 459.494 146.793 468.338C144.423 477.181 149.67 486.272 158.513 488.642C167.357 491.013 176.447 485.765 178.818 476.922Z" fill="url(#paint16_radial)"/>
<path d="M162.535 486.043C169.737 486.043 175.576 480.204 175.576 473.001C175.576 465.799 169.737 459.96 162.535 459.96C155.332 459.96 149.493 465.799 149.493 473.001C149.493 480.204 155.332 486.043 162.535 486.043Z" fill="url(#paint17_linear)"/>
<path d="M161.468 486.043C168.671 486.043 174.509 480.204 174.509 473.001C174.509 465.799 168.671 459.96 161.468 459.96C154.266 459.96 148.427 465.799 148.427 473.001C148.427 480.204 154.266 486.043 161.468 486.043Z" fill="url(#paint18_linear)"/>
<path d="M161.468 483.977C167.53 483.977 172.444 479.063 172.444 473.001C172.444 466.939 167.53 462.025 161.468 462.025C155.406 462.025 150.492 466.939 150.492 473.001C150.492 479.063 155.406 483.977 161.468 483.977Z" fill="url(#paint19_linear)"/>
<path d="M161.468 483.977C167.53 483.977 172.444 479.063 172.444 473.001C172.444 466.939 167.53 462.025 161.468 462.025C155.406 462.025 150.492 466.939 150.492 473.001C150.492 479.063 155.406 483.977 161.468 483.977Z" stroke="#EFABE2" stroke-width="4" stroke-miterlimit="10"/>
<path d="M158.573 471.812L161.468 468.92L164.363 471.812L166.05 470.133L161.474 465.554L156.892 470.133L158.573 471.818V471.812ZM154.018 473.007L155.702 471.323L157.387 473.007L155.711 474.683L154.018 473.007ZM158.573 474.196L161.468 477.088L164.363 474.188L166.047 475.872L161.471 480.451L156.892 475.875L158.578 474.193L158.573 474.196ZM165.552 473.004L167.236 471.32L168.918 473.004L167.236 474.688L165.552 473.004Z" fill="white"/>
<path d="M163.174 473.001L161.465 471.292L160.203 472.555L160.056 472.699L159.759 472.998L161.465 474.704L163.174 472.996" fill="white"/>
</g>
<g clip-path="url(#clip4)">
<path opacity="0.65" d="M268.145 344.144C275.956 336.333 275.956 323.669 268.145 315.858C260.334 308.047 247.67 308.047 239.859 315.858C232.048 323.669 232.048 336.333 239.859 344.144C247.67 351.955 260.334 351.955 268.145 344.144Z" fill="url(#paint20_radial)"/>
<path d="M265.675 341.674C272.121 335.227 272.121 324.775 265.675 318.328C259.228 311.882 248.776 311.882 242.329 318.328C235.883 324.775 235.883 335.227 242.329 341.674C248.776 348.12 259.228 348.12 265.675 341.674Z" fill="url(#paint21_radial)"/>
<path d="M254.535 343.043C261.737 343.043 267.576 337.204 267.576 330.001C267.576 322.799 261.737 316.96 254.535 316.96C247.332 316.96 241.493 322.799 241.493 330.001C241.493 337.204 247.332 343.043 254.535 343.043Z" fill="url(#paint22_linear)"/>
<path d="M253.468 343.043C260.67 343.043 266.509 337.204 266.509 330.001C266.509 322.799 260.67 316.96 253.468 316.96C246.265 316.96 240.427 322.799 240.427 330.001C240.427 337.204 246.265 343.043 253.468 343.043Z" fill="url(#paint23_linear)"/>
<path d="M253.468 340.977C259.53 340.977 264.444 336.063 264.444 330.001C264.444 323.939 259.53 319.025 253.468 319.025C247.406 319.025 242.492 323.939 242.492 330.001C242.492 336.063 247.406 340.977 253.468 340.977Z" fill="url(#paint24_linear)"/>
<path d="M253.468 340.977C259.53 340.977 264.444 336.063 264.444 330.001C264.444 323.939 259.53 319.025 253.468 319.025C247.406 319.025 242.492 323.939 242.492 330.001C242.492 336.063 247.406 340.977 253.468 340.977Z" stroke="#EFDE64" stroke-width="4" stroke-miterlimit="10"/>
<path d="M257.427 327.49C257.283 326.078 256.066 325.613 254.521 325.487V323.528H253.327V325.433C253.014 325.433 252.695 325.433 252.377 325.452V323.531H251.185V325.487L250.426 325.504H248.78V326.777C248.78 326.777 249.661 326.755 249.645 326.777C249.805 326.755 249.967 326.797 250.096 326.894C250.224 326.991 250.31 327.135 250.334 327.294L250.347 329.525H250.472H250.347L250.366 332.652C250.363 332.707 250.349 332.761 250.325 332.811C250.301 332.861 250.267 332.906 250.226 332.943C250.184 332.98 250.136 333.008 250.083 333.026C250.031 333.044 249.975 333.052 249.92 333.049H249.052L248.823 334.475H250.374C250.665 334.475 250.948 334.475 251.226 334.475L251.24 336.455H252.431V334.496C252.761 334.496 253.076 334.496 253.386 334.496V336.447H254.581V334.469C256.583 334.341 257.985 333.83 258.148 331.947C258.279 330.429 257.563 329.756 256.423 329.498C257.111 329.142 257.541 328.521 257.435 327.487L257.427 327.49ZM255.781 331.735C255.781 333.215 253.256 333.062 252.448 333.068L252.431 330.442C253.248 330.442 255.773 330.192 255.781 331.735ZM255.207 328.034C255.207 329.395 253.098 329.237 252.426 329.242L252.412 326.861C253.084 326.856 255.199 326.63 255.207 328.034Z" fill="white"/>
</g>
<g clip-path="url(#clip5)">
<path opacity="0.65" d="M342.142 251.144C349.953 243.333 349.953 230.669 342.142 222.858C334.331 215.047 321.667 215.047 313.856 222.858C306.045 230.669 306.045 243.333 313.856 251.144C321.667 258.955 334.331 258.955 342.142 251.144Z" fill="url(#paint25_radial)"/>
<path d="M339.672 248.674C346.118 242.227 346.118 231.775 339.672 225.328C333.225 218.882 322.773 218.882 316.326 225.328C309.879 231.775 309.879 242.227 316.326 248.674C322.773 255.121 333.225 255.121 339.672 248.674Z" fill="url(#paint26_radial)"/>
<path d="M328.535 250.043C335.737 250.043 341.576 244.204 341.576 237.001C341.576 229.799 335.737 223.96 328.535 223.96C321.332 223.96 315.493 229.799 315.493 237.001C315.493 244.204 321.332 250.043 328.535 250.043Z" fill="url(#paint27_linear)"/>
<path d="M327.468 250.043C334.67 250.043 340.509 244.204 340.509 237.001C340.509 229.799 334.67 223.96 327.468 223.96C320.265 223.96 314.427 229.799 314.427 237.001C314.427 244.204 320.265 250.043 327.468 250.043Z" fill="url(#paint28_linear)"/>
<path d="M327.468 247.977C333.53 247.977 338.444 243.063 338.444 237.001C338.444 230.939 333.53 226.025 327.468 226.025C321.406 226.025 316.492 230.939 316.492 237.001C316.492 243.063 321.406 247.977 327.468 247.977Z" fill="url(#paint29_linear)"/>
<path d="M327.468 247.977C333.53 247.977 338.444 243.063 338.444 237.001C338.444 230.939 333.53 226.025 327.468 226.025C321.406 226.025 316.492 230.939 316.492 237.001C316.492 243.063 321.406 247.977 327.468 247.977Z" stroke="#F78B8B" stroke-width="4" stroke-miterlimit="10"/>
<path d="M327.435 234.267L320.72 241.183L327.468 230.466L334.219 241.251L327.435 234.267Z" fill="white"/>
<path d="M328.415 237.02H326.309L327.397 235.859L328.423 237.026L328.415 237.02ZM324.372 238.931H330.42L329.182 237.693L325.553 237.706L324.364 238.895" fill="white"/>
</g>
<defs>
<radialGradient id="paint0_radial" cx="0" cy="0" r="1" gradientUnits="userSpaceOnUse" gradientTransform="translate(264 142) scale(24.85)">
<stop stop-color="#F06852"/>
<stop offset="0.99" stop-color="#F18462" stop-opacity="0"/>
</radialGradient>
<radialGradient id="paint1_radial" cx="0" cy="0" r="1" gradientUnits="userSpaceOnUse" gradientTransform="translate(264 142) scale(23.5766)">
<stop stop-color="#F0775B"/>
<stop offset="0.99" stop-color="#F0785C" stop-opacity="0"/>
</radialGradient>
<linearGradient id="paint2_linear" x1="268.646" y1="142.001" x2="291.885" y2="142.001" gradientUnits="userSpaceOnUse">
<stop offset="0.01" stop-color="#D13B4A"/>
<stop offset="1" stop-color="#F17C5C"/>
</linearGradient>
<linearGradient id="paint3_linear" x1="273.233" y1="151.767" x2="252.968" y2="131.499" gradientUnits="userSpaceOnUse">
<stop offset="0.01" stop-color="#EF5B4A"/>
<stop offset="1" stop-color="#F18D68"/>
</linearGradient>
<linearGradient id="paint4_linear" x1="1311.25" y1="1305.25" x2="2553.75" y2="2371.69" gradientUnits="userSpaceOnUse">
<stop offset="0.01" stop-color="#EF5B4A"/>
<stop offset="1" stop-color="#F18D68"/>
</linearGradient>
<radialGradient id="paint5_radial" cx="0" cy="0" r="1" gradientUnits="userSpaceOnUse" gradientTransform="translate(462.004 244) scale(24.85)">
<stop stop-color="#A479F7"/>
<stop offset="0.99" stop-color="#A278F6" stop-opacity="0"/>
</radialGradient>
<radialGradient id="paint6_radial" cx="0" cy="0" r="1" gradientUnits="userSpaceOnUse" gradientTransform="translate(462.003 244) scale(23.5766)">
<stop stop-color="#A176F5"/>
<stop offset="0.99" stop-color="#A177F5" stop-opacity="0"/>
</radialGradient>
<linearGradient id="paint7_linear" x1="466.646" y1="244.001" x2="489.885" y2="244.001" gradientUnits="userSpaceOnUse">
<stop stop-color="#4A24CD"/>
<stop offset="0.99" stop-color="#7D4AE0"/>
</linearGradient>
<linearGradient id="paint8_linear" x1="471.233" y1="253.767" x2="450.968" y2="233.499" gradientUnits="userSpaceOnUse">
<stop stop-color="#5D24CD"/>
<stop offset="0.99" stop-color="#A980FA"/>
</linearGradient>
<linearGradient id="paint9_linear" x1="1509.25" y1="1407.25" x2="2751.75" y2="2473.69" gradientUnits="userSpaceOnUse">
<stop stop-color="#5D24CD"/>
<stop offset="0.99" stop-color="#A980FA"/>
</linearGradient>
<radialGradient id="paint10_radial" cx="0" cy="0" r="1" gradientUnits="userSpaceOnUse" gradientTransform="translate(20.0021 160.002) scale(24.85)">
<stop stop-color="#B3B6C4"/>
<stop offset="0.99" stop-color="#8A95BD" stop-opacity="0"/>
</radialGradient>
<radialGradient id="paint11_radial" cx="0" cy="0" r="1" gradientUnits="userSpaceOnUse" gradientTransform="translate(20.0007 160.001) scale(23.5766)">
<stop stop-color="#B9BBC6"/>
<stop offset="0.99" stop-color="#9DA5C1" stop-opacity="0"/>
</radialGradient>
<linearGradient id="paint12_linear" x1="24.6459" y1="160.001" x2="47.8852" y2="160.001" gradientUnits="userSpaceOnUse">
<stop offset="0.01" stop-color="#6D7BB0"/>
<stop offset="1" stop-color="#8C97BE"/>
</linearGradient>
<linearGradient id="paint13_linear" x1="29.2333" y1="169.767" x2="8.96802" y2="149.499" gradientUnits="userSpaceOnUse">
<stop offset="0.01" stop-color="#838FBC"/>
<stop offset="1" stop-color="#C1C2C7"/>
</linearGradient>
<linearGradient id="paint14_linear" x1="1067.25" y1="1323.25" x2="2309.75" y2="2389.69" gradientUnits="userSpaceOnUse">
<stop offset="0.01" stop-color="#838FBC"/>
<stop offset="1" stop-color="#C1C2C7"/>
</linearGradient>
<radialGradient id="paint15_radial" cx="0" cy="0" r="1" gradientUnits="userSpaceOnUse" gradientTransform="translate(162.012 473.001) scale(24.85)">
<stop stop-color="#CE74D7"/>
<stop offset="0.99" stop-color="#D278D8" stop-opacity="0"/>
</radialGradient>
<radialGradient id="paint16_radial" cx="0" cy="0" r="1" gradientUnits="userSpaceOnUse" gradientTransform="translate(162.809 472.626) rotate(0.0949226) scale(23.6766)">
<stop stop-color="#CF75D7"/>
<stop offset="0.99" stop-color="#CD73D7" stop-opacity="0"/>
</radialGradient>
<linearGradient id="paint17_linear" x1="166.646" y1="473.001" x2="189.885" y2="473.001" gradientUnits="userSpaceOnUse">
<stop stop-color="#7931B7"/>
<stop offset="0.99" stop-color="#AD50D0"/>
</linearGradient>
<linearGradient id="paint18_linear" x1="171.233" y1="482.767" x2="150.968" y2="462.499" gradientUnits="userSpaceOnUse">
<stop stop-color="#A142CD"/>
<stop offset="0.99" stop-color="#EA93DD"/>
</linearGradient>
<linearGradient id="paint19_linear" x1="1209.25" y1="1636.25" x2="2451.75" y2="2702.69" gradientUnits="userSpaceOnUse">
<stop stop-color="#A142CD"/>
<stop offset="0.99" stop-color="#EA93DD"/>
</linearGradient>
<radialGradient id="paint20_radial" cx="0" cy="0" r="1" gradientUnits="userSpaceOnUse" gradientTransform="translate(254.003 330.001) scale(24.85)">
<stop stop-color="#F18D2A"/>
<stop offset="0.99" stop-color="#EFDE64" stop-opacity="0"/>
</radialGradient>
<radialGradient id="paint21_radial" cx="0" cy="0" r="1" gradientUnits="userSpaceOnUse" gradientTransform="translate(254.003 330.001) scale(23.5766)">
<stop stop-color="#F0C14F"/>
<stop offset="0.99" stop-color="#EFDE64" stop-opacity="0"/>
</radialGradient>
<linearGradient id="paint22_linear" x1="258.646" y1="330.001" x2="281.885" y2="330.001" gradientUnits="userSpaceOnUse">
<stop stop-color="#E7682A"/>
<stop offset="0.99" stop-color="#F18D2A"/>
</linearGradient>
<linearGradient id="paint23_linear" x1="263.233" y1="339.767" x2="242.968" y2="319.499" gradientUnits="userSpaceOnUse">
<stop stop-color="#F18D2A"/>
<stop offset="0.99" stop-color="#EFDE64"/>
</linearGradient>
<linearGradient id="paint24_linear" x1="1301.25" y1="1493.25" x2="2543.75" y2="2559.69" gradientUnits="userSpaceOnUse">
<stop stop-color="#F18D2A"/>
<stop offset="0.99" stop-color="#EFDE64"/>
</linearGradient>
<radialGradient id="paint25_radial" cx="0" cy="0" r="1" gradientUnits="userSpaceOnUse" gradientTransform="translate(327.999 237.001) scale(24.85)">
<stop stop-color="#F05860"/>
<stop offset="0.99" stop-color="#F18462" stop-opacity="0"/>
</radialGradient>
<radialGradient id="paint26_radial" cx="0" cy="0" r="1" gradientUnits="userSpaceOnUse" gradientTransform="translate(327.999 237.001) scale(23.5766)">
<stop stop-color="#F05960"/>
<stop offset="0.99" stop-color="#F15B62" stop-opacity="0"/>
</radialGradient>
<linearGradient id="paint27_linear" x1="332.646" y1="237.001" x2="355.885" y2="237.001" gradientUnits="userSpaceOnUse">
<stop offset="0.01" stop-color="#BA344A"/>
<stop offset="1" stop-color="#EF344A"/>
</linearGradient>
<linearGradient id="paint28_linear" x1="337.233" y1="246.767" x2="316.968" y2="226.499" gradientUnits="userSpaceOnUse">
<stop offset="0.01" stop-color="#EF344A"/>
<stop offset="1" stop-color="#F16568"/>
</linearGradient>
<linearGradient id="paint29_linear" x1="1375.25" y1="1400.25" x2="2617.75" y2="2466.69" gradientUnits="userSpaceOnUse">
<stop offset="0.01" stop-color="#EF344A"/>
<stop offset="1" stop-color="#F16568"/>
</linearGradient>
<clipPath id="clip0">
<rect width="40" height="40" fill="white" transform="translate(244 122)"/>
</clipPath>
<clipPath id="clip1">
<rect width="40" height="40" fill="white" transform="translate(442 224)"/>
</clipPath>
<clipPath id="clip2">
<rect width="40" height="40" fill="white" transform="translate(0 140)"/>
</clipPath>
<clipPath id="clip3">
<rect width="40" height="40" fill="white" transform="translate(142 453)"/>
</clipPath>
<clipPath id="clip4">
<rect width="40" height="40" fill="white" transform="translate(234 310)"/>
</clipPath>
<clipPath id="clip5">
<rect width="40" height="40" fill="white" transform="translate(308 217)"/>
</clipPath>
</defs>
</svg>
