<svg width="58" height="64" viewBox="0 0 58 64" fill="none" xmlns="http://www.w3.org/2000/svg">
<path fill-rule="evenodd" clip-rule="evenodd" d="M27.9068 0.0316289C25.8664 0.348572 23.9566 1.77292 22.9875 3.7006C22.4838 4.70231 22.3232 5.47377 22.3232 6.89087V8.20365L20.3373 9.33915C18.02 10.6643 14.6149 12.6366 13.2554 13.4413C12.7321 13.751 12.2282 14.0044 12.1355 14.0044C12.0429 14.0044 11.8802 13.8718 11.7739 13.7096C11.565 13.3906 10.5577 12.5904 9.85649 12.1861C7.87401 11.0435 5.16831 11.1294 3.1582 12.399C2.50589 12.8109 1.38237 13.8857 1.05588 14.4101C-0.594347 17.0605 -0.286615 20.3954 1.81352 22.6207C2.60882 23.4633 3.73487 24.1989 4.5883 24.4332C4.93955 24.5295 5.34342 24.6563 5.48594 24.7149L5.74498 24.8214V30.9737C5.74498 34.3575 5.71355 37.2079 5.6751 37.3081C5.63664 37.4083 5.54155 37.4902 5.46384 37.4902C5.09382 37.4902 3.79761 38.0137 3.14139 38.4282C-1.26381 41.2103 -0.96402 47.6912 3.67708 50.007C4.93575 50.6351 5.33087 50.7286 6.72355 50.7279C8.46553 50.727 9.82725 50.213 11.1392 49.0612L11.8709 48.419L12.5208 48.7862C12.8782 48.9883 13.4038 49.2837 13.6887 49.4425C13.9736 49.6015 14.3632 49.8191 14.5546 49.9261C14.7458 50.033 15.4711 50.457 16.1663 50.8683C18.0009 51.9535 20.4273 53.3563 21.1655 53.7585C22.2453 54.347 22.6686 54.6403 22.6686 54.8C22.6686 54.884 22.5914 55.2072 22.4972 55.518C22.3969 55.8485 22.3258 56.5371 22.326 57.1769C22.3268 60.033 24.1147 62.4997 26.8803 63.4602C28.1098 63.8872 29.8288 63.9082 30.9618 63.5101C32.3284 63.0299 33.2426 62.4186 34.0941 61.4157C35.4666 59.7992 36.0052 57.5521 35.4962 55.5656C35.3964 55.1756 35.3403 54.7898 35.3716 54.7082C35.403 54.6266 35.8084 54.339 36.2727 54.069C37.9834 53.0744 42.5438 50.4547 43.046 50.1783C43.3309 50.0214 43.6158 49.8538 43.6792 49.8057C43.8932 49.6431 46.0367 48.4272 46.1092 48.4272C46.1487 48.4272 46.4848 48.7084 46.856 49.0519C48.0824 50.1875 49.5274 50.7262 51.3528 50.7284C53.1639 50.7306 54.7198 50.0765 56.0051 48.7726C56.8656 47.8995 57.2156 47.3616 57.5779 46.355C58.0612 45.0118 58.126 43.8429 57.79 42.5289C57.4638 41.2535 56.9627 40.3545 56.0799 39.4611C55.1692 38.5395 54.4906 38.12 53.2347 37.7021L52.3137 37.3957V31.0825V24.7694L53.062 24.5278C54.6613 24.0116 55.8518 23.1867 56.6779 22.0225C58.4578 19.5139 58.4264 16.5095 56.5945 14.0401C55.6839 12.8125 54.5104 12.0278 52.9306 11.59C50.7837 10.9951 48.3885 11.6345 46.6716 13.261C46.24 13.6699 45.8401 14.0044 45.783 14.0044C45.6923 14.0044 44.3505 13.2434 42.2401 11.9951C41.8918 11.789 41.0888 11.3265 40.4556 10.967C39.8224 10.6076 38.4754 9.8335 37.4623 9.2467L35.6203 8.18005L35.6593 7.0327C35.7296 4.97113 35.1417 3.45319 33.7213 2.02735C32.8365 1.13926 31.9174 0.562132 30.8767 0.24162C30.3034 0.064901 28.5092 -0.0618539 27.9068 0.0316289ZM30.4972 2.22974C31.2031 2.48118 31.8607 2.90346 32.32 3.40046C33.3171 4.47954 33.656 5.34149 33.6413 6.76031C33.6322 7.63297 33.5846 7.84722 33.233 8.60234C33.0142 9.0724 32.7258 9.55351 32.5923 9.67163C32.3528 9.88335 32.3424 9.88059 31.8641 9.47108C31.0475 8.77215 30.3102 8.56492 28.8278 8.61788C27.4057 8.66854 26.6336 8.92078 26.0567 9.52289C25.8792 9.70824 25.6789 9.85975 25.6116 9.85963C25.4438 9.85929 24.7985 8.87945 24.5514 8.24947C24.2991 7.60684 24.2653 5.84575 24.4937 5.2548C24.8619 4.30236 25.169 3.82067 25.7427 3.2965C27.0862 2.06856 28.9011 1.66136 30.4972 2.22974ZM28.0254 4.136C27.0388 4.69471 26.7259 5.90769 27.3239 6.85506C27.621 7.3257 28.3987 7.78759 28.8937 7.78759C29.9966 7.78759 30.9577 6.88546 30.9577 5.85024C30.9577 4.30892 29.3645 3.37755 28.0254 4.136ZM29.9684 4.90309C30.2727 5.20737 30.3245 5.34403 30.3245 5.84206C30.3245 6.35403 30.2791 6.46548 29.9512 6.75847C29.301 7.33952 28.707 7.34562 28.0716 6.77781C27.3889 6.16776 27.5255 5.0462 28.3326 4.63531C28.8832 4.35509 29.5254 4.4602 29.9684 4.90309ZM30.7736 9.52116C31.0487 9.65057 31.3942 9.8845 31.5415 10.0412L31.809 10.326L31.5774 10.5576C31.2308 10.9043 29.7776 11.3565 29.0104 11.3565C27.9259 11.3565 26.2375 10.7383 26.2375 10.3412C26.2375 10.1309 26.748 9.65149 27.145 9.48881C28.0671 9.11108 29.9366 9.12778 30.7736 9.52116ZM23.582 10.5971C24.3693 11.7416 25.9828 12.8407 27.3138 13.1395L27.9068 13.2726L27.9751 14.243C28.0551 15.3817 28.1114 15.5414 28.4942 15.7158C28.9394 15.9186 29.2848 15.872 29.6169 15.5642C29.8914 15.3098 29.9215 15.2006 29.9215 14.4629C29.9215 13.6109 30.05 13.1985 30.3153 13.1985C30.6512 13.1985 31.7395 12.7858 32.3711 12.4189C33.0296 12.0364 34.1293 11.0252 34.5953 10.3736L34.8366 10.036L36.5975 11.0528C37.5659 11.612 38.5453 12.1739 38.7739 12.3016C39.1469 12.51 41.4107 13.8173 43.9094 15.2675C44.7596 15.7609 44.8279 15.828 44.7977 16.1408C44.7797 16.3272 44.7355 17.0876 44.6993 17.8308C44.6389 19.0729 44.6577 19.2568 44.9335 20.1117C45.0984 20.6229 45.2334 21.1068 45.2334 21.1867C45.2334 21.2667 44.7418 21.6037 44.1408 21.9356C42.9678 22.5835 42.7006 22.8486 42.7006 23.3641C42.7006 23.7647 43.2593 24.3658 43.6317 24.3658C43.7737 24.3658 44.4781 24.0291 45.1972 23.6175C45.9162 23.2059 46.5244 22.8692 46.5488 22.8692C46.5732 22.8692 46.8146 23.0542 47.0853 23.2804C47.7092 23.8016 48.2911 24.1048 49.3779 24.4748L50.2414 24.7687V31.0902V37.4117L49.5187 37.6155C48.3852 37.9351 47.3428 38.5789 46.4241 39.5266L45.6003 40.3766L45.1577 40.1228C43.7713 39.3275 43.4391 39.2781 42.9986 39.8016C42.6936 40.1642 42.6519 40.3477 42.7725 40.7979C42.8319 41.0195 43.4082 41.4399 44.4892 42.0503C44.6985 42.1685 44.7129 42.2882 44.6823 43.662C44.6584 44.7267 44.6987 45.325 44.8248 45.7793C44.9214 46.1276 45.0007 46.4902 45.001 46.5852C45.0014 46.6826 44.5624 47.0057 43.995 47.3258C43.0018 47.8862 38.4608 50.4991 35.6963 52.1011L34.2756 52.9242L33.5599 52.2546C32.8188 51.5615 31.4626 50.8052 30.7199 50.6712C30.0214 50.545 29.9828 50.4827 29.9385 49.409C29.9016 48.5179 29.8704 48.4038 29.6063 48.1961C29.1924 47.8704 28.644 47.8989 28.301 48.2638C28.0609 48.5193 28.0163 48.6946 27.9818 49.5193L27.9416 50.4779L27.4105 50.6117C26.3841 50.8701 25.272 51.4774 24.496 52.2034L23.7424 52.9083L23.2919 52.6669C23.044 52.5342 22.0383 51.9597 21.0568 51.3905C20.0754 50.8213 19.0392 50.2256 18.7543 50.0668C18.4693 49.9079 18.1844 49.74 18.1211 49.6936C18.0578 49.6472 17.7728 49.48 17.4879 49.3218C17.2029 49.1637 16.1774 48.5739 15.209 48.0113C14.2404 47.4486 13.3468 46.937 13.223 46.8745C12.9542 46.7388 12.9429 46.4871 13.1719 45.7323C13.3628 45.1029 13.4031 43.2806 13.2387 42.7073C13.1156 42.2783 13.1984 42.1834 14.13 41.6857C15.3062 41.0571 15.5894 40.3208 14.8912 39.7064C14.4763 39.3412 14.1439 39.3812 13.2144 39.9079C12.7674 40.1612 12.3642 40.3684 12.3182 40.3684C12.2724 40.3684 12.066 40.1431 11.8597 39.8677C11.4546 39.3271 10.7717 38.7244 10.1038 38.3179C9.62094 38.024 8.20224 37.4902 7.90406 37.4902C7.71399 37.4902 7.70213 37.116 7.70213 31.1159V24.7416L8.42167 24.5432C9.24045 24.3174 10.4071 23.7049 10.9855 23.197L11.3775 22.8529L12.2165 23.3248C14.0619 24.3627 14.205 24.4183 14.6041 24.253C15.0847 24.0539 15.3372 23.5616 15.2106 23.0702C15.1286 22.7518 14.9405 22.5941 13.9411 22.0057C13.2958 21.6258 12.7678 21.2448 12.7678 21.1591C12.7677 21.0734 12.903 20.5694 13.0683 20.039C13.375 19.0557 13.3874 18.691 13.2005 16.1973C13.1708 15.8018 13.1779 15.7957 14.6924 14.9079C15.5293 14.4174 16.436 13.8913 16.7071 13.7387C17.7576 13.148 20.3142 11.6682 20.4236 11.5875C20.5249 11.5126 20.8017 11.3543 21.9778 10.6982C22.1361 10.6099 22.4211 10.4408 22.611 10.3223C23.1104 10.0109 23.1952 10.0349 23.582 10.5971ZM8.62855 13.8436C9.55118 14.2807 10.16 14.801 10.6353 15.5586C11.1702 16.4113 11.3301 17.0314 11.3178 18.2065C11.3088 19.0649 11.2548 19.3579 11.0032 19.9144C10.8361 20.2839 10.573 20.7364 10.4184 20.9201L10.1375 21.254L9.63418 20.7664C8.78294 19.9418 7.25659 19.5942 5.68707 19.8675C4.72853 20.0344 4.33123 20.2261 3.71818 20.817L3.24547 21.2727L2.94384 20.9141C2.65003 20.565 2.47665 20.2322 2.16742 19.4243C1.9686 18.9051 1.96399 17.2778 2.15982 16.7675C2.6262 15.552 3.12504 14.8694 3.98423 14.2714C4.97144 13.5843 5.49654 13.4322 6.78112 13.4615C7.73621 13.4832 7.97037 13.5316 8.62855 13.8436ZM53.2955 13.8558C54.9838 14.693 55.9525 16.2195 55.9564 18.0493C55.959 19.2576 55.465 20.5879 54.7853 21.2031C54.5595 21.4074 54.544 21.4039 54.1819 21.0657C53.4409 20.3737 52.1438 20.0323 50.7635 20.166C49.7049 20.2685 49.0249 20.5101 48.4783 20.9779L48.0069 21.3815L47.6569 21.0152C47.4643 20.8136 47.1665 20.3584 46.995 20.0033C46.7168 19.4273 46.6832 19.2276 46.6833 18.149C46.6834 16.6459 46.939 15.91 47.7811 14.9885C48.866 13.8016 49.7451 13.4306 51.3959 13.4634C52.4391 13.4842 52.6221 13.5219 53.2955 13.8558ZM5.91767 15.1981C4.84952 15.6964 4.41665 16.8946 4.93645 17.9137C5.30174 18.6296 5.7779 18.8973 6.68637 18.8973C7.51286 18.8973 7.86031 18.7314 8.31829 18.1179C8.64237 17.6837 8.70626 16.6896 8.44538 16.1399C8.0429 15.2918 6.74957 14.8098 5.91767 15.1981ZM50.6919 15.4886C50.1999 15.6143 50.1014 15.6883 49.7157 16.2206C49.4267 16.6195 49.3779 16.7922 49.3779 17.4158C49.3779 18.1169 49.3968 18.1645 49.8672 18.6548C50.4103 19.2207 50.8893 19.376 51.7115 19.2527C52.8868 19.0764 53.6233 17.6258 53.0852 16.5474C52.6595 15.6944 51.6445 15.2454 50.6919 15.4886ZM7.21883 15.7771C7.68313 16.0172 7.93434 16.3449 8.00963 16.8088C8.1456 17.6464 7.50066 18.3792 6.62765 18.3792C6.07608 18.3792 5.43644 17.8293 5.33041 17.2639C5.23059 16.7322 5.5077 16.1478 6.00252 15.8461C6.44564 15.5759 6.79182 15.5563 7.21883 15.7771ZM51.8703 16.1501C52.439 16.42 52.763 17.0888 52.6064 17.6699C52.4531 18.2395 52.0415 18.6142 51.4903 18.6863C50.8943 18.7642 50.4614 18.5776 50.1843 18.1231C49.7475 17.4066 49.9835 16.4917 50.696 16.1401C51.1488 15.9167 51.3825 15.9186 51.8703 16.1501ZM26.9283 18.167C26.6433 18.2251 26.1512 18.3296 25.8346 18.3995C22.5758 19.1182 19.4249 21.2994 17.5486 24.1356C16.2772 26.0572 15.8395 27.1773 15.3066 29.8718C15.1482 30.6731 15.1509 33.16 15.3111 33.9413C15.7275 35.9726 15.931 36.6188 16.6318 38.134C17.0039 38.9388 18.0292 40.4068 18.8238 41.2727C19.5724 42.0884 21.1861 43.4114 21.9924 43.8707C26.5223 46.45 31.8094 46.3896 36.1959 43.7084C37.2552 43.061 38.6481 41.8934 39.3316 41.08C39.6333 40.7211 39.9416 40.3618 40.0169 40.2816C40.2486 40.0346 41.307 38.2352 41.6106 37.572C42.3115 36.0412 42.8172 33.6478 42.8138 31.8791C42.8115 30.7449 42.5927 29.2507 42.2413 27.9703C41.9964 27.077 41.2749 25.3638 41.0104 25.0475C40.9269 24.9475 40.8586 24.8226 40.8586 24.7699C40.8586 24.6092 39.5872 22.9681 38.9081 22.2523C37.6883 20.9666 35.9385 19.7689 34.3539 19.1351C33.9107 18.9579 33.4444 18.7697 33.3178 18.7169C33.0173 18.5917 31.888 18.3196 31.0083 18.1603C30.1877 18.0116 27.6709 18.0158 26.9283 18.167ZM30.8587 20.1684C34.8054 20.8961 37.8749 23.1924 39.6241 26.7259C40.9446 29.3934 41.1495 32.854 40.1599 35.7757C39.641 37.3075 38.0263 39.9079 37.5939 39.9079C37.5113 39.9079 37.277 39.6508 37.0734 39.3367C36.0996 37.8338 34.0798 36.6567 31.706 36.2088C30.6299 36.0057 27.2149 36.0057 26.2375 36.2088C25.2295 36.4182 24.2605 36.747 23.3616 37.1846C22.5096 37.5995 21.065 38.8974 20.7749 39.5089C20.4866 40.1163 20.2551 40.0221 19.5173 38.9975C16.2335 34.4366 16.3849 28.748 19.9078 24.3146C22.4224 21.1503 26.9292 19.4439 30.8587 20.1684ZM7.70213 20.4584C7.98707 20.5223 8.37976 20.6488 8.57479 20.7394C8.9425 20.9103 9.54415 21.4508 9.54415 21.6103C9.54415 21.7935 9.13154 22.106 8.51066 22.3929C7.95921 22.6478 7.71433 22.6873 6.66599 22.6907C5.52704 22.6944 5.4118 22.6725 4.67326 22.3123C3.97767 21.973 3.8934 21.8966 3.92494 21.634C4.03236 20.7398 6.09577 20.0976 7.70213 20.4584ZM53.1391 21.0763C53.4665 21.2287 53.7965 21.4695 53.8723 21.6112C53.992 21.8347 53.9741 21.8971 53.7377 22.081C53.3088 22.4145 52.0714 22.754 51.2848 22.754C50.5043 22.754 49.2539 22.4114 48.8184 22.0784C48.5814 21.897 48.5655 21.8404 48.6938 21.6349C48.8587 21.3709 49.3592 21.0484 49.8204 20.9091C49.9886 20.8582 50.6702 20.8128 51.3351 20.8079C52.3817 20.8003 52.6238 20.8364 53.1391 21.0763ZM27.7917 24.5825C26.7529 24.8836 26.2746 25.1496 25.5282 25.8406C23.8486 27.3956 23.4646 29.9901 24.6002 32.1093C25.5006 33.7894 27.8871 34.9511 29.7201 34.6016C30.8367 34.3886 31.7975 33.8885 32.5449 33.1313C33.5723 32.0903 34.0121 30.9916 34.0029 29.4889C33.9939 28.0304 33.556 26.9529 32.5696 25.9621C31.8181 25.2074 31.0672 24.795 29.9882 24.5447C29.0305 24.3226 28.6662 24.329 27.7917 24.5825ZM30.3091 26.7221C30.8766 26.9968 31.4616 27.5988 31.7601 28.2154C32.0896 28.896 32.0798 30.0559 31.7385 30.7854C31.339 31.6388 30.5463 32.3623 29.8198 32.5366C29.0625 32.7182 28.224 32.6169 27.5169 32.2583C26.8895 31.9402 26.7289 31.7645 26.3168 30.9462C26.0646 30.4449 26.0072 30.1743 26.0072 29.4838C26.0072 29.0176 26.0702 28.4914 26.1472 28.3143C26.4863 27.5344 27.1251 26.9434 28.0165 26.5848C28.5095 26.3865 29.7717 26.4621 30.3091 26.7221ZM31.6125 38.2425C33.6756 38.7069 35.0616 39.6134 35.6885 40.9083C35.9218 41.3904 35.9241 41.4263 35.7346 41.6357C35.4375 41.964 33.6756 42.8354 32.627 43.1726C30.3033 43.9199 27.7161 43.9363 25.4316 43.2183C24.0879 42.796 22.0921 41.7143 22.094 41.4094C22.0961 41.0803 22.769 40.0536 23.2676 39.6189C23.8877 39.0783 24.9526 38.5826 26.1002 38.3003C27.2697 38.0127 30.4441 37.9794 31.6125 38.2425ZM8.63362 39.8162C11.053 40.9864 12.0424 43.8424 10.8483 46.2096C10.681 46.5411 10.4497 46.8979 10.3344 47.0023C10.1374 47.1805 10.0972 47.1672 9.67194 46.783C9.42292 46.5581 9.10034 46.3104 8.95528 46.2327C8.1289 45.7905 6.41524 45.6495 5.34204 45.9354C4.56424 46.1427 4.14955 46.3735 3.68329 46.8588C3.46743 47.0833 3.24293 47.2374 3.18445 47.2013C3.12585 47.1651 2.91068 46.8692 2.70621 46.5438C1.83793 45.1617 1.75135 43.5044 2.47055 42.0343C2.86969 41.2185 3.43796 40.5769 4.14829 40.1398C5.10683 39.55 5.45877 39.4625 6.78112 39.4847C7.83499 39.5023 8.07249 39.5449 8.63362 39.8162ZM52.8279 39.6423C55.6926 40.7118 56.8635 44.0699 55.2488 46.5861C55.0532 46.891 54.8238 47.167 54.7391 47.1995C54.6544 47.232 54.4366 47.1004 54.2553 46.907C54.0738 46.7137 53.6405 46.4243 53.2922 46.2639C52.7255 46.003 52.5141 45.9726 51.2775 45.9739C49.7376 45.9755 49.1928 46.1343 48.4299 46.8041C48.2064 47.0004 47.9441 47.1609 47.8472 47.1609C47.5881 47.1609 46.978 46.0974 46.7685 45.2805C46.1695 42.9452 47.3299 40.6501 49.5771 39.726C50.4187 39.3799 52.0151 39.3388 52.8279 39.6423ZM5.97523 41.1882C5.31038 41.4525 4.70884 42.3208 4.70884 43.0163C4.70884 43.5392 5.01818 44.1188 5.53199 44.5587C5.94415 44.9114 6.10026 44.9734 6.57527 44.9734C7.31991 44.9734 7.81553 44.7494 8.25761 44.2132C8.57582 43.8271 8.62314 43.6828 8.62314 43.0976C8.62314 42.3896 8.5201 42.0943 8.11946 41.6535C7.63927 41.1253 6.66495 40.914 5.97523 41.1882ZM50.415 41.4254C49.6872 41.8011 49.3779 42.3098 49.3779 43.1314C49.3779 43.6229 49.4431 43.8839 49.637 44.1687C50.1022 44.8523 50.4551 45.0311 51.3381 45.0306C52.0854 45.0301 52.1524 45.0076 52.547 44.6276C52.7768 44.4062 53.0385 44.0505 53.1285 43.8369C53.8083 42.2245 51.9927 40.611 50.415 41.4254ZM7.31565 41.823C8.57652 42.4213 8.09529 44.3978 6.68879 44.3978C6.15955 44.3978 5.59589 43.9468 5.4148 43.3786C5.27284 42.9331 5.2786 42.8437 5.47236 42.4739C5.71412 42.0127 6.24256 41.6358 6.64861 41.6352C6.79735 41.635 7.09749 41.7195 7.31565 41.823ZM51.8615 41.9187C52.4152 42.15 52.7911 42.96 52.6055 43.5221C52.4212 44.0806 52.0068 44.4161 51.4286 44.4751C50.1729 44.6029 49.4699 43.2297 50.3045 42.2793C50.6185 41.9217 50.8225 41.8174 51.31 41.7656C51.3911 41.7569 51.6394 41.8259 51.8615 41.9187ZM8.54497 46.7336C9.18795 47.028 9.61841 47.4922 9.51008 47.7744C9.4395 47.9582 8.4097 48.4717 7.75969 48.6471C7.10209 48.8246 6.11477 48.8016 5.41111 48.5927C4.7603 48.3994 4.00956 48.0179 3.88223 47.8157C3.6681 47.4757 4.53385 46.7497 5.42596 46.5212C6.35492 46.2832 7.7719 46.3797 8.54497 46.7336ZM52.4288 46.646C52.9867 46.7326 53.8172 47.1964 53.9889 47.5172C54.1597 47.8365 54.0202 47.98 53.1466 48.3835C52.5068 48.679 52.3034 48.7151 51.2751 48.7151C50.2052 48.7151 50.0659 48.6878 49.3585 48.3395C48.9389 48.1329 48.5676 47.8908 48.5332 47.8014C48.46 47.6105 48.9373 47.1018 49.4331 46.8423C49.7993 46.6505 51.0379 46.479 51.6229 46.5389C51.8129 46.5585 52.1755 46.6066 52.4288 46.646ZM31.015 52.9081C32.2245 53.5041 32.9437 54.3373 33.5074 55.7953C33.7024 56.2999 33.6973 57.9321 33.4991 58.4563C33.2267 59.1765 32.8832 59.8178 32.6628 60.0172C32.4536 60.2064 32.4243 60.1943 31.9806 59.7373C31.2654 59.0005 30.4856 58.7436 28.943 58.7367C27.8105 58.7316 27.6087 58.763 27.0335 59.0327C26.6797 59.1986 26.2028 59.5216 25.9739 59.7506C25.7094 60.0151 25.4918 60.1418 25.3775 60.098C25.2785 60.06 25.0054 59.6333 24.7708 59.1497C24.3644 58.3125 24.3442 58.2158 24.3476 57.1193C24.3508 56.0767 24.385 55.8949 24.71 55.1942C25.0941 54.3658 25.93 53.4289 26.5942 53.082C27.5831 52.5656 28.0016 52.4677 29.1188 52.4912C30.1104 52.5121 30.2922 52.552 31.015 52.9081ZM28.2522 54.1201C27.4535 54.4851 27.0434 55.1163 27.0434 55.981C27.0434 56.8633 27.5664 57.5445 28.4437 57.805C29.3513 58.0745 30.1597 57.7326 30.6981 56.8515C31.6313 55.3241 29.8852 53.374 28.2522 54.1201ZM29.7873 54.8395C30.147 55.0643 30.419 55.7404 30.33 56.1882C30.1458 57.1148 29.2037 57.548 28.3255 57.11C27.2942 56.5955 27.47 54.9716 28.5913 54.6548C29 54.5393 29.408 54.6023 29.7873 54.8395ZM30.7893 59.6591C31.4074 59.9515 31.8787 60.4028 31.8787 60.7023C31.8787 60.9216 31.1364 61.3566 30.3439 61.6016C29.3404 61.9119 27.895 61.8166 27.0163 61.382C26.6531 61.2024 26.2689 60.9592 26.1626 60.8417C25.9788 60.6387 25.9952 60.6028 26.4842 60.1341C27.1407 59.5052 27.5182 59.3905 28.9789 59.376C30.028 59.3656 30.2385 59.3986 30.7893 59.6591Z" fill="#0069FF"/>
<path d="M30.3091 26.7221C30.8766 26.9968 31.4616 27.5988 31.7601 28.2154C32.0896 28.896 32.0798 30.0559 31.7385 30.7854C31.339 31.6388 30.5463 32.3623 29.8198 32.5366C29.0625 32.7182 28.224 32.6169 27.5169 32.2583C26.8895 31.9402 26.7289 31.7645 26.3168 30.9462C26.0646 30.4449 26.0072 30.1743 26.0072 29.4838C26.0072 29.0176 26.0702 28.4914 26.1472 28.3143C26.4863 27.5344 27.1251 26.9434 28.0165 26.5848C28.5095 26.3865 29.7717 26.4621 30.3091 26.7221Z" fill="#0069FF"/>
<path d="M31.6125 38.2425C33.6756 38.7069 35.0616 39.6134 35.6885 40.9083C35.9218 41.3904 35.9241 41.4263 35.7346 41.6357C35.4375 41.964 33.6756 42.8354 32.627 43.1726C30.3033 43.9199 27.7161 43.9363 25.4316 43.2183C24.0879 42.796 22.0921 41.7143 22.094 41.4094C22.0961 41.0803 22.769 40.0536 23.2676 39.6189C23.8877 39.0783 24.9526 38.5826 26.1002 38.3003C27.2697 38.0127 30.4441 37.9794 31.6125 38.2425Z" fill="#0069FF"/>
</svg>
