<svg width="18" height="18" viewBox="0 0 18 18" fill="none" xmlns="http://www.w3.org/2000/svg">
<path d="M15.75 9C15.75 5.27344 12.7266 2.25 9 2.25C5.27344 2.25 2.25 5.27344 2.25 9C2.25 12.7266 5.27344 15.75 9 15.75C12.7266 15.75 15.75 12.7266 15.75 9Z" stroke="#0069FF" stroke-width="1.125" stroke-miterlimit="10"/>
<path d="M8.79904 5.8379L9.00083 10.1252L9.20228 5.8379C9.20352 5.81049 9.19916 5.78312 9.18947 5.75745C9.17978 5.73178 9.16495 5.70836 9.1459 5.68862C9.12685 5.66888 9.10397 5.65323 9.07867 5.64263C9.05336 5.63203 9.02616 5.6267 8.99872 5.62696V5.62696C8.97161 5.62722 8.94483 5.63293 8.91998 5.64377C8.89513 5.6546 8.87272 5.67033 8.85408 5.69002C8.83544 5.70971 8.82096 5.73295 8.8115 5.75836C8.80205 5.78376 8.79781 5.81082 8.79904 5.8379V5.8379Z" stroke="#0069FF" stroke-width="1.125" stroke-linecap="round" stroke-linejoin="round"/>
<path d="M9 12.9336C8.86094 12.9336 8.72499 12.8924 8.60936 12.8151C8.49374 12.7378 8.40362 12.628 8.3504 12.4995C8.29718 12.3711 8.28326 12.2297 8.31039 12.0933C8.33752 11.9569 8.40448 11.8316 8.50282 11.7333C8.60115 11.635 8.72643 11.568 8.86283 11.5409C8.99922 11.5137 9.14059 11.5276 9.26907 11.5809C9.39755 11.6341 9.50737 11.7242 9.58463 11.8398C9.66189 11.9555 9.70313 12.0914 9.70313 12.2305C9.70313 12.4169 9.62905 12.5958 9.49719 12.7277C9.36532 12.8595 9.18648 12.9336 9 12.9336Z" fill="#0069FF"/>
</svg>
