<svg width="51" height="33" viewBox="0 0 51 33" fill="none" xmlns="http://www.w3.org/2000/svg">
<rect x="0.0815526" y="0.0815526" width="50.2364" height="32.1317" rx="1.5495" fill="white" stroke="#BEBEBE" stroke-width="0.163105"/>
<rect x="13.0816" y="8.08155" width="23.6503" height="16.3231" rx="0.570868" fill="#006FCF" stroke="#F3F3F3" stroke-width="0.163105"/>
<path fill-rule="evenodd" clip-rule="evenodd" d="M17.871 19.9073V16.5134H21.6991L22.1098 17.016L22.5341 16.5134H36.429V19.6732C36.429 19.6732 36.0656 19.9039 35.6454 19.9073H27.9515L27.4884 19.3723V19.9073H25.971V18.994C25.971 18.994 25.7637 19.1215 25.3156 19.1215H24.7991V19.9073H22.5016L22.0915 19.3939L21.6751 19.9073H17.871ZM13.4111 13.9556L14.2724 12.0664H15.7619L16.2507 13.1247V12.0664H18.1023L18.3933 12.8313L18.6754 12.0664H26.9871V12.4509C26.9871 12.4509 27.424 12.0664 28.1421 12.0664L30.839 12.0753L31.3193 13.1197V12.0664H32.8688L33.2953 12.6663V12.0664H34.859V15.4603H33.2953L32.8866 14.8584V15.4603H30.61L30.3811 14.9253H29.7691L29.5439 15.4603H28C27.3821 15.4603 26.9871 15.0836 26.9871 15.0836V15.4603H24.6593L24.1973 14.9253V15.4603H15.5413L15.3125 14.9253H14.7024L14.4752 15.4603H13.4111V13.9556ZM13.4154 15.0261L14.577 12.4849H15.4578L16.6183 15.0261H15.8453L15.6321 14.5173H14.386L14.1717 15.0261H13.4154ZM15.3867 13.9664L15.0069 13.0771L14.6259 13.9664H15.3867ZM16.6985 15.0255V12.4842L17.7733 12.488L18.3984 14.1264L19.0086 12.4842H20.0748V15.0255H19.3995V13.153L18.6837 15.0255H18.0915L17.3738 13.153V15.0255H16.6985ZM20.5367 15.0255V12.4842H22.7401V13.0527H21.219V13.4873H22.7046V14.0223H21.219V14.4737H22.7401V15.0255H20.5367ZM23.1309 15.0255V12.4842H24.6336C25.1315 12.4842 25.5776 12.7739 25.5776 13.3087C25.5776 13.7658 25.2015 14.0603 24.8368 14.0892L25.7253 15.0255H24.9001L24.0905 14.1227H23.8062V15.0255H23.1309ZM24.5781 13.0519H23.8062V13.5869H24.5881C24.7234 13.5869 24.8979 13.4882 24.8979 13.3194C24.8979 13.1882 24.7632 13.0519 24.5781 13.0519ZM26.5426 15.0255H25.8531V12.4842H26.5426V15.0255ZM28.1775 15.0255H28.0286C27.3086 15.0255 26.8714 14.4917 26.8714 13.7653C26.8714 13.0209 27.3037 12.4842 28.213 12.4842H28.9593V13.0861H28.1857C27.8166 13.0861 27.5555 13.3571 27.5555 13.7716C27.5555 14.2637 27.854 14.4704 28.2841 14.4704H28.4618L28.1775 15.0255ZM28.4851 15.0255L29.6468 12.4842H30.5275L31.688 15.0255H30.9151L30.7018 14.5166H29.4557L29.2414 15.0255H28.4851ZM30.4567 13.9657L30.0768 13.0764L29.6959 13.9657H30.4567ZM31.7672 15.0255V12.4842H32.6257L33.7219 14.0809V12.4842H34.3971V15.0255H33.5664L32.4425 13.387V15.0255H31.7672ZM18.3333 19.4735V16.9323H20.5367V17.5007H19.0156V17.9354H20.5011V18.4704H19.0156V18.9218H20.5367V19.4735H18.3333ZM29.13 19.4735V16.9323H31.3335V17.5007H29.8124V17.9354H31.2908V18.4704H29.8124V18.9218H31.3335V19.4735H29.13ZM20.6218 19.4735L21.6947 18.2186L20.5963 16.9323H21.447L22.1011 17.7275L22.7575 16.9323H23.5749L22.491 18.2029L23.5658 19.4735H22.7152L22.08 18.6909L21.4603 19.4735H20.6218ZM23.6462 19.4735V16.9323H25.1377C25.7498 16.9323 26.1073 17.3034 26.1073 17.787C26.1073 18.3708 25.6514 18.671 25.05 18.671H24.3392V19.4735H23.6462ZM25.0881 17.5078H24.3396V18.0929H25.0859C25.2831 18.0929 25.4213 17.9699 25.4213 17.8003C25.4213 17.6198 25.2824 17.5078 25.0881 17.5078ZM26.4008 19.4735V16.9323H27.9035C28.4014 16.9323 28.8475 17.2219 28.8475 17.7567C28.8475 18.2139 28.4713 18.5083 28.1067 18.5373L28.9952 19.4735H28.17L27.3604 18.5707H27.0761V19.4735H26.4008ZM27.8478 17.5007H27.076V18.0357H27.8578C27.9932 18.0357 28.1677 17.9371 28.1677 17.7682C28.1677 17.637 28.033 17.5007 27.8478 17.5007ZM31.6462 19.4735V18.9218H32.9975C33.1975 18.9218 33.2841 18.8201 33.2841 18.7086C33.2841 18.6018 33.1978 18.4938 32.9975 18.4938H32.3869C31.856 18.4938 31.5604 18.1895 31.5604 17.7327C31.5604 17.3252 31.8311 16.9323 32.6199 16.9323H33.9349L33.6506 17.5041H32.5133C32.2959 17.5041 32.229 17.6114 32.229 17.7139C32.229 17.8192 32.3117 17.9354 32.4778 17.9354H33.1175C33.7092 17.9354 33.966 18.2512 33.966 18.6647C33.966 19.1094 33.6799 19.4735 33.0853 19.4735H31.6462ZM34.0257 19.4735V18.9218H35.3771C35.5771 18.9218 35.6636 18.8201 35.6636 18.7086C35.6636 18.6018 35.5773 18.4938 35.3771 18.4938H34.7664C34.2356 18.4938 33.94 18.1895 33.94 17.7327C33.94 17.3252 34.2107 16.9323 34.9995 16.9323H36.3145L36.0301 17.5041H34.8929C34.6755 17.5041 34.6086 17.6114 34.6086 17.7139C34.6086 17.8192 34.6913 17.9354 34.8573 17.9354H35.4971C36.0888 17.9354 36.3455 18.2512 36.3455 18.6647C36.3455 19.1094 36.0594 19.4735 35.4648 19.4735H34.0257Z" fill="white"/>
</svg>
