<svg width="33" height="35" viewBox="0 0 33 35" fill="none" xmlns="http://www.w3.org/2000/svg">
<path fill-rule="evenodd" clip-rule="evenodd" d="M24.7406 2.11198V5.4308H20.5166V2.11198C20.5166 0.945565 21.4622 0 22.6286 0C23.7927 0.00561331 24.7349 0.947898 24.7406 2.11198Z" fill="#7F8C8D"/>
<path fill-rule="evenodd" clip-rule="evenodd" d="M31.9693 4.67657C31.6389 4.38628 31.2144 4.22551 30.7746 4.224H1.81028C1.37042 4.22551 0.945985 4.38628 0.615505 4.67657C0.222662 5.01809 -0.00202622 5.51373 1.37715e-05 6.03427V24.7404C-0.00202622 25.2609 0.222662 25.7565 0.615505 26.0981C0.945985 26.3884 1.37042 26.5491 1.81028 26.5506H7.85054V15.6528C7.84746 15.3971 8.00587 15.1673 8.24591 15.0791C8.48594 14.991 8.75547 15.0637 8.9186 15.2606L11.3685 18.1932L13.9934 21.3371C14.1433 21.5171 14.1755 21.7676 14.0759 21.9797C13.9764 22.1918 13.763 22.3271 13.5287 22.3267H12.0745V26.3696C12.0727 26.4302 12.0767 26.4908 12.0866 26.5506H30.7746C31.2144 26.5491 31.6389 26.3884 31.9693 26.0981C32.3622 25.7565 32.5869 25.2609 32.5848 24.7404V6.03427C32.5869 5.51373 32.3622 5.01809 31.9693 4.67657Z" fill="#F0C419"/>
<path fill-rule="evenodd" clip-rule="evenodd" d="M31.969 26.0981C31.6385 26.3883 31.2141 26.5491 30.7742 26.5506H12.0862C12.0764 26.4908 12.0724 26.4302 12.0742 26.3696V22.3267H13.5284C13.7627 22.3271 13.976 22.1918 14.0756 21.9797C14.1752 21.7676 14.143 21.5171 13.9931 21.3371L11.3682 18.1932L11.8388 17.795L15.1034 15.3752C15.8433 15.7917 16.7469 15.7917 17.4869 15.3752L31.969 26.0981Z" fill="#F29C1F"/>
<path fill-rule="evenodd" clip-rule="evenodd" d="M24.7404 26.5506C24.6016 30.9134 21.2768 34.6908 16.8839 34.9805C14.5477 35.1397 12.25 34.3233 10.5381 32.7257C8.82612 31.1281 7.85306 28.8923 7.85063 26.5506V15.6528C7.84755 15.3971 8.00596 15.1673 8.246 15.0791C8.48603 14.991 8.75556 15.0637 8.91869 15.2606L11.3686 18.1932L13.9935 21.3371C14.1434 21.5171 14.1756 21.7676 14.076 21.9797C13.9765 22.1918 13.7631 22.3271 13.5288 22.3267H12.0746V26.3696C12.0728 26.4302 12.0768 26.4908 12.0867 26.5506C12.1312 28.7019 13.752 30.4925 15.8882 30.7505C17.0745 30.868 18.2552 30.4787 19.139 29.6788C20.0229 28.8789 20.5275 27.7427 20.5285 26.5506H24.7404Z" fill="#7F8C8D"/>
<path fill-rule="evenodd" clip-rule="evenodd" d="M31.9691 4.67657L17.7283 15.2184C17.6516 15.2762 17.5709 15.3286 17.4869 15.3752C16.747 15.7917 15.8434 15.7917 15.1034 15.3752C15.0162 15.3309 14.9333 15.2784 14.856 15.2184L0.615234 4.67657C0.945715 4.38628 1.37015 4.22551 1.81001 4.224H30.7743C31.2142 4.22551 31.6386 4.38628 31.9691 4.67657Z" fill="#F3D55B"/>
<path fill-rule="evenodd" clip-rule="evenodd" d="M7.85027 20.7456V26.5505H1.81001C1.37015 26.549 0.945715 26.3882 0.615234 26.098L7.85027 20.7456Z" fill="#F29C1F"/>
</svg>
