<svg width="16" height="16" viewBox="0 0 16 16" fill="none" xmlns="http://www.w3.org/2000/svg">
<path d="M12.7188 0H3.28125C1.47197 0 0 1.47197 0 3.28125V12.7188C0 14.528 1.47197 16 3.28125 16H12.7188C14.528 16 16 14.528 16 12.7188V3.28125C16 1.47197 14.528 0 12.7188 0ZM15.0625 12.7188C15.0625 14.0111 14.0111 15.0625 12.7188 15.0625H3.28125C1.98891 15.0625 0.9375 14.0111 0.9375 12.7188V3.28125C0.9375 1.98891 1.98891 0.9375 3.28125 0.9375H12.7188C14.0111 0.9375 15.0625 1.98891 15.0625 3.28125V12.7188Z" fill="white"/>
<path d="M9.55144 3.86039C9.49741 3.65882 9.36816 3.49032 9.18744 3.38601C8.81444 3.17064 8.33569 3.29885 8.12025 3.67198L8 3.88023L7.87975 3.67195C7.66434 3.29892 7.18563 3.17064 6.81256 3.38598H6.81253C6.43947 3.60139 6.31122 4.0801 6.52659 4.4532L7.09788 5.4427L4.98994 9.09379H3.45312C3.02234 9.09379 2.67188 9.44426 2.67188 9.87504C2.67188 10.3058 3.02234 10.6563 3.45312 10.6563H9.38625L8.48413 9.09379H6.79416L9.47338 4.45323C9.57772 4.27251 9.60547 4.06195 9.55144 3.86039Z" fill="white"/>
<path d="M12.5468 9.09381H11.01L9.26293 6.06775L8.36084 7.63025L11.0735 12.3286C11.1778 12.5094 11.3462 12.6387 11.5479 12.6927C11.6152 12.7107 11.6835 12.7197 11.7513 12.7197C11.8867 12.7197 12.0203 12.6842 12.1407 12.6146C12.5138 12.3992 12.6421 11.9205 12.4267 11.5474L11.9121 10.6563H12.5468C12.9776 10.6563 13.3281 10.3058 13.3281 9.87506C13.3281 9.44428 12.9776 9.09381 12.5468 9.09381Z" fill="white"/>
<path d="M3.72691 11.2812L3.57325 11.5474C3.35788 11.9204 3.48616 12.3992 3.85922 12.6146C3.98194 12.6854 4.11607 12.7191 4.24853 12.7191C4.51872 12.7191 4.78188 12.5789 4.92644 12.3286L5.53113 11.2812H3.72691Z" fill="white"/>
</svg>
