<svg width="14" height="15" viewBox="0 0 14 15" fill="none" xmlns="http://www.w3.org/2000/svg">
<path d="M3.65355 15C2.66972 15 1.74829 14.5752 1.08328 13.8979C-0.20642 12.5846 -0.565557 10.2925 1.2423 8.45189L8.6594 0.898155C9.41116 0.132832 10.3676 -0.163348 11.2829 0.0869129C12.1831 0.331816 12.9196 1.0826 13.1608 1.99869C13.4058 2.93238 13.1159 3.90664 12.3649 4.67196L5.27119 11.8966C4.8664 12.3091 4.40834 12.5533 3.94877 12.6022C3.493 12.6512 3.05854 12.5028 2.75418 12.1928C2.2033 11.6295 2.12417 10.5726 3.0418 9.63891L8.02407 4.56482C8.22874 4.35665 8.56049 4.35665 8.76517 4.56482C8.96985 4.77299 8.96985 5.11126 8.76517 5.31943L3.78214 10.3943C3.35148 10.832 3.31191 11.2507 3.49528 11.4382C3.57594 11.5193 3.69768 11.5568 3.83844 11.5407C4.05377 11.5185 4.29954 11.3754 4.53009 11.142L11.6238 3.91812C12.1108 3.42219 12.2972 2.83902 12.1488 2.2765C12.0747 2.00143 11.9311 1.75029 11.7321 1.54742C11.533 1.34455 11.2853 1.19682 11.0128 1.11857C10.4604 0.9678 9.88671 1.15837 9.39975 1.65429L1.98264 9.20803C0.600879 10.6155 0.931864 12.2357 1.82362 13.1441C2.71614 14.0525 4.30562 14.3908 5.68815 12.9818L13.1053 5.4281C13.1536 5.37863 13.2113 5.33934 13.2749 5.31252C13.3385 5.28569 13.4068 5.27188 13.4758 5.27188C13.5448 5.27188 13.6131 5.28569 13.6767 5.31252C13.7403 5.33934 13.798 5.37863 13.8464 5.4281C13.9448 5.52887 14 5.6645 14 5.80579C14 5.94708 13.9448 6.08271 13.8464 6.18348L6.42925 13.7372C5.555 14.6265 4.57574 15 3.65355 15Z" fill="#0069FF"/>
</svg>
