<svg width="21" height="21" viewBox="0 0 21 21" fill="none" xmlns="http://www.w3.org/2000/svg">
<path d="M21 10.5C21 13.3046 19.9078 15.9415 17.9246 17.9246C15.9415 19.9078 13.3046 21 10.5 21C7.69535 21 5.05846 19.9078 3.07535 17.9246C1.09225 15.9415 0 13.3046 0 10.5C0 7.69535 1.09225 5.05846 3.07535 3.07535C5.05846 1.09225 7.69535 0 10.5 0C13.3046 0 15.9415 1.09225 17.9246 3.07535C19.9078 5.05846 21 7.69535 21 10.5Z" fill="#1E324E"/>
<path d="M21 10.5C21 13.3046 19.9078 15.9415 17.9246 17.9246C15.9415 19.9078 13.3046 21 10.5 21V0C13.3046 0 15.9415 1.09225 17.9246 3.07535C19.9078 5.05846 21 7.69535 21 10.5Z" fill="#1E324E"/>
<path d="M10.5 20C15.7467 20 20 15.7467 20 10.5C20 5.25329 15.7467 1 10.5 1C5.25329 1 1 5.25329 1 10.5C1 15.7467 5.25329 20 10.5 20Z" fill="#F2F8FF"/>
<path d="M20 10.5C20 15.7382 15.5139 20 10 20V1C15.5139 1 20 5.26183 20 10.5Z" fill="#F2F8FF"/>
<path d="M13.6476 10.372C13.5098 10.2342 13.3597 10.1136 13.2001 10.0103C13.5771 9.5874 13.8072 9.03041 13.8072 8.4201C13.8072 7.78353 13.5578 7.18307 13.1054 6.73066C12.6526 6.27785 12.0525 6.02848 11.4156 6.02848H11.1149V4.83984H9.88445V6.02848H7.17578V7.25895H8.18066V13.7411H7.17578V14.9715H9.88445V16.1602H11.1149V14.9715H11.7437C13.2297 14.9715 14.4388 13.7624 14.4388 12.2764C14.4388 11.5586 14.1579 10.8823 13.6476 10.372ZM9.41113 7.25895H11.4156C11.724 7.25895 12.0148 7.38035 12.2351 7.60061C12.4553 7.82086 12.5767 8.11207 12.5767 8.4201C12.5767 9.0542 12.0661 9.571 11.4344 9.58084H9.41113V7.25895ZM11.7437 13.7411H9.41113V10.8121L10.4997 10.8117L11.7437 10.8113C12.1325 10.8113 12.5 10.9643 12.7777 11.2424C13.0554 11.5201 13.2084 11.8871 13.2084 12.2764C13.2084 13.084 12.5513 13.7411 11.7437 13.7411Z" fill="#1E324E"/>
<path d="M14.4391 12.2764C14.4391 13.7624 13.23 14.9715 11.744 14.9715H11.1152V16.1602H10.5V13.7411H11.744C12.5516 13.7411 13.2087 13.084 13.2087 12.2764C13.2087 11.8871 13.0557 11.5201 12.778 11.2424C12.5003 10.9643 12.1328 10.8113 11.744 10.8113L10.5 10.8117V9.58084H11.4347C12.0664 9.571 12.577 9.0542 12.577 8.4201C12.577 8.11207 12.4556 7.82086 12.2354 7.60061C12.0151 7.38035 11.7243 7.25895 11.4159 7.25895H10.5V4.83984H11.1152V6.02848H11.4159C12.0529 6.02848 12.6529 6.27785 13.1057 6.73066C13.5581 7.18307 13.8075 7.78353 13.8075 8.4201C13.8075 9.03041 13.5774 9.5874 13.2005 10.0103C13.36 10.1136 13.5101 10.2342 13.6479 10.372C14.1582 10.8823 14.4391 11.5586 14.4391 12.2764Z" fill="#1E324E"/>
</svg>
