<svg width="30" height="30" viewBox="0 0 30 30" fill="none" xmlns="http://www.w3.org/2000/svg">
<path d="M15 30C23.2843 30 30 23.2843 30 15C30 6.71573 23.2843 0 15 0C6.71573 0 0 6.71573 0 15C0 23.2843 6.71573 30 15 30Z" fill="#FD9468"/>
<path d="M22.4426 1.97461C23.9953 4.33699 24.8994 7.16355 24.8994 10.2018C24.8994 18.486 18.1837 25.2018 9.89942 25.2018C7.19087 25.2018 4.65013 24.4836 2.45679 23.2277C5.13774 27.3068 9.75394 30.0005 15 30.0005C23.2843 30.0005 30 23.2848 30 15.0005C30 9.4248 26.9576 4.55994 22.4426 1.97461Z" fill="#FE7D43"/>
<path d="M15 28.0623C22.2137 28.0623 28.0615 22.2145 28.0615 15.0009C28.0615 7.78725 22.2137 1.93945 15 1.93945C7.7864 1.93945 1.9386 7.78725 1.9386 15.0009C1.9386 22.2145 7.7864 28.0623 15 28.0623Z" fill="#FFDCCE"/>
<path d="M15.1707 10.9911L17.7925 13.6134C17.8868 13.7077 18.0397 13.7077 18.134 13.6134L19.5159 12.2311C19.6102 12.1369 19.6102 11.984 19.5159 11.8897L15.1706 7.54341C15.0763 7.44907 14.9234 7.44907 14.8291 7.54341L10.4854 11.8881C10.3911 11.9824 10.3911 12.1353 10.4854 12.2296L11.8673 13.6118C11.9616 13.7061 12.1145 13.7061 12.2088 13.6118L14.8291 10.9911C14.9235 10.8967 15.0764 10.8967 15.1707 10.9911Z" fill="#FD9468"/>
<path d="M8.92695 13.4457L7.54495 14.828C7.45067 14.9223 7.45067 15.0751 7.54495 15.1694L8.92683 16.5516C9.02111 16.646 9.17403 16.646 9.26831 16.5516L10.6503 15.1694C10.7446 15.0751 10.7446 14.9222 10.6503 14.8279L9.26837 13.4458C9.17415 13.3514 9.02128 13.3514 8.92695 13.4457Z" fill="#FD9468"/>
<path d="M15.1705 22.4552L19.5166 18.1081C19.6109 18.0138 19.6109 17.8608 19.5165 17.7665L18.1338 16.3851C18.0395 16.2909 17.8866 16.2909 17.7924 16.3852L15.1705 19.0074C15.0762 19.1018 14.9233 19.1018 14.829 19.0074L12.2085 16.3865C12.1143 16.2923 11.9616 16.2921 11.8672 16.3863L10.4832 17.7667C10.3887 17.8609 10.3886 18.0139 10.483 18.1083L14.829 22.4551C14.9234 22.5494 15.0762 22.5494 15.1705 22.4552Z" fill="#FD9468"/>
<path d="M20.7314 13.4477L19.3495 14.8299C19.2552 14.9242 19.2552 15.0771 19.3495 15.1714L20.7314 16.5536C20.8257 16.6479 20.9786 16.6479 21.0729 16.5536L22.4549 15.1713C22.5491 15.077 22.5491 14.9242 22.4549 14.8299L21.0729 13.4477C20.9786 13.3534 20.8257 13.3534 20.7314 13.4477Z" fill="#FD9468"/>
<path d="M16.5788 14.8288L15.1707 13.4204C15.0764 13.326 14.9234 13.326 14.8292 13.4204L13.421 14.8288C13.3267 14.9231 13.3267 15.076 13.421 15.1703L14.8292 16.5789C14.9234 16.6732 15.0764 16.6732 15.1707 16.5789L16.5788 15.1703C16.6731 15.0759 16.6731 14.9231 16.5788 14.8288Z" fill="#FD9468"/>
<path d="M24.2304 5.75977C24.6651 7.16355 24.8994 8.65541 24.8994 10.2021C24.8994 18.4863 18.1837 25.2021 9.89938 25.2021C8.67196 25.2021 7.47934 25.0535 6.33752 24.7754C8.64295 26.8201 11.6762 28.0623 15 28.0623C22.2137 28.0623 28.0614 22.2145 28.0614 15.0009C28.0614 11.3913 26.5972 8.12379 24.2304 5.75977Z" fill="#FFD1BE"/>
</svg>
