<svg width="30" height="30" viewBox="0 0 30 30" fill="none" xmlns="http://www.w3.org/2000/svg">
<path d="M30 15C30 19.0066 28.4396 22.7736 25.6066 25.6066C22.7736 28.4396 19.0066 30 15 30C10.9934 30 7.22637 28.4396 4.39336 25.6066C1.56035 22.7736 0 19.0066 0 15C0 10.9934 1.56035 7.22637 4.39336 4.39336C7.22637 1.56035 10.9934 0 15 0C19.0066 0 22.7736 1.56035 25.6066 4.39336C28.4396 7.22637 30 10.9934 30 15Z" fill="#FEE158"/>
<path d="M30 15C30 19.0066 28.4396 22.7736 25.6066 25.6066C22.7736 28.4396 19.0066 30 15 30V0C19.0066 0 22.7736 1.56035 25.6066 4.39336C28.4396 7.22637 30 10.9934 30 15Z" fill="#FFB528"/>
<path d="M15 26.8359C21.5368 26.8359 26.8359 21.5368 26.8359 15C26.8359 8.46319 21.5368 3.16406 15 3.16406C8.46319 3.16406 3.16406 8.46319 3.16406 15C3.16406 21.5368 8.46319 26.8359 15 26.8359Z" fill="#FFB528"/>
<path d="M26.8359 15C26.8359 21.5262 21.5262 26.8359 15 26.8359V3.16406C21.5262 3.16406 26.8359 8.47383 26.8359 15Z" fill="#FE8C01"/>
<path d="M19.4971 14.8172C19.3002 14.6203 19.0858 14.448 18.8578 14.3004C19.3963 13.6963 19.725 12.9006 19.725 12.0287C19.725 11.1193 19.3688 10.2615 18.7225 9.61523C18.0756 8.96836 17.2184 8.61211 16.3084 8.61211H15.8789V6.91406H14.1211V8.61211H10.2516V10.3699H11.6871V19.6301H10.2516V21.3879H14.1211V23.0859H15.8789V21.3879H16.7772C18.9 21.3879 20.6274 19.6605 20.6274 17.5377C20.6274 16.5123 20.226 15.5461 19.4971 14.8172ZM13.4449 10.3699H16.3084C16.749 10.3699 17.1645 10.5434 17.4791 10.858C17.7938 11.1727 17.9672 11.5887 17.9672 12.0287C17.9672 12.9346 17.2377 13.6729 16.3354 13.6869H13.4449V10.3699ZM16.7772 19.6301H13.4449V15.4459L15 15.4453L16.7772 15.4447C17.3326 15.4447 17.8576 15.6633 18.2543 16.0605C18.651 16.4572 18.8695 16.9816 18.8695 17.5377C18.8695 18.6914 17.9309 19.6301 16.7772 19.6301Z" fill="#FEE158"/>
<path d="M20.6273 17.5377C20.6273 19.6605 18.9 21.3879 16.7771 21.3879H15.8789V23.0859H15V19.6301H16.7771C17.9309 19.6301 18.8695 18.6914 18.8695 17.5377C18.8695 16.9816 18.651 16.4572 18.2543 16.0605C17.8576 15.6633 17.3326 15.4447 16.7771 15.4447L15 15.4453V13.6869H16.3354C17.2377 13.6729 17.9672 12.9346 17.9672 12.0287C17.9672 11.5887 17.7937 11.1727 17.4791 10.858C17.1645 10.5434 16.749 10.3699 16.3084 10.3699H15V6.91406H15.8789V8.61211H16.3084C17.2184 8.61211 18.0756 8.96836 18.7225 9.61523C19.3688 10.2615 19.725 11.1193 19.725 12.0287C19.725 12.9006 19.3963 13.6963 18.8578 14.3004C19.0857 14.448 19.3002 14.6203 19.4971 14.8172C20.226 15.5461 20.6273 16.5123 20.6273 17.5377Z" fill="#FFB528"/>
</svg>
