<svg width="20" height="20" viewBox="0 0 20 20" fill="none" xmlns="http://www.w3.org/2000/svg">
<g clip-path="url(#clip0_4190_34432)">
<path d="M6.74023 15.3084C6.73516 15.2834 6.72773 15.2588 6.71797 15.235C6.7082 15.2115 6.69609 15.1889 6.68203 15.1678C6.66797 15.1463 6.65156 15.1264 6.63359 15.1084C6.61563 15.0904 6.5957 15.074 6.57422 15.06C6.55313 15.0459 6.53047 15.0338 6.50664 15.024C6.4832 15.0143 6.45859 15.0064 6.43359 15.0018C6.3832 14.9916 6.33125 14.9916 6.28125 15.0018C6.25625 15.0064 6.23164 15.0143 6.20781 15.024C6.18437 15.0338 6.16172 15.0459 6.14062 15.06C6.11914 15.074 6.09922 15.0904 6.08125 15.1084C6.06328 15.1264 6.04688 15.1463 6.03281 15.1678C6.01836 15.1889 6.00664 15.2115 5.99688 15.235C5.98711 15.2588 5.9793 15.2834 5.97461 15.3084C5.96953 15.3334 5.9668 15.3592 5.9668 15.3846C5.9668 15.41 5.96953 15.4357 5.97461 15.4607C5.9793 15.4857 5.98711 15.5103 5.99688 15.5338C6.00664 15.5576 6.01836 15.5803 6.03281 15.6014C6.04688 15.6228 6.06328 15.6428 6.08125 15.6607C6.09922 15.6787 6.11914 15.6951 6.14062 15.7092C6.16172 15.7233 6.18437 15.7354 6.20781 15.7451C6.23164 15.7549 6.25625 15.7627 6.28125 15.7674C6.30625 15.7725 6.33203 15.7752 6.35742 15.7752C6.38281 15.7752 6.40859 15.7725 6.43359 15.7674C6.45859 15.7627 6.4832 15.7549 6.50664 15.7451C6.53047 15.7354 6.55313 15.7232 6.57422 15.7092C6.5957 15.6951 6.61563 15.6787 6.63359 15.6607C6.65156 15.6428 6.66797 15.6228 6.68203 15.6014C6.69609 15.5803 6.7082 15.5576 6.71797 15.5338C6.72773 15.5103 6.73516 15.4857 6.74023 15.4607C6.74531 15.4357 6.74805 15.41 6.74805 15.3846C6.74805 15.3592 6.74531 15.3334 6.74023 15.3084Z" fill="#1E324E"/>
<path d="M17.9685 15.4281C17.967 15.4242 17.9654 15.4204 17.9638 15.4165C17.6042 14.5752 16.761 14.2643 15.7631 14.6051L13.0417 15.3577C12.8844 14.8812 12.4919 14.4757 11.937 14.2698C11.9336 14.2686 11.9301 14.2673 11.9266 14.2661L8.93519 13.2508C8.68621 12.929 7.90629 12.1055 6.44602 12.1055C5.42551 12.1055 4.52273 12.8055 4.00625 13.5686H0.390625C0.174883 13.5686 0 13.7435 0 13.9593V18.8841C0 19.0999 0.174883 19.2748 0.390625 19.2748H2.71316C2.92891 19.2748 3.10379 19.0999 3.10379 18.8841V18.5469H4.19297C4.40871 18.5469 4.58359 18.372 4.58359 18.1562V18.0438C5.21852 18.0992 5.42734 18.2196 6.01047 18.5559C6.45891 18.8145 7.13668 19.2053 8.35723 19.7541C8.36289 19.7566 8.36863 19.7591 8.37438 19.7613C8.60863 19.8535 9.06656 19.9982 9.63113 19.9982C10.0241 19.9982 10.4688 19.928 10.9253 19.7211L16.9406 17.5674C16.9513 17.5636 16.9618 17.5593 16.9721 17.5545C17.547 17.29 18.4037 16.5446 17.9685 15.4281ZM2.32254 18.4935H0.78125V14.3498H2.32254V18.4935ZM3.80234 17.7656H3.10379V14.3498H3.80234V17.7656ZM16.66 16.838L10.6474 18.9907C10.6421 18.9926 10.635 18.9954 10.6298 18.9975C10.6245 18.9997 10.6193 19.002 10.6141 19.0043C9.77668 19.3892 8.9807 19.1588 8.66875 19.0375C7.48977 18.507 6.86051 18.1441 6.40074 17.879C5.76152 17.5104 5.45352 17.3328 4.58359 17.2609V14.1148C4.95387 13.5079 5.67191 12.8867 6.44605 12.8867C7.77363 12.8867 8.33617 13.7502 8.35828 13.785C8.40598 13.8626 8.4793 13.9211 8.56551 13.9503L11.67 15.004C12.1658 15.1901 12.4279 15.6147 12.3074 16.0381C12.2518 16.2337 12.1234 16.3959 11.9458 16.4948C11.7698 16.5929 11.5662 16.6171 11.3723 16.5635L7.87254 15.4544C7.66676 15.3892 7.4473 15.5031 7.38215 15.7088C7.31695 15.9145 7.43086 16.134 7.63652 16.1992L11.1423 17.3102C11.1461 17.3113 11.1498 17.3125 11.1535 17.3135C11.2935 17.3533 11.436 17.373 11.5776 17.373C11.8369 17.373 12.0934 17.307 12.3261 17.1773C12.686 16.9768 12.9462 16.6481 13.0589 16.2518C13.0679 16.2202 13.0758 16.1885 13.0827 16.1569L16.0157 15.3444C16.4393 15.1997 16.9953 15.1475 17.2429 15.7177C17.4991 16.3871 16.8331 16.7554 16.66 16.838Z" fill="#1E324E"/>
<path d="M14.0258 5.13848C14.0207 5.11348 14.0133 5.08887 14.0031 5.06504C13.9934 5.0416 13.9816 5.01895 13.9672 4.99785C13.9531 4.97637 13.9367 4.95645 13.9188 4.93848C13.9008 4.92051 13.8809 4.9041 13.8594 4.89004C13.8383 4.87598 13.8156 4.86387 13.7922 4.8541C13.7684 4.84434 13.7437 4.83652 13.7191 4.83184C13.6687 4.82168 13.6168 4.82168 13.5664 4.83184C13.5414 4.83652 13.5168 4.84434 13.4934 4.8541C13.4695 4.86387 13.4469 4.87598 13.4258 4.89004C13.4043 4.9041 13.3844 4.92051 13.3664 4.93848C13.3484 4.95645 13.332 4.97637 13.318 4.99785C13.3039 5.01895 13.2918 5.0416 13.282 5.06504C13.2723 5.08887 13.2645 5.11348 13.2598 5.13848C13.2547 5.16348 13.252 5.18926 13.252 5.21465C13.252 5.24004 13.2547 5.26582 13.2598 5.29082C13.2645 5.31582 13.2723 5.34043 13.282 5.36387C13.2918 5.3877 13.3039 5.41035 13.318 5.43145C13.332 5.45293 13.3484 5.47285 13.3664 5.49082C13.3844 5.50879 13.4043 5.5252 13.4258 5.53926C13.4469 5.55332 13.4695 5.56543 13.4934 5.5752C13.5168 5.58496 13.5414 5.59238 13.5664 5.59746C13.5914 5.60254 13.6172 5.60527 13.6426 5.60527C13.668 5.60527 13.6937 5.60254 13.7191 5.59746C13.7437 5.59238 13.7684 5.58496 13.7922 5.5752C13.8156 5.56543 13.8383 5.55332 13.8594 5.53926C13.8809 5.5252 13.9008 5.50879 13.9188 5.49082C13.9367 5.47285 13.9531 5.45293 13.9672 5.43145C13.9816 5.41035 13.9934 5.3877 14.0031 5.36387C14.0133 5.34043 14.0207 5.31582 14.0258 5.29082C14.0309 5.26582 14.0332 5.24004 14.0332 5.21465C14.0332 5.18926 14.0309 5.16348 14.0258 5.13848Z" fill="#1E324E"/>
<path d="M19.6097 1.32296H17.2872C17.0715 1.32296 16.8966 1.49784 16.8966 1.71358V2.05085H15.8074C15.5917 2.05085 15.4168 2.22573 15.4168 2.44147V2.5539C14.7818 2.49847 14.573 2.37808 13.9899 2.04183C13.5415 1.78323 12.8637 1.39241 11.6431 0.843623C11.6375 0.841045 11.6318 0.838662 11.6259 0.836396C11.2286 0.680068 10.1874 0.37249 9.07521 0.876514L7.50333 1.43933L6.17837 0.114404C6.02583 -0.0381348 5.77849 -0.0381348 5.62595 0.114404L1.27603 4.46429C1.13532 4.60503 1.10833 4.84905 1.27603 5.01675L8.70911 12.4498C8.82806 12.5688 9.10657 12.6048 9.26157 12.4498L13.2329 8.47858C13.3361 8.48749 13.4433 8.49229 13.5543 8.49229C14.5749 8.49229 15.4776 7.79222 15.994 7.02917H19.6097C19.8255 7.02917 20.0004 6.85429 20.0004 6.63855V1.71358C20.0004 1.49784 19.8255 1.32296 19.6097 1.32296ZM5.90212 0.943037L6.79243 1.83335C6.52778 1.99702 6.22181 2.0846 5.90212 2.0846C5.58239 2.0846 5.27646 1.99706 5.01181 1.83335L5.90212 0.943037ZM2.99501 5.63085L2.1047 4.7405L2.99501 3.85019C3.15868 4.11483 3.24626 4.42081 3.24626 4.7405C3.24626 5.06019 3.15872 5.36616 2.99501 5.63085ZM8.98536 11.6212L8.09521 10.731C8.63868 10.3956 9.33196 10.3956 9.87548 10.731L8.98536 11.6212ZM10.4383 10.1683C9.57509 9.5421 8.39564 9.5421 7.53243 10.1683L3.55778 6.19358C3.86282 5.77405 4.02751 5.27011 4.02751 4.7405C4.02751 4.21085 3.86286 3.70694 3.55778 3.28741L4.44907 2.39616C4.8686 2.7012 5.37251 2.86589 5.90216 2.86589C6.43181 2.86589 6.93571 2.7012 7.35524 2.39616L8.20013 3.24105C8.01782 3.26796 7.84005 3.32804 7.67427 3.42042C7.39427 3.57644 7.17458 3.81007 7.03778 4.09272C6.59716 4.17433 6.18923 4.38765 5.86923 4.70761C5.00107 5.57581 5.00107 6.98843 5.86927 7.85663C6.30333 8.29069 6.87353 8.50776 7.44376 8.50776C8.01396 8.50776 8.58419 8.29073 9.01829 7.85663C9.30071 7.57421 9.49856 7.2271 9.59767 6.84882L10.9166 7.29644C10.7681 7.98425 10.9202 8.70784 11.3304 9.2762L10.4383 10.1683ZM8.06337 6.32792C8.06681 6.32917 8.07024 6.33042 8.07372 6.33159L8.85482 6.59671C8.79583 6.86292 8.66235 7.10769 8.46587 7.30421C7.90228 7.86772 6.98524 7.8678 6.42173 7.30421C5.85814 6.74065 5.85814 5.82366 6.42173 5.26007C6.55767 5.12405 6.7181 5.01776 6.8929 4.94569C6.96501 5.54577 7.39708 6.08065 8.06337 6.32792ZM11.8932 8.71331C11.7424 8.46761 11.6571 8.18718 11.6436 7.90097C11.8308 8.03624 12.0594 8.16878 12.3326 8.27397L11.8932 8.71331ZM15.4167 6.4828C15.0465 7.08976 14.3284 7.71097 13.5543 7.71097C13.4095 7.71097 13.2737 7.70065 13.1468 7.68229C13.1463 7.68222 13.1458 7.68214 13.1453 7.68206C12.3017 7.55952 11.8479 7.08007 11.6983 6.89022C11.6904 6.87851 11.6564 6.83409 11.6514 6.82671C11.6059 6.74538 11.5313 6.67999 11.4361 6.64769L8.33032 5.59358C7.8347 5.40757 7.57271 4.98315 7.69278 4.55987C7.69286 4.5596 7.69294 4.55933 7.69302 4.55905C7.69314 4.55874 7.69321 4.55839 7.69329 4.55808C7.74911 4.36315 7.87732 4.20147 8.0545 4.10276C8.23052 4.00468 8.43399 3.98034 8.62806 4.03413L12.1278 5.14315C12.3335 5.20843 12.553 5.09444 12.6182 4.88878C12.6833 4.68312 12.5695 4.46358 12.3638 4.39839L9.5804 3.51636L9.5561 3.49206C9.55587 3.49183 9.55564 3.49155 9.55536 3.49132L8.11435 2.0503L9.35294 1.60679C9.35712 1.60526 9.36228 1.60335 9.36642 1.60167C9.36747 1.60124 9.3695 1.60046 9.37052 1.60003C9.37583 1.59788 9.38107 1.59562 9.38626 1.59323C10.2236 1.20839 11.0195 1.43874 11.3315 1.56007C12.5106 2.09058 13.1399 2.45343 13.5996 2.71854C14.2388 3.08718 14.5468 3.2648 15.4167 3.33663V6.4828ZM16.8966 6.24784H16.198V2.8321H16.8966V6.24784ZM19.2191 6.24784H17.6778V2.10421H19.2191V6.24784Z" fill="#1E324E"/>
</g>
<defs>
<clipPath id="clip0_4190_34432">
<rect width="20" height="20" fill="white"/>
</clipPath>
</defs>
</svg>
