<svg width="20" height="14" viewBox="0 0 20 14" fill="none" xmlns="http://www.w3.org/2000/svg">
<path d="M17.9167 0H2.08332C0.935 0 0 0.935 0 2.08336V11.25C0 12.3984 0.935 13.3334 2.08332 13.3334H17.9166C19.065 13.3334 20 12.3984 20 11.25V2.08336C20 0.935 19.065 0 17.9167 0ZM19.1667 11.25C19.1667 11.9392 18.6059 12.5 17.9167 12.5H2.08332C1.39414 12.5 0.83332 11.9392 0.83332 11.25V2.08336C0.83332 1.39418 1.39414 0.833359 2.08332 0.833359H17.9166C18.6058 0.833359 19.1666 1.39418 19.1666 2.08336V11.25H19.1667Z" fill="#1E324E"/>
<path d="M19.5833 2.5H0.41668C0.18668 2.5 0 2.68668 0 2.91668V5.41668C0 5.64668 0.18668 5.83336 0.41668 5.83336H19.5834C19.8134 5.83336 20 5.64668 20 5.41668V2.91668C20 2.68668 19.8133 2.5 19.5833 2.5ZM19.1667 5H0.83332V3.33332H19.1666V5H19.1667Z" fill="#1E324E"/>
<path d="M7.91668 8.33398H2.91668C2.68668 8.33398 2.5 8.52066 2.5 8.75066C2.5 8.98066 2.68668 9.1673 2.91668 9.1673H7.91668C8.14668 9.1673 8.33336 8.98063 8.33336 8.75063C8.33336 8.52063 8.14668 8.33398 7.91668 8.33398Z" fill="#1E324E"/>
<path d="M7.91668 10H2.91668C2.68668 10 2.5 10.1867 2.5 10.4167C2.5 10.6467 2.68668 10.8334 2.91668 10.8334H7.91668C8.14668 10.8334 8.33336 10.6467 8.33336 10.4167C8.33332 10.1867 8.14668 10 7.91668 10Z" fill="#1E324E"/>
<path d="M16.2503 7.5H15.417C14.7278 7.5 14.167 8.06082 14.167 8.75V9.58332C14.167 10.2725 14.7278 10.8333 15.417 10.8333H16.2503C16.9395 10.8333 17.5003 10.2725 17.5003 9.58332V8.75C17.5003 8.06086 16.9395 7.5 16.2503 7.5ZM16.667 9.58336C16.667 9.81336 16.4803 10 16.2503 10H15.417C15.187 10 15.0003 9.81336 15.0003 9.58336V8.75004C15.0003 8.52004 15.187 8.33336 15.417 8.33336H16.2503C16.4803 8.33336 16.667 8.52004 16.667 8.75004V9.58336Z" fill="#1E324E"/>
</svg>
