<svg width="9" height="9" viewBox="0 0 9 9" fill="none" xmlns="http://www.w3.org/2000/svg">
<path fill-rule="evenodd" clip-rule="evenodd" d="M4.5 0C2.01477 0 0 2.01477 0 4.5C0 6.98523 2.01477 9 4.5 9C6.98523 9 9 6.98523 9 4.5C9 2.01477 6.98523 0 4.5 0ZM6.45055 3.73909C6.48646 3.69804 6.51381 3.65021 6.53097 3.59843C6.54813 3.54665 6.55476 3.49196 6.55047 3.43758C6.54619 3.3832 6.53107 3.33023 6.50601 3.28178C6.48095 3.23333 6.44645 3.19038 6.40454 3.15546C6.36264 3.12054 6.31417 3.09435 6.26199 3.07843C6.20982 3.06252 6.15499 3.0572 6.10073 3.06279C6.04646 3.06838 5.99387 3.08477 5.94603 3.11099C5.8982 3.1372 5.85609 3.17272 5.82218 3.21545L4.06309 5.32595L3.15286 4.41532C3.07571 4.3408 2.97237 4.29956 2.86511 4.3005C2.75785 4.30143 2.65524 4.34445 2.57939 4.4203C2.50354 4.49615 2.46052 4.59876 2.45959 4.70602C2.45866 4.81328 2.49989 4.91662 2.57441 4.99377L3.80168 6.22105C3.84188 6.26122 3.89 6.29257 3.94299 6.31312C3.99597 6.33366 4.05266 6.34294 4.10943 6.34036C4.1662 6.33778 4.22181 6.3234 4.27271 6.29814C4.32362 6.27288 4.3687 6.23729 4.40509 6.19364L6.45055 3.73909Z" fill="#0069FF"/>
</svg>
