<svg width="26" height="26" viewBox="0 0 26 26" fill="none" xmlns="http://www.w3.org/2000/svg">
<path d="M17.7874 8.56209C17.7874 8.43771 17.6852 8.33594 17.5603 8.33594L15.6871 8.34442L12.8659 11.6943L10.0475 8.34725L8.1714 8.33876C8.04651 8.33876 7.94434 8.43771 7.94434 8.56492C7.94434 8.61863 7.9642 8.66951 7.99826 8.71192L11.6908 13.0936L7.99826 17.4725C7.96397 17.5139 7.94494 17.5658 7.94434 17.6195C7.94434 17.7438 8.04651 17.8456 8.1714 17.8456L10.0475 17.8371L12.8659 14.4873L15.6842 17.8343L17.5575 17.8428C17.6824 17.8428 17.7846 17.7438 17.7846 17.6166C17.7846 17.5629 17.7647 17.512 17.7306 17.4696L14.0437 13.0908L17.7363 8.70909C17.7704 8.66951 17.7874 8.6158 17.7874 8.56209Z" fill="black"/>
<path d="M12.8717 0.320312C5.76353 0.320312 0 5.99782 0 12.9999C0 20.0019 5.76353 25.6795 12.8717 25.6795C19.9798 25.6795 25.7434 20.0019 25.7434 12.9999C25.7434 5.99782 19.9798 0.320312 12.8717 0.320312ZM12.8717 23.5285C6.97025 23.5285 2.18359 18.8132 2.18359 12.9999C2.18359 7.18653 6.97025 2.47131 12.8717 2.47131C18.7731 2.47131 23.5598 7.18653 23.5598 12.9999C23.5598 18.8132 18.7731 23.5285 12.8717 23.5285Z" fill="black"/>
</svg>
