<svg width="16" height="20" viewBox="0 0 16 20" fill="none" xmlns="http://www.w3.org/2000/svg">
<path d="M6 7C6 5.89543 6.8954 5 8 5C9.1046 5 10 5.89543 10 7C10 8.10458 9.1046 8.99998 8 8.99998C6.8954 8.99998 6 8.10458 6 7Z" fill="#B0C1DA"/>
<path d="M7 10.5C5.34315 10.5 4 11.8432 4 13.5C4 14.0523 4.44772 14.5 5 14.5H11C11.5523 14.5 12 14.0523 12 13.5C12 11.8432 10.6569 10.5 9 10.5H7Z" fill="#B0C1DA"/>
<path fill-rule="evenodd" clip-rule="evenodd" d="M3.54347 0.882642C6.49924 0.457902 9.50064 0.457902 12.4564 0.882642C13.9219 1.09323 15.051 2.28262 15.1851 3.75708L15.3121 5.15281C15.6054 8.37754 15.6054 11.6223 15.3121 14.8471L15.1851 16.2428C15.051 17.7173 13.9219 18.9067 12.4564 19.1172C9.50064 19.542 6.49924 19.542 3.54347 19.1172C2.07798 18.9067 0.948876 17.7173 0.814756 16.2428L0.687786 14.8471C0.394436 11.6223 0.394436 8.37754 0.687786 5.15281L0.814756 3.75708C0.948876 2.28262 2.07798 1.09323 3.54347 0.882642ZM12.243 2.36739C9.42874 1.96299 6.57114 1.96299 3.75682 2.36739C2.97903 2.47916 2.37977 3.11042 2.30859 3.89297L2.18162 5.2887C1.89649 8.42304 1.89649 11.5768 2.18162 14.7112L2.30859 16.1069C2.37978 16.8895 2.97903 17.5207 3.75682 17.6325C6.57114 18.0369 9.42874 18.0369 12.243 17.6325C13.0208 17.5207 13.6201 16.8895 13.6913 16.1069L13.8182 14.7112C14.1034 11.5768 14.1034 8.42304 13.8182 5.2887L13.6913 3.89297C13.6201 3.11042 13.0208 2.47916 12.243 2.36739Z" fill="#B0C1DA"/>
</svg>
