<svg width="20" height="20" viewBox="0 0 20 20" fill="none" xmlns="http://www.w3.org/2000/svg">
<path d="M13.8219 6.50258C13.8219 6.40448 13.7425 6.32422 13.6455 6.32422L12.1901 6.33091L9.99833 8.97285L7.80874 6.33314L6.35121 6.32645C6.25419 6.32645 6.1748 6.40448 6.1748 6.50481C6.1748 6.54717 6.19024 6.5873 6.2167 6.62074L9.08545 10.0764L6.2167 13.5299C6.19006 13.5626 6.17527 13.6035 6.1748 13.6459C6.1748 13.744 6.25419 13.8242 6.35121 13.8242L7.80874 13.8175L9.99833 11.1756L12.1879 13.8153L13.6433 13.822C13.7403 13.822 13.8197 13.744 13.8197 13.6436C13.8197 13.6013 13.8042 13.5611 13.7778 13.5277L10.9134 10.0742L13.7822 6.61851C13.8086 6.5873 13.8219 6.54494 13.8219 6.50258Z" fill="#263238"/>
<path d="M10 0C4.47768 0 0 4.47768 0 10C0 15.5223 4.47768 20 10 20C15.5223 20 20 15.5223 20 10C20 4.47768 15.5223 0 10 0ZM10 18.3036C5.41518 18.3036 1.69643 14.5848 1.69643 10C1.69643 5.41518 5.41518 1.69643 10 1.69643C14.5848 1.69643 18.3036 5.41518 18.3036 10C18.3036 14.5848 14.5848 18.3036 10 18.3036Z" fill="#263238"/>
</svg>
