<svg width="25" height="22" viewBox="0 0 25 22" fill="none" xmlns="http://www.w3.org/2000/svg">
<path d="M22.7959 9.48912C22.7902 9.46012 22.7799 9.43287 22.7704 9.40537C22.7652 9.39062 22.7627 9.37512 22.7562 9.36062C22.7434 9.33012 22.7269 9.30187 22.7097 9.27337C22.7039 9.26337 22.6994 9.25237 22.6932 9.24262C22.6677 9.20537 22.6394 9.17037 22.6077 9.13862L20.9847 7.51587C20.7162 7.24737 20.2812 7.24737 20.0124 7.51587C19.7437 7.78437 19.7439 8.21937 20.0124 8.48812L20.4622 8.93762H17.5414C16.6772 6.93687 14.7089 5.62512 12.4969 5.62512C10.1147 5.62512 8.01545 7.14662 7.27295 9.41087C7.1547 9.77162 7.3512 10.1601 7.71195 10.2786C7.7832 10.3019 7.85545 10.3131 7.9262 10.3131C8.2152 10.3131 8.4842 10.1294 8.57945 9.83962C9.1362 8.14112 10.7109 7.00012 12.4969 7.00012C14.2829 7.00012 15.8572 8.14112 16.4144 9.83937C16.5072 10.1216 16.7704 10.3126 17.0677 10.3126H20.4619L20.0122 10.7619C19.7437 11.0304 19.7437 11.4656 20.0122 11.7344C20.1464 11.8686 20.3222 11.9359 20.4984 11.9359C20.6742 11.9359 20.8499 11.8686 20.9842 11.7346L22.6077 10.1116C22.6149 10.1044 22.6204 10.0954 22.6277 10.0876C22.6507 10.0621 22.6737 10.0366 22.6927 10.0079C22.7004 9.99637 22.7054 9.98337 22.7127 9.97137C22.7284 9.94487 22.7444 9.91837 22.7562 9.88962C22.7624 9.87462 22.7654 9.85912 22.7704 9.84387C22.7797 9.81662 22.7899 9.78962 22.7959 9.76112C22.8047 9.71662 22.8097 9.67137 22.8097 9.62512C22.8097 9.57887 22.8047 9.53362 22.7959 9.48912ZM17.2869 12.2219C16.9252 12.1041 16.5374 12.3001 16.4192 12.6609C15.8627 14.3591 14.2879 15.5001 12.5019 15.5001C10.7159 15.5001 9.1417 14.3591 8.58445 12.6609C8.4917 12.3786 8.22845 12.1876 7.9312 12.1876H4.53695L4.9867 11.7379C5.2552 11.4696 5.2552 11.0344 4.9867 10.7656C4.7182 10.4969 4.2832 10.4971 4.01445 10.7656L2.39095 12.3886C2.3592 12.4206 2.33045 12.4559 2.30495 12.4936C2.2937 12.5109 2.28545 12.5301 2.2757 12.5481C2.26395 12.5694 2.2512 12.5896 2.24195 12.6119C2.2322 12.6354 2.2267 12.6596 2.21945 12.6839C2.2142 12.7026 2.2067 12.7206 2.20295 12.7404C2.1942 12.7849 2.18945 12.8299 2.18945 12.8751C2.18945 12.8756 2.18995 12.8764 2.18995 12.8769C2.18995 12.9216 2.19445 12.9659 2.2032 13.0096C2.2077 13.0304 2.21495 13.0496 2.2207 13.0696C2.22745 13.0924 2.23295 13.1156 2.2422 13.1376C2.25195 13.1616 2.2657 13.1831 2.27795 13.2054C2.2872 13.2221 2.29445 13.2401 2.3052 13.2561C2.3307 13.2939 2.35945 13.3294 2.3912 13.3614L4.0142 14.9844C4.14845 15.1186 4.3242 15.1859 4.49995 15.1859C4.6762 15.1859 4.85195 15.1186 4.9862 14.9844C5.2547 14.7161 5.2547 14.2809 4.9862 14.0121L4.53645 13.5624H7.45745C8.3217 15.5631 10.2899 16.8749 12.5019 16.8749C14.8842 16.8749 16.9834 15.3534 17.7259 13.0891C17.8442 12.7286 17.6479 12.3401 17.2869 12.2219Z" fill="#B0C1DA"/>
</svg>
