<svg width="20" height="20" viewBox="0 0 20 20" fill="none" xmlns="http://www.w3.org/2000/svg">
<path d="M7.5565 2.69009C6.42026 2.5631 5.24606 2.5631 4.10982 2.69009C3.37882 2.77179 2.78774 3.34742 2.70154 4.08445C2.56563 5.24647 2.56563 6.42036 2.70154 7.58238C2.78774 8.3194 3.37882 8.89504 4.10982 8.97671C5.24606 9.10371 6.42026 9.10371 7.5565 8.97671C8.28748 8.89504 8.87857 8.3194 8.96473 7.58238C9.10065 6.42036 9.10065 5.24647 8.96473 4.08445C8.87857 3.34742 8.28748 2.77179 7.5565 2.69009Z" fill="none"/>
<path d="M7.5565 11.0235C6.42026 10.8965 5.24606 10.8965 4.10982 11.0235C3.37882 11.1051 2.78774 11.6808 2.70154 12.4178C2.56563 13.5798 2.56563 14.7537 2.70154 15.9157C2.78774 16.6527 3.37882 17.2284 4.10982 17.3101C5.24606 17.4371 6.42026 17.4371 7.5565 17.3101C8.28748 17.2284 8.87857 16.6527 8.96473 15.9157C9.10065 14.7537 9.10065 13.5798 8.96473 12.4178C8.87857 11.6808 8.28748 11.1051 7.5565 11.0235Z" fill="none"/>
<path d="M15.89 2.69009C14.7537 2.5631 13.5795 2.5631 12.4433 2.69009C11.7123 2.77179 11.1212 3.34742 11.035 4.08445C10.8991 5.24647 10.8991 6.42036 11.035 7.58238C11.1212 8.3194 11.7123 8.89504 12.4433 8.97671C13.5795 9.10371 14.7537 9.10371 15.89 8.97671C16.621 8.89504 17.212 8.3194 17.2983 7.58238C17.4342 6.42036 17.4342 5.24647 17.2983 4.08445C17.212 3.34742 16.621 2.77179 15.89 2.69009Z" fill="none"/>
<path d="M15.89 11.0235C14.7537 10.8965 13.5795 10.8965 12.4433 11.0235C11.7123 11.1051 11.1212 11.6808 11.035 12.4178C10.8991 13.5798 10.8991 14.7537 11.035 15.9157C11.1212 16.6527 11.7123 17.2284 12.4433 17.3101C13.5795 17.4371 14.7537 17.4371 15.89 17.3101C16.621 17.2284 17.212 16.6527 17.2983 15.9157C17.4342 14.7537 17.4342 13.5798 17.2983 12.4178C17.212 11.6808 16.621 11.1051 15.89 11.0235Z" fill="none"/>
</svg>
