<svg width="18" height="18" viewBox="0 0 18 18" fill="none" xmlns="http://www.w3.org/2000/svg">
<path d="M6.2915 9.00007C6.2915 7.50432 7.50409 6.29175 8.99984 6.29175C10.4956 6.29175 11.7082 7.50432 11.7082 9.00007C11.7082 10.4958 10.4956 11.7084 8.99984 11.7084C7.50409 11.7084 6.2915 10.4958 6.2915 9.00007Z" fill="#0069FF"/>
<path fill-rule="evenodd" clip-rule="evenodd" d="M8.55044 0.532203C8.79611 0.278003 9.20361 0.278003 9.44928 0.532203L11.5929 2.75011H14.6249C14.97 2.75011 15.2499 3.02993 15.2499 3.37511V6.4071L17.4678 8.55069C17.7219 8.79635 17.7219 9.20385 17.4678 9.44952L15.2499 11.5931V14.6251C15.2499 14.9703 14.97 15.2501 14.6249 15.2501H11.5929L9.44928 17.468C9.20361 17.7222 8.79611 17.7222 8.55044 17.468L6.40685 15.2501H3.37487C3.02969 15.2501 2.74987 14.9703 2.74987 14.6251V11.5931L0.531959 9.44952C0.277759 9.20385 0.277759 8.79635 0.531959 8.55069L2.74987 6.4071V3.37511C2.74987 3.02993 3.02968 2.75011 3.37487 2.75011H6.40686L8.55044 0.532203ZM8.99986 5.04178C6.81373 5.04178 5.04153 6.81399 5.04153 9.0001C5.04153 11.1863 6.81373 12.9584 8.99986 12.9584C11.186 12.9584 12.9582 11.1863 12.9582 9.0001C12.9582 6.81399 11.186 5.04178 8.99986 5.04178Z" fill="#0069FF"/>
</svg>
