<svg width="20" height="20" viewBox="0 0 20 20" fill="none" xmlns="http://www.w3.org/2000/svg">
<path d="M10.8662 2.98487C10.3666 2.72414 9.68033 2.72022 9.17733 2.98003C7.02845 4.08981 5.08122 5.36134 3.37624 6.77018C3.14888 6.95804 2.99843 7.22099 3.00101 7.52153C3.00358 7.82104 3.15745 8.08106 3.38405 8.26634C5.0753 9.64921 7.02473 10.9222 9.1345 12.0234C9.63408 12.2841 10.3203 12.288 10.8233 12.0282C12.9722 10.9185 14.9195 9.64688 16.6244 8.23808C16.8517 8.05021 17.0022 7.78727 16.9997 7.48672C16.9971 7.1872 16.8433 6.92719 16.6166 6.7419C14.9253 5.35904 12.9759 4.08602 10.8662 2.98487Z" fill="none"/>
<path d="M17.4651 11.4428C17.758 11.26 17.8471 10.8745 17.6643 10.5817C17.4815 10.2889 17.096 10.1997 16.8032 10.3825L11.7138 13.5599C11.2605 13.843 10.6445 14.0007 9.99995 14.0008C9.35545 14.0008 8.73945 13.8431 8.28598 13.5601L3.25238 10.4187C2.95955 10.2359 2.57401 10.3252 2.39126 10.618C2.2085 10.9108 2.29774 11.2963 2.59057 11.4791L7.62418 14.6205C8.31489 15.0516 9.17178 15.2508 10 15.2508C10.8284 15.2507 11.6852 15.0514 12.3758 14.6202L17.4651 11.4428Z" fill="none"/>
<path d="M17.4652 14.5717C17.7579 14.3889 17.8471 14.0033 17.6643 13.7106C17.4814 13.4177 17.0959 13.3286 16.8031 13.5115L12.3957 16.2639C11.7516 16.6661 10.8901 16.8835 9.99995 16.8835C9.10978 16.8836 8.24817 16.6662 7.60399 16.2641L3.25244 13.5476C2.95963 13.3648 2.57408 13.454 2.3913 13.7468C2.20851 14.0396 2.29769 14.4251 2.5905 14.608L6.94206 17.3245C7.82354 17.8747 8.92612 18.1336 10 18.1335C11.0739 18.1335 12.1764 17.8745 13.0578 17.3241L17.4652 14.5717Z" fill="none"/>
</svg>
