<svg width="17" height="16" viewBox="0 0 17 16" fill="none" xmlns="http://www.w3.org/2000/svg">
<path fill-rule="evenodd" clip-rule="evenodd" d="M16.5085 6.4761L16.5107 9.49519C16.4895 9.78277 16.462 10.07 16.4285 10.3568C16.3724 10.8363 15.9826 11.2231 15.4931 11.2778C13.96 11.4492 12.3735 11.4492 10.8404 11.2778C10.3509 11.2231 9.96104 10.8363 9.90495 10.3568C9.72179 8.79094 9.72179 7.20911 9.90495 5.64326C9.96104 5.16375 10.3509 4.77697 10.8404 4.72226C12.3735 4.55091 13.96 4.55091 15.4931 4.72226C15.9826 4.77697 16.3724 5.16375 16.4285 5.64326C16.4609 5.92044 16.4876 6.1981 16.5085 6.4761ZM13.1667 6.75002C12.4764 6.75002 11.9167 7.30969 11.9167 8.00002C11.9167 8.69035 12.4764 9.25002 13.1667 9.25002C13.857 9.25002 14.4167 8.69035 14.4167 8.00002C14.4167 7.30969 13.857 6.75002 13.1667 6.75002Z" fill="#0069FF"/>
<path d="M16.0029 3.03305C16.1325 3.25743 15.8893 3.5087 15.6318 3.47991C14.0064 3.29825 12.3267 3.29825 10.7013 3.47991C9.64354 3.59814 8.78804 4.43109 8.66329 5.49797C8.46887 7.16027 8.46887 8.8396 8.66329 10.5019C8.78804 11.5688 9.64354 12.4018 10.7013 12.52C12.3267 12.7016 14.0064 12.7016 15.6318 12.52C15.891 12.491 16.1362 12.744 16.0054 12.9697C15.3565 14.0887 14.1998 14.8697 12.8555 15.0111L12.3124 15.0683C9.55329 15.3586 6.77044 15.3394 4.01565 15.0112L3.65569 14.9683C2.17059 14.7914 0.993879 13.631 0.79607 12.1486C0.428654 9.39502 0.428654 6.60485 0.79607 3.85132C0.993879 2.36885 2.17059 1.20855 3.65569 1.03159L4.01564 0.988695C6.77043 0.66042 9.55329 0.641279 12.3124 0.931612L12.8555 0.988779C14.2009 1.13035 15.3558 1.91252 16.0029 3.03305Z" fill="#0069FF"/>
</svg>
