<svg width="21" height="20" viewBox="0 0 21 20" fill="none" xmlns="http://www.w3.org/2000/svg">
<path d="M4.67101 2.25706C8.59901 -0.961942 14.404 -0.737942 18.071 2.92906C21.976 6.83406 21.976 13.1661 18.071 17.0711C14.166 20.9761 7.83401 20.9761 3.92901 17.0711C2.73064 15.8743 1.85609 14.3926 1.38747 12.7652C0.918858 11.1377 0.871557 9.41783 1.25001 7.76706L1.32701 7.45406L3.26101 7.96406C2.78156 9.78632 2.96071 11.7193 3.76689 13.4224C4.57308 15.1256 5.95455 16.4894 7.66785 17.2737C9.38115 18.058 11.3163 18.2124 13.1323 17.7096C14.9482 17.2069 16.5285 16.0792 17.5944 14.5255C18.6604 12.9717 19.1438 11.0915 18.9593 9.21632C18.7747 7.34109 17.9342 5.59117 16.5859 4.27496C15.2375 2.95875 13.4678 2.16072 11.5887 2.02152C9.70956 1.88232 7.8416 2.41089 6.31401 3.51406L6.09301 3.68006L7.11001 4.69706L2.51401 5.75706L3.57401 1.16106L4.67001 2.25706H4.67101ZM12 4.00006V6.00006H14.5V8.00006H9.00001C8.87507 7.99983 8.75456 8.04639 8.66223 8.13057C8.5699 8.21475 8.51243 8.33044 8.50114 8.45488C8.48985 8.57932 8.52556 8.70347 8.60123 8.80289C8.67691 8.90231 8.78707 8.9698 8.91001 8.99206L9.00001 9.00006H13C13.6631 9.00006 14.2989 9.26345 14.7678 9.73229C15.2366 10.2011 15.5 10.837 15.5 11.5001C15.5 12.1631 15.2366 12.799 14.7678 13.2678C14.2989 13.7367 13.6631 14.0001 13 14.0001H12V16.0001H10V14.0001H7.50001V12.0001H13C13.125 12.0003 13.2455 11.9537 13.3378 11.8695C13.4301 11.7854 13.4876 11.6697 13.4989 11.5452C13.5102 11.4208 13.4745 11.2966 13.3988 11.1972C13.3231 11.0978 13.213 11.0303 13.09 11.0081L13 11.0001H9.00001C8.33697 11.0001 7.70109 10.7367 7.23225 10.2678C6.76341 9.79898 6.50001 9.1631 6.50001 8.50006C6.50001 7.83702 6.76341 7.20113 7.23225 6.73229C7.70109 6.26345 8.33697 6.00006 9.00001 6.00006H10V4.00006H12Z" fill="#03053D"/>
</svg>
