<svg width="51" height="33" viewBox="0 0 51 33" fill="none" xmlns="http://www.w3.org/2000/svg">
<rect x="0.0815526" y="0.0815526" width="50.2364" height="32.1317" rx="1.5495" fill="white" stroke="#BEBEBE" stroke-width="0.163105"/>
<path fill-rule="evenodd" clip-rule="evenodd" d="M38.2736 13.1207C39.433 13.1207 40.0706 13.657 40.0706 14.6701C40.1286 15.4447 39.6069 16.1002 38.9112 16.2194L40.4764 18.4242H39.2591L37.9258 16.279H37.8099V18.4242H36.8244V13.1207H38.2736ZM37.8101 15.5664H38.0999C38.7375 15.5664 39.0274 15.2685 39.0274 14.7322C39.0274 14.2554 38.7375 13.9575 38.0999 13.9575H37.8101V15.5664ZM33.4043 18.4242H36.1867V17.5303H34.3897V16.1002H36.1287V15.2064H34.3897V14.0146H36.1867V13.1207H33.4043V18.4242ZM30.5061 16.6961L29.1728 13.1207H28.1294L30.2742 18.5434H30.7959L32.9407 13.1207H31.8973L30.5061 16.6961ZM18.7387 15.8013C18.7387 17.2911 19.898 18.5425 21.3472 18.5425C21.8109 18.5425 22.2167 18.4233 22.6225 18.2445V17.0527C22.3326 17.4103 21.9269 17.6486 21.4631 17.6486C20.5356 17.6486 19.7821 16.9335 19.7821 15.9801V15.8609C19.7241 14.9075 20.4777 14.0733 21.4052 14.0137C21.8689 14.0137 22.3326 14.252 22.6225 14.6096V13.4178C22.2747 13.1794 21.8109 13.1198 21.4052 13.1198C19.898 13.0006 18.7387 14.252 18.7387 15.8013ZM16.9415 15.147C16.3618 14.9087 16.1879 14.7895 16.1879 14.4915C16.2459 14.134 16.5357 13.8361 16.8835 13.8957C17.1734 13.8957 17.4632 14.0744 17.6951 14.3128L18.2168 13.5977C17.811 13.2402 17.2893 13.0018 16.7676 13.0018C15.9561 12.9422 15.2604 13.5977 15.2025 14.432V14.4915C15.2025 15.2066 15.4923 15.6237 16.4198 15.9217C16.6517 15.9813 16.8835 16.1005 17.1154 16.2196C17.2893 16.3388 17.4052 16.5176 17.4052 16.7559C17.4052 17.1731 17.0574 17.5306 16.7096 17.5306H16.6517C16.1879 17.5306 15.7822 17.2327 15.6082 16.8155L14.9706 17.471C15.3184 18.1265 16.014 18.484 16.7096 18.484C17.6371 18.5436 18.3907 17.8286 18.4487 16.8751V16.6964C18.3907 15.9813 18.1009 15.6237 16.9415 15.147ZM13.5795 18.4242H14.5649V13.1207H13.5795V18.4242ZM9 13.1207H10.4492H10.739C12.1303 13.1803 13.2316 14.3721 13.1737 15.8023C13.1737 16.5769 12.8259 17.292 12.2462 17.8283C11.7245 18.2454 11.0868 18.4838 10.4492 18.4242H9V13.1207ZM10.2753 17.532C10.7391 17.5916 11.2608 17.4128 11.6086 17.1149C11.9564 16.7573 12.1303 16.2806 12.1303 15.7443C12.1303 15.2676 11.9564 14.7909 11.6086 14.4334C11.2608 14.1354 10.7391 13.9566 10.2753 14.0162H9.98551V17.532H10.2753Z" fill="black"/>
<path fill-rule="evenodd" clip-rule="evenodd" d="M25.5791 13C24.1299 13 22.9126 14.1918 22.9126 15.7411C22.9126 17.2308 24.0719 18.4822 25.5791 18.5418C27.0863 18.6014 28.2456 17.35 28.3036 15.8007C28.2456 14.2514 27.0863 13 25.5791 13V13Z" fill="#FD6020"/>
</svg>
