<svg width="30" height="31" viewBox="0 0 30 31" fill="none" xmlns="http://www.w3.org/2000/svg">
<path d="M15 30.4062C23.2843 30.4062 30 23.6905 30 15.4062C30 7.12198 23.2843 0.40625 15 0.40625C6.71573 0.40625 0 7.12198 0 15.4062C0 23.6905 6.71573 30.4062 15 30.4062Z" fill="#F7C04A"/>
<path d="M27.4138 15.406C27.4139 18.6977 26.1066 21.8547 23.7794 24.1827C21.4522 26.5106 18.2956 27.8189 15.0039 27.8198H15C14.6483 27.8198 14.3002 27.8053 13.9558 27.7765C10.8552 27.5146 7.96592 26.0979 5.86027 23.8069C3.75462 21.5159 2.58612 18.5177 2.58618 15.406C2.58618 8.54995 8.14394 2.99219 15 2.99219C21.856 2.99219 27.4138 8.54995 27.4138 15.406Z" fill="#F5A431"/>
<path d="M24.2918 23.6386C23.1286 24.9542 21.699 26.0074 20.0977 26.7283C18.4964 27.4492 16.7601 27.8213 15.0041 27.8198H15.0002C14.6485 27.8198 14.3004 27.8054 13.956 27.7765C12.3256 27.6402 10.7383 27.1823 9.2858 26.4292C7.83329 25.6762 6.54432 24.6429 5.49329 23.389L9.51936 18.7875C8.65774 18.0591 8.04703 17.0781 7.77367 15.9834C7.61133 15.3341 7.61991 14.6537 7.79859 14.0087C7.97727 13.3636 8.31996 12.7759 8.79329 12.3026L8.89221 11.8073C9.01754 11.1818 9.31779 10.6047 9.75808 10.143C10.1984 9.68129 10.7606 9.35401 11.3795 9.19915L11.8967 6.0957C12.2076 6.0957 12.5124 6.18225 12.7768 6.34566C13.0413 6.50907 13.2551 6.74289 13.3941 7.02092L14.1196 8.47307C15.1074 8.37007 16.1057 8.44074 17.0691 8.68191L18.7722 6.97889C18.8822 6.86911 19.0206 6.79206 19.1718 6.75633C19.3231 6.7206 19.4813 6.72759 19.6289 6.77652C19.9378 6.87957 20.2065 7.07719 20.3969 7.34141C20.5873 7.60562 20.6898 7.92304 20.6898 8.24872V10.7509L22.345 16.5433C22.5703 17.3312 22.518 18.1726 22.197 18.9265L24.2918 23.6386Z" fill="#EBC99B"/>
<path d="M12.9966 20.578C11.7942 20.5774 10.6206 20.2101 9.63247 19.525C9.57368 19.4838 9.52414 19.4307 9.48703 19.3693C9.44991 19.3078 9.42602 19.2393 9.4169 19.1681C9.40778 19.0968 9.41362 19.0245 9.43405 18.9557C9.45448 18.8868 9.48905 18.823 9.53556 18.7683L9.53604 18.7677C9.61841 18.6698 9.73427 18.6061 9.86105 18.5889C9.98783 18.5718 10.1165 18.6024 10.2219 18.6749C11.0369 19.24 12.0048 19.543 12.9965 19.5436C14.2138 19.5435 15.4081 19.2127 16.4518 18.5865L16.8768 18.3315C16.935 18.2966 16.9996 18.2734 17.0667 18.2634C17.1338 18.2535 17.2023 18.2568 17.2681 18.2732C17.334 18.2897 17.396 18.319 17.4505 18.3594C17.5051 18.3998 17.5511 18.4506 17.586 18.5088L17.5864 18.5094C17.6569 18.6269 17.6779 18.7677 17.6446 18.9007C17.6114 19.0337 17.5267 19.148 17.4091 19.2186L16.9841 19.4736C15.7795 20.1962 14.4013 20.5779 12.9966 20.578Z" fill="#E6B47C"/>
<path d="M13.7499 16.1883C13.371 16.3037 12.9702 16.3283 12.58 16.26C12.1899 16.1918 11.8212 16.0326 11.504 15.7955L12.0571 14.6893L11.1318 14.2266L10.5424 15.4054H9.8276C9.69042 15.4054 9.55886 15.4599 9.46186 15.5569C9.36486 15.6539 9.31036 15.7855 9.31036 15.9227C9.31036 16.0599 9.36486 16.1914 9.46186 16.2884C9.55886 16.3854 9.69042 16.4399 9.8276 16.4399H10.6586C11.1141 16.8431 11.6654 17.1226 12.2599 17.2518C12.8543 17.3809 13.4719 17.3552 14.0536 17.1773C14.1247 17.1547 14.1901 17.1169 14.2451 17.0666C14.3002 17.0162 14.3437 16.9545 14.3725 16.8857C14.4014 16.8169 14.4149 16.7426 14.4123 16.668C14.4096 16.5935 14.3907 16.5204 14.357 16.4538L14.3568 16.4534C14.3031 16.3447 14.2128 16.2586 14.1017 16.2101C13.9907 16.1616 13.8661 16.1539 13.7499 16.1883Z" fill="#D68B51"/>
<path d="M15.2587 13.3369C15.6871 13.3369 16.0345 12.9895 16.0345 12.561C16.0345 12.1325 15.6871 11.7852 15.2587 11.7852C14.8302 11.7852 14.4828 12.1325 14.4828 12.561C14.4828 12.9895 14.8302 13.3369 15.2587 13.3369Z" fill="#9E593C"/>
<path d="M11.6379 12.5615C12.0664 12.5615 12.4138 12.2141 12.4138 11.7856C12.4138 11.3571 12.0664 11.0098 11.6379 11.0098C11.2094 11.0098 10.8621 11.3571 10.8621 11.7856C10.8621 12.2141 11.2094 12.5615 11.6379 12.5615Z" fill="#9E593C"/>
<path d="M19.0523 11.0099L19.0517 11.0097C18.9216 10.9663 18.8141 10.8731 18.7528 10.7504C18.6915 10.6278 18.6814 10.4859 18.7248 10.3558L18.7991 10.1331C18.8431 9.99916 18.8519 9.85614 18.8246 9.71782C18.7973 9.5795 18.7348 9.45055 18.6432 9.3434C18.5772 9.26626 18.5355 9.17139 18.5231 9.07065C18.5107 8.9699 18.5283 8.86775 18.5736 8.77693C18.6114 8.70089 18.6673 8.63533 18.7364 8.58606C18.8055 8.53678 18.8857 8.50533 18.9699 8.49447C19.0541 8.48362 19.1397 8.4937 19.219 8.52382C19.2984 8.55394 19.3691 8.60318 19.4249 8.66717C19.6335 8.91017 19.7758 9.20289 19.8381 9.51701C19.9003 9.83113 19.8805 10.156 19.7804 10.4602L19.7062 10.683C19.6847 10.7474 19.6508 10.8069 19.6063 10.8582C19.5618 10.9095 19.5077 10.9515 19.447 10.9818C19.3862 11.0122 19.3201 11.0303 19.2524 11.0351C19.1847 11.0399 19.1167 11.0313 19.0523 11.0099Z" fill="#E6B47C"/>
<path d="M21.5043 19.1346L20.4893 20.9107C20.3477 21.1585 20.4338 21.4742 20.6816 21.6158L20.6821 21.6161C20.9299 21.7576 21.2456 21.6716 21.3872 21.4238L22.4021 19.6477C22.5438 19.3998 22.4577 19.0842 22.2099 18.9426L22.2093 18.9423C21.9615 18.8007 21.6459 18.8868 21.5043 19.1346Z" fill="#E6B47C"/>
<path d="M15.0041 27.8207H15.0002C14.6485 27.8207 14.3004 27.8062 13.956 27.7774L13.8267 26.7397C13.7323 25.9649 13.4781 25.2183 13.0802 24.5469C12.6824 23.8754 12.1495 23.2939 11.5153 22.839C11.4086 22.7637 11.3342 22.6509 11.307 22.5231C11.2798 22.3954 11.3018 22.2621 11.3685 22.1498V22.1492C11.4055 22.0878 11.4549 22.0347 11.5135 21.9934C11.572 21.952 11.6385 21.9233 11.7088 21.9089C11.779 21.8946 11.8515 21.895 11.9215 21.91C11.9916 21.9251 12.0578 21.9546 12.1159 21.9966C12.8669 22.5342 13.4979 23.222 13.969 24.0163C14.4402 24.8107 14.7411 25.6942 14.8528 26.611L15.0041 27.8207Z" fill="#E6B47C"/>
<path d="M11.3793 15.4069C11.3114 15.4069 11.2441 15.3935 11.1814 15.3675C11.1186 15.3416 11.0616 15.3035 11.0135 15.2554C10.9655 15.2074 10.9274 15.1504 10.9014 15.0876C10.8754 15.0248 10.862 14.9576 10.8621 14.8896V13.8552C10.862 13.767 10.8846 13.6803 10.9275 13.6033C10.9704 13.5262 11.0324 13.4615 11.1074 13.4151C11.1824 13.3688 11.268 13.3424 11.356 13.3384C11.4441 13.3345 11.5318 13.3531 11.6106 13.3925L12.6451 13.9098C12.731 13.9527 12.8033 14.0188 12.8538 14.1005C12.9043 14.1822 12.931 14.2763 12.931 14.3724C12.931 14.4685 12.9043 14.5626 12.8538 14.6443C12.8033 14.726 12.731 14.7921 12.6451 14.835L11.6106 15.3523C11.5388 15.3882 11.4596 15.4069 11.3793 15.4069Z" fill="#9E593C"/>
</svg>
