<svg width="421" height="426" viewBox="0 0 421 426" fill="none" xmlns="http://www.w3.org/2000/svg">
<path d="M413.794 219.007C403.818 256.234 380.123 297.764 342.634 312.976C285.995 335.972 283.531 383.633 178.689 389.279C163.386 390.17 148.031 389.397 132.894 386.974C125.493 385.767 118.177 384.087 110.991 381.944C47.6135 363.045 10.582 311.716 2.49069 255.096C-8.15773 180.585 40.6421 139.914 72.5781 115.78C104.514 91.6456 137.673 6.78483 240.694 0.429365C256.425 -0.590529 272.22 0.208017 287.768 2.80916C323.231 8.84732 360.319 26.1405 383.632 54.4554C385.38 56.5833 387.066 58.7608 388.69 60.9882C420.439 104.693 427.401 168.247 413.794 219.007Z" fill="#4C70FF"/>
<path opacity="0.7" d="M413.794 219.007C403.818 256.234 380.123 297.764 342.634 312.976C285.995 335.972 283.531 383.633 178.689 389.279C163.386 390.17 148.031 389.397 132.894 386.974C125.493 385.767 118.177 384.087 110.991 381.944C47.6135 363.045 10.582 311.716 2.49069 255.096C-8.15773 180.585 40.6421 139.914 72.5781 115.78C104.514 91.6456 137.673 6.78483 240.694 0.429365C256.425 -0.590529 272.22 0.208017 287.768 2.80916C323.231 8.84732 360.319 26.1405 383.632 54.4554C385.38 56.5833 387.066 58.7608 388.69 60.9882C420.439 104.693 427.401 168.247 413.794 219.007Z" fill="white"/>
<path opacity="0.3" d="M56.5168 77.2169V71.9253C56.5168 61.4915 49.5734 57.7958 42.518 57.7958C40.6647 57.763 38.8241 58.1079 37.1084 58.8095C35.3927 59.5111 33.8379 60.5547 32.5386 61.8767C31.2393 63.1987 30.2228 64.7714 29.551 66.499C28.8792 68.2266 28.5663 70.0728 28.6312 71.9253V77.2169H26.6154V106.502H58.346V77.2169H56.5168ZM43.4139 93.3342V98.6444H40.4089V93.3342C39.5477 92.9855 38.8347 92.3482 38.3919 91.5316C37.949 90.7149 37.804 89.7696 37.9816 88.8578C38.1592 87.9459 38.6484 87.1241 39.3653 86.5333C40.0823 85.9426 40.9824 85.6195 41.9114 85.6195C42.8404 85.6195 43.7405 85.9426 44.4575 86.5333C45.1744 87.1241 45.6636 87.9459 45.8412 88.8578C46.0188 89.7696 45.8738 90.7149 45.4309 91.5316C44.9881 92.3482 44.275 92.9855 43.4139 93.3342ZM52.1212 77.2449H32.8495V71.9533C32.8445 69.3956 33.8552 66.9406 35.6594 65.1277C37.4635 63.3147 39.9137 62.2922 42.4713 62.2848C47.7909 62.2848 52.1212 65.9245 52.1212 71.9253V77.2449Z" stroke="black" stroke-miterlimit="10"/>
<path opacity="0.3" d="M168.442 22.0617H78.5323C71.5845 22.0617 65.9521 27.692 65.9521 34.6373C65.9521 41.5826 71.5845 47.2129 78.5323 47.2129H168.442C175.39 47.2129 181.022 41.5826 181.022 34.6373C181.022 27.692 175.39 22.0617 168.442 22.0617Z" stroke="black" stroke-miterlimit="10"/>
<g opacity="0.3">
<path opacity="0.3" d="M89.8808 33.4656L92.5032 36.3587L91.2433 37.2919L89.2835 33.8482L87.3517 37.3386L86.0918 36.4054L88.6956 33.5123L84.8599 32.6723L85.3265 31.1605L88.9382 32.747L88.4903 28.8367H90.0768L89.6568 32.747L93.2685 31.1885L93.7351 32.7003L89.8808 33.4656Z" fill="black"/>
<path opacity="0.3" d="M99.6519 33.4655L102.274 36.3586L100.977 37.3386L99.0266 33.8948L97.1228 37.3386L95.8629 36.4053L98.4573 33.5122L94.6216 32.6723L95.0976 31.1604L98.7093 32.7469L98.2613 28.8366H99.8479L99.4279 32.7469L103.04 31.1884L103.506 32.7003L99.6519 33.4655Z" fill="black"/>
<path opacity="0.3" d="M109.377 33.4655L111.999 36.3586L110.739 37.2919L108.789 33.8482L106.894 37.3386L105.644 36.4053L108.238 33.5122L104.393 32.6723L104.869 31.1604L108.481 32.7469L108.033 28.8366H109.619L109.199 32.7469L112.811 31.1884L113.278 32.7003L109.377 33.4655Z" fill="black"/>
<path opacity="0.3" d="M119.185 33.4655L121.807 36.3586L120.575 37.3386L118.616 33.8948L116.665 37.3386L115.405 36.4053L118 33.5122L114.164 32.6723L114.631 31.1604L118.242 32.7469L117.776 28.8366H119.353L118.933 32.7469L122.545 31.1884L123.021 32.7003L119.185 33.4655Z" fill="black"/>
<path opacity="0.3" d="M128.975 33.4655L131.597 36.3586L130.337 37.2919L128.378 33.8482L126.436 37.3386L125.167 36.4053L127.771 33.5122L123.935 32.6723L124.402 31.1604L128.014 32.7469L127.566 28.8366H129.152L128.732 32.7469L132.344 31.1884L132.811 32.7003L128.975 33.4655Z" fill="black"/>
<path opacity="0.3" d="M138.727 33.4655L141.35 36.3586L140.08 37.2919L138.13 33.8482L136.198 37.3386L134.938 36.4053L137.533 33.5122L133.697 32.6723L134.173 31.1604L137.785 32.7469L137.374 28.8366H138.961L138.541 32.7469L142.152 31.1884L142.619 32.7003L138.727 33.4655Z" fill="black"/>
<path opacity="0.3" d="M148.489 33.4655L151.112 36.3586L149.852 37.2919L147.901 33.8482L145.969 37.3386L144.709 36.4053L147.304 33.5122L143.468 32.6723L143.944 31.1604L147.556 32.7469L147.108 28.8366H148.694L148.274 32.7469L151.886 31.1884L152.353 32.7003L148.489 33.4655Z" fill="black"/>
<path opacity="0.3" d="M158.26 33.4655L160.883 36.3586L159.623 37.2919L157.663 33.8482L155.74 37.3386L154.481 36.4053L157.075 33.5122L153.239 32.6723L153.706 31.1604L157.318 32.7469L156.879 28.8366H158.456L158.036 32.7469L161.639 31.1884L162.115 32.7003L158.26 33.4655Z" fill="black"/>
</g>
<path opacity="0.3" d="M52.1773 193.603C51.8905 192.974 51.4424 192.433 50.8786 192.033C50.3148 191.633 49.6553 191.389 48.9669 191.326H46.8484V189.46C48.4842 187.399 49.3638 184.839 49.3402 182.208C49.3402 177.449 46.4751 173.585 42.9381 173.585C39.401 173.585 36.5826 177.449 36.5826 182.208C36.563 184.745 37.3724 187.219 38.8877 189.254V191.326H36.088C35.3915 191.381 34.7217 191.618 34.1453 192.012C33.5688 192.407 33.106 192.946 32.8029 193.575L28.9672 200.033H55.9103L52.1773 193.603Z" stroke="black" stroke-miterlimit="10"/>
<path opacity="0.3" d="M61.1374 196.376C65.382 186.128 60.5157 174.38 50.2682 170.136C40.0206 165.891 28.2723 170.757 24.0277 181.005C19.783 191.252 24.6493 203.001 34.8968 207.245C45.1444 211.49 56.8927 206.624 61.1374 196.376Z" stroke="black" stroke-miterlimit="10"/>
<g opacity="0.2">
<path opacity="0.2" d="M192.744 276.019C169.048 262.849 150.851 241.63 141.446 216.204C132.042 190.778 132.052 162.824 141.475 137.405C150.898 111.985 169.111 90.7796 192.816 77.6269C216.522 64.4741 244.153 60.2436 270.708 65.7013L267.815 75.4071L300.068 67.7264L277.297 43.6392L274.497 52.9064C265.746 51.0332 256.82 50.0947 247.871 50.1066C177.961 50.1066 121.079 106.979 121.079 176.889C121.098 200.159 127.513 222.975 139.624 242.844C151.735 262.714 169.074 278.872 189.748 289.552L181.75 276.253L192.744 276.019Z" fill="black"/>
<path opacity="0.2" d="M294.683 59.0291L304.641 69.5655L292.415 72.4772C319.125 83.8551 340.458 105.037 352.026 131.664C363.594 158.292 364.517 188.34 354.605 215.628C344.693 242.915 324.7 265.366 298.739 278.362C272.778 291.357 242.824 293.909 215.039 285.493L218.978 278.353L185.838 278.997L202.963 307.377L208.488 297.373C221.209 301.542 234.512 303.662 247.899 303.654C317.809 303.654 374.691 246.781 374.691 176.862C374.661 151.474 367.022 126.678 352.76 105.674C338.499 84.6699 318.269 68.4227 294.683 59.0291Z" fill="black"/>
</g>
<path d="M397.752 38.4872L376.38 34.4089V34.4836C375.316 36.6394 373.58 37.8339 371.966 37.526L371.033 37.3486C369.418 37.05 368.233 35.2862 368.046 32.8877V32.813L346.675 28.7347C345.26 28.4627 343.805 28.4726 342.394 28.7636C340.982 29.0547 339.642 29.6213 338.45 30.431C337.258 31.2407 336.238 32.2775 335.447 33.4822C334.657 34.6868 334.111 36.0356 333.843 37.4513L306.106 178.102C305.795 179.743 306.148 181.441 307.087 182.821C308.027 184.202 309.477 185.153 311.118 185.465L371.415 196.972C372.227 197.128 373.062 197.122 373.872 196.955C374.681 196.788 375.45 196.462 376.134 195.998C376.818 195.533 377.404 194.938 377.857 194.247C378.311 193.556 378.624 192.782 378.779 191.97L406.496 51.3381C406.769 49.9198 406.76 48.4616 406.468 47.0471C406.176 45.6326 405.607 44.2897 404.794 43.0956C403.982 41.9015 402.941 40.8797 401.733 40.0889C400.524 39.298 399.171 38.7537 397.752 38.4872Z" fill="#4C70FF" stroke="#263238" stroke-linecap="round" stroke-linejoin="round"/>
<path d="M405.899 54.4552L406.496 51.3195C406.767 49.9025 406.755 48.4462 406.462 47.0338C406.168 45.6215 405.599 44.2809 404.787 43.0889C403.974 41.8968 402.935 40.8768 401.728 40.0872C400.521 39.2975 399.169 38.7538 397.752 38.4872L376.38 34.4089V34.4836C375.316 36.6394 373.581 37.8339 371.966 37.526L371.033 37.3486C369.418 37.05 368.233 35.2862 368.046 32.8877V32.813L346.675 28.7347C345.26 28.4627 343.805 28.4726 342.394 28.7636C340.982 29.0547 339.642 29.6213 338.45 30.431C337.258 31.2407 336.238 32.2775 335.447 33.4822C334.657 34.6868 334.111 36.0356 333.843 37.4513L333.236 40.5964L405.899 54.4552Z" fill="white" stroke="#263238" stroke-linecap="round" stroke-linejoin="round"/>
<path d="M401.214 99.4943L403.818 85.8688L402.586 85.6355L410.36 49.4719C410.901 46.6134 410.287 43.657 408.651 41.2512C407.015 38.8455 404.491 37.187 401.634 36.6396L343.772 25.5899C340.914 25.046 337.956 25.6596 335.55 27.296C333.143 28.9323 331.485 31.4573 330.94 34.3158L302.42 179.054C302.148 180.469 302.158 181.924 302.449 183.335C302.74 184.747 303.306 186.087 304.116 187.279C304.926 188.471 305.963 189.491 307.167 190.282C308.372 191.072 309.721 191.618 311.136 191.886L368.998 202.936C370.417 203.214 371.877 203.208 373.294 202.92C374.71 202.632 376.056 202.066 377.254 201.256C378.451 200.446 379.477 199.408 380.272 198.2C381.067 196.993 381.616 195.64 381.886 194.22L397.752 110.899L398.984 111.141L400.524 103.069L399.292 102.835L399.973 99.261L401.214 99.4943ZM379.945 185.876C379.396 188.734 377.735 191.257 375.327 192.891C372.92 194.525 369.962 195.137 367.104 194.593L315.989 184.84C313.133 184.293 310.61 182.634 308.975 180.228C307.341 177.822 306.729 174.865 307.273 172.008L333.833 37.4516C334.102 36.0359 334.647 34.6871 335.438 33.4824C336.229 32.2778 337.249 31.2409 338.441 30.4312C339.633 29.6216 340.973 29.055 342.384 28.7639C343.796 28.4728 345.25 28.463 346.665 28.735L368.037 32.8133V32.8879C368.242 35.2864 369.409 37.0503 371.023 37.3489L371.957 37.5262C373.562 37.8342 375.307 36.593 376.371 34.4838V34.4091L397.752 38.4875C399.171 38.754 400.524 39.2983 401.733 40.0891C402.941 40.88 403.982 41.9018 404.794 43.0959C405.607 44.29 406.176 45.6329 406.468 47.0473C406.76 48.4618 406.769 49.9201 406.496 51.3384L379.945 185.876Z" fill="#707070" stroke="#263238" stroke-linecap="round" stroke-linejoin="round"/>
<path d="M399.46 37.7967L345.331 27.4656C342.303 26.8887 339.169 27.5379 336.62 29.2704C334.07 31.0029 332.312 33.677 331.733 36.7048L304.072 177.169C303.785 178.668 303.796 180.21 304.105 181.705C304.415 183.2 305.015 184.62 305.873 185.882C306.731 187.145 307.83 188.227 309.106 189.065C310.382 189.903 311.811 190.481 313.311 190.766L367.44 201.088C368.939 201.375 370.481 201.364 371.976 201.055C373.471 200.745 374.89 200.145 376.153 199.287C377.416 198.429 378.497 197.33 379.335 196.054C380.173 194.778 380.752 193.349 381.037 191.849L408.699 51.3849C409.276 48.3578 408.626 45.2256 406.893 42.6773C405.161 40.129 402.487 38.3734 399.46 37.7967ZM379.945 185.876C379.396 188.734 377.735 191.256 375.327 192.891C372.92 194.525 369.962 195.137 367.104 194.593L315.989 184.84C313.133 184.293 310.61 182.634 308.975 180.228C307.341 177.822 306.729 174.865 307.273 172.008L333.833 37.4514C334.102 36.0357 334.647 34.6869 335.438 33.4823C336.229 32.2776 337.249 31.2408 338.441 30.4311C339.633 29.6214 340.973 29.0548 342.384 28.7638C343.796 28.4727 345.25 28.4628 346.665 28.7348L368.037 32.8131V32.8878C368.242 35.2863 369.409 37.0501 371.023 37.3488L371.957 37.5261C373.562 37.8341 375.307 36.5928 376.371 34.4837V34.409L397.752 38.4873C399.171 38.7538 400.524 39.2981 401.733 40.089C402.941 40.8798 403.982 41.9017 404.794 43.0958C405.607 44.2899 406.176 45.6327 406.468 47.0472C406.76 48.4617 406.769 49.92 406.496 51.3382L379.945 185.876Z" fill="#263238" stroke="#263238" stroke-linecap="round" stroke-linejoin="round"/>
<path d="M372.909 34.2788C372.947 34.0795 372.926 33.8732 372.848 33.686C372.769 33.4987 372.637 33.339 372.467 33.227C372.298 33.1149 372.099 33.0556 371.896 33.0565C371.693 33.0574 371.495 33.1184 371.327 33.2319C371.159 33.3454 371.028 33.5063 370.951 33.6942C370.874 33.8821 370.854 34.0886 370.895 34.2875C370.935 34.4865 371.034 34.669 371.178 34.8119C371.322 34.9549 371.505 35.0519 371.705 35.0907C371.837 35.1178 371.974 35.1181 372.106 35.0918C372.239 35.0655 372.365 35.013 372.477 34.9374C372.589 34.8618 372.685 34.7646 372.759 34.6515C372.833 34.5384 372.884 34.4117 372.909 34.2788Z" fill="#707070"/>
<path d="M341.505 32.3003C341.309 33.3268 340.086 33.4762 339.937 34.2508V34.3068L341.047 34.5214L340.982 34.8667L339.489 34.5401L339.545 34.2508C339.75 33.1589 340.945 33.1589 341.122 32.2069C341.187 31.8616 341.122 31.647 340.833 31.6003C340.543 31.5537 340.394 31.7216 340.338 32.0203L340.282 32.3189L339.927 32.2536V31.9736C340.03 31.4603 340.329 31.1617 340.861 31.255C340.98 31.2635 341.096 31.3004 341.199 31.3626C341.301 31.4247 341.388 31.5104 341.451 31.6125C341.513 31.7147 341.551 31.8303 341.561 31.9499C341.57 32.0695 341.551 32.1896 341.505 32.3003Z" fill="#263238"/>
<path d="M343.362 32.6735V32.7575C343.347 32.9053 343.286 33.0446 343.187 33.1554C343.088 33.2661 342.956 33.3425 342.811 33.3734C342.937 33.4559 343.032 33.577 343.082 33.7185C343.133 33.8599 343.136 34.014 343.091 34.1574L343.044 34.4187C342.942 34.9413 342.634 35.2306 342.111 35.1373C341.589 35.0439 341.411 34.652 341.514 34.1294V33.896L341.868 33.9614L341.812 34.2227C341.756 34.5307 341.812 34.736 342.12 34.7826C342.428 34.8293 342.55 34.68 342.615 34.3347L342.671 34.0734C342.727 33.7467 342.671 33.5601 342.335 33.4947H342.13L342.195 33.1588H342.419C342.478 33.1695 342.538 33.1675 342.596 33.153C342.654 33.1385 342.708 33.1118 342.755 33.0747C342.802 33.0376 342.84 32.991 342.868 32.9379C342.895 32.8848 342.911 32.8265 342.914 32.7668V32.6082C342.979 32.2628 342.914 32.0575 342.615 32.0109C342.316 31.9642 342.176 32.1229 342.12 32.4308V32.5988L341.766 32.5335V32.3748C341.859 31.8615 342.167 31.5722 342.699 31.6656C343.231 31.7589 343.464 32.1322 343.362 32.6735Z" fill="#263238"/>
<path d="M344.052 33.0465L343.959 33.5224L343.595 33.4478L343.688 32.9811L344.052 33.0465ZM343.698 34.913L343.604 35.3889L343.24 35.3143L343.334 34.8476L343.698 34.913Z" fill="#263238"/>
<path d="M344.762 33.5038C344.825 33.4226 344.911 33.3617 345.009 33.3286C345.107 33.2955 345.212 33.2915 345.312 33.3172C345.751 33.4011 345.882 33.7558 345.788 34.2504L345.667 34.913C345.564 35.4356 345.256 35.725 344.734 35.6223C344.211 35.5196 344.043 35.1463 344.136 34.6237L344.183 34.3904L344.538 34.4651L344.491 34.717C344.426 35.0157 344.491 35.2303 344.79 35.277C345.088 35.3237 345.228 35.1743 345.284 34.8664L345.406 34.2037C345.471 33.9051 345.406 33.6905 345.107 33.6438C345.058 33.6314 345.007 33.6292 344.957 33.6372C344.907 33.6452 344.859 33.6633 344.816 33.6903C344.773 33.7174 344.737 33.7529 344.708 33.7946C344.679 33.8363 344.659 33.8835 344.65 33.9331V34.0078L344.295 33.9424L344.743 32.0759L346.087 32.3279L346.021 32.6639L345.023 32.4772L344.762 33.5038Z" fill="#263238"/>
<path d="M347.888 33.5134V33.6067L347.533 33.5414V33.4574C347.589 33.1494 347.533 32.9441 347.216 32.8974C346.899 32.8508 346.768 33.0001 346.703 33.364L346.553 34.12C346.616 34.0158 346.711 33.9348 346.824 33.8894C346.937 33.8439 347.061 33.8364 347.179 33.868C347.608 33.952 347.748 34.2973 347.655 34.8013L347.552 35.3145C347.548 35.4267 347.52 35.5367 347.468 35.6363C347.416 35.736 347.343 35.823 347.254 35.8909C347.165 35.9588 347.061 36.006 346.951 36.029C346.841 36.052 346.728 36.0502 346.619 36.0238C346.507 36.008 346.4 35.9676 346.306 35.9056C346.211 35.8436 346.132 35.7615 346.073 35.6651C346.014 35.5688 345.977 35.4606 345.965 35.3484C345.953 35.2361 345.966 35.1226 346.003 35.0159L346.339 33.2894C346.441 32.7481 346.749 32.4588 347.272 32.5614C347.379 32.5759 347.481 32.6132 347.572 32.6709C347.663 32.7286 347.74 32.8053 347.799 32.8957C347.857 32.9862 347.896 33.0882 347.911 33.1948C347.926 33.3014 347.919 33.4101 347.888 33.5134ZM346.479 34.5399L346.376 35.0439C346.32 35.3519 346.376 35.5572 346.684 35.6132C346.992 35.6692 347.123 35.5105 347.188 35.2026L347.281 34.6893C347.337 34.3906 347.281 34.176 346.973 34.1293C346.665 34.0826 346.535 34.2506 346.479 34.5399Z" fill="#263238"/>
<path d="M384.928 40.7454L383.966 40.5616L383.509 42.9542L384.472 43.1379L384.928 40.7454Z" fill="#263238"/>
<path d="M386.308 40.492L385.346 40.3083L384.796 43.1869L385.759 43.3705L386.308 40.492Z" fill="#263238"/>
<path d="M387.648 40.3838L386.685 40.2001L386.072 43.4178L387.034 43.6015L387.648 40.3838Z" fill="#263238"/>
<path d="M389.053 40.0442L388.091 39.8605L387.363 43.6741L388.326 43.8577L389.053 40.0442Z" fill="#263238"/>
<path d="M400.188 46.0561L394.439 44.9642L395.101 41.4458L400.859 42.547L400.188 46.0561ZM394.812 44.7029L399.926 45.6361L400.477 42.7524L395.363 41.8191L394.812 44.7029Z" fill="#263238"/>
<path d="M398.821 42.8216L395.787 42.2427L395.371 44.4245L398.405 45.0034L398.821 42.8216Z" fill="#263238"/>
<path d="M399.965 44.9472L399.243 44.8071L399.083 45.6302L399.806 45.7703L399.965 44.9472Z" fill="#263238"/>
<path d="M392.47 43.7983C392.431 43.789 392.396 43.7697 392.367 43.7423C392.122 43.477 391.801 43.2955 391.447 43.2235C391.094 43.1515 390.727 43.1926 390.398 43.341C390.373 43.3561 390.346 43.3662 390.318 43.3706C390.289 43.375 390.261 43.3737 390.233 43.3667C390.205 43.3598 390.179 43.3473 390.156 43.3301C390.133 43.3128 390.114 43.2911 390.099 43.2663C390.084 43.2419 390.074 43.2147 390.07 43.1864C390.065 43.158 390.066 43.1291 390.073 43.1012C390.08 43.0734 390.093 43.0472 390.11 43.0243C390.127 43.0013 390.149 42.9821 390.174 42.9677C390.581 42.7664 391.042 42.7012 391.489 42.7819C391.936 42.8626 392.345 43.0847 392.656 43.4156C392.677 43.4357 392.693 43.4596 392.704 43.486C392.716 43.5125 392.721 43.5409 392.721 43.5696C392.721 43.5984 392.716 43.6268 392.704 43.6532C392.693 43.6797 392.677 43.7036 392.656 43.7236C392.633 43.7497 392.604 43.7701 392.572 43.7831C392.539 43.796 392.504 43.8012 392.47 43.7983Z" fill="#263238"/>
<path d="M393.086 43.1536C393.052 43.1623 393.017 43.1623 392.983 43.1536C392.633 42.7795 392.176 42.5237 391.674 42.4217C391.172 42.3196 390.651 42.3765 390.183 42.5843C390.159 42.599 390.131 42.6087 390.103 42.6129C390.075 42.6171 390.046 42.6157 390.018 42.6088C389.991 42.6019 389.964 42.5895 389.942 42.5725C389.919 42.5555 389.899 42.5341 389.884 42.5096C389.87 42.4851 389.86 42.4579 389.856 42.4297C389.852 42.4014 389.853 42.3726 389.86 42.3448C389.867 42.3171 389.879 42.291 389.896 42.268C389.913 42.2451 389.935 42.2257 389.959 42.211C390.512 41.9489 391.132 41.8673 391.734 41.9779C392.335 42.0884 392.886 42.3855 393.31 42.8269C393.33 42.8469 393.346 42.8709 393.358 42.8973C393.369 42.9238 393.375 42.9522 393.375 42.9809C393.375 43.0096 393.369 43.0381 393.358 43.0645C393.346 43.091 393.33 43.1149 393.31 43.1349C393.278 43.1594 393.24 43.1743 393.2 43.1776C393.161 43.1809 393.121 43.1726 393.086 43.1536Z" fill="#263238"/>
<path d="M393.599 42.3977C393.558 42.3867 393.52 42.3676 393.487 42.3417C393.038 41.8521 392.445 41.5192 391.793 41.3915C391.141 41.2639 390.466 41.3483 389.866 41.6324C389.815 41.6597 389.755 41.6662 389.7 41.6505C389.644 41.6349 389.596 41.5983 389.567 41.5484C389.552 41.524 389.542 41.4969 389.537 41.4685C389.533 41.4401 389.534 41.4112 389.541 41.3833C389.548 41.3555 389.561 41.3293 389.578 41.3064C389.595 41.2835 389.617 41.2642 389.642 41.2498C390.324 40.927 391.09 40.8272 391.833 40.9646C392.575 41.1019 393.255 41.4695 393.776 42.0151C393.797 42.0351 393.813 42.059 393.824 42.0855C393.835 42.1119 393.841 42.1403 393.841 42.1691C393.841 42.1978 393.835 42.2262 393.824 42.2526C393.813 42.2791 393.797 42.303 393.776 42.323C393.755 42.349 393.728 42.3694 393.697 42.3824C393.666 42.3954 393.632 42.4007 393.599 42.3977Z" fill="#263238"/>
<path d="M391.751 44.0313C391.739 44.1021 391.712 44.1696 391.674 44.2301C391.635 44.2906 391.585 44.3427 391.526 44.3835C391.466 44.4244 391.4 44.453 391.33 44.4679C391.259 44.4827 391.187 44.4834 391.116 44.47C390.973 44.4427 390.846 44.3596 390.764 44.2388C390.681 44.1181 390.651 43.9696 390.678 43.826C390.705 43.6825 390.788 43.5556 390.909 43.4733C391.03 43.3911 391.178 43.3602 391.322 43.3874C391.393 43.4008 391.46 43.4281 391.52 43.4679C391.58 43.5077 391.632 43.5591 391.672 43.6191C391.712 43.679 391.739 43.7464 391.753 43.8172C391.767 43.888 391.766 43.9608 391.751 44.0313Z" fill="#263238"/>
<path d="M387.008 93.2657L336.368 83.6056C333.664 83.0899 331.054 84.8635 330.539 87.5671L322.43 130.076C321.914 132.779 323.688 135.389 326.391 135.905L377.031 145.565C379.735 146.081 382.344 144.307 382.86 141.603L390.969 99.0948C391.485 96.3912 389.711 93.7814 387.008 93.2657Z" fill="white" stroke="#263238" stroke-miterlimit="10"/>
<path d="M345.714 77.2736L345.06 72.29L345.91 72.4486L346.357 76.2563L348.224 72.8873L348.999 73.0272L346.516 77.4695L346.022 80.092L345.21 79.9427L345.714 77.2736Z" fill="#263238"/>
<path d="M348.999 74.8658C349.017 74.6244 349.086 74.3895 349.201 74.1766C349.316 73.9637 349.475 73.7776 349.668 73.6304C349.86 73.4833 350.081 73.3786 350.317 73.323C350.553 73.2674 350.797 73.2623 351.035 73.308C351.273 73.3537 351.498 73.4492 351.697 73.5882C351.895 73.7271 352.062 73.9065 352.186 74.1144C352.31 74.3223 352.388 74.5541 352.416 74.7946C352.445 75.0351 352.422 75.2788 352.349 75.5098L351.63 79.2428C351.612 79.4842 351.543 79.7191 351.428 79.932C351.313 80.1449 351.154 80.331 350.961 80.4782C350.769 80.6253 350.548 80.73 350.312 80.7856C350.076 80.8412 349.832 80.8463 349.594 80.8006C349.356 80.7549 349.131 80.6594 348.932 80.5204C348.734 80.3815 348.568 80.2021 348.443 79.9942C348.319 79.7863 348.241 79.5545 348.212 79.314C348.184 79.0735 348.207 78.8298 348.28 78.5988L348.999 74.8658ZM349.073 78.8415C348.943 79.5134 349.157 79.9521 349.736 80.064C350.314 80.176 350.669 79.8401 350.809 79.1308L351.546 75.2671C351.668 74.6045 351.472 74.1565 350.884 74.0446C350.296 73.9326 349.951 74.2779 349.811 74.9778L349.073 78.8415Z" fill="#263238"/>
<path d="M353.17 79.6252C353.049 80.2878 353.226 80.7264 353.824 80.8477C354.421 80.9691 354.757 80.6051 354.878 79.9145L355.942 74.315L356.707 74.4643L355.643 80.0078C355.429 81.1184 354.775 81.7623 353.656 81.5383C352.536 81.3144 352.162 80.4931 352.377 79.3825L353.432 73.839L354.234 73.9883L353.17 79.6252Z" fill="#263238"/>
<path d="M359.143 74.9684C359.374 74.9802 359.6 75.0463 359.801 75.1615C360.002 75.2766 360.173 75.4375 360.3 75.6311C360.427 75.8247 360.507 76.0456 360.533 76.2758C360.559 76.506 360.531 76.7391 360.45 76.9562L360.338 77.5535C360.179 78.3561 359.806 78.8041 359.143 78.8787C359.431 79.042 359.653 79.3023 359.767 79.6133C359.882 79.9244 359.882 80.2659 359.768 80.5772L359.554 81.7158C359.475 82.0219 359.475 82.343 359.554 82.6491L358.732 82.4997C358.657 82.1932 358.657 81.873 358.732 81.5665L358.947 80.4186C359.106 79.588 358.77 79.252 358.088 79.1214L357.519 79.0187L356.922 82.1358L356.101 81.9864L357.501 74.6697L359.143 74.9684ZM358.275 78.4028C358.919 78.5241 359.348 78.4028 359.498 77.5908L359.628 76.8909C359.759 76.2376 359.628 75.8456 358.975 75.7243L358.182 75.575L357.669 78.2814L358.275 78.4028Z" fill="#263238"/>
<path d="M366.133 78.1413L366.012 78.7946L365.237 78.6452L365.368 77.9453C365.498 77.292 365.312 76.8441 364.715 76.7321C364.117 76.6201 363.781 76.9654 363.66 77.6653L362.923 81.529C362.792 82.1916 362.988 82.6396 363.576 82.7516C364.164 82.8635 364.509 82.5182 364.631 81.8183L364.817 80.885L365.592 81.025L365.415 81.9583C365.2 83.0595 364.547 83.6941 363.417 83.4795C362.288 83.2648 361.915 82.4342 362.129 81.3237L362.848 77.5907C363.053 76.4894 363.716 75.8548 364.836 76.0695C365.065 76.1047 365.284 76.189 365.478 76.3165C365.672 76.444 365.836 76.6118 365.959 76.8084C366.082 77.005 366.161 77.2258 366.191 77.4558C366.221 77.6858 366.202 77.9196 366.133 78.1413Z" fill="#263238"/>
<path d="M366.814 78.2627C366.838 78.0256 366.911 77.796 367.029 77.5887C367.146 77.3813 367.306 77.2007 367.497 77.0583C367.688 76.9159 367.907 76.8148 368.139 76.7616C368.371 76.7083 368.612 76.7039 368.846 76.7488C369.08 76.7936 369.302 76.8867 369.498 77.0221C369.695 77.1575 369.86 77.3323 369.985 77.5353C370.11 77.7382 370.192 77.965 370.224 78.2011C370.257 78.4372 370.24 78.6775 370.174 78.9067L369.446 82.6397C369.416 82.8704 369.339 83.0925 369.221 83.2925C369.102 83.4924 368.943 83.666 368.755 83.8025C368.567 83.939 368.352 84.0356 368.125 84.0864C367.898 84.1372 367.663 84.141 367.435 84.0977C367.206 84.0545 366.989 83.9649 366.796 83.8346C366.603 83.7044 366.439 83.5361 366.314 83.3402C366.189 83.1442 366.105 82.9247 366.067 82.6951C366.03 82.4655 366.039 82.2307 366.096 82.0051L366.814 78.2627ZM366.889 82.2477C366.768 82.9103 366.973 83.3489 367.561 83.4609C368.149 83.5729 368.494 83.2463 368.625 82.5277L369.362 78.664C369.493 78.0014 369.297 77.5534 368.7 77.4414C368.102 77.3295 367.766 77.6748 367.626 78.3747L366.889 82.2477Z" fill="#263238"/>
<path d="M372.992 77.6193C373.232 77.6454 373.463 77.7259 373.667 77.8546C373.871 77.9833 374.043 78.1568 374.17 78.362C374.297 78.5671 374.375 78.7985 374.399 79.0385C374.423 79.2785 374.392 79.5209 374.308 79.7471L373.608 83.4801C373.394 84.5907 372.741 85.188 371.602 84.964L369.885 84.6373L371.285 77.33L372.992 77.6193ZM371.733 84.152C372.321 84.264 372.666 83.9467 372.797 83.2748L373.515 79.5418C373.636 78.8698 373.431 78.4499 372.834 78.3379L371.957 78.1699L370.846 84.0027L371.733 84.152Z" fill="#263238"/>
<path d="M377.407 81.8182L377.267 82.5461L375.475 82.2008L374.98 84.8046L377.174 85.2245L377.034 85.9618L374.028 85.3925L375.419 78.0758L378.433 78.6544L378.284 79.3917L376.091 78.9717L375.615 81.4728L377.407 81.8182Z" fill="#263238"/>
<path d="M340.095 106.895C340.366 106.571 340.722 106.329 341.123 106.197C341.523 106.065 341.953 106.048 342.363 106.148C344.136 106.484 344.678 107.94 344.295 109.881L343.782 112.578C343.38 114.688 342.111 115.873 340.002 115.471C337.893 115.07 337.202 113.502 337.576 111.393L337.753 110.46L339.19 110.731L338.994 111.757C338.761 112.998 339.125 113.848 340.226 114.053C341.327 114.258 341.99 113.614 342.223 112.373L342.736 109.695C342.979 108.453 342.606 107.604 341.505 107.399C341.304 107.345 341.095 107.333 340.891 107.364C340.686 107.395 340.49 107.468 340.314 107.579C340.139 107.689 339.988 107.835 339.872 108.006C339.756 108.177 339.676 108.371 339.638 108.575L339.573 108.892L338.135 108.621L340.002 101.025L345.443 102.061L345.182 103.442L341.122 102.667L340.095 106.895Z" fill="#263238"/>
<path d="M352.806 106.932V107.194L351.369 106.914L351.434 106.559C351.677 105.318 351.304 104.496 350.174 104.282C349.045 104.067 348.308 104.711 348.075 106.148L347.487 109.247C347.732 108.821 348.111 108.487 348.564 108.296C349.018 108.106 349.521 108.069 349.997 108.192C351.77 108.528 352.312 109.956 351.929 111.925L351.537 114.016C351.136 116.125 349.82 117.301 347.72 116.899C345.62 116.498 344.808 114.912 345.21 112.802L346.553 105.766C346.964 103.582 348.215 102.406 350.398 102.826C352.582 103.246 353.208 104.823 352.806 106.932ZM347.076 111.197L346.684 113.26C346.441 114.501 346.815 115.35 347.935 115.565C349.055 115.779 349.717 115.126 349.95 113.885L350.342 111.813C350.585 110.572 350.193 109.723 349.092 109.517C347.991 109.312 347.356 109.956 347.076 111.197Z" fill="#263238"/>
<path d="M360.478 108.398L360.431 108.659L358.984 108.379L359.059 108.024C359.292 106.783 358.919 105.962 357.799 105.747C356.679 105.533 355.979 106.176 355.699 107.614L355.102 110.703C355.351 110.281 355.731 109.951 356.183 109.762C356.636 109.574 357.137 109.537 357.613 109.658C359.386 109.993 359.936 111.421 359.554 113.391L359.152 115.472C358.751 117.581 357.445 118.766 355.335 118.365C353.226 117.963 352.424 116.377 352.825 114.268L354.169 107.334C354.589 105.15 355.83 103.974 358.023 104.394C360.216 104.814 360.879 106.288 360.478 108.398ZM354.738 112.653L354.346 114.725C354.113 115.966 354.477 116.816 355.606 117.03C356.735 117.245 357.379 116.592 357.622 115.35L358.014 113.279C358.247 112.037 357.865 111.188 356.754 110.973C355.643 110.759 354.981 111.412 354.738 112.653Z" fill="#263238"/>
<path d="M368.14 109.881L366.796 116.918C366.376 119.102 365.135 120.296 362.923 119.876C360.711 119.457 360.067 117.917 360.468 115.817L360.524 115.556L361.961 115.826L361.887 116.19C361.653 117.431 362.045 118.262 363.147 118.467C364.248 118.673 365.013 118.047 365.265 116.601L365.853 113.512C365.605 113.932 365.226 114.26 364.775 114.445C364.323 114.63 363.824 114.663 363.352 114.538C361.579 114.202 361.028 112.793 361.411 110.805L361.812 108.696C362.213 106.587 363.501 105.42 365.629 105.822C367.757 106.223 368.541 107.772 368.14 109.881ZM363.343 108.883L362.951 110.955C362.717 112.196 363.1 113.045 364.211 113.26C365.321 113.474 365.984 112.821 366.217 111.58L366.618 109.508C366.861 108.248 366.488 107.418 365.359 107.203C364.229 106.988 363.585 107.623 363.343 108.883Z" fill="#263238"/>
<path d="M375.951 111.309L375.867 111.748C375.606 113.148 374.934 114.072 373.748 114.286C374.812 114.949 375.036 116.153 374.775 117.497L374.579 118.523C374.168 120.651 372.815 121.762 370.669 121.323C368.522 120.884 367.664 119.382 368.074 117.254L368.27 116.228C368.532 114.828 369.204 113.866 370.426 113.614C369.381 112.97 369.101 111.879 369.371 110.479L369.446 110.04C369.857 107.912 371.219 106.848 373.356 107.24C375.494 107.632 376.362 109.2 375.951 111.309ZM370.958 110.376L370.837 111.039C370.575 112.383 371.117 113.101 372.199 113.306C373.282 113.512 374.066 113.045 374.299 111.701L374.42 111.067C374.691 109.648 374.168 108.873 373.077 108.668C371.985 108.463 371.229 108.976 370.958 110.404V110.376ZM369.819 116.34L369.595 117.506C369.325 118.925 369.829 119.718 370.93 119.923C372.031 120.129 372.797 119.587 373.067 118.169L373.291 117.002C373.543 115.668 373.077 114.902 371.938 114.688C370.799 114.473 370.081 115.033 369.819 116.368V116.34Z" fill="#263238"/>
<path d="M326.237 147.939L373.888 157.029" stroke="#263238" stroke-miterlimit="10"/>
<path d="M324.463 157.235L372.106 166.325" stroke="#263238" stroke-miterlimit="10"/>
<path d="M403.501 112.915L415.026 111.141" stroke="#263238" stroke-miterlimit="10"/>
<path d="M401.727 126.214L407.934 127.987" stroke="#263238" stroke-miterlimit="10"/>
<path d="M398.181 137.739L409.707 145.719" stroke="#263238" stroke-miterlimit="10"/>
<path d="M293.013 135.051C293.612 135.051 294.186 134.813 294.61 134.39C295.033 133.966 295.271 133.392 295.271 132.793V114.128C295.271 113.529 295.033 112.954 294.61 112.531C294.186 112.107 293.612 111.869 293.013 111.869H292.919V104.571C292.918 103.388 292.684 102.216 292.229 101.123C291.775 100.031 291.11 99.0381 290.272 98.2026C289.433 97.3671 288.439 96.7049 287.345 96.254C286.25 95.8031 285.078 95.5723 283.895 95.5747H86.9781C84.5896 95.5747 82.2989 96.5236 80.61 98.2125C78.921 99.9014 77.9722 102.192 77.9722 104.581V240.621C77.9747 243.008 78.9246 245.296 80.6133 246.983C82.3019 248.67 84.5912 249.618 86.9781 249.618H283.895C286.282 249.618 288.571 248.67 290.26 246.983C291.948 245.296 292.898 243.008 292.901 240.621V191.812H292.994C293.593 191.812 294.167 191.574 294.591 191.15C295.014 190.727 295.252 190.152 295.252 189.553V170.888C295.252 170.289 295.014 169.715 294.591 169.291C294.167 168.868 293.593 168.63 292.994 168.63H292.901V166.269H292.994C293.593 166.269 294.167 166.031 294.591 165.607C295.014 165.184 295.252 164.609 295.252 164.01V145.345C295.252 144.746 295.014 144.172 294.591 143.748C294.167 143.325 293.593 143.087 292.994 143.087H292.901V135.051H293.013Z" fill="#263238"/>
<path d="M284.893 101.576H86.0263V243.617H284.893V101.576Z" fill="#4C70FF" stroke="#263238" stroke-miterlimit="10"/>
<path d="M241.394 119.839H130.178V209.161H241.394V119.839Z" fill="#E3E3E3" stroke="#263238" stroke-miterlimit="10"/>
<path d="M172.026 184.411V184.971H170.663V186.959H172.334V187.519H170.038V181.92H172.334V182.48H170.663V184.393L172.026 184.411Z" fill="#B2B2B2"/>
<path d="M173.463 187.519H172.903V181.92H173.687L174.984 185.951V181.92H175.535V187.519H174.891L173.463 183.002V187.519Z" fill="#B2B2B2"/>
<path d="M176.981 187.519V182.498H175.945V181.938H178.624V182.498H177.597V187.519H176.981Z" fill="#B2B2B2"/>
<path d="M181.032 184.411V184.971H179.669V186.959H181.34V187.519H179.044V181.92H181.34V182.48H179.669V184.393L181.032 184.411Z" fill="#B2B2B2"/>
<path d="M183.159 181.938C184.037 181.938 184.41 182.377 184.41 183.208V183.665C184.41 184.281 184.195 184.663 183.71 184.813C184.223 184.971 184.419 185.382 184.419 185.979V186.847C184.396 187.077 184.435 187.309 184.531 187.519H183.897C183.808 187.307 183.772 187.076 183.794 186.847V185.97C183.794 185.335 183.495 185.139 182.982 185.139H182.543V187.519H181.918V181.92L183.159 181.938ZM183.001 184.57C183.495 184.57 183.794 184.411 183.794 183.805V183.264C183.794 182.769 183.607 182.498 183.15 182.498H182.543V184.57H183.001Z" fill="#B2B2B2"/>
<path d="M188.768 183.282V183.786H188.171V183.254C188.171 182.75 187.975 182.442 187.518 182.442C187.06 182.442 186.864 182.75 186.864 183.254V186.203C186.864 186.707 187.07 187.015 187.518 187.015C187.966 187.015 188.171 186.707 188.171 186.203V185.475H188.768V186.175C188.768 187.015 188.367 187.575 187.499 187.575C186.631 187.575 186.248 187.015 186.248 186.175V183.282C186.248 182.433 186.65 181.882 187.499 181.882C188.348 181.882 188.768 182.433 188.768 183.282Z" fill="#B2B2B2"/>
<path d="M189.282 183.283C189.282 182.433 189.702 181.883 190.56 181.883C190.742 181.871 190.925 181.9 191.094 181.968C191.263 182.036 191.415 182.141 191.539 182.275C191.662 182.409 191.754 182.569 191.807 182.744C191.861 182.918 191.875 183.102 191.848 183.283V186.176C191.876 186.356 191.863 186.541 191.811 186.716C191.759 186.891 191.668 187.053 191.546 187.189C191.423 187.324 191.272 187.431 191.103 187.501C190.934 187.572 190.752 187.603 190.57 187.594C189.711 187.594 189.291 187.034 189.291 186.194L189.282 183.283ZM189.898 186.204C189.898 186.717 190.112 187.016 190.56 187.016C191.008 187.016 191.223 186.717 191.223 186.204V183.255C191.223 182.751 191.017 182.443 190.56 182.443C190.103 182.443 189.898 182.751 189.898 183.255V186.204Z" fill="#B2B2B2"/>
<path d="M193.743 181.938C194.61 181.938 195.012 182.461 195.012 183.319V186.119C195.012 186.978 194.61 187.5 193.743 187.5H192.436V181.901L193.743 181.938ZM193.743 186.959C194.191 186.959 194.405 186.679 194.405 186.166V183.291C194.405 182.778 194.191 182.498 193.733 182.498H193.071V186.959H193.743Z" fill="#B2B2B2"/>
<path d="M197.578 184.411V184.971H196.216V186.959H197.895V187.519H195.59V181.92H197.895V182.48H196.216V184.393L197.578 184.411Z" fill="#B2B2B2"/>
<path d="M232.612 149.34H138.764V159.932H232.612V149.34Z" fill="white" stroke="#263238" stroke-miterlimit="10"/>
<path d="M232.612 166.138H138.764V176.73H232.612V166.138Z" fill="white" stroke="#263238" stroke-miterlimit="10"/>
<path d="M198.95 190.03H190.093V200.622H198.95V190.03Z" fill="white" stroke="#263238" stroke-miterlimit="10"/>
<path d="M187.667 190.03H178.81V200.622H187.667V190.03Z" fill="white" stroke="#263238" stroke-miterlimit="10"/>
<path d="M176.393 190.03H167.537V200.622H176.393V190.03Z" fill="white" stroke="#263238" stroke-miterlimit="10"/>
<path d="M165.12 190.03H156.664V200.622H165.12V190.03Z" fill="white" stroke="#263238" stroke-miterlimit="10"/>
<path d="M210.55 190.03H201.367V200.622H210.55V190.03Z" fill="white" stroke="#263238" stroke-miterlimit="10"/>
<path d="M190.261 131.962V129.928C190.2 128.381 189.543 126.918 188.427 125.845C187.311 124.772 185.823 124.173 184.275 124.173C182.726 124.173 181.238 124.772 180.122 125.845C179.006 126.918 178.349 128.381 178.288 129.928V131.962H178.176V143.217H190.373V131.962H190.261ZM184.662 138.15V140.184H183.477V138.131C183.146 137.997 182.871 137.752 182.701 137.437C182.531 137.123 182.476 136.76 182.544 136.409C182.612 136.059 182.8 135.743 183.076 135.515C183.352 135.288 183.698 135.164 184.055 135.164C184.413 135.164 184.759 135.288 185.034 135.515C185.31 135.743 185.498 136.059 185.567 136.409C185.635 136.76 185.579 137.123 185.409 137.437C185.239 137.752 184.965 137.997 184.634 138.131L184.662 138.15ZM188.012 131.962H180.593V129.928C180.695 129.016 181.13 128.173 181.815 127.561C182.499 126.95 183.385 126.611 184.303 126.611C185.22 126.611 186.106 126.95 186.791 127.561C187.475 128.173 187.91 129.016 188.012 129.928V131.962Z" fill="#263238"/>
<path d="M171.158 155.928C171.158 156.432 171.354 156.731 171.811 156.731C172.268 156.731 172.455 156.432 172.455 155.928V151.654H173.043V155.863C173.043 156.712 172.651 157.281 171.783 157.281C170.915 157.281 170.542 156.712 170.542 155.863V151.626H171.158V155.928Z" fill="#B2B2B2"/>
<path d="M176.076 152.998V153.147H175.479V152.96C175.479 152.466 175.292 152.167 174.844 152.167C174.396 152.167 174.209 152.466 174.209 152.96C174.209 154.211 176.076 154.332 176.076 155.9C176.076 156.749 175.665 157.3 174.807 157.3C173.948 157.3 173.556 156.749 173.556 155.9V155.583H174.144V155.937C174.144 156.432 174.349 156.731 174.797 156.731C175.245 156.731 175.451 156.432 175.451 155.937C175.451 154.687 173.584 154.566 173.584 152.998C173.584 152.13 173.976 151.598 174.816 151.598C175.656 151.598 176.076 152.13 176.076 152.998Z" fill="#B2B2B2"/>
<path d="M178.615 154.127V154.687H177.243V156.675H178.922V157.244H176.627V151.645H178.922V152.214H177.243V154.08L178.615 154.127Z" fill="#B2B2B2"/>
<path d="M180.742 151.654C181.62 151.654 181.983 152.102 181.983 152.932V153.39C181.983 154.006 181.769 154.388 181.293 154.538C181.806 154.687 181.993 155.107 181.993 155.704V156.572C181.976 156.802 182.014 157.032 182.105 157.244H181.48C181.387 157.03 181.348 156.796 181.368 156.563V155.686C181.368 155.051 181.078 154.855 180.556 154.855H180.117V157.244H179.492V151.645L180.742 151.654ZM180.584 154.286C181.078 154.286 181.368 154.127 181.368 153.52V152.988C181.368 152.484 181.19 152.223 180.724 152.223H180.117V154.286H180.584Z" fill="#B2B2B2"/>
<path d="M184.429 157.244H183.869V151.645H184.662L185.95 155.686V151.645H186.5V157.244H185.903L184.475 152.727L184.429 157.244Z" fill="#B2B2B2"/>
<path d="M187.77 156.115L187.555 157.244H186.976L188.05 151.645H188.983L190.047 157.244H189.431L189.207 156.115H187.77ZM187.854 155.583H189.095L188.47 152.354L187.854 155.583Z" fill="#B2B2B2"/>
<path d="M192.567 157.235H191.969L191.036 152.792V157.244H190.495V151.645H191.363L192.296 156.105L193.183 151.645H194.05V157.244H193.463V152.746L192.567 157.235Z" fill="#B2B2B2"/>
<path d="M196.664 154.127V154.687H195.301V156.675H196.981V157.244H194.685V151.645H196.981V152.214H195.301V154.08L196.664 154.127Z" fill="#B2B2B2"/>
<path d="M172.007 170.907L172.856 171.84L172.446 172.139L171.82 171.028L171.195 172.139L170.794 171.84L171.624 170.907L170.393 170.646L170.542 170.16L171.708 170.674L171.568 169.414H172.072L171.942 170.674L173.108 170.17L173.258 170.655L172.007 170.907Z" fill="#B2B2B2"/>
<path d="M175.161 170.907L176.011 171.84L175.6 172.139L174.975 171.028L174.35 172.139L173.939 171.84L174.779 170.907L173.547 170.646L173.696 170.16L174.863 170.674L174.713 169.414H175.227L175.087 170.674L176.253 170.17L176.412 170.655L175.161 170.907Z" fill="#B2B2B2"/>
<path d="M178.316 170.907L179.165 171.84L178.755 172.139L178.12 171.028L177.504 172.139L177.093 171.84L177.933 170.907L176.692 170.646L176.851 170.16L178.008 170.674L177.868 169.414H178.381L178.241 170.674L179.408 170.17L179.557 170.655L178.316 170.907Z" fill="#B2B2B2"/>
<path d="M181.47 170.907L182.31 171.84L181.909 172.139L181.274 171.028L180.649 172.139L180.248 171.84L181.088 170.907L179.846 170.646L179.996 170.16L181.162 170.674L181.022 169.414H181.526L181.396 170.674L182.562 170.17L182.712 170.655L181.47 170.907Z" fill="#B2B2B2"/>
<path d="M184.615 170.907L185.464 171.84L185.054 172.139L184.429 171.028L183.803 172.139L183.402 171.84L184.233 170.907L183.001 170.646L183.15 170.16L184.317 170.674L184.167 169.414H184.681L184.55 170.674L185.716 170.17L185.866 170.655L184.615 170.907Z" fill="#B2B2B2"/>
<path d="M187.77 170.907L188.619 171.84L188.208 172.139L187.583 171.028L186.958 172.139L186.547 171.84L187.387 170.907L186.146 170.646L186.304 170.16L187.471 170.674L187.322 169.414H187.835L187.695 170.674L188.862 170.17L189.02 170.655L187.77 170.907Z" fill="#B2B2B2"/>
<path d="M190.924 170.907L191.773 171.84L191.363 172.139L190.728 171.028L190.112 172.139L189.702 171.84L190.541 170.907L189.3 170.646L189.45 170.16L190.616 170.674L190.476 169.414H190.989L190.849 170.674L192.016 170.17L192.165 170.655L190.924 170.907Z" fill="#B2B2B2"/>
<path d="M194.078 170.907L194.918 171.84L194.517 172.139L193.882 171.028L193.257 172.139L192.856 171.84L193.696 170.907L192.455 170.646L192.604 170.16L193.77 170.674L193.63 169.414H194.134L194.004 170.674L195.17 170.17L195.32 170.655L194.078 170.907Z" fill="#B2B2B2"/>
<path d="M195.198 425.302C228.17 425.302 254.899 400.187 254.899 369.205C254.899 338.223 228.17 313.107 195.198 313.107C162.227 313.107 135.498 338.223 135.498 369.205C135.498 400.187 162.227 425.302 195.198 425.302Z" fill="#263238"/>
<path d="M193.938 422.381C226.91 422.381 253.639 397.265 253.639 366.283C253.639 335.301 226.91 310.186 193.938 310.186C160.967 310.186 134.238 335.301 134.238 366.283C134.238 397.265 160.967 422.381 193.938 422.381Z" fill="white" stroke="#263238" stroke-miterlimit="10"/>
<path d="M193.938 414.711C222.395 414.711 245.463 393.029 245.463 366.284C245.463 339.539 222.395 317.858 193.938 317.858C165.482 317.858 142.413 339.539 142.413 366.284C142.413 393.029 165.482 414.711 193.938 414.711Z" fill="white" stroke="#263238" stroke-miterlimit="10"/>
<path d="M208.217 333.685C187.536 333.685 170.766 354.749 170.766 380.74C170.766 397.539 177.756 412.209 188.255 420.543C189.991 420.693 191.745 420.777 193.519 420.777C215.263 420.777 234.218 409.652 244.344 393.134C245.211 389.072 245.642 384.93 245.631 380.777C245.631 354.749 228.898 333.685 208.217 333.685Z" fill="#263238"/>
<path d="M171.204 359.517H146.818V365.35H171.204V359.517Z" fill="white" stroke="#263238" stroke-miterlimit="10"/>
<path d="M202.543 397.072C223.088 397.072 239.742 381.424 239.742 362.122C239.742 342.819 223.088 327.171 202.543 327.171C181.998 327.171 165.343 342.819 165.343 362.122C165.343 381.424 181.998 397.072 202.543 397.072Z" fill="white" stroke="#263238" stroke-miterlimit="10"/>
<path d="M202.543 391.304C219.691 391.304 233.593 378.239 233.593 362.121C233.593 346.004 219.691 332.938 202.543 332.938C185.395 332.938 171.494 346.004 171.494 362.121C171.494 378.239 185.395 391.304 202.543 391.304Z" fill="#263238" stroke="#263238" stroke-miterlimit="10"/>
<path d="M189.534 335.355C189.335 334.868 189.105 334.394 188.843 333.937C185.67 328.421 186.043 321.413 188.442 314.898" stroke="#263238" stroke-miterlimit="10"/>
<path d="M190.028 346.956C190.028 346.956 191.689 340.648 189.534 335.356" stroke="white" stroke-miterlimit="10"/>
<path d="M201.106 333.937C197.942 328.421 198.306 321.413 200.714 314.898" stroke="#263238" stroke-miterlimit="10"/>
<path d="M202.291 346.956C202.291 346.956 204.27 339.443 201.106 333.937" stroke="white" stroke-miterlimit="10"/>
<path d="M213.77 334.674C213.649 334.422 213.518 334.179 213.378 333.937C210.214 328.421 210.578 321.413 212.977 314.898" stroke="#263238" stroke-miterlimit="10"/>
<path d="M214.563 346.956C214.563 346.956 216.374 340.097 213.77 334.674" stroke="white" stroke-miterlimit="10"/>
<path d="M332.555 310.074C332.555 310.074 331.621 310.13 329.839 310.316C328.196 304.717 323.25 288.161 320.002 279.603C316.064 269.207 310.67 254.508 307.105 248.414C303.54 242.32 303.876 238.736 297.063 233.006C290.25 227.275 284.156 229.777 284.156 229.777C284.156 229.777 283.083 225.474 276.27 223.328C269.457 221.181 260.143 225.474 260.143 225.474C260.143 225.474 258.706 222.964 251.893 223.682C249.886 223.928 247.975 224.683 246.342 225.876C244.708 227.068 243.407 228.658 242.561 230.495C242.561 230.495 228.562 202.498 223.205 200.379C217.848 198.261 212.445 203.608 214.601 208.629C216.756 213.65 232.883 241.61 235.03 248.059C237.176 254.508 241.842 265.268 241.842 265.268C241.842 265.268 226.425 254.153 221.768 253.08C217.111 252.007 210.298 251.288 206.351 255.59C202.403 259.893 211.726 260.966 219.258 267.779C226.789 274.591 238.977 290.354 244.707 300.396C250.438 310.438 262.635 312.23 268.039 317.96C271.818 322.001 277.203 327.628 280.059 330.615C279.093 331.593 278.192 332.635 277.362 333.732L289.186 362.765C289.186 362.765 291.697 358.827 301.739 350.941C311.78 343.055 342.96 333.377 342.96 333.377L332.555 310.074Z" fill="#263238" stroke="#263238" stroke-miterlimit="10"/>
<path d="M281.571 325.155C281.571 325.155 272.966 316.196 267.572 310.466C262.178 304.736 250.008 302.934 244.241 292.892C238.473 282.851 226.313 267.088 218.791 260.275C211.269 253.463 201.946 252.389 205.884 248.087C209.822 243.785 216.701 244.522 221.367 245.577C226.033 246.631 241.441 257.765 241.441 257.765C241.441 257.765 236.775 247.014 234.628 240.565C232.482 234.116 216.327 206.147 214.181 201.126C212.034 196.105 217.4 190.729 222.776 192.885C228.152 195.041 242.141 222.992 242.141 222.992C242.984 221.154 244.285 219.563 245.919 218.372C247.553 217.181 249.466 216.429 251.474 216.188C258.286 215.47 259.724 217.98 259.724 217.98C259.724 217.98 269.056 213.678 275.85 215.824C282.644 217.971 283.736 222.283 283.736 222.283C283.736 222.283 289.83 219.772 296.643 225.502C303.456 231.232 303.092 234.835 306.676 240.92C310.259 247.004 315.644 261.712 319.582 272.109C323.521 282.505 329.979 304.726 329.979 304.726L283.718 329.821L281.571 325.155Z" fill="white" stroke="#263238" stroke-miterlimit="10"/>
<path d="M242.141 222.992L254.684 241.639" stroke="#263238" stroke-miterlimit="10"/>
<path d="M259.705 217.981L271.175 235.899" stroke="#263238" stroke-miterlimit="10"/>
<path d="M283.717 222.283L291.604 236.263" stroke="#263238" stroke-miterlimit="10"/>
<path d="M246.947 273.798L248.59 278.558" stroke="#263238" stroke-miterlimit="10"/>
<path d="M241.422 257.765L245.809 270.495" stroke="#263238" stroke-miterlimit="10"/>
<path d="M261.497 245.941L264.362 249.879" stroke="#263238" stroke-miterlimit="10"/>
<path d="M274.758 241.993L277.987 246.295" stroke="#263238" stroke-miterlimit="10"/>
<path d="M292.322 239.846L294.469 246.659" stroke="#263238" stroke-miterlimit="10"/>
<path d="M276.905 326.238C276.905 326.238 285.155 314.768 302 309.029C311.732 305.637 321.849 303.471 332.116 302.58L342.512 325.911C342.512 325.911 311.323 335.552 301.281 343.447C291.24 351.342 288.738 355.281 288.738 355.281L276.905 326.238Z" fill="white" stroke="#263238" stroke-miterlimit="10"/>
<path d="M305.229 403.66C305.229 403.66 291.604 369.606 288.02 362.439C284.436 355.271 290.176 351.688 290.176 351.688C290.176 351.688 298.416 340.573 319.928 331.968C341.439 323.363 343.259 323.009 348.597 329.103C353.936 335.197 389.25 403.763 389.25 403.763" fill="white"/>
<path d="M305.229 403.66C305.229 403.66 291.604 369.606 288.02 362.439C284.436 355.271 290.176 351.688 290.176 351.688C290.176 351.688 298.416 340.573 319.928 331.968C341.439 323.363 343.259 323.009 348.597 329.103C353.936 335.197 389.25 403.763 389.25 403.763" stroke="#263238" stroke-miterlimit="10"/>
<path d="M81.4533 367.833C85.1535 360.827 90.9032 355.116 97.9346 351.464C109.535 345.547 117.076 342.999 128.181 332.043C139.287 321.086 157.588 311.306 165.129 309.962C172.67 308.618 175.18 305.361 171.932 301.665C168.685 297.97 159.8 297.755 151.914 300.424C144.028 303.093 136.711 306.36 136.711 306.36C140.715 298.483 143.375 288.992 147.313 281.087C150.113 275.488 154.695 266.211 157.42 260.556C159.193 256.869 164.476 250.728 162.086 246.697C159.697 242.665 154.07 245.344 151.205 249.189C146.65 255.311 124.374 288.899 124.374 288.899L137.075 262.021C143.505 248.405 146.566 241.909 145.661 243.841C147.528 239.865 151.186 234.508 148.956 229.964C148.45 228.9 147.669 227.991 146.693 227.332C145.717 226.673 144.582 226.288 143.406 226.218C142.231 226.147 141.058 226.393 140.01 226.931C138.962 227.468 138.077 228.277 137.449 229.273C134.35 234.312 110.674 279.118 110.674 279.118C110.674 279.118 125.494 240.668 127.388 236.244C129.703 230.85 128.321 226.137 124.924 226.165C119.959 226.165 117.617 231.699 115.676 235.432L116.758 233.855C112.092 240.043 109.003 248.162 105.121 254.872C100.61 262.724 95.9312 270.473 91.0845 278.119C92.0178 270.196 95.2188 262.767 99.1572 255.889C101.537 251.746 111.439 241.564 109.74 236.562C108.284 232.25 97.4306 240.351 91.0752 249.189C87.6408 254.004 78.6162 267.144 76.1431 276.384C73.67 285.623 56.2835 317.101 51.6452 325.846C47.0069 334.591 41.4354 350.111 41.4354 350.111L81.4533 367.833Z" fill="#263238" stroke="#263238" stroke-miterlimit="10"/>
<path d="M94.6962 359.378C94.6962 359.378 85.7556 348.44 68.5651 343.755C58.6432 340.973 48.4142 339.434 38.113 339.173L29.1911 363.045C29.1911 363.045 60.9217 370.791 71.4208 378.043C81.9199 385.294 84.673 389.074 84.673 389.074L94.6962 359.378Z" fill="#263238" stroke="#263238" stroke-miterlimit="10"/>
<path d="M80.2775 363.69C83.9777 356.689 89.7236 350.982 96.7494 347.33C108.35 341.403 115.9 338.856 126.996 327.909C138.093 316.961 156.403 307.172 163.953 305.818C171.503 304.465 174.004 301.227 170.747 297.522C167.49 293.817 158.615 293.621 150.729 296.29C142.843 298.959 135.507 302.216 135.507 302.216C139.511 294.339 142.171 284.858 146.109 276.944C148.909 271.344 153.501 262.077 156.216 256.412C157.99 252.726 163.272 246.585 160.883 242.562C158.493 238.54 152.875 241.2 150.01 245.054C145.456 251.176 123.179 284.755 123.179 284.755C127.404 275.796 131.634 266.84 135.871 257.887C142.302 244.27 145.372 237.775 144.457 239.697C146.324 235.731 149.992 230.412 147.761 225.829C147.255 224.765 146.474 223.856 145.497 223.196C144.521 222.537 143.386 222.151 142.209 222.08C141.033 222.009 139.86 222.254 138.811 222.79C137.762 223.326 136.875 224.134 136.245 225.129C133.146 230.178 109.47 274.984 109.47 274.984C109.47 274.984 124.29 236.524 126.184 232.11C128.499 226.707 127.117 222.003 123.72 222.031C118.756 222.031 116.413 227.556 114.472 231.298L115.554 229.721C110.888 235.899 107.799 244.028 103.917 250.738C99.3874 258.577 94.6962 266.323 89.8433 273.976C90.7766 266.052 93.9776 258.633 97.916 251.755C100.296 247.611 110.198 237.43 108.508 232.418C107.053 228.116 96.1894 236.207 89.8433 245.054C86.3996 249.87 77.3844 263.001 74.9112 272.249C72.4381 281.498 55.0516 312.958 50.4133 321.712C45.7751 330.466 40.2035 345.976 40.2035 345.976L80.2775 363.69Z" fill="white" stroke="#263238" stroke-miterlimit="10"/>
<path d="M109.526 274.993L105.242 283.644" stroke="#263238" stroke-miterlimit="10"/>
<path d="M123.235 284.764L119.894 289.094" stroke="#263238" stroke-miterlimit="10"/>
<path d="M135.526 302.215L131.233 308.468" stroke="#263238" stroke-miterlimit="10"/>
<path d="M113.333 298.11L112.988 301.833" stroke="#263238" stroke-miterlimit="10"/>
<path d="M102.638 291.325L102.657 294.918" stroke="#263238" stroke-miterlimit="10"/>
<path d="M86.9036 283.831L87.7716 289.944" stroke="#263238" stroke-miterlimit="10"/>
<path d="M93.5109 355.243C93.5109 355.243 84.5703 344.306 67.3798 339.621C57.4665 336.845 47.2471 335.309 36.9557 335.048L28.0151 358.939C28.0151 358.939 59.7458 366.676 70.2449 373.927C80.744 381.179 83.4971 384.968 83.4971 384.968L93.5109 355.243Z" fill="white" stroke="#263238" stroke-miterlimit="10"/>
<path d="M79.2882 406.908C79.2882 406.908 81.5187 399.442 84.6544 392.06C87.7901 384.678 81.8546 381.458 81.8546 381.458C81.8546 381.458 72.9327 370.875 50.9359 363.615C28.9391 356.354 27.1286 356.102 22.1357 362.513C17.1428 368.925 1.11884 407.487 1.11884 407.487" fill="white"/>
<path d="M79.2882 406.908C79.2882 406.908 81.5187 399.442 84.6544 392.06C87.7901 384.678 81.8546 381.458 81.8546 381.458C81.8546 381.458 72.9327 370.875 50.9359 363.615C28.9391 356.354 27.1286 356.102 22.1357 362.513C17.1428 368.925 1.11884 407.487 1.11884 407.487" stroke="#263238" stroke-miterlimit="10"/>
</svg>
