<svg width="60" height="59" viewBox="0 0 60 59" fill="none" xmlns="http://www.w3.org/2000/svg">
<g clip-path="url(#clip0)">
<path d="M21.4145 19.6325H13.9834C13.338 19.6325 12.8149 20.1557 12.8149 20.801C12.8149 21.4462 13.338 21.9694 13.9834 21.9694H21.4145C22.0598 21.9694 22.5829 21.4462 22.5829 20.801C22.5829 20.1557 22.0598 19.6325 21.4145 19.6325Z" fill="#607695"/>
<path d="M59.2127 24.3909C59.2128 24.0229 59.0416 23.6744 58.7443 23.4531L54.388 20.209V12.924C54.388 12.2788 53.8648 11.7556 53.2195 11.7556H43.0362L30.5839 2.48283C30.1698 2.17442 29.6023 2.17442 29.1882 2.48283L16.7359 11.7557H6.55259C5.90724 11.7557 5.38413 12.2789 5.38413 12.9241V20.2092L1.02765 23.4532C0.730696 23.6743 0.559535 24.0223 0.559306 24.3899L0.557129 24.3904V55.5465C0.557129 56.1918 1.08024 56.715 1.72559 56.715H58.0464C58.6917 56.715 59.2148 56.1918 59.2148 55.5465V24.3904L59.2127 24.3909ZM54.3878 23.1229L55.9253 24.2678L54.3878 25.1576V23.1229ZM29.886 4.8768L39.1233 11.7557H20.6487L29.886 4.8768ZM7.72105 14.0926H52.0508V26.51L50.5806 27.3609H9.19127L7.72105 26.51V14.0926ZM19.4634 33.3056L13.2293 29.6978H46.5425L40.3085 33.3056H19.4634ZM36.2704 35.6427L29.886 39.3375L23.5016 35.6427H36.2704ZM5.38413 23.1228V25.1575L3.84666 24.2677L5.38413 23.1228ZM2.89404 26.4167L19.4827 36.0171L2.89404 52.6057V26.4167ZM56.8779 52.6057L45.4516 41.1793C44.9953 40.7232 44.2555 40.7231 43.799 41.1793C43.3427 41.6356 43.3427 42.3755 43.799 42.8319L55.345 54.378H4.42693L21.5764 37.2285L29.3008 41.6987C29.346 41.7248 29.3927 41.7478 29.4402 41.7675C29.5828 41.8264 29.7344 41.8558 29.8861 41.8558C30.0882 41.8558 30.2903 41.8034 30.4714 41.6986L56.878 26.4167L56.8779 52.6057Z" fill="#607695"/>
<path d="M42.6951 38.4229L42.4556 38.1835C41.9993 37.7272 41.2594 37.7274 40.8031 38.1837C40.3468 38.6401 40.3469 39.3799 40.8032 39.8363L41.0427 40.0757C41.2709 40.3038 41.5698 40.4178 41.8688 40.4178C42.1679 40.4178 42.467 40.3037 42.6952 40.0755C43.1515 39.6191 43.1513 38.8792 42.6951 38.4229Z" fill="#607695"/>
</g>
<defs>
<clipPath id="clip0">
<rect width="58.6577" height="58.6577" fill="white" transform="translate(0.557129 0.154358)"/>
</clipPath>
</defs>
</svg>
