<svg width="30" height="30" viewBox="0 0 30 30" fill="none" xmlns="http://www.w3.org/2000/svg">
<g clip-path="url(#clip0_4150:34400)">
<path d="M15 5.33203C17.6656 5.33203 20.0826 6.41624 21.833 8.16696L25.5469 6.21094L25.5604 4.43962C22.8548 1.73424 19.1194 0 15 0L13.2422 2.54883L15 5.33203Z" fill="#FDBF00"/>
<path d="M15.0001 5.33203V0C10.8807 0 7.14531 1.73424 4.4397 4.43962L4.4532 7.96875L8.16704 8.16696C9.91753 6.41624 12.3345 5.33203 15.0001 5.33203Z" fill="#FFDA2D"/>
<path d="M8.16696 8.16679L4.43962 4.43945C1.73424 7.14507 0 10.8804 0 14.9998L3.13477 16.7576L5.33203 14.9998C5.33203 12.3343 6.41624 9.91728 8.16696 8.16679Z" fill="#FDBF00"/>
<path d="M5.33203 15H0C0 19.1194 1.73424 22.8548 4.43962 25.5604L7.96875 23.7891L8.16696 21.833C6.41624 20.0826 5.33203 17.6656 5.33203 15Z" fill="#FFDA2D"/>
<path d="M15.0001 24.6689C12.3345 24.6689 9.91753 23.5847 8.16704 21.834L4.4397 25.5613C7.14531 28.2667 10.8807 30.0009 15.0001 30.0009L16.7579 27.7304L15.0001 24.6689Z" fill="#FDBF00"/>
<path d="M15 30.0009C19.1194 30.0009 22.8548 28.2667 25.5604 25.5613L24.1553 22.3984L21.833 21.834C20.0826 23.5847 17.6656 24.6689 15 24.6689V30.0009Z" fill="#FF9100"/>
<path d="M30 15L27.4512 13.2422L24.668 15C24.668 17.6656 23.5838 20.0826 21.8331 21.833L25.5604 25.5604C28.2658 22.8548 30 19.1194 30 15Z" fill="#FDBF00"/>
<path d="M24.668 14.9998H30C30 10.8804 28.2658 7.14507 25.5604 4.43945L21.8331 8.16679C23.5838 9.91728 24.668 12.3343 24.668 14.9998Z" fill="#FF9100"/>
<path d="M15 4.45312C9.18159 4.45312 4.45312 9.18159 4.45312 15C4.45312 20.8184 9.18159 25.5469 15 25.5469C20.8184 25.5469 25.5469 20.8184 25.5469 15C25.5469 9.18159 20.8184 4.45312 15 4.45312Z" fill="#FF9100"/>
<path d="M25.5469 15C25.5469 20.8184 20.8184 25.5469 15 25.5469V4.45312C20.8184 4.45312 25.5469 9.18159 25.5469 15Z" fill="#DD7B05"/>
<path d="M20.2734 15C20.2734 15.1758 20.2206 15.3516 20.1153 15.5097L15.7207 21.6621C15.545 21.8905 15.2813 22.0312 15 22.0312C14.7187 22.0312 14.455 21.8905 14.2793 21.6621L9.88472 15.5097C9.77943 15.3516 9.72656 15.1758 9.72656 15H20.2734Z" fill="#FDBF00"/>
<path d="M20.2734 15C20.2734 15.1758 20.2206 15.3516 20.1153 15.5097L15.7207 21.6621C15.545 21.8905 15.2813 22.0312 15 22.0312V15H20.2734Z" fill="#FF9100"/>
<path d="M20.2734 15L15.3866 17.5488C15.2637 17.6014 15.1405 17.6367 15 17.6367C14.8595 17.6367 14.7363 17.6014 14.6134 17.5488L9.72656 15C9.72656 14.8242 9.77943 14.6484 9.88472 14.4902L14.2793 8.33789C14.455 8.10924 14.7187 7.98633 15 7.98633C15.2813 7.98633 15.545 8.10924 15.7207 8.33789L20.1153 14.4902C20.2206 14.6484 20.2734 14.8242 20.2734 15Z" fill="#FFDA2D"/>
<path d="M20.2734 15L15.3866 17.5488C15.2637 17.6014 15.1405 17.6367 15 17.6367V7.98633C15.2813 7.98633 15.545 8.10924 15.7207 8.33789L20.1153 14.4902C20.2206 14.6484 20.2734 14.8242 20.2734 15Z" fill="#FDBF00"/>
</g>
<defs>
<clipPath id="clip0_4150:34400">
<rect width="30" height="30" fill="white"/>
</clipPath>
</defs>
</svg>
