<svg width="22" height="22" viewBox="0 0 22 22" fill="none" xmlns="http://www.w3.org/2000/svg">
<path d="M16.2868 9.91764C15.7322 9.91764 15.277 10.3676 15.277 10.9275C15.277 11.4821 15.7269 11.9373 16.2868 11.9373C16.8414 11.9373 17.2966 11.4873 17.2966 10.9275C17.2966 10.3676 16.8414 9.91764 16.2868 9.91764ZM5.7071 9.91764C5.15247 9.91764 4.69727 10.3676 4.69727 10.9275C4.69727 11.4821 5.14724 11.9373 5.7071 11.9373C6.26172 11.9373 6.71693 11.4873 6.71693 10.9275C6.71693 10.3676 6.26172 9.91764 5.7071 9.91764ZM14.6334 10.9275C14.6334 12.9367 13.0061 14.5639 10.9969 14.5639C8.98775 14.5639 7.3605 12.9367 7.3605 10.9275C7.3605 8.91827 8.98775 7.29103 10.9969 7.29103C13.0061 7.2858 14.6334 8.91827 14.6334 10.9275ZM10.6568 9.98043C10.6568 9.84962 10.6882 9.74497 10.751 9.66126C10.8138 9.57754 10.9132 9.53568 11.0493 9.53568C11.1801 9.53568 11.29 9.588 11.3684 9.68742C11.4312 9.77113 11.4679 9.88101 11.4835 10.0327C11.4888 10.1008 11.5516 10.1479 11.6196 10.1479L12.2998 10.1374C12.373 10.1374 12.4358 10.0746 12.4306 10.0014C12.4149 9.70311 12.3155 9.45197 12.1428 9.25314C11.9649 9.04385 11.7242 8.90781 11.426 8.85025V8.33749C11.426 8.2747 11.3737 8.22238 11.3109 8.22238H10.8975C10.8347 8.22238 10.7824 8.2747 10.7824 8.33749V8.83456C10.4685 8.88165 10.2121 8.99676 10.0133 9.18512C9.79875 9.39441 9.68887 9.65602 9.68887 9.97519C9.68887 10.331 9.78829 10.5978 9.99234 10.781C10.1964 10.9641 10.5208 11.142 10.9708 11.3251C11.1539 11.4036 11.2847 11.4873 11.3527 11.5658C11.426 11.6495 11.4626 11.7646 11.4626 11.9164C11.4626 12.0472 11.426 12.1518 11.358 12.2303C11.29 12.3088 11.1853 12.3507 11.0493 12.3507C10.8871 12.3507 10.7563 12.2983 10.6516 12.1937C10.5679 12.11 10.5156 11.9792 10.5051 11.8065C10.4999 11.7385 10.4371 11.6862 10.3691 11.6914L9.68887 11.7019C9.61562 11.7019 9.55283 11.7646 9.55807 11.8379C9.57376 12.1989 9.69411 12.4762 9.90863 12.6751C10.1441 12.8896 10.4371 13.0152 10.7824 13.057V13.5227C10.7824 13.5855 10.8347 13.6378 10.8975 13.6378H11.3109C11.3737 13.6378 11.426 13.5855 11.426 13.5227V13.0413C11.7085 12.989 11.9335 12.8791 12.1114 12.7065C12.3207 12.5076 12.4254 12.2408 12.4254 11.9111C12.4254 11.5658 12.3207 11.299 12.1167 11.1106C11.9074 10.9222 11.5882 10.7391 11.1487 10.5507C10.9603 10.467 10.8295 10.3833 10.7615 10.3048C10.6882 10.2159 10.6568 10.1112 10.6568 9.98043Z" fill="#1E324E"/>
<path d="M18.9167 4H3.08332C1.935 4 1 4.935 1 6.08336V15.25C1 16.3984 1.935 17.3334 3.08332 17.3334H18.9166C20.065 17.3334 21 16.3984 21 15.25V6.08336C21 4.935 20.065 4 18.9167 4ZM20.1667 15.25C20.1667 15.9392 19.6059 16.5 18.9167 16.5H3.08332C2.39414 16.5 1.83332 15.9392 1.83332 15.25V6.08336C1.83332 5.39418 2.39414 4.83336 3.08332 4.83336H18.9166C19.6058 4.83336 20.1666 5.39418 20.1666 6.08336V15.25H20.1667Z" fill="#1E324E"/>
</svg>
