<svg width="18" height="18" viewBox="0 0 18 18" fill="none" xmlns="http://www.w3.org/2000/svg">
<path d="M1.24376 3.06281L7.17286 9.96891C7.26152 10.0707 7.31078 10.2009 7.31173 10.3359V14.5308C7.31115 14.5896 7.32917 14.647 7.3632 14.6949C7.39723 14.7429 7.44554 14.7788 7.50122 14.7976L10.319 15.7352C10.3611 15.7493 10.406 15.7532 10.4499 15.7465C10.4938 15.7397 10.5354 15.7226 10.5714 15.6966C10.6074 15.6705 10.6366 15.6362 10.6566 15.5966C10.6767 15.557 10.687 15.5132 10.6867 15.4688V10.3359C10.6882 10.2007 10.7381 10.0705 10.8274 9.96891L16.7547 3.06281C16.816 2.99142 16.8555 2.90395 16.8687 2.81077C16.8818 2.71759 16.8679 2.6226 16.8287 2.53706C16.7895 2.45152 16.7265 2.37902 16.6474 2.32814C16.5682 2.27727 16.4761 2.25015 16.382 2.25H1.61818C1.52393 2.24981 1.43161 2.27669 1.35218 2.32743C1.27276 2.37818 1.20958 2.45066 1.17015 2.53626C1.13072 2.62187 1.11669 2.71699 1.12974 2.81033C1.14279 2.90367 1.18236 2.99131 1.24376 3.06281Z" stroke="#4C70FF" stroke-width="1.3125" stroke-linecap="round" stroke-linejoin="round"/>
</svg>
