<svg width="18" height="18" viewBox="0 0 18 18" fill="none" xmlns="http://www.w3.org/2000/svg">
<path d="M1.24425 3.06281L7.17335 9.96891C7.26201 10.0707 7.31127 10.2009 7.31222 10.3359V14.5308C7.31164 14.5896 7.32966 14.647 7.36369 14.6949C7.39772 14.7429 7.44603 14.7788 7.50171 14.7976L10.3195 15.7352C10.3616 15.7493 10.4065 15.7532 10.4504 15.7465C10.4943 15.7397 10.5359 15.7226 10.5719 15.6966C10.6078 15.6705 10.6371 15.6362 10.6571 15.5966C10.6772 15.557 10.6875 15.5132 10.6872 15.4688V10.3359C10.6887 10.2007 10.7385 10.0705 10.8278 9.96891L16.7552 3.06281C16.8165 2.99142 16.856 2.90395 16.8691 2.81077C16.8823 2.71759 16.8684 2.6226 16.8292 2.53706C16.7899 2.45152 16.727 2.37902 16.6479 2.32814C16.5687 2.27727 16.4766 2.25015 16.3825 2.25H1.61866C1.52441 2.24981 1.43209 2.27669 1.35267 2.32743C1.27325 2.37818 1.21007 2.45066 1.17064 2.53626C1.1312 2.62187 1.11718 2.71699 1.13023 2.81033C1.14328 2.90367 1.18285 2.99131 1.24425 3.06281Z" stroke="#4C70FF" stroke-width="1.3125" stroke-linecap="round" stroke-linejoin="round"/>
</svg>
