<svg width="68" height="65" viewBox="0 0 68 65" fill="none" xmlns="http://www.w3.org/2000/svg">
<path fill-rule="evenodd" clip-rule="evenodd" d="M53.7994 23.0429L54.0938 22.9996H59.6304C60.0192 23.0804 60.6937 23.1204 61.6599 23.1204C62.9396 23.1204 63.5636 23.3199 64.5018 24.0285C66.042 25.192 67.1244 27.5496 67.4986 30.5566C67.7139 32.2862 67.7141 38.9177 67.4989 40.3503C67.0957 43.0345 65.9578 44.9353 64.1627 45.9231C63.2825 46.4074 62.6984 46.5155 60.9511 46.5173C60.1496 46.5182 59.4321 46.558 59.3567 46.6059C59.2813 46.6537 59.0362 47.4033 58.8123 48.2717C57.5252 53.264 55.8353 56.5388 53.2964 58.9616C51.9593 60.2374 50.4425 61.1197 48.6684 61.6539C47.507 62.0035 45.629 62.1303 42.8671 62.0456C41.2988 61.9974 40.647 62.0123 40.4836 62.0998C40.3598 62.166 40.0699 62.498 39.8393 62.8376C39.1628 63.8339 38.2383 64.4114 36.9641 64.6338C35.7501 64.8457 31.0705 64.6794 30.3426 64.3986C26.7808 63.0239 26.5265 58.0401 29.9327 56.3633C30.8929 55.8905 31.5558 55.8237 34.5011 55.9028C36.7754 55.9639 37.1841 56.0001 37.6821 56.1848C38.6724 56.5522 39.4371 57.1858 40.0831 58.1748C40.3989 58.6582 40.4295 58.6769 40.9841 58.7265C41.2999 58.7547 42.7078 58.7768 44.1129 58.7756C46.4572 58.7735 46.7393 58.7538 47.5397 58.5364C50.6762 57.6842 53.0602 55.0259 54.6609 50.596C55.2189 49.0517 55.7703 47.0783 55.7275 46.7791C55.6918 46.5291 55.2261 46.4327 53.9949 46.4207C52.5481 46.4066 51.4691 45.6105 51.0653 44.2593C50.9145 43.755 50.9046 43.1597 50.9695 38.5644C51.0095 35.7421 51.0412 31.8167 51.0399 29.8414C51.0372 25.2674 51.1167 24.7878 52.0202 23.9243C52.541 23.4267 53.111 23.1443 53.7994 23.0429ZM4.72759 22.9996C3.46762 23.6237 2.33466 25.0597 1.64336 26.9272C0.886495 28.9717 0.743046 30.1724 0.676656 35.018C0.60647 40.1515 0.726525 41.081 1.7041 42.9694C2.42259 44.3571 3.76331 45.4888 5.11788 45.8506C5.95242 46.0735 14.0657 46.2051 14.8833 46.009C15.941 45.7552 16.8094 44.9234 17.1144 43.872C17.3028 43.2223 17.4613 25.5604 17.2845 24.9145C17.1203 24.3145 16.6226 23.584 16.1396 23.2341C16.039 23.1612 15.8852 23.0784 15.7109 22.9996H4.72759ZM30.8171 18.0143C30.4768 17.3104 30.1983 16.6885 30.1983 16.6324C30.1983 16.483 30.8077 16.6202 31.6293 16.9545C33.1167 17.5599 34.212 18.5976 34.7914 19.9503C35.0468 20.5468 35.072 20.7184 35.068 21.8377C35.0642 22.8692 35.0166 23.2347 34.7746 24.0891C34.4019 25.405 34.439 25.7986 35.0551 27.0732L35.5302 28.0561L34.8468 28.3627C34.471 28.5313 34.1037 28.6463 34.0307 28.6183C33.9577 28.5903 33.6964 28.136 33.45 27.6087C32.9726 26.5873 32.6134 26.1987 32.1465 26.1987C31.9308 26.1987 31.8354 26.2702 31.7382 26.5048C31.5583 26.9393 31.682 27.4542 32.1819 28.352C32.2228 28.4255 32.2612 28.4939 32.297 28.5578C32.5854 29.0722 32.7079 29.2908 32.6488 29.4348C32.6051 29.5412 32.4622 29.6069 32.2137 29.7211C32.1719 29.7403 32.1271 29.7609 32.0793 29.7832C31.7093 29.9563 31.3708 30.098 31.327 30.098C31.2832 30.098 31.0526 29.7237 30.8146 29.2662C30.2324 28.1471 29.8039 27.7364 28.911 27.4413C27.2383 26.8887 25.9288 26.0377 25.2615 25.07C25.0475 24.7596 24.7483 24.126 24.5968 23.662C24.3534 22.9169 24.3273 22.7072 24.3739 21.8663C24.4384 20.6998 24.9102 19.1196 25.1272 19.3432C25.1991 19.4171 25.5221 19.9394 25.8451 20.5038C26.812 22.1938 26.9745 22.3839 27.6111 22.5689C28.3107 22.7723 28.9169 22.6959 29.7366 22.3007C31.0574 21.6641 31.6224 20.8691 31.4983 19.8214C31.4582 19.483 31.2144 18.8362 30.8171 18.0143ZM43.8042 23.5316C45.2833 23.3365 46.4442 23.1562 48.0527 22.8718C48.476 22.7968 48.9026 22.7298 49.0008 22.7228C49.1279 22.7136 49.313 22.9759 49.6422 23.6314C49.8966 24.1382 50.1049 24.6037 50.1049 24.6658C50.1049 24.728 49.0121 25.9014 47.6765 27.2733L45.2481 29.7676L44.6239 29.5888C44.2805 29.4903 43.5717 29.284 43.0487 29.1303L42.0978 28.8509L39.1681 30.3491C37.5567 31.1731 36.1839 31.8922 36.1172 31.9469C36.0505 32.0017 34.9339 32.5841 33.6358 33.2412C32.3378 33.8984 31.2302 34.4775 31.1745 34.5282C31.1095 34.5873 31.2568 34.9666 31.5842 35.5837C31.8653 36.1134 32.0724 36.5671 32.0446 36.5919C31.9599 36.6675 27.4943 38.9732 25.5114 39.9654C23.8263 40.8084 23.578 40.9033 22.9384 40.9491C21.4936 41.0525 20.3065 40.3938 19.6448 39.1216C19.3208 38.4988 19.3036 38.4135 19.3456 37.6399C19.4006 36.6254 19.686 35.9265 20.2767 35.3603C20.6882 34.9657 22.5492 33.9204 25.1704 32.6114C25.8194 32.2874 26.3735 31.9887 26.4017 31.9477C26.4299 31.9068 27.0407 31.5659 27.7589 31.1901L29.0647 30.507L29.2721 30.9134C29.3861 31.1369 29.5749 31.575 29.6915 31.887C29.8083 32.1989 29.9452 32.4798 29.9959 32.5111C30.0905 32.5696 31.1313 32.0855 31.2258 31.9391C31.2548 31.8942 33.1942 30.8883 35.5355 29.7036C37.8769 28.5191 40.1121 27.3728 40.5029 27.1565L41.2133 26.7631L41.6829 25.3067C41.9412 24.5056 42.1801 23.824 42.2137 23.7919C42.2473 23.7598 42.963 23.6427 43.8042 23.5316ZM36.645 33.5947C36.6245 33.5053 36.8499 33.3184 37.2272 33.1121C37.5658 32.9268 37.8891 32.7735 37.9455 32.7713C38.0575 32.7668 38.2143 33.0624 41.0806 38.6797C42.9251 42.2949 43.0248 42.5199 43.0248 43.0697C43.0248 43.7614 42.8622 44.1883 42.3972 44.718C41.9708 45.2035 41.375 45.4846 40.7673 45.4868C39.3694 45.4919 39.0256 45.1166 37.2248 41.6195C36.4463 40.1079 35.7767 38.8481 35.7367 38.8199C35.6967 38.7917 35.3756 38.2145 35.0232 37.5373L34.0206 35.6104C33.8215 35.2279 33.6767 34.8986 33.6985 34.8786C33.7909 34.7947 35.0228 34.2024 35.1052 34.2024C35.1547 34.2024 35.2815 34.3939 35.387 34.6279C35.4925 34.8619 35.6409 35.1153 35.7166 35.1911C35.7923 35.2668 36.6152 36.8122 37.5452 38.6253C40.3038 44.0031 40.3328 44.0425 41.0128 43.3461L41.3868 42.9632L40.2091 40.6094C39.5613 39.3148 38.7726 37.7707 38.4563 37.1781C37.596 35.5664 36.6828 33.7598 36.645 33.5947Z" fill="#0069FF"/>
<path fill-rule="evenodd" clip-rule="evenodd" d="M54.8181 16.9432C55.5389 18.6833 56.0353 20.5035 56.2986 22.36H55.6602V25.5H56.5202H59.6602C59.6602 24.4481 59.5951 23.3995 59.4661 22.36C59.1844 20.0901 58.5981 17.8636 57.7191 15.7416C56.4376 12.6478 54.5593 9.83667 52.1914 7.46878C49.8235 5.10088 47.0124 3.22257 43.9186 1.94107C40.8248 0.659577 37.5089 0 34.1602 0C30.8114 0 27.4955 0.659577 24.4017 1.94107C21.3079 3.22257 18.4968 5.10088 16.1289 7.46878C13.761 9.83667 11.8827 12.6478 10.6012 15.7416C9.72226 17.8636 9.13587 20.0901 8.85422 22.36C8.72523 23.3995 8.66016 24.4481 8.66016 25.5H11.8002H12.6602V22.36H12.0217C12.285 20.5035 12.7814 18.6833 13.5022 16.9432C14.6259 14.2304 16.2729 11.7654 18.3492 9.68909C20.4256 7.61278 22.8905 5.96575 25.6034 4.84205C28.3162 3.71836 31.2238 3.14 34.1602 3.14C37.0965 3.14 40.0041 3.71836 42.717 4.84205C45.4298 5.96575 47.8947 7.61277 49.9711 9.68909C52.0474 11.7654 53.6944 14.2304 54.8181 16.9432Z" fill="#0069FF"/>
</svg>
