<svg width="30" height="30" viewBox="0 0 30 30" fill="none" xmlns="http://www.w3.org/2000/svg">
<rect x="0.5" y="-0.5" width="29" height="29" rx="6.5" transform="matrix(1 0 0 -1 0 29)" fill="white" stroke="#F2F7FF"/>
<g clip-path="url(#clip0)">
<path d="M19.2886 16.7064C19.2886 16.0522 18.7583 15.5218 18.104 15.5218H17.7775V9.43979C17.7775 8.75786 17.2247 8.20508 16.5428 8.20508L13.4568 8.20508C12.7749 8.20508 12.2221 8.75789 12.2221 9.43979L12.2221 15.5218H11.8952C11.2422 15.5218 10.7109 16.0532 10.7109 16.7065C10.7109 16.9724 10.8024 17.2338 10.9684 17.4426L14.073 21.3477C14.2989 21.6319 14.6367 21.7949 14.9997 21.7949C15.3628 21.7949 15.7006 21.6319 15.9266 21.3478L19.0312 17.4426C19.1972 17.2338 19.2886 16.9723 19.2886 16.7065V16.7064Z" fill="#EFF5FD"/>
<path d="M14.8931 20.6955L11.7885 16.7904C11.7178 16.7015 11.7811 16.5702 11.8948 16.5702H13.1342C13.2092 16.5702 13.2699 16.5095 13.2699 16.4345L13.2699 9.63045C13.2699 9.42228 13.4387 9.25354 13.6468 9.25354L16.3518 9.25354C16.56 9.25354 16.7287 9.42228 16.7287 9.63045V16.4345C16.7287 16.5095 16.7895 16.5702 16.8645 16.5702H18.1039C18.2175 16.5702 18.2808 16.7015 18.2101 16.7904L15.1056 20.6955C15.0512 20.7638 14.9474 20.7638 14.8931 20.6955Z" fill="#A8CCFF"/>
<path d="M14.8931 20.6954L11.7885 16.7904C11.7178 16.7014 11.7811 16.5702 11.8948 16.5702H12.2656L14.8931 19.8751C14.9474 19.9435 15.0512 19.9435 15.1056 19.8751L17.733 16.5702H18.1039C18.2175 16.5702 18.2808 16.7014 18.2101 16.7904L15.1056 20.6954C15.0512 20.7638 14.9474 20.7638 14.8931 20.6954Z" fill="#A8CCFF"/>
<path d="M19.4937 16.7065C19.4937 15.9402 18.8703 15.3167 18.104 15.3167H17.9826V13.6889C17.9826 13.5756 17.8907 13.4838 17.7775 13.4838C17.6642 13.4838 17.5724 13.5756 17.5724 13.6889V15.5218C17.5724 15.6351 17.6642 15.7269 17.7775 15.7269H18.104C18.6441 15.7269 19.0835 16.1663 19.0835 16.7064C19.0835 16.9262 19.0079 17.1423 18.8706 17.3151L15.766 21.2202C15.5792 21.4551 15.2999 21.5898 14.9997 21.5898C14.6995 21.5898 14.4203 21.455 14.2334 21.2201L11.1289 17.3151C10.9916 17.1424 10.916 16.9262 10.916 16.7065C10.916 16.1663 11.3553 15.7269 11.8952 15.7269H12.222C12.3353 15.7269 12.4271 15.6351 12.4271 15.5218L12.4271 9.43979C12.4271 8.87205 12.889 8.41016 13.4568 8.41016L16.5428 8.41016C17.1105 8.41016 17.5724 8.87205 17.5724 9.43979V12.8686C17.5724 12.9818 17.6642 13.0736 17.7775 13.0736C17.8907 13.0736 17.9825 12.9818 17.9825 12.8686V9.43979C17.9826 8.64589 17.3367 8 16.5428 8L13.4568 8C12.6629 8 12.017 8.64589 12.017 9.43979L12.017 15.3167H11.8952C11.1291 15.3167 10.5059 15.9402 10.5059 16.7065C10.5059 17.0185 10.6131 17.3253 10.8079 17.5703L13.9124 21.4753C14.1775 21.8087 14.5738 22 14.9997 22C15.4257 22 15.822 21.8088 16.0871 21.4754L19.1917 17.5703C19.3865 17.3253 19.4937 17.0185 19.4937 16.7065Z" fill="#A8CCFF"/>
<path d="M18.4453 16.7065C18.4453 16.6561 18.434 16.6054 18.411 16.5578C18.3537 16.4389 18.2361 16.365 18.1041 16.365H16.934V9.63032C16.934 9.30942 16.6729 9.04834 16.352 9.04834L13.647 9.04834C13.3261 9.04834 13.065 9.30942 13.065 9.63032V11.0433C13.065 11.1566 13.1568 11.2484 13.2701 11.2484C13.3834 11.2484 13.4752 11.1566 13.4752 11.0433V9.63032C13.4752 9.53558 13.5523 9.4585 13.647 9.4585L16.352 9.4585C16.4467 9.4585 16.5238 9.53558 16.5238 9.63032V16.4344C16.5238 16.6223 16.6767 16.7752 16.8646 16.7752H17.9603L14.9995 20.4995L12.0387 16.7752H13.1344C13.3223 16.7752 13.4752 16.6223 13.4752 16.4344L13.4752 11.8636C13.4752 11.7503 13.3834 11.6585 13.2701 11.6585C13.1568 11.6585 13.065 11.7503 13.065 11.8636L13.065 16.3651H11.895C11.763 16.3651 11.6453 16.4389 11.588 16.5578C11.5306 16.6767 11.5461 16.8147 11.6282 16.918L14.7327 20.823C14.7978 20.9048 14.895 20.9517 14.9995 20.9517C15.104 20.9517 15.2012 20.9048 15.2663 20.8231L18.3708 16.918C18.4201 16.8561 18.4453 16.7817 18.4453 16.7065Z" fill="#83A4D7"/>
</g>
<defs>
<clipPath id="clip0">
<rect width="14" height="14" fill="white" transform="matrix(0 1 1 0 8 8)"/>
</clipPath>
</defs>
</svg>
