<svg width="16" height="16" viewBox="0 0 16 16" fill="none" xmlns="http://www.w3.org/2000/svg">
<path d="M7.74951 2C4.5742 2 1.99951 4.57469 1.99951 7.75C1.99951 10.9253 4.5742 13.5 7.74951 13.5C10.9248 13.5 13.4995 10.9253 13.4995 7.75C13.4995 4.57469 10.9248 2 7.74951 2Z" stroke="#1E324E" stroke-miterlimit="10"/>
<path d="M6.875 6.875H7.875V10.5" stroke="#1E324E" stroke-linecap="round" stroke-linejoin="round"/>
<path d="M6.50098 10.625H9.25098" stroke="#1E324E" stroke-miterlimit="10" stroke-linecap="round"/>
<path d="M7.75049 4.0625C7.58979 4.0625 7.4327 4.11015 7.29909 4.19943C7.16547 4.28871 7.06133 4.4156 6.99984 4.56407C6.93834 4.71253 6.92225 4.8759 6.9536 5.03351C6.98495 5.19112 7.06233 5.33589 7.17596 5.44952C7.28959 5.56315 7.43437 5.64054 7.59198 5.67189C7.74959 5.70324 7.91295 5.68715 8.06142 5.62565C8.20988 5.56416 8.33678 5.46002 8.42606 5.3264C8.51534 5.19279 8.56299 5.0357 8.56299 4.875C8.56299 4.65951 8.47739 4.45285 8.32501 4.30048C8.17264 4.1481 7.96598 4.0625 7.75049 4.0625Z" fill="#1E324E"/>
</svg>
