<svg width="40" height="40" viewBox="0 0 40 40" fill="none" xmlns="http://www.w3.org/2000/svg">
<path d="M19.8701 0.000976562C8.91385 0.000976562 0 8.91483 0 19.8711C0 30.8274 8.91385 39.7412 19.8701 39.7412C30.8264 39.7412 39.7402 30.8274 39.7402 19.8711C39.7402 8.91483 30.8264 0.000976562 19.8701 0.000976562ZM19.8701 30.5618C19.4922 30.5618 19.1228 30.4497 18.8087 30.2398C18.4945 30.0299 18.2496 29.7315 18.105 29.3824C17.9604 29.0332 17.9225 28.6491 17.9962 28.2785C18.07 27.9078 18.2519 27.5674 18.5191 27.3002C18.7863 27.033 19.1268 26.851 19.4974 26.7773C19.868 26.7036 20.2522 26.7414 20.6013 26.886C20.9504 27.0307 21.2488 27.2755 21.4587 27.5897C21.6687 27.9039 21.7807 28.2733 21.7807 28.6512C21.7807 29.1579 21.5794 29.6439 21.2211 30.0022C20.8628 30.3605 20.3768 30.5618 19.8701 30.5618ZM21.945 11.346L21.3967 23.0006C21.3967 23.406 21.2356 23.7948 20.949 24.0814C20.6624 24.3681 20.2736 24.5291 19.8682 24.5291C19.4628 24.5291 19.0741 24.3681 18.7874 24.0814C18.5008 23.7948 18.3397 23.406 18.3397 23.0006L17.7914 11.3518V11.347C17.7794 11.067 17.8241 10.7875 17.923 10.5253C18.0219 10.2631 18.1728 10.0236 18.3666 9.82125C18.5605 9.61889 18.7933 9.45786 19.051 9.34785C19.3087 9.23784 19.5861 9.18113 19.8663 9.18113C20.1465 9.18113 20.4239 9.23784 20.6816 9.34785C20.9393 9.45786 21.1721 9.61889 21.366 9.82125C21.5598 10.0236 21.7107 10.2631 21.8096 10.5253C21.9084 10.7875 21.9532 11.067 21.9412 11.347L21.945 11.346Z" fill="#0069FF"/>
</svg>
