<svg width="21" height="21" viewBox="0 0 21 21" fill="none" xmlns="http://www.w3.org/2000/svg">
<path fill-rule="evenodd" clip-rule="evenodd" d="M6.2712 0.508892C7.33786 0.460822 7.6787 0.449219 10.3945 0.449219C13.1104 0.449219 13.4512 0.460822 14.5179 0.508892C16.1429 0.582654 17.5704 0.978816 18.7162 2.1184C19.862 3.25799 20.2604 4.67771 20.3345 6.29385C20.3829 7.3547 20.3945 7.69368 20.3945 10.3947C20.3945 13.0957 20.3829 13.4347 20.3345 14.4956C20.2604 16.1117 19.862 17.5314 18.7162 18.671C17.5704 19.8106 16.1429 20.2068 14.5179 20.2805C13.4512 20.3286 13.1104 20.3402 10.3945 20.3402C7.6787 20.3402 7.33786 20.3286 6.2712 20.2805C4.6462 20.2068 3.2187 19.8106 2.07286 18.671C0.927031 17.5314 0.528698 16.1117 0.454531 14.4956C0.406198 13.4347 0.394531 13.0957 0.394531 10.3947C0.394531 7.69368 0.406198 7.3547 0.454531 6.29385C0.528698 4.67771 0.927031 3.25799 2.07286 2.1184C3.2187 0.978816 4.6462 0.582654 6.2712 0.508892ZM14.4345 2.29923C13.3803 2.25116 13.0636 2.24121 10.3936 2.24121C7.72365 2.24121 7.40698 2.25116 6.35281 2.29923C5.21448 2.35061 4.15865 2.5777 3.34615 3.38577C2.53365 4.19384 2.30531 5.24392 2.25365 6.37605C2.20531 7.42447 2.19531 7.73941 2.19531 10.3949C2.19531 13.0503 2.20531 13.3652 2.25365 14.4137C2.30531 15.5458 2.53365 16.5959 3.34615 17.4039C4.15865 18.212 5.21448 18.4391 6.35281 18.4905C7.40698 18.5386 7.72365 18.5485 10.3936 18.5485C13.0636 18.5485 13.3803 18.5386 14.4345 18.4905C15.5728 18.4391 16.6286 18.212 17.4411 17.4039C18.2536 16.5959 18.482 15.5458 18.5336 14.4137C18.582 13.3652 18.592 13.0503 18.592 10.3949C18.592 7.73941 18.582 7.42447 18.5336 6.37605C18.482 5.24392 18.2536 4.19384 17.4411 3.38577C16.6286 2.5777 15.5728 2.35061 14.4345 2.29923ZM5.25781 10.3941C5.25781 7.57374 7.55698 5.28711 10.3928 5.28711C13.2286 5.28711 15.5278 7.57374 15.5278 10.3941C15.5278 13.2145 13.2286 15.5011 10.3928 15.5011C7.55698 15.5011 5.25781 13.2145 5.25781 10.3941ZM7.05859 10.3943C7.05859 12.2251 8.55109 13.7094 10.3919 13.7094C12.2328 13.7094 13.7253 12.2251 13.7253 10.3943C13.7253 8.56347 12.2328 7.0791 10.3919 7.0791C8.55109 7.0791 7.05859 8.56347 7.05859 10.3943ZM16.9312 5.08604C16.9312 5.74517 16.394 6.2795 15.7312 6.2795C15.0685 6.2795 14.5312 5.74517 14.5312 5.08604C14.5312 4.42691 15.0685 3.89258 15.7312 3.89258C16.394 3.89258 16.9312 4.42691 16.9312 5.08604Z" fill="white"/>
</svg>
