<svg width="19" height="23" viewBox="0 0 19 23" fill="none" xmlns="http://www.w3.org/2000/svg">
<g clip-path="url(#clip0)">
<path d="M3.82815 10.5112C3.12964 10.5288 2.46583 10.8193 1.97906 11.3206C1.49228 11.8219 1.2213 12.4939 1.22421 13.1926C1.22126 13.5453 1.28817 13.895 1.42108 14.2217C1.55398 14.5483 1.75026 14.8454 1.99858 15.0958C2.2469 15.3462 2.54234 15.545 2.86787 15.6806C3.1934 15.8162 3.54257 15.8861 3.89522 15.8861C4.24788 15.8861 4.59704 15.8162 4.92257 15.6806C5.2481 15.545 5.54355 15.3462 5.79187 15.0958C6.04019 14.8454 6.23646 14.5483 6.36937 14.2217C6.50228 13.895 6.56918 13.5453 6.56623 13.1926C6.56772 12.8353 6.49749 12.4813 6.3597 12.1515C6.22192 11.8218 6.01937 11.5231 5.76405 11.2731C5.50874 11.023 5.20585 10.8268 4.87332 10.6959C4.54079 10.565 4.18539 10.5023 3.82815 10.5112ZM2.73432 11.7994H3.25177C3.26728 11.7995 3.28244 11.8041 3.29545 11.8125C3.30847 11.821 3.31881 11.833 3.32526 11.8471L3.89025 13.0683L4.45683 11.8471C4.46328 11.833 4.47362 11.821 4.48663 11.8125C4.49965 11.8041 4.5148 11.7995 4.53032 11.7994H4.53104H5.04834C5.06241 11.7994 5.07625 11.8031 5.0885 11.81C5.10075 11.8169 5.111 11.8269 5.11825 11.839C5.1255 11.851 5.12951 11.8648 5.12988 11.8789C5.13026 11.8929 5.12698 11.9069 5.12039 11.9193L4.38752 13.3214H4.87744V13.6945H4.20265V13.9387H4.87744V14.3118H4.20265V14.9135H3.57901V14.3118H2.90421V13.9387H3.57901V13.6945H2.90421V13.3214H3.39485L2.66199 11.9193C2.65549 11.9071 2.65221 11.8934 2.65245 11.8796C2.65269 11.8657 2.65644 11.8522 2.66336 11.8402C2.67028 11.8282 2.68013 11.8182 2.69199 11.811C2.70385 11.8039 2.71732 11.7999 2.73115 11.7994H2.73432Z" fill="#B0C1DA"/>
<path d="M13.6137 11.882C12.919 11.9022 12.2594 12.1923 11.7751 12.6909C11.2908 13.1895 11.02 13.8572 11.02 14.5522C11.02 15.2608 11.3015 15.9402 11.8025 16.4412C12.3035 16.9422 12.9829 17.2237 13.6915 17.2237C14.4 17.2237 15.0795 16.9422 15.5805 16.4412C16.0814 15.9402 16.3629 15.2608 16.3629 14.5522C16.3629 14.1949 16.2913 13.8411 16.1521 13.5119C16.013 13.1828 15.8092 12.8849 15.5528 12.6359C15.2965 12.3869 14.9928 12.1919 14.6597 12.0624C14.3266 11.9329 13.9709 11.8716 13.6137 11.882ZM13.9934 13.0667C14.2342 13.0721 14.4698 13.1379 14.6786 13.2581C14.7021 13.2716 14.7217 13.2912 14.7354 13.3147C14.7491 13.3382 14.7563 13.3649 14.7564 13.3921V13.6341C14.7564 13.6488 14.7523 13.6632 14.7445 13.6757C14.7366 13.6882 14.7254 13.6981 14.7121 13.7045C14.6988 13.7108 14.684 13.7132 14.6694 13.7115C14.6548 13.7097 14.641 13.7038 14.6296 13.6944H14.6287C14.5086 13.5953 14.3679 13.5242 14.2168 13.4862C14.0657 13.4482 13.9081 13.4443 13.7554 13.4748C13.6517 13.4956 13.5534 13.5374 13.4664 13.5976C13.3795 13.6577 13.3057 13.7351 13.2497 13.8248C13.1864 13.9267 13.1358 14.036 13.0989 14.1502H14.1895L14.0901 14.3758H13.0432C13.0158 14.5385 13.0158 14.7046 13.0432 14.8672H14.1839L14.0845 15.0929H13.1005C13.1368 15.1966 13.1847 15.2961 13.2431 15.3892C13.2991 15.479 13.3729 15.5563 13.4599 15.6165C13.5469 15.6766 13.6453 15.7185 13.749 15.7392C13.9019 15.77 14.0596 15.7662 14.2108 15.7284C14.3621 15.6905 14.5029 15.6194 14.6232 15.5203C14.6346 15.511 14.6483 15.5051 14.6629 15.5033C14.6774 15.5015 14.6921 15.5039 14.7054 15.5101C14.7187 15.5163 14.7299 15.5262 14.7378 15.5385C14.7457 15.5508 14.7499 15.5651 14.75 15.5798V15.8218C14.7501 15.8491 14.7429 15.876 14.7292 15.8997C14.7156 15.9233 14.6959 15.9429 14.6722 15.9566C14.3695 16.1306 14.0138 16.1886 13.6715 16.1196C13.516 16.0884 13.3685 16.0257 13.2381 15.9354C13.1077 15.8452 12.9971 15.7292 12.9131 15.5946C12.8162 15.439 12.7427 15.2699 12.6951 15.0928H12.0801L12.1795 14.8671H12.6496C12.6279 14.704 12.6279 14.5388 12.6496 14.3757H12.0849L12.1843 14.1501H12.693C12.7403 13.9628 12.8164 13.7839 12.9186 13.6199C13.0026 13.4852 13.1132 13.3691 13.2436 13.2787C13.3741 13.1883 13.5217 13.1255 13.6773 13.0942C13.7812 13.0734 13.887 13.0642 13.993 13.0667L13.9934 13.0667Z" fill="#B0C1DA"/>
<path d="M4.80179 8.62096H5.37817V8.04458V4.77563V4.19926H4.80179H1.55664H0.980263V4.77563V8.04458V8.62096H1.55664H4.80179Z" fill="#B0C1DA" stroke="#607695" stroke-width="1.15276"/>
<path d="M16.4903 8.87918H17.0666V8.3028V1.07556V0.499184H16.4903H13.2451H12.6687V1.07556V8.3028V8.87918H13.2451H16.4903Z" fill="#B0C1DA" stroke="#607695" stroke-width="1.15276"/>
<path d="M12.0766 7.79045L13.1793 7.55559V2.03882V1.46244H12.6029H9.35791H8.78153V2.03882V5.32149V5.86712L9.32635 5.897C9.91452 5.92926 10.4824 6.12307 10.9676 6.45712C11.4528 6.79117 11.8365 7.25251 12.0766 7.79045Z" fill="#B0C1DA" stroke="#607695" stroke-width="1.15276"/>
<path d="M4.8787 8.30503L6.0187 8.42562C6.15838 7.77277 6.49852 7.17987 6.9916 6.72977C7.48468 6.27967 8.10606 5.99486 8.76891 5.91514L9.27646 5.8541V5.34289V3.20715V2.63078H8.70009H5.45508H4.8787V3.20715V8.30503Z" fill="#B0C1DA" stroke="#607695" stroke-width="1.15276"/>
<path d="M9.18542 5.72478C8.321 5.71601 7.48626 6.0397 6.85377 6.62898C6.22128 7.21826 5.83941 8.02804 5.78709 8.89092H0.763672V9.30045H5.78709C5.83907 10.1574 6.21614 10.9622 6.84132 11.5507C7.4665 12.1391 8.29266 12.4667 9.1512 12.4667C10.0097 12.4667 10.8359 12.1391 11.4611 11.5507C12.0863 10.9622 12.4633 10.1574 12.5153 9.30045H17.5387V8.89092H12.5153C12.4637 8.03985 12.0914 7.23994 11.4735 6.65242C10.8556 6.06489 10.038 5.73344 9.18542 5.72478ZM8.79089 6.88267H9.53096V7.34136C9.73111 7.41653 9.90357 7.55095 10.0253 7.72671C10.147 7.90247 10.2122 8.11117 10.2122 8.32497H9.48254C9.48259 8.26718 9.46706 8.21045 9.43758 8.16073C9.40811 8.11102 9.36578 8.07017 9.31505 8.04248C9.26432 8.0148 9.20706 8.00129 9.14931 8.00339C9.09155 8.00549 9.03543 8.02314 8.98684 8.05445C8.93826 8.08575 8.89901 8.12954 8.87323 8.18127C8.84744 8.23299 8.83608 8.29073 8.84033 8.34837C8.84457 8.40601 8.86428 8.46144 8.89737 8.50883C8.93046 8.55622 8.97571 8.59378 9.02835 8.61762L9.60099 8.92219C9.77514 9.01474 9.91973 9.15443 10.0182 9.3253C10.1167 9.49617 10.1651 9.69134 10.1579 9.88843C10.1507 10.0855 10.0881 10.2766 9.97741 10.4398C9.86669 10.603 9.71228 10.7317 9.53182 10.8113V11.2924H8.79103V10.8515C8.57839 10.784 8.39275 10.6505 8.26102 10.4705C8.12928 10.2904 8.05829 10.0731 8.05831 9.85H8.78642C8.78647 9.90692 8.80164 9.96281 8.83037 10.012C8.8591 10.0611 8.90036 10.1017 8.94993 10.1297C8.99951 10.1577 9.05563 10.172 9.11255 10.1712C9.16947 10.1704 9.22515 10.1545 9.27391 10.1251C9.32267 10.0957 9.36276 10.0539 9.39007 10.004C9.41739 9.95405 9.43095 9.89776 9.42938 9.84085C9.42781 9.78395 9.41116 9.72845 9.38113 9.68008C9.35111 9.63172 9.30878 9.59222 9.25847 9.56557L8.66826 9.25353C8.4894 9.15883 8.3417 9.01452 8.24292 8.83789C8.14413 8.66125 8.09846 8.45984 8.11139 8.25787C8.12433 8.0559 8.19532 7.86194 8.31584 7.69935C8.43636 7.53677 8.60126 7.41247 8.79074 7.34136L8.79089 6.88267Z" fill="#B0C1DA"/>
</g>
<defs>
<clipPath id="clip0">
<rect width="18.3" height="22.875" fill="white"/>
</clipPath>
</defs>
</svg>
