<svg width="22" height="22" viewBox="0 0 22 22" fill="none" xmlns="http://www.w3.org/2000/svg">
<circle cx="11" cy="11" r="10.5" fill="#B0C1DA" stroke="#607695"/>
<path d="M10.3224 6.25728L7.83834 5.58075L7.22794 6.08838C7.03623 5.80091 6.93506 5.46647 6.93506 5.1212V4.56454C6.93506 4.25314 7.1882 4 7.4996 4C7.811 4 8.06414 4.25314 8.06414 4.56454V4.79035C8.06414 4.85243 8.11494 4.90328 8.17707 4.90328C8.2392 4.90328 8.29 4.85248 8.29 4.79035V4.56454C8.29 4.25314 8.54314 4 8.85454 4C9.16594 4 9.41908 4.25314 9.41908 4.56454V4.79035C9.41908 4.85243 9.46988 4.90328 9.53201 4.90328C9.59414 4.90328 9.64494 4.85248 9.64494 4.79035V4.56454C9.64494 4.25314 9.89808 4 10.2095 4C10.5209 4 10.774 4.25314 10.774 4.56454V5.1212C10.774 5.46647 10.6729 5.80114 10.4811 6.08838L10.3224 6.25728Z" fill="white"/>
<path d="M6.76266 9.6446L6.311 9.4188H5.58026V6.03149H3.99951V10.3221H5.58026V9.87041H6.20441L6.65608 10.0962H6.9352V9.64456L6.76266 9.6446ZM5.1286 9.87046H4.45117V6.48311H5.12864V9.87046H5.1286Z" fill="#607695"/>
<path d="M8.96952 14.6137C8.92866 14.6137 8.88799 14.613 8.8469 14.6112C7.32259 14.5498 6.06005 13.2579 6.03272 11.7316C6.01849 10.9443 6.31319 10.1998 6.86216 9.63548C7.34633 9.13754 7.613 8.51633 7.613 7.88672L8.74208 7.16162L9.19375 7.61328V9.87057H10.7745L11.0389 9.59867C11.5967 10.1533 11.9036 10.8915 11.9036 11.6781C11.9036 12.4847 11.5831 13.2367 11.0012 13.7956C10.4493 14.3258 9.7317 14.6137 8.96952 14.6137Z" fill="white"/>
<path d="M10.0966 11.2253V11.1133C10.0966 10.6775 9.74209 10.322 9.30625 10.322H9.19332V9.87036H8.74166V10.322H8.62873C8.19288 10.322 7.83838 10.6766 7.83838 11.1124C7.83838 11.5482 8.19293 11.9028 8.62873 11.9028H9.3062C9.49296 11.9028 9.64493 12.0547 9.64493 12.2415C9.64493 12.4283 9.49296 12.5802 9.3062 12.5802H8.62878C8.44201 12.5802 8.29004 12.4292 8.29004 12.2424V12.1286H7.83838V12.2424C7.83838 12.6782 8.19293 13.0319 8.62873 13.0319H8.74166V13.4835H9.19332V13.0319H9.30625C9.74209 13.0319 10.0966 12.6773 10.0966 12.2415C10.0966 11.8057 9.74209 11.4511 9.30625 11.4511H8.62878C8.44201 11.4511 8.29004 11.2991 8.29004 11.1124C8.29004 10.9256 8.44201 10.7736 8.62878 10.7736H9.30625C9.49301 10.7736 9.64498 10.9265 9.64498 11.1133V11.2253L10.0966 11.2253Z" fill="#607695"/>
<path d="M11.0497 7.16138C11.1581 7.04123 11.2258 6.88338 11.2258 6.7093C11.2258 6.33582 10.9219 6.03137 10.5483 6.03137H9.70786L9.55066 5.8349L7.7859 5.3302L6.40186 6.48298H5.35449V6.93464H6.56535L7.89137 5.83014L9.28805 6.22937L9.76318 6.82307C9.82596 6.90166 9.85371 7.00013 9.84107 7.09991C9.82843 7.19973 9.77694 7.28826 9.69633 7.34852C9.55066 7.45781 9.34361 7.44312 9.21445 7.31419L8.75873 6.85847L7.4718 7.88806L7.75386 8.24079L8.7251 7.46374L8.89493 7.63376C8.91979 7.65862 8.94754 7.67891 8.97488 7.6999C8.99134 7.86474 9.05142 7.96162 9.14378 8.06392C9.03538 8.18407 8.96765 8.34168 8.96765 8.51576C8.96765 8.68984 9.03561 8.8475 9.14378 8.96743C9.03538 9.08758 8.96765 9.2445 8.96765 9.41862C8.96765 9.79257 9.27159 10.0961 9.64512 10.0961H10.5484C10.9219 10.0961 11.2259 9.79257 11.2259 9.41909C11.2259 9.24496 11.1579 9.08782 11.0497 8.96766C11.1581 8.8475 11.2259 8.69036 11.2259 8.516C11.2259 8.34169 11.1579 8.18449 11.0497 8.06433C11.1581 7.94418 11.2259 7.7868 11.2259 7.61267C11.2258 7.43869 11.1579 7.28149 11.0497 7.16138ZM10.5483 9.64448H9.64507C9.52062 9.64448 9.41926 9.54307 9.41926 9.41867C9.41926 9.29422 9.52067 9.19286 9.64507 9.19286H10.5483C10.6728 9.19286 10.7742 9.29427 10.7742 9.41867C10.7742 9.54312 10.6728 9.64448 10.5483 9.64448ZM10.5483 8.7412H9.64507C9.52062 8.7412 9.41926 8.63979 9.41926 8.51539C9.41926 8.39094 9.52067 8.28958 9.64507 8.28958H10.5483C10.6728 8.28958 10.7742 8.39099 10.7742 8.51539C10.7742 8.63984 10.6728 8.7412 10.5483 8.7412ZM10.5483 7.83792H9.71168C9.8018 7.81105 9.88874 7.76903 9.96729 7.71011C10.0811 7.62475 10.1651 7.51253 10.2211 7.38631H10.5483C10.6728 7.38631 10.7742 7.48771 10.7742 7.61211C10.7742 7.73651 10.6728 7.83792 10.5483 7.83792ZM10.5483 6.93464H10.2835C10.2627 6.79238 10.2083 6.65687 10.1157 6.54105L10.0692 6.48303H10.5483C10.6728 6.48303 10.7742 6.58443 10.7742 6.70884C10.7742 6.83324 10.6728 6.93464 10.5483 6.93464Z" fill="#607695"/>
<path d="M16.42 14.6125V15.29H14.9076L14.2871 14.8763L12.3839 14.2013C12.2028 14.1376 12.0083 14.1505 11.8372 14.2374C11.6657 14.3244 11.5409 14.4734 11.4851 14.6572C11.3887 14.9754 11.5318 15.3198 11.8254 15.4756L12.3143 15.7353L11.6034 15.7375L11.3112 15.0068C11.215 14.7674 10.9862 14.6125 10.7279 14.6125C10.5262 14.6125 10.3357 14.7105 10.218 14.874C10.1003 15.0379 10.0685 15.2498 10.1328 15.4408L10.2013 15.6436L9.70581 15.3728C9.5482 15.2863 9.35985 15.2696 9.18936 15.3272C9.01887 15.3841 8.87861 15.5108 8.80454 15.6745C8.65957 15.9947 8.79302 16.3676 9.10829 16.5232L10.223 17.0732L12.5367 17.5438L15.539 17.5481L16.42 17.372V17.9998H18.0007V14.6125H16.42ZM10.5847 15.1375C10.6606 15.0318 10.8435 15.0542 10.8916 15.1748L11.1174 15.7391L10.7105 15.7405L10.561 15.2965C10.5427 15.2421 10.5513 15.1843 10.5847 15.1375ZM15.4943 17.0965H12.6033L10.3962 16.655L9.30816 16.1182C9.21264 16.071 9.17201 15.9579 9.21604 15.8606C9.23885 15.8102 9.28018 15.7727 9.33279 15.7553C9.38494 15.7373 9.44096 15.7425 9.48952 15.7693L10.2652 16.1932H12.4085L13.2996 15.7476L12.0375 15.0768C11.9341 15.0217 11.8835 14.9004 11.9173 14.7882C11.937 14.7234 11.981 14.6705 12.0416 14.64C12.1019 14.6091 12.1705 14.605 12.2344 14.6271L14.0604 15.2678L14.7708 15.7416H16.42V16.9113L15.4943 17.0965ZM17.549 17.5481H16.8716V15.0641H17.549V17.5481Z" fill="#607695"/>
</svg>
