<svg width="25" height="21" viewBox="0 0 25 21" fill="none" xmlns="http://www.w3.org/2000/svg">
<path d="M1.08156 9.41895C0.48525 9.41895 0 9.9042 0 10.5006C0 11.0962 0.484868 11.5814 1.08156 11.5814H5.6347V9.41895H1.08156Z" fill="#1E324E"/>
<path d="M21.3962 0.817871H9.23944C7.25176 0.817871 5.63465 2.43423 5.63465 4.42152V4.5343V9.41858H15.3759L13.2926 7.33512C12.8716 6.91336 12.8716 6.22733 13.2926 5.80576C13.4968 5.60153 13.7679 5.48895 14.0567 5.48895C14.3465 5.48895 14.6176 5.6016 14.8222 5.80576L18.7516 9.73539C18.8503 9.83365 18.9283 9.95013 18.9841 10.082C19.0418 10.224 19.0686 10.3611 19.0686 10.5005C19.0686 10.6395 19.0422 10.7768 18.9883 10.9083C18.9306 11.0472 18.8525 11.163 18.7546 11.2628L14.8221 15.1945C14.6167 15.3987 14.3449 15.5108 14.0566 15.5108C13.7683 15.5108 13.4956 15.3987 13.2922 15.1945C12.8712 14.7719 12.8712 14.086 13.2922 13.6646L15.3758 11.5813H5.63458V12.764V14.9357V16.5788C5.63458 18.5653 7.25176 20.1817 9.23938 20.1817H21.3962C23.3838 20.1817 24.9998 18.5653 24.9998 16.5788V4.42197C24.9999 2.43423 23.3839 0.817871 21.3962 0.817871Z" fill="#1E324E"/>
</svg>
