<svg width="17" height="16" viewBox="0 0 17 16" fill="none" xmlns="http://www.w3.org/2000/svg">
<path d="M9 14.25C8.5858 14.25 8.25 14.5858 8.25 15C8.25 15.4142 8.5858 15.75 9 15.75H15C15.9665 15.75 16.75 14.9665 16.75 14V2C16.75 1.0335 15.9665 0.25 15 0.25H9C8.5858 0.25 8.25 0.58579 8.25 1C8.25 1.41421 8.5858 1.75 9 1.75H15C15.1381 1.75 15.25 1.86193 15.25 2V14C15.25 14.1381 15.1381 14.25 15 14.25H9Z" fill="#B0C1DA"/>
<path fill-rule="evenodd" clip-rule="evenodd" d="M11.5031 10.3652C12.1934 10.3652 12.7531 9.80563 12.7531 9.11523V6.87473C12.7531 6.18433 12.1934 5.62473 11.5031 5.62473H6.89048C6.88396 5.55131 6.87713 5.4779 6.87 5.40451L6.81597 4.84863C6.73354 4.00052 5.83294 3.49261 5.06451 3.86087C3.43029 4.64406 1.95085 5.71581 0.697359 7.02453L0.598159 7.12813C0.133949 7.61283 0.133949 8.37713 0.598149 8.86183L0.697359 8.96543C1.95085 10.2741 3.43029 11.3459 5.06451 12.1291C5.83293 12.4973 6.73354 11.9894 6.81597 11.1413L6.87 10.5854C6.87713 10.512 6.88396 10.4386 6.89048 10.3652H11.5031ZM6.19511 8.86523C5.92874 8.86523 5.69326 9.00453 5.56008 9.21603C5.49523 9.31903 5.45464 9.43913 5.44656 9.56853C5.42842 9.85943 5.40524 10.15 5.37703 10.4403L5.36135 10.6017C4.3253 10.0677 3.36316 9.40283 2.49838 8.62393C2.27402 8.42183 2.05622 8.21213 1.84538 7.99503C2.86892 6.94093 4.05651 6.06073 5.36135 5.38827L5.37703 5.54962C5.40524 5.8399 5.42842 6.13053 5.44656 6.42143C5.47122 6.81673 5.79902 7.12473 6.19511 7.12473H11.2531V8.86523H6.19511Z" fill="#B0C1DA"/>
</svg>
