<svg width="30" height="30" viewBox="0 0 30 30" fill="none" xmlns="http://www.w3.org/2000/svg">
<path d="M15 0C6.75591 0 0 6.75591 0 15C0 23.2441 6.75591 30 15 30C23.2441 30 30 23.2441 30 15C30 6.75591 23.2441 0 15 0Z" fill="#FDBF00"/>
<path d="M15 3.57422C8.70689 3.57422 3.57422 8.70689 3.57422 15C3.57422 21.2929 8.70689 26.4258 15 26.4258C21.2931 26.4258 26.4258 21.2929 26.4258 15C26.4258 8.70689 21.2931 3.57422 15 3.57422Z" fill="#FFDA2D"/>
<path d="M19.3945 19.3945V21.1523H10.3242L11.9941 15.2636L9.02344 15.8612L8.67188 14.1387L12.5391 13.3653L14.1563 7.72266L15.8437 8.21475L15 11.1854L14.4903 12.9785L15 12.873L17.4609 12.3809L17.8125 14.1034L15 14.666L13.9453 14.8768L12.6446 19.3945H19.3945Z" fill="#FF9100"/>
<path d="M30 15C30 23.2441 23.2441 30 15 30V0C23.2441 0 30 6.75591 30 15Z" fill="#FF9100"/>
<path d="M26.4258 15C26.4258 21.2929 21.2931 26.4258 15 26.4258V3.57422C21.2931 3.57422 26.4258 8.70689 26.4258 15Z" fill="#FDBF00"/>
<path d="M15.8437 8.2148L15 11.1855V7.96875L15.8437 8.2148Z" fill="#FF9100"/>
<path d="M17.8125 14.1034L15 14.666V12.873L17.4609 12.3809L17.8125 14.1034Z" fill="#FF641A"/>
<path d="M15 19.3945H19.3945V21.1523H15V19.3945Z" fill="#FF641A"/>
</svg>
