<svg width="51" height="33" viewBox="0 0 51 33" fill="none" xmlns="http://www.w3.org/2000/svg">
<rect x="0.0815526" y="0.0815526" width="50.2364" height="32.1317" rx="1.5495" fill="white" stroke="#BEBEBE" stroke-width="0.163105"/>
<path fill-rule="evenodd" clip-rule="evenodd" d="M19.8433 23.6022V24.606V25.6097H19.4039V25.366C19.2645 25.5467 19.0531 25.6602 18.7656 25.6602C18.199 25.6602 17.7547 25.2193 17.7547 24.606C17.7547 23.9931 18.199 23.5518 18.7656 23.5518C19.0531 23.5518 19.2645 23.6652 19.4039 23.846V23.6022H19.8433ZM18.8205 23.9629C18.4401 23.9629 18.2073 24.2527 18.2073 24.6056C18.2073 24.9584 18.4401 25.2483 18.8205 25.2483C19.1839 25.2483 19.4292 24.9709 19.4292 24.6056C19.4292 24.2403 19.1839 23.9629 18.8205 23.9629ZM34.6917 24.6056C34.6917 24.2527 34.9244 23.9629 35.3048 23.9629C35.6687 23.9629 35.9136 24.2403 35.9136 24.6056C35.9136 24.9709 35.6687 25.2483 35.3048 25.2483C34.9244 25.2483 34.6917 24.9584 34.6917 24.6056ZM36.3286 22.7961V24.606V25.6097H35.8887V25.366C35.7493 25.5467 35.5379 25.6602 35.2504 25.6602C34.6837 25.6602 34.2395 25.2193 34.2395 24.606C34.2395 23.9931 34.6837 23.5518 35.2504 23.5518C35.5379 23.5518 35.7493 23.6652 35.8887 23.846V22.7961H36.3286ZM25.2974 23.9429C25.5805 23.9429 25.7624 24.1193 25.8089 24.4298H24.7602C24.8072 24.14 24.9843 23.9429 25.2974 23.9429ZM24.2997 24.606C24.2997 23.9801 24.714 23.5518 25.3063 23.5518C25.8725 23.5518 26.2615 23.9801 26.2659 24.606C26.2659 24.6646 26.2615 24.7194 26.2572 24.7737H24.7566C24.82 25.1352 25.0779 25.2655 25.361 25.2655C25.5637 25.2655 25.7796 25.1895 25.9489 25.0554L26.1643 25.3789C25.9189 25.5847 25.6402 25.6602 25.3358 25.6602C24.7309 25.6602 24.2997 25.2443 24.2997 24.606ZM30.6117 24.6056C30.6117 24.2527 30.8444 23.9629 31.2248 23.9629C31.5882 23.9629 31.8335 24.2403 31.8335 24.6056C31.8335 24.9709 31.5882 25.2483 31.2248 25.2483C30.8444 25.2483 30.6117 24.9584 30.6117 24.6056ZM32.2481 23.6022V24.606V25.6097H31.8087V25.366C31.6688 25.5467 31.4578 25.6602 31.1704 25.6602C30.6037 25.6602 30.1595 25.2193 30.1595 24.606C30.1595 23.9931 30.6037 23.5518 31.1704 23.5518C31.4578 23.5518 31.6688 23.6652 31.8087 23.846V23.6022H32.2481ZM28.1304 24.606C28.1304 25.215 28.5573 25.6602 29.2086 25.6602C29.513 25.6602 29.7158 25.5929 29.9355 25.4208L29.7245 25.0679C29.5595 25.1857 29.3862 25.2487 29.1955 25.2487C28.8447 25.2443 28.5868 24.9924 28.5868 24.606C28.5868 24.2195 28.8447 23.9676 29.1955 23.9632C29.3862 23.9632 29.5595 24.0262 29.7245 24.144L29.9355 23.7912C29.7158 23.6191 29.513 23.5518 29.2086 23.5518C28.5573 23.5518 28.1304 23.9969 28.1304 24.606ZM33.2624 23.8456C33.3767 23.6692 33.5417 23.5514 33.7952 23.5514C33.8843 23.5514 34.0111 23.5682 34.1083 23.6062L33.9728 24.0177C33.8799 23.9797 33.787 23.9672 33.698 23.9672C33.4105 23.9672 33.2668 24.1518 33.2668 24.484V25.6093H32.8269V23.6019H33.2624V23.8456ZM22.0165 23.7618C21.8051 23.6234 21.5137 23.5518 21.1924 23.5518C20.6804 23.5518 20.3509 23.7955 20.3509 24.1945C20.3509 24.5218 20.5962 24.7237 21.0482 24.7867L21.2558 24.816C21.4968 24.8497 21.6105 24.9127 21.6105 25.0261C21.6105 25.1814 21.4499 25.2698 21.1498 25.2698C20.8455 25.2698 20.6258 25.1732 20.4777 25.0597L20.2706 25.3996C20.5115 25.576 20.8159 25.6602 21.1455 25.6602C21.7291 25.6602 22.0673 25.3871 22.0673 25.0049C22.0673 24.6521 21.8012 24.4675 21.3613 24.4045L21.1542 24.3747C20.964 24.3497 20.8116 24.3122 20.8116 24.1776C20.8116 24.0305 20.9553 23.9426 21.1963 23.9426C21.4542 23.9426 21.7039 24.0392 21.8263 24.1147L22.0165 23.7618ZM27.1538 23.8456C27.2676 23.6692 27.4326 23.5514 27.6861 23.5514C27.7752 23.5514 27.902 23.5682 27.9992 23.6062L27.8637 24.0177C27.7708 23.9797 27.6779 23.9672 27.5889 23.9672C27.3014 23.9672 27.1577 24.1518 27.1577 24.484V25.6093H26.7183V23.6019H27.1538V23.8456ZM23.9363 23.6022H23.2177V22.9932H22.7735V23.6022H22.3636V24.0012H22.7735V24.917C22.7735 25.3828 22.9554 25.6602 23.4751 25.6602C23.6658 25.6602 23.8855 25.6015 24.0249 25.5049L23.8981 25.1309C23.7669 25.2064 23.6232 25.2443 23.509 25.2443C23.2893 25.2443 23.2177 25.1097 23.2177 24.9083V24.0012H23.9363V23.6022ZM17.3661 24.3499V25.6098H16.9219V24.4926C16.9219 24.1523 16.7781 23.9634 16.4781 23.9634C16.1863 23.9634 15.9836 24.1484 15.9836 24.497V25.6098H15.5393V24.4926C15.5393 24.1523 15.3917 23.9634 15.0999 23.9634C14.7994 23.9634 14.6049 24.1484 14.6049 24.497V25.6098H14.1611V23.6024H14.601V23.8499C14.766 23.6149 14.977 23.5519 15.1928 23.5519C15.5016 23.5519 15.7213 23.6865 15.8606 23.9091C16.047 23.6274 16.3131 23.5476 16.571 23.5519C17.0617 23.5562 17.3661 23.8754 17.3661 24.3499Z" fill="#231F20"/>
<path d="M28.5303 20.1936H21.8706V8.30469H28.5303V20.1936Z" fill="#FF5F00"/>
<path d="M22.2931 14.2475C22.2931 11.8358 23.4298 9.68747 25.1999 8.30303C23.9055 7.29065 22.2718 6.6864 20.4963 6.6864C16.293 6.6864 12.8857 10.0716 12.8857 14.2475C12.8857 18.4234 16.293 21.8086 20.4963 21.8086C22.2718 21.8086 23.9055 21.2043 25.1999 20.192C23.4298 18.8075 22.2931 16.6592 22.2931 14.2475" fill="#EB001B"/>
<path d="M37.5149 14.2475C37.5149 18.4234 34.1076 21.8086 29.9043 21.8086C28.1289 21.8086 26.4952 21.2043 25.2002 20.192C26.9708 18.8075 28.1076 16.6592 28.1076 14.2475C28.1076 11.8358 26.9708 9.68747 25.2002 8.30303C26.4952 7.29065 28.1289 6.6864 29.9043 6.6864C34.1076 6.6864 37.5149 10.0716 37.5149 14.2475" fill="#F79E1B"/>
</svg>
