<svg width="24" height="24" viewBox="0 0 24 24" fill="none" xmlns="http://www.w3.org/2000/svg">
<path fill-rule="evenodd" clip-rule="evenodd" d="M6.76924 3.082C10.2174 2.69663 13.7821 2.69663 17.2302 3.082C19.1286 3.29418 20.6598 4.78996 20.8826 6.69501C21.2949 10.22 21.2949 13.781 20.8826 17.306C20.6598 19.2111 19.1286 20.7069 17.2302 20.919C13.7821 21.3044 10.2174 21.3044 6.76924 20.919C4.87084 20.7069 3.33965 19.2111 3.11683 17.306C2.70455 13.781 2.70455 10.22 3.11683 6.69501C3.33965 4.78996 4.87084 3.29418 6.76924 3.082ZM16.4103 8.98058L17.2497 8.17765L17.249 8.00052H14.3473L12.2791 13.1606L9.92627 8.00117H6.88255V8.17765L7.86326 9.35828C7.91067 9.40096 7.94735 9.45422 7.97032 9.51374C7.99329 9.57325 8.0019 9.63734 7.99545 9.70081V14.3419C8.00952 14.4244 8.00401 14.5091 7.97935 14.589C7.95469 14.669 7.91158 14.7421 7.85349 14.8023L6.7497 16.1405V16.3164H9.87678V16.1405L8.77364 14.8023C8.71508 14.7421 8.67098 14.6694 8.64469 14.5896C8.61841 14.5098 8.61061 14.4251 8.62191 14.3419V10.3286L11.3667 16.317H11.6858L14.0432 10.3286V15.1019C14.0432 15.2282 14.0432 15.253 13.9598 15.3363L13.1113 16.1594V16.3353H17.2289V16.1594L16.4103 15.3558C16.3749 15.3288 16.3475 15.2926 16.3311 15.2512C16.3147 15.2098 16.3099 15.1647 16.3172 15.1208V9.21567C16.3099 9.17172 16.3147 9.12662 16.3311 9.08521C16.3475 9.0438 16.3749 9.00763 16.4103 8.98058Z" fill="#607695"/>
</svg>
