<svg width="18" height="18" viewBox="0 0 18 18" fill="none" xmlns="http://www.w3.org/2000/svg">
<path d="M16.2 9.00078C16.2 12.9772 12.9765 16.2008 8.99999 16.2008C5.02352 16.2008 1.79999 12.9772 1.79999 9.00078C1.79999 5.02432 5.02352 1.80078 8.99999 1.80078C12.9765 1.80078 16.2 5.02432 16.2 9.00078Z" fill="#CFD2FC"/>
<path d="M9 18C4.02949 18 0 13.9705 0 9C0 4.02949 4.02949 0 9 0C13.9705 0 18 4.02949 18 9C17.9944 13.9682 13.9682 17.9944 9 18ZM9 0.6C4.36084 0.6 0.6 4.36084 0.6 9C0.6 13.6392 4.36084 17.4 9 17.4C13.6392 17.4 17.4 13.6392 17.4 9C17.3947 4.36304 13.637 0.605273 9 0.6Z" fill="#8690FA"/>
<path d="M10.2008 9.00078C10.2008 9.66348 9.66348 10.2008 9.00078 10.2008C8.33809 10.2008 7.80078 9.66348 7.80078 9.00078C7.80078 8.33809 8.33809 7.80078 9.00078 7.80078C9.66348 7.80078 10.2008 8.33809 10.2008 9.00078Z" fill="#5153FF"/>
<path d="M6.59995 9.00078C6.59995 9.66348 6.06265 10.2008 5.39995 10.2008C4.73726 10.2008 4.19995 9.66348 4.19995 9.00078C4.19995 8.33809 4.73726 7.80078 5.39995 7.80078C6.06265 7.80078 6.59995 8.33809 6.59995 9.00078Z" fill="#5153FF"/>
<path d="M13.8008 9.00078C13.8008 9.66348 13.2635 10.2008 12.6008 10.2008C11.9381 10.2008 11.4008 9.66348 11.4008 9.00078C11.4008 8.33809 11.9381 7.80078 12.6008 7.80078C13.2635 7.80078 13.8008 8.33809 13.8008 9.00078Z" fill="#5153FF"/>
</svg>
