<svg width="5" height="14" viewBox="0 0 5 14" fill="none" xmlns="http://www.w3.org/2000/svg">
<path d="M2.50012 8.75049C1.53369 8.75049 0.750118 7.96692 0.750118 7.00049C0.750118 6.03406 1.53369 5.25049 2.50012 5.25049C3.46655 5.25049 4.25012 6.03406 4.25012 7.00049C4.25012 7.96692 3.46655 8.75049 2.50012 8.75049Z" fill="#5153FF"/>
<path d="M2.49988 3.49903C1.53344 3.49903 0.749874 2.71546 0.749874 1.74903C0.749874 0.782593 1.53344 -0.000976681 2.49988 -0.000976639C3.46631 -0.000976597 4.24988 0.782594 4.24988 1.74903C4.24988 2.71546 3.46631 3.49903 2.49988 3.49903Z" fill="#5153FF"/>
<path d="M2.50012 14C1.53369 14 0.750118 13.2164 0.750118 12.25C0.750118 11.2836 1.53369 10.5 2.50012 10.5C3.46655 10.5 4.25012 11.2836 4.25012 12.25C4.25012 13.2164 3.46655 14 2.50012 14Z" fill="#5153FF"/>
</svg>
