<svg width="4" height="14" viewBox="0 0 4 14" fill="none" xmlns="http://www.w3.org/2000/svg">
<path d="M1.75015 8.75147C0.783719 8.75147 0.000148654 7.9679 0.000148697 7.00147C0.000148739 6.03503 0.783719 5.25146 1.75015 5.25146C2.71658 5.25146 3.50015 6.03504 3.50015 7.00147C3.50015 7.9679 2.71658 8.75147 1.75015 8.75147Z" fill="#7A7A7A"/>
<path d="M1.74997 3.5C0.783536 3.5 -3.4451e-05 2.71643 -3.44088e-05 1.75C-3.43665e-05 0.78357 0.783536 -1.18739e-07 1.74997 -7.6495e-08C2.7164 -3.42509e-08 3.49997 0.78357 3.49997 1.75C3.49997 2.71643 2.7164 3.5 1.74997 3.5Z" fill="#7A7A7A"/>
<path d="M1.75015 14.001C0.783719 14.001 0.000148654 13.2174 0.000148697 12.251C0.000148739 11.2845 0.783719 10.501 1.75015 10.501C2.71658 10.501 3.50015 11.2845 3.50015 12.251C3.50015 13.2174 2.71658 14.001 1.75015 14.001Z" fill="#7A7A7A"/>
</svg>
