<svg width="48" height="48" viewBox="0 0 48 48" fill="none" xmlns="http://www.w3.org/2000/svg">
<path d="M26.0776 7.16378C24.8786 6.53802 23.2316 6.52862 22.0244 7.15216C16.8671 9.81564 12.1937 12.8673 8.10181 16.2485C7.55615 16.6994 7.19507 17.3305 7.20125 18.0518C7.20741 18.7706 7.57671 19.3946 8.12055 19.8393C12.1796 23.1582 16.8582 26.2134 21.9216 28.8562C23.1206 29.482 24.7676 29.4914 25.9748 28.8678C31.1322 26.2044 35.8056 23.1526 39.8974 19.7715C40.443 19.3206 40.8042 18.6895 40.798 17.9682C40.7918 17.2494 40.4226 16.6254 39.8786 16.1807C35.8196 12.8618 31.141 9.80654 26.0776 7.16378Z" fill="#B0C1DA"/>
<path d="M41.9157 27.4628C42.6185 27.024 42.8325 26.0988 42.3937 25.396C41.9551 24.6934 41.0297 24.4794 40.3271 24.918L28.1125 32.5438C27.0245 33.2232 25.5463 33.6018 23.9993 33.602C22.4525 33.602 20.9741 33.2234 19.8858 32.5442L7.80512 25.0048C7.10234 24.5662 6.17704 24.7804 5.73844 25.4832C5.29982 26.186 5.51398 27.1112 6.21678 27.5498L18.2974 35.0892C19.9552 36.1238 22.0117 36.602 23.9995 36.602C25.9875 36.6018 28.0439 36.1234 29.7013 35.0886L41.9157 27.4628Z" fill="#B0C1DA"/>
<path d="M41.9159 34.9722C42.6185 34.5334 42.8325 33.608 42.3937 32.9054C41.9549 32.2026 41.0295 31.9888 40.3269 32.4276L29.7491 39.0334C28.2033 39.9986 26.1357 40.5204 23.9993 40.5204C21.8629 40.5206 19.795 39.999 18.249 39.034L7.80527 32.5144C7.10253 32.0756 6.17721 32.2896 5.73853 32.9924C5.29983 33.6952 5.51387 34.6204 6.21661 35.0592L16.6604 41.5788C18.7759 42.8994 21.4221 43.5206 23.9995 43.5204C26.5769 43.5204 29.2229 42.8988 31.3381 41.5778L41.9159 34.9722Z" fill="#B0C1DA"/>
</svg>
