<svg width="16" height="20" viewBox="0 0 16 20" fill="none" xmlns="http://www.w3.org/2000/svg">
<path fill-rule="evenodd" clip-rule="evenodd" d="M9.00019 1C9.00019 0.44772 8.55249 0 8.00019 0C7.44789 0 7.00019 0.44772 7.00019 1V1.75H6.44279C4.2177 1.75 2.3761 3.48001 2.23721 5.70074L2.0162 9.2342C1.93194 10.5814 1.47965 11.8797 0.708586 12.9876C0.0119058 13.9886 0.632126 15.3712 1.84306 15.5165L5.25019 15.9254V17C5.25019 18.5188 6.48139 19.75 8.00019 19.75C9.51899 19.75 10.7502 18.5188 10.7502 17V15.9254L14.1573 15.5165C15.3683 15.3712 15.9885 13.9886 15.2918 12.9876C14.5207 11.8797 14.0684 10.5814 13.9842 9.2342L13.7632 5.70074C13.6243 3.48001 11.7827 1.75 9.55759 1.75H9.00019V1ZM6.44279 3.25C5.00977 3.25 3.82373 4.36417 3.73428 5.79438L3.51328 9.3278C3.41188 10.949 2.86763 12.5112 1.93978 13.8444C1.88943 13.9168 1.93425 14.0167 2.02178 14.0272L5.75944 14.4757C7.24789 14.6543 8.75249 14.6543 10.2409 14.4757L13.9786 14.0272C14.0661 14.0167 14.111 13.9168 14.0606 13.8444C13.1328 12.5112 12.5885 10.949 12.4871 9.3278L12.2661 5.79438C12.1766 4.36417 10.9906 3.25 9.55759 3.25H6.44279ZM8.00019 18.25C7.30979 18.25 6.75019 17.6904 6.75019 17V16.25H9.25019V17C9.25019 17.6904 8.69059 18.25 8.00019 18.25Z" fill="#B0C1DA"/>
</svg>
