<svg width="5" height="20" viewBox="0 0 5 20" fill="none" xmlns="http://www.w3.org/2000/svg">
<path d="M2.50008 12.5018C1.11951 12.5018 0.00015671 11.3824 0.00015677 10.0019C0.00015683 8.6213 1.11951 7.50195 2.50008 7.50195C3.88065 7.50195 5 8.6213 5 10.0019C5 11.3824 3.88065 12.5018 2.50008 12.5018Z" fill="#5153FF"/>
<path d="M2.50008 4.99984C1.11951 4.99984 0.00015671 3.88049 0.00015677 2.49992C0.00015683 1.11935 1.11951 -1.69622e-07 2.50008 -1.09275e-07C3.88065 -4.89283e-08 5 1.11935 5 2.49992C5 3.88049 3.88065 4.99984 2.50008 4.99984Z" fill="#5153FF"/>
<path d="M2.50008 19.9998C1.11951 19.9998 0.00015671 18.8805 0.00015677 17.4999C0.00015683 16.1193 1.11951 15 2.50008 15C3.88065 15 5 16.1193 5 17.4999C5 18.8805 3.88065 19.9998 2.50008 19.9998Z" fill="#5153FF"/>
</svg>
