<svg width="18" height="18" viewBox="0 0 18 18" fill="none" xmlns="http://www.w3.org/2000/svg">
<path d="M15.75 0H2.25C1.00951 0 0 1.00951 0 2.25V15.75C0 16.9905 1.00951 18 2.25 18H15.75C16.9905 18 18 16.9905 18 15.75V2.25C18 1.00951 16.9905 0 15.75 0ZM16.5 15.75C16.5 16.164 16.1632 16.5 15.75 16.5H2.25C1.83674 16.5 1.50001 16.164 1.50001 15.75V2.25C1.50001 1.83674 1.83677 1.50001 2.25 1.50001H15.75C16.1633 1.50001 16.5 1.83677 16.5 2.25V15.75Z" fill="#154588"/>
<path d="M5.18957 4.215C5.15206 4.11751 5.09957 4.04249 5.03207 3.9675C4.99456 3.93751 4.95709 3.90749 4.91957 3.8775C4.87457 3.84751 4.82957 3.82501 4.78457 3.81C4.73957 3.7875 4.69457 3.77249 4.64957 3.765C4.49956 3.73501 4.34958 3.74999 4.21458 3.81C4.12458 3.84751 4.04207 3.9 3.96708 3.9675C3.89958 4.04249 3.8471 4.11751 3.80958 4.215C3.77207 4.305 3.74957 4.40249 3.74957 4.50001C3.74957 4.59753 3.77207 4.69502 3.80958 4.78502C3.8471 4.88251 3.89958 4.95753 3.96708 5.03252C4.10957 5.16752 4.30458 5.25003 4.4996 5.25003C4.5446 5.25003 4.59708 5.24255 4.64961 5.23502C4.69461 5.22753 4.73961 5.21252 4.78461 5.19002C4.82961 5.17501 4.87461 5.15251 4.91961 5.12252C4.95712 5.09253 4.9946 5.06251 5.03211 5.03252C5.16711 4.89003 5.24962 4.69502 5.24962 4.50001C5.24955 4.40252 5.22705 4.305 5.18957 4.215Z" fill="#154588"/>
<path d="M13.5 3.75H7.49999C7.08599 3.75 6.75 4.08599 6.75 4.49999C6.75 4.91399 7.08599 5.24998 7.49999 5.24998H13.5C13.914 5.24998 14.25 4.91399 14.25 4.49999C14.25 4.08599 13.914 3.75 13.5 3.75Z" fill="#154588"/>
<path d="M5.23457 8.85015C5.22708 8.80515 5.21207 8.76015 5.18957 8.71515C5.17456 8.67015 5.15206 8.62515 5.12207 8.58015C5.09209 8.54264 5.06206 8.50516 5.03207 8.46765C4.95709 8.40015 4.87457 8.34766 4.78457 8.31015C4.60457 8.23516 4.39458 8.23516 4.21458 8.31015C4.12458 8.34766 4.04207 8.40015 3.96708 8.46765C3.9371 8.50516 3.90707 8.54264 3.87708 8.58015C3.8471 8.62515 3.8246 8.67015 3.80958 8.71515C3.78708 8.76015 3.77207 8.80515 3.76458 8.85015C3.7571 8.90264 3.74957 8.95516 3.74957 9.00016C3.74957 9.19517 3.83208 9.39015 3.96708 9.53267C4.10957 9.66767 4.30458 9.75018 4.4996 9.75018C4.69461 9.75018 4.88958 9.66767 5.03211 9.53267C5.16711 9.39018 5.24962 9.19517 5.24962 9.00016C5.24955 8.95516 5.24206 8.90267 5.23457 8.85015Z" fill="#154588"/>
<path d="M13.5 8.25H7.49999C7.08599 8.25 6.75 8.58599 6.75 8.99999C6.75 9.41399 7.08599 9.74998 7.49999 9.74998H13.5C13.914 9.74998 14.25 9.41399 14.25 8.99999C14.25 8.58599 13.914 8.25 13.5 8.25Z" fill="#154588"/>
<path d="M5.18957 13.2152C5.15206 13.1177 5.09957 13.0427 5.03207 12.9677C4.82209 12.7645 4.49207 12.6977 4.21458 12.8102C4.12458 12.8477 4.04207 12.9002 3.96708 12.9677C3.89958 13.0427 3.8471 13.1252 3.80958 13.2152C3.77207 13.3052 3.74957 13.4027 3.74957 13.5002C3.74957 13.7027 3.82456 13.8902 3.96708 14.0327C4.10957 14.1745 4.2971 14.2503 4.4996 14.2503C4.7021 14.2503 4.88958 14.1745 5.03211 14.0327C5.1746 13.8903 5.24962 13.7027 5.24962 13.5002C5.24955 13.4027 5.23457 13.3052 5.18957 13.2152Z" fill="#154588"/>
<path d="M13.5 12.75H7.49999C7.08599 12.75 6.75 13.0853 6.75 13.5C6.75 13.9147 7.08599 14.25 7.49999 14.25H13.5C13.914 14.25 14.25 13.9147 14.25 13.5C14.25 13.0853 13.914 12.75 13.5 12.75Z" fill="#154588"/>
</svg>
