<svg width="30" height="30" viewBox="0 0 30 30" fill="none" xmlns="http://www.w3.org/2000/svg">
<rect x="0.5" y="0.5" width="29" height="29" rx="6.5" fill="white" stroke="#F2F7FF"/>
<g clip-path="url(#clip0)">
<path d="M19.2886 13.2936C19.2886 13.9478 18.7583 14.4782 18.104 14.4782H17.7775V20.5602C17.7775 21.2421 17.2247 21.7949 16.5428 21.7949H13.4568C12.7749 21.7949 12.2221 21.2421 12.2221 20.5602L12.2221 14.4782H11.8952C11.2422 14.4782 10.7109 13.9468 10.7109 13.2935C10.7109 13.0276 10.8024 12.7662 10.9684 12.5574L14.073 8.65231C14.2989 8.36813 14.6367 8.20513 14.9997 8.20511C15.3628 8.20511 15.7006 8.36808 15.9266 8.65223L19.0312 12.5574C19.1972 12.7662 19.2886 13.0277 19.2886 13.2935V13.2936Z" fill="#EFF5FD"/>
<path d="M14.8931 9.30452L11.7885 13.2096C11.7178 13.2985 11.7811 13.4298 11.8948 13.4298H13.1342C13.2092 13.4298 13.2699 13.4905 13.2699 13.5655L13.2699 20.3696C13.2699 20.5777 13.4387 20.7465 13.6468 20.7465H16.3518C16.56 20.7465 16.7287 20.5777 16.7287 20.3696V13.5655C16.7287 13.4905 16.7895 13.4298 16.8645 13.4298L18.1039 13.4298C18.2175 13.4298 18.2808 13.2985 18.2101 13.2096L15.1056 9.30452C15.0512 9.23616 14.9474 9.23616 14.8931 9.30452Z" fill="#A8CCFF"/>
<path d="M14.8931 9.30457L11.7885 13.2096C11.7178 13.2986 11.7811 13.4298 11.8948 13.4298H12.2656L14.8931 10.1249C14.9474 10.0565 15.0512 10.0565 15.1056 10.1249L17.733 13.4298H18.1039C18.2175 13.4298 18.2808 13.2986 18.2101 13.2096L15.1056 9.30457C15.0512 9.23621 14.9474 9.23621 14.8931 9.30457Z" fill="#A8CCFF"/>
<path d="M19.4937 13.2935C19.4937 14.0598 18.8703 14.6833 18.104 14.6833H17.9826V16.3111C17.9826 16.4244 17.8907 16.5162 17.7775 16.5162C17.6642 16.5162 17.5724 16.4244 17.5724 16.3111V14.4782C17.5724 14.3649 17.6642 14.2731 17.7775 14.2731H18.104C18.6441 14.2731 19.0835 13.8337 19.0835 13.2936C19.0835 13.0738 19.0079 12.8577 18.8706 12.6849L15.766 8.77984C15.5792 8.54491 15.2999 8.41016 14.9997 8.41016C14.6995 8.41018 14.4203 8.54496 14.2334 8.7799L11.1289 12.6849C10.9916 12.8576 10.916 13.0738 10.916 13.2935C10.916 13.8337 11.3553 14.2731 11.8952 14.2731H12.222C12.3353 14.2731 12.4271 14.3649 12.4271 14.4782L12.4271 20.5602C12.4271 21.128 12.889 21.5898 13.4568 21.5898H16.5428C17.1105 21.5898 17.5724 21.128 17.5724 20.5602V17.1314C17.5724 17.0182 17.6642 16.9264 17.7775 16.9264C17.8907 16.9264 17.9825 17.0182 17.9825 17.1314V20.5602C17.9826 21.3541 17.3367 22 16.5428 22H13.4568C12.6629 22 12.017 21.3541 12.017 20.5602L12.017 14.6833H11.8952C11.1291 14.6833 10.5059 14.0598 10.5059 13.2935C10.5059 12.9815 10.6131 12.6747 10.8079 12.4297L13.9124 8.5247C14.1775 8.1913 14.5738 8.00003 14.9997 8C15.4257 8 15.822 8.19119 16.0871 8.52459L19.1917 12.4297C19.3865 12.6747 19.4937 12.9815 19.4937 13.2935Z" fill="#A8CCFF"/>
<path d="M18.4453 13.2935C18.4453 13.3439 18.434 13.3946 18.411 13.4422C18.3537 13.5611 18.2361 13.635 18.1041 13.635L16.934 13.635V20.3697C16.934 20.6906 16.6729 20.9517 16.352 20.9517H13.647C13.3261 20.9517 13.065 20.6906 13.065 20.3697V18.9567C13.065 18.8434 13.1568 18.7516 13.2701 18.7516C13.3834 18.7516 13.4752 18.8434 13.4752 18.9567V20.3697C13.4752 20.4644 13.5523 20.5415 13.647 20.5415H16.352C16.4467 20.5415 16.5238 20.4644 16.5238 20.3697V13.5656C16.5238 13.3777 16.6767 13.2248 16.8646 13.2248L17.9603 13.2248L14.9995 9.50051L12.0387 13.2248H13.1344C13.3223 13.2248 13.4752 13.3777 13.4752 13.5656L13.4752 18.1364C13.4752 18.2497 13.3834 18.3415 13.2701 18.3415C13.1568 18.3415 13.065 18.2497 13.065 18.1364L13.065 13.6349H11.895C11.763 13.6349 11.6453 13.5611 11.588 13.4422C11.5306 13.3233 11.5461 13.1853 11.6282 13.082L14.7327 9.17698C14.7978 9.09516 14.895 9.04827 14.9995 9.04827C15.104 9.04827 15.2012 9.09516 15.2663 9.17695L18.3708 13.082C18.4201 13.1439 18.4453 13.2183 18.4453 13.2935Z" fill="#83A4D7"/>
</g>
<defs>
<clipPath id="clip0">
<rect width="14" height="14" fill="white" transform="translate(8 22) rotate(-90)"/>
</clipPath>
</defs>
</svg>
