<svg width="21" height="19" viewBox="0 0 21 19" fill="none" xmlns="http://www.w3.org/2000/svg">
<path d="M1.53562 13.1412V16.5077C1.53562 16.9018 1.85686 17.2227 2.25127 17.2227H3.91552L3.84563 17.8439H3.34687V18.5001H6.84305V17.8439H6.3443L6.27441 17.2227H7.93898C8.33339 17.2227 8.65462 16.9018 8.65462 16.5077V13.7545H12.2676V16.5077C12.2676 16.9018 12.5888 17.2227 12.9833 17.2227H14.6475L14.5776 17.8439H14.0789V18.5001H17.5754V17.8439H17.0766L17.0067 17.2227H18.671C19.0654 17.2227 19.3866 16.9018 19.3866 16.5077V13.1891C20.3539 12.5663 21 11.4884 21 10.2566V9.6227C21 7.69398 19.427 6.12489 17.493 6.12489H16.5769C16.4909 5.52672 16.1428 4.27886 14.7338 3.78076C13.7297 3.42639 12.8661 3.57142 12.4215 3.69808C11.5943 1.91275 9.82767 0.776123 7.83727 0.776123C5.04919 0.776123 2.78119 3.03854 2.78119 5.81908C2.78119 5.94606 2.78709 6.07501 2.79956 6.21283C1.18256 6.5439 0 7.95648 0 9.6227V10.2566C0 11.4556 0.610969 12.5109 1.53562 13.1412ZM4.50614 17.8435L4.57603 17.2224H5.61356L5.68345 17.8435H4.50614ZM15.2381 17.8435L15.308 17.2224H16.3455L16.4154 17.8435H15.2381ZM18.6706 12.4652C18.7028 12.4652 18.73 12.4922 18.73 12.524V16.5077C18.73 16.5396 18.7028 16.5665 18.6706 16.5665H12.9829C12.9508 16.5665 12.9235 16.5396 12.9235 16.5077V12.524C12.9235 12.4922 12.9508 12.4652 12.9829 12.4652H18.6706ZM4.71909 8.21701H8.97652C9.12778 7.51515 9.75286 6.98687 10.5 6.98687C11.2471 6.98687 11.8722 7.51515 12.0235 8.21701H16.1549V11.8028H15.4987V8.87326H12.0235C11.8719 9.57512 11.2471 10.1034 10.5 10.1034C9.75286 10.1034 9.12778 9.57512 8.97652 8.87326H5.37534V11.8018H4.71909V8.21701ZM2.19187 12.524C2.19187 12.4922 2.21911 12.4652 2.25127 12.4652H7.93898C7.97114 12.4652 7.99837 12.4922 7.99837 12.524V16.5077C7.99837 16.5396 7.97114 16.5665 7.93898 16.5665H2.25127C2.21911 16.5665 2.19187 16.5396 2.19187 16.5077V12.524Z" fill="#B0C1DA"/>
<path d="M10.5003 9.4471C10.9994 9.4471 11.404 9.04325 11.404 8.54508C11.404 8.04691 10.9994 7.64307 10.5003 7.64307C10.0013 7.64307 9.59668 8.04691 9.59668 8.54508C9.59668 9.04325 10.0013 9.4471 10.5003 9.4471Z" fill="#B0C1DA"/>
</svg>
