<svg width="15" height="7" viewBox="0 0 15 7" fill="none" xmlns="http://www.w3.org/2000/svg">
<path d="M13.1576 0.0327148H1.84245C0.829787 0.0327148 0 0.86314 0 1.8758V5.12474C0 6.13899 0.829787 6.96782 1.84245 6.96782H13.1576C14.1702 6.96782 15 6.13899 15 5.12474V1.8758C15 0.86314 14.1702 0.0327148 13.1576 0.0327148ZM4.00851 4.00357L4.45053 4.48484L3.68489 5.05931L3.37085 4.48484C3.32457 4.40282 3.25213 4.24197 3.15032 4.00357C3.03894 4.26559 2.96489 4.42516 2.92819 4.48484L2.60968 5.05931L1.82266 4.48484L2.29851 4.00357C2.43255 3.87112 2.56245 3.7575 2.69074 3.66431C2.55989 3.6525 2.38787 3.62825 2.17564 3.58835L1.5166 3.48112L1.82234 2.58367L2.4134 2.8524C2.47564 2.88048 2.63043 2.96888 2.87681 3.11537C2.82415 2.87697 2.79032 2.69984 2.775 2.58367L2.69106 1.94123H3.62968L3.55372 2.58367C3.53713 2.74005 3.50074 2.91718 3.44681 3.11537C3.555 3.06112 3.62649 3.02505 3.66032 3.00527C3.77904 2.9392 3.87064 2.89357 3.93223 2.8642L4.52362 2.58367L4.8166 3.48112L4.16266 3.61771C4.04298 3.64069 3.86553 3.65569 3.62968 3.66431C3.78957 3.78942 3.91468 3.90176 4.00851 4.00357ZM8.3416 4.00357L8.78426 4.48484L8.01862 5.05899L7.70489 4.48484C7.65862 4.40282 7.58617 4.24197 7.48468 4.00357C7.37298 4.26559 7.29957 4.42516 7.26287 4.48484L6.94372 5.05899L6.15702 4.48484L6.63287 4.00357C6.76691 3.87112 6.89649 3.7575 7.02511 3.66431C6.89489 3.6525 6.72223 3.62825 6.51 3.58835L5.85064 3.48112L6.1567 2.58367L6.74808 2.8524C6.80968 2.88048 6.96511 2.96888 7.21117 3.11537C7.15723 2.87697 7.1234 2.69984 7.10904 2.58367L7.02479 1.94186H7.96372L7.88745 2.58367C7.87021 2.74005 7.83447 2.91718 7.78117 3.11537C7.88872 3.06112 7.96021 3.02505 7.99436 3.00527C8.11245 2.9392 8.20436 2.89357 8.26628 2.8642L8.85798 2.58367L9.15128 3.48112L8.4967 3.61771C8.37702 3.64069 8.20021 3.65569 7.96404 3.66431C8.12266 3.78942 8.24809 3.90176 8.3416 4.00357ZM13.1968 4.81676C13.1968 5.01431 13.035 5.1758 12.8378 5.1758H10.8287C10.6312 5.1758 10.4697 5.01431 10.4697 4.81676V3.60591C10.4697 3.40835 10.6312 3.24686 10.8287 3.24686H10.8772V2.78091C10.8772 2.25335 11.3059 1.8241 11.8328 1.8241C12.36 1.8241 12.7889 2.25303 12.7889 2.78091V3.24686H12.8374C13.0344 3.24686 13.1965 3.40835 13.1965 3.60591V4.81676H13.1968Z" fill="#1E324E"/>
</svg>
