<svg width="16" height="16" viewBox="0 0 16 16" fill="none" xmlns="http://www.w3.org/2000/svg">
<path d="M15.1197 6.62781L2.65381 0.252183C2.1281 -0.0585357 1.46168 -0.0840982 0.908513 0.186464C0.348137 0.460621 0 0.991777 0 1.57278V14.4272C0 15.0082 0.348137 15.5394 0.908479 15.8135C1.4588 16.0828 2.12533 16.0601 2.65385 15.7478L15.1198 9.37215C15.6709 9.09028 16 8.57731 16 8.00003C16 7.42271 15.6709 6.90971 15.1197 6.62781ZM10.9291 5.68571L9.20814 7.25881L3.1148 1.68909L10.9291 5.68571ZM1.1468 14.6038V1.39612L8.3973 8L1.1468 14.6038ZM3.1148 14.3109L9.20821 8.74118L10.9292 10.3143L3.1148 14.3109ZM14.5598 8.4574L11.9691 9.78243L10.019 8.00003L11.969 6.21762L14.5597 7.54262C14.8245 7.67809 14.8532 7.90762 14.8532 8.00003C14.8532 8.09243 14.8246 8.32193 14.5598 8.4574Z" fill="white"/>
</svg>
