<svg width="69" height="28" viewBox="0 0 69 28" fill="none" xmlns="http://www.w3.org/2000/svg">
    <path d="M63.8126 5.20898C59.6251 5.20898 59.6251 12.311 55.4376 12.311C51.2501 12.311 51.4245 9.3307 47.0626 9.3307C42.7006 9.3307 43.0495 18.0814 38.6876 18.0814C34.3256 18.0814 35.0235 14.5684 30.3126 14.5684C25.6016 14.5684 26.823 23.1036 21.9376 23.1036C17.0522 23.1036 17.7501 10.5355 13.5626 10.5355C9.37509 10.5355 9.72405 19.7047 5.18759 19.7047" stroke="#5D5FEF" stroke-width="0.751492" />
    <rect x="0.375746" y="-0.375746" width="6.75149" height="6.75149" rx="3.37575" transform="matrix(-1 0 0 1 59.3825 9.17188)" fill="#289E65" stroke="white" stroke-width="0.751492" />
    <rect x="0.375746" y="-0.375746" width="6.75149" height="6.75149" rx="3.37575" transform="matrix(-1 0 0 1 51.0077 6.19531)" fill="#289E65" stroke="white" stroke-width="0.751492" />
    <rect x="0.375746" y="-0.375746" width="6.75149" height="6.75149" rx="3.37575" transform="matrix(-1 0 0 1 42.6325 14.9492)" fill="#DA2A2A" stroke="white" stroke-width="0.751492" />
    <rect x="0.375746" y="-0.375746" width="6.75149" height="6.75149" rx="3.37575" transform="matrix(-1 0 0 1 34.2577 11.4473)" fill="#289E65" stroke="white" stroke-width="0.751492" />
    <rect x="0.375746" y="-0.375746" width="6.75149" height="6.75149" rx="3.37575" transform="matrix(-1 0 0 1 67.7577 1.99414)" fill="#289E65" stroke="white" stroke-width="0.751492" />
    <rect x="0.375746" y="-0.375746" width="6.75149" height="6.75149" rx="3.37575" transform="matrix(-1 0 0 1 17.5077 7.41992)" fill="#289E65" stroke="white" stroke-width="0.751492" />
    <rect x="0.375746" y="-0.375746" width="6.75149" height="6.75149" rx="3.37575" transform="matrix(-1 0 0 1 9.13253 16.6992)" fill="#289E65" stroke="white" stroke-width="0.751492" />
    <rect x="0.375746" y="-0.375746" width="6.75149" height="6.75149" rx="3.37575" transform="matrix(-1 0 0 1 25.8825 20.0254)" fill="#DA2A2A" stroke="white" stroke-width="0.751492" />
</svg>