<svg width="17" height="17" viewBox="0 0 17 17" fill="none" xmlns="http://www.w3.org/2000/svg">
<g clip-path="url(#clip0_1331_30077)">
<path d="M14.8352 5.54153C14.6758 5.29251 14.3471 5.24271 14.108 5.41204L12.4943 6.62731C12.2951 6.77669 12.2354 7.05563 12.3648 7.27474C12.7732 7.972 12.9824 8.71907 12.9824 9.49606C12.9824 11.9663 10.9703 13.9785 8.5 13.9785C6.02972 13.9785 4.01758 11.9663 4.01758 9.49606C4.01758 7.19508 5.76074 5.29251 8.00195 5.04349V6.50778C8.00195 6.80661 8.24102 6.99586 8.5 7.00583C8.59958 7.00583 8.70921 6.97591 8.79883 6.90618L12.7832 3.91797C13.0522 3.71875 13.0522 3.32028 12.7832 3.12106L8.79883 0.0995762C8.70921 0.029916 8.59961 0 8.5 0C8.24102 0 8.00195 0.209213 8.00195 0.498047V2.04535C4.11715 2.29434 1.0293 5.54153 1.0293 9.49606C1.0293 13.6199 4.37617 17 8.5 17C12.6238 17 15.9707 13.6199 15.9707 9.49606C15.9707 8.1015 15.5722 6.73685 14.8352 5.54153Z" fill="#17ACE8"/>
<path d="M8.79883 6.90622C8.70921 6.97594 8.59961 7.00586 8.5 7.00586V0C8.59958 0 8.70921 0.029916 8.79883 0.0995762L12.7832 3.12106C13.0522 3.32028 13.0522 3.71875 12.7832 3.91797L8.79883 6.90622Z" fill="#1689FC"/>
<path d="M15.9707 9.49582C15.9707 13.6196 12.6238 16.9997 8.5 16.9997V13.9782C10.9703 13.9782 12.9824 11.9661 12.9824 9.49582C12.9824 8.71883 12.7732 7.97176 12.3648 7.2745C12.2354 7.05539 12.2951 6.77645 12.4943 6.62707L14.108 5.4118C14.3471 5.2425 14.6758 5.29227 14.8351 5.5413C15.5722 6.73661 15.9707 8.10125 15.9707 9.49582Z" fill="#1689FC"/>
</g>
<defs>
<clipPath id="clip0_1331_30077">
<rect width="17" height="17" fill="white"/>
</clipPath>
</defs>
</svg>
