<svg width="13" height="15" viewBox="0 0 13 15" fill="none" xmlns="http://www.w3.org/2000/svg">
<path d="M1.08388 15H11.9157C12.4547 15 12.8916 14.5631 12.8916 14.0241V6.11999C12.8916 5.58103 12.4547 5.14406 11.9157 5.14406H11.7283C11.6816 2.29988 9.35489 0 6.49977 0C3.64469 0 1.31799 2.29988 1.27149 5.14409H1.08405C0.545093 5.14409 0.108154 5.58103 0.108154 6.12002V14.0243C0.108154 14.5631 0.544923 15 1.08388 15ZM7.44785 10.1238V12.4928C7.44785 12.9702 7.06072 13.3573 6.58329 13.3573H6.41609C5.93869 13.3573 5.55153 12.9702 5.55153 12.4928V10.1238C5.04405 9.80678 4.70512 9.24487 4.70512 8.60231C4.70512 7.61135 5.50848 6.80782 6.49958 6.80782C7.49068 6.80782 8.29403 7.61118 8.29403 8.60231C8.29426 9.24487 7.95536 9.8068 7.44785 10.1238ZM6.49977 2.07493C8.21054 2.07493 9.60457 3.4442 9.65107 5.14409H3.34848C3.39501 3.4444 4.789 2.07493 6.49977 2.07493Z" fill="#1E324E"/>
</svg>
