<svg width="16" height="24" viewBox="0 0 16 24" fill="none" xmlns="http://www.w3.org/2000/svg">
<path fill-rule="evenodd" clip-rule="evenodd" d="M11.0199 13.9798C11.2151 14.1751 11.2151 14.4917 11.0199 14.6869L8.35321 17.3536C8.15794 17.5488 7.84141 17.5488 7.64614 17.3536L4.97945 14.6869C4.78419 14.4917 4.78419 14.1751 4.97945 13.9798C5.17471 13.7846 5.4913 13.7846 5.68656 13.9798L7.99967 16.2929L10.3128 13.9798C10.5081 13.7846 10.8246 13.7846 11.0199 13.9798Z" fill="#607695"/>
<path fill-rule="evenodd" clip-rule="evenodd" d="M11.0199 10.0202C11.2151 9.82492 11.2151 9.50833 11.0199 9.31309L8.35321 6.64643C8.15794 6.45116 7.84141 6.45116 7.64614 6.64643L4.97945 9.31309C4.78419 9.50833 4.78419 9.82492 4.97945 10.0202C5.17471 10.2154 5.4913 10.2154 5.68656 10.0202L7.99967 7.70709L10.3128 10.0202C10.5081 10.2154 10.8246 10.2154 11.0199 10.0202Z" fill="#607695"/>
</svg>
