<svg width="22" height="22" viewBox="0 0 22 22" fill="none" xmlns="http://www.w3.org/2000/svg">
<path fill-rule="evenodd" clip-rule="evenodd" d="M11.0003 2.07922L8.78746 4.36872C8.55193 4.6124 8.22755 4.75002 7.88865 4.75002H4.75026V7.8884C4.75026 8.22731 4.61265 8.55169 4.36896 8.78722L2.07946 11L4.36896 13.2128C4.61265 13.4483 4.75026 13.7727 4.75026 14.1116V17.25H7.88865C8.22755 17.25 8.55193 17.3876 8.78746 17.6313L11.0003 19.9208L13.2131 17.6313C13.4486 17.3876 13.773 17.25 14.1119 17.25H17.2503V14.1116C17.2503 13.7727 17.3879 13.4483 17.6316 13.2128L19.9211 11L17.6316 8.78722C17.3879 8.5517 17.2503 8.22732 17.2503 7.88841V4.75002H14.1119C13.773 4.75002 13.4486 4.61241 13.2131 4.36872L11.0003 2.07922ZM10.1015 0.850782C10.5929 0.342382 11.4077 0.342382 11.8991 0.850782L14.218 3.25002H17.5003C18.1907 3.25002 18.7503 3.80966 18.7503 4.50002V7.78235L21.1495 10.1012C21.6579 10.5926 21.6579 11.4075 21.1495 11.8988L18.7503 14.2177V17.5C18.7503 18.1904 18.1907 18.75 17.5003 18.75H14.218L11.8991 21.1492C11.4077 21.6576 10.5929 21.6576 10.1015 21.1492L7.78259 18.75H4.50026C3.8099 18.75 3.25026 18.1904 3.25026 17.5V14.2177L0.85103 11.8988C0.34263 11.4075 0.34262 10.5926 0.85103 10.1012L3.25026 7.78235V4.50002C3.25026 3.80966 3.8099 3.25002 4.50026 3.25002H7.78259L10.1015 0.850782Z" fill="#B0C1DA"/>
<path fill-rule="evenodd" clip-rule="evenodd" d="M6.25 11C6.25 8.37664 8.37665 6.25 11 6.25C13.6234 6.25 15.75 8.37664 15.75 11C15.75 13.6234 13.6234 15.75 11 15.75C8.37665 15.75 6.25 13.6234 6.25 11ZM11 7.75C9.2051 7.75 7.75 9.20508 7.75 11C7.75 12.7949 9.2051 14.25 11 14.25C12.7949 14.25 14.25 12.7949 14.25 11C14.25 9.20508 12.7949 7.75 11 7.75Z" fill="#B0C1DA"/>
</svg>
