<svg width="13" height="15" viewBox="0 0 13 15" fill="none" xmlns="http://www.w3.org/2000/svg">
<path d="M12.0014 1.9961C8.34333 1.9961 6.70759 0.104031 6.69183 0.0855257C6.5968 -0.0285086 6.40274 -0.0285086 6.30771 0.0855257C6.29171 0.104531 4.67297 1.9961 0.998122 1.9961C0.86008 1.9961 0.748047 2.10813 0.748047 2.24617V7.01886C0.748047 9.62789 1.9209 12.1074 3.88549 13.6511C4.67748 14.2735 5.53298 14.7239 6.4285 14.9895C6.45176 14.9965 6.47577 15 6.49977 15C6.52378 15 6.54754 14.9965 6.57104 14.9895C7.46656 14.7237 8.32207 14.2735 9.11406 13.6511C11.0786 12.1071 12.2515 9.62789 12.2515 7.01886V2.24617C12.2515 2.10813 12.1395 1.9961 12.0014 1.9961ZM11.7513 7.01886C11.7513 9.47559 10.65 11.808 8.80496 13.258C8.084 13.8246 7.30877 14.2383 6.49977 14.4886C5.69078 14.2385 4.91555 13.8246 4.19458 13.258C2.34953 11.8083 1.2482 9.47559 1.2482 7.01886V2.4935C4.30962 2.42548 5.96586 1.11884 6.49977 0.606682C7.03368 1.11909 8.68993 2.42548 11.7513 2.4935V7.01886Z" fill="#1E324E"/>
<path d="M6.35951 1.99694C5.60554 2.50934 4.31815 3.16954 2.46734 3.40561C2.34231 3.42162 2.24878 3.5279 2.24878 3.65369V7.01895C2.24878 9.17134 3.20732 11.2097 4.81305 12.4716C5.3187 12.869 5.85561 13.1805 6.40878 13.3976C6.43828 13.4091 6.46904 13.4149 6.50005 13.4149C6.53106 13.4149 6.56207 13.4091 6.59133 13.3976C7.144 13.1808 7.68116 12.8692 8.18731 12.4716C9.79279 11.2097 10.7513 9.17134 10.7513 7.01895V3.65369C10.7513 3.5279 10.6578 3.42162 10.5328 3.40561C8.68196 3.16954 7.39457 2.50934 6.6406 1.99694C6.55582 1.93917 6.44429 1.93917 6.35951 1.99694ZM7.75043 6.24721C7.75043 6.59057 7.60663 6.91817 7.35931 7.15274L7.993 9.6875C8.01176 9.76227 7.99475 9.84129 7.94749 9.90206C7.90022 9.96283 7.82745 9.99834 7.75043 9.99834H5.24968C5.17266 9.99834 5.09988 9.96283 5.05262 9.90206C5.00536 9.84129 4.98835 9.76227 5.00711 9.6875L5.6408 7.15274C5.39347 6.91817 5.24968 6.59057 5.24968 6.24721C5.24968 5.55776 5.8106 4.99684 6.50005 4.99684C7.18951 4.99684 7.75043 5.55776 7.75043 6.24721Z" fill="#1E324E"/>
</svg>
