<svg width="416" height="372" viewBox="0 0 416 372" fill="none" xmlns="http://www.w3.org/2000/svg">
<path d="M401.295 196.35C403.375 168.711 396.947 139.856 388.334 114.173C375.591 75.9351 350.71 36.7504 308.893 27.7005C284.781 22.4995 260.243 28.075 239.563 41.1401C219.685 53.7058 204.196 69.9435 179.741 73.0849C155.015 76.2679 129.644 74.9885 104.794 74.9885C40.8935 74.9885 -10.9609 142.113 2.00009 212.036C14.9611 281.959 76.0838 330.443 127.938 330.443C174.54 330.443 212.882 302.493 257.143 294.982C279.091 291.259 301.133 295.669 322.853 290.094C348.099 283.603 371.836 268.135 385.827 245.739C395.355 230.469 399.995 213.648 401.295 196.35Z" fill="#4C70FF"/>
<path opacity="0.7" d="M401.295 196.35C403.375 168.711 396.947 139.856 388.334 114.173C375.591 75.9351 350.71 36.7504 308.893 27.7005C284.781 22.4995 260.243 28.075 239.563 41.1401C219.685 53.7058 204.196 69.9435 179.741 73.0849C155.015 76.2679 129.644 74.9885 104.794 74.9885C40.8935 74.9885 -10.9609 142.113 2.00009 212.036C14.9611 281.959 76.0838 330.443 127.938 330.443C174.54 330.443 212.882 302.493 257.143 294.982C279.091 291.259 301.133 295.669 322.853 290.094C348.099 283.603 371.836 268.135 385.827 245.739C395.355 230.469 399.995 213.648 401.295 196.35Z" fill="white"/>
<path d="M393.816 186.646C393.816 186.646 393.816 181.445 386.534 174.236C379.253 167.028 374.634 162.846 374.634 162.846C374.634 162.846 371.014 174.746 377.755 181.996C382.703 187.088 388.069 191.758 393.795 195.956L393.816 186.646Z" fill="#4C70FF"/>
<path d="M383.31 218.954C383.31 218.954 383.31 213.753 376.028 206.545C368.747 199.336 364.149 195.154 364.149 195.154C364.149 195.154 360.519 207.054 367.27 214.305C372.218 219.397 377.583 224.066 383.31 228.264V218.954Z" fill="#4C70FF"/>
<path d="M393.358 195.456C393.358 195.456 393.909 190.318 401.877 183.879C409.845 177.44 414.911 173.82 414.911 173.82C414.911 173.82 417.252 186.032 409.804 192.544C404.346 197.086 398.518 201.164 392.38 204.735L393.358 195.456Z" fill="#4C70FF"/>
<path d="M380.668 233.611C380.668 233.611 381.708 228.556 390.352 222.991C398.996 217.426 404.363 214.357 404.363 214.357C404.363 214.357 405.404 226.756 397.321 232.425C391.416 236.37 385.191 239.815 378.712 242.724L380.668 233.611Z" fill="#4C70FF"/>
<path d="M383.05 275.219C383.05 275.219 383.05 270.018 390.331 262.799C397.613 255.58 402.221 251.419 402.221 251.419C402.221 251.419 405.851 263.319 399.1 270.559C394.154 275.657 388.788 280.33 383.06 284.529L383.05 275.219Z" fill="#4C70FF"/>
<path d="M382.935 285.372C382.935 285.372 383.663 280.254 377.526 272.058C371.389 263.861 367.363 259.097 367.363 259.097C367.363 259.097 362.089 270.362 367.717 278.486C371.888 284.232 376.534 289.618 381.604 294.589L382.935 285.372Z" fill="#4C70FF"/>
<path d="M375.789 315.466C375.789 315.466 375.789 310.264 383.071 303.056C390.352 295.847 394.971 291.666 394.971 291.666C394.971 291.666 398.59 303.566 391.85 310.816C386.9 315.91 381.535 320.582 375.81 324.786L375.789 315.466Z" fill="#4C70FF"/>
<path d="M380.626 342.751C380.626 342.751 379.315 337.747 384.485 328.905C389.655 320.064 393.119 314.883 393.119 314.883C393.119 314.883 399.631 325.473 394.96 334.19C391.466 340.37 387.461 346.246 382.987 351.759L380.626 342.751Z" fill="#4C70FF"/>
<path d="M394.471 185.325C394.107 190.711 393.447 196.073 392.495 201.386C389.624 216.178 382.467 225.727 379.607 239.083C376.746 252.44 384.964 269.655 382.727 286.819C380.491 303.982 373.854 313.521 375.758 324.974C377.661 336.426 387.689 367.445 387.689 367.445" stroke="#263238" stroke-linecap="round" stroke-linejoin="round"/>
<path d="M393.296 198.9L401.097 192.908" stroke="#263238" stroke-linecap="round" stroke-linejoin="round"/>
<path d="M393.66 192.003L390.383 186.188" stroke="#263238" stroke-linecap="round" stroke-linejoin="round"/>
<path d="M380.043 238.469C380.043 238.469 386.576 233.569 393.296 228.67" stroke="#263238" stroke-linecap="round" stroke-linejoin="round"/>
<path d="M383.31 228.264C383.31 228.264 377.859 217.592 371.69 210.518" stroke="#263238" stroke-linecap="round" stroke-linejoin="round"/>
<path d="M383.31 282.584C387.036 275.698 391.746 269.39 397.29 263.861" stroke="#263238" stroke-linecap="round" stroke-linejoin="round"/>
<path d="M382.04 289.846C380.058 285.176 377.689 280.68 374.957 276.406C371.149 270.778 370.598 270.05 370.598 270.05" stroke="#263238" stroke-linecap="round" stroke-linejoin="round"/>
<path d="M375.789 324.973C377.448 320.873 379.416 316.905 381.677 313.104C383.939 309.571 386.489 306.231 389.301 303.118" stroke="#263238" stroke-linecap="round" stroke-linejoin="round"/>
<path d="M382.987 351.758C382.608 347.838 383.283 343.887 384.943 340.316C387.668 335.052 390.747 328.156 392.016 325.43" stroke="#263238" stroke-linecap="round" stroke-linejoin="round"/>
<path d="M334.711 255.768C334.711 255.768 334.149 252.523 337.904 247.186C341.66 241.85 344.146 238.761 344.146 238.761C344.146 238.761 347.703 245.834 344.271 251.098C341.721 254.831 338.864 258.345 335.73 261.604L334.711 255.768Z" fill="#4C70FF"/>
<path d="M344.812 274.887C344.812 274.887 344.25 271.642 348.005 266.305C351.76 260.969 354.246 257.88 354.246 257.88C354.246 257.88 357.804 264.953 354.371 270.227C351.82 273.956 348.963 277.467 345.831 280.723L344.812 274.887Z" fill="#4C70FF"/>
<path d="M335.949 261.24C335.949 261.24 335.054 258.119 329.354 254.905C323.654 251.691 320.096 250.006 320.096 250.006C320.096 250.006 319.95 257.922 325.297 261.188C329.212 263.441 333.307 265.365 337.54 266.94L335.949 261.24Z" fill="#4C70FF"/>
<path d="M348.057 283.791C348.057 283.791 346.83 280.733 340.838 278.174C334.846 275.615 331.102 274.284 331.102 274.284C331.102 274.284 331.788 282.168 337.488 284.852C341.619 286.682 345.895 288.165 350.273 289.284L348.057 283.791Z" fill="#4C70FF"/>
<path d="M351.074 310.14C351.074 310.14 350.522 306.895 345.186 303.14C339.85 299.385 336.49 297.294 336.49 297.294C336.49 297.294 335.512 305.147 340.515 308.954C344.17 311.616 348.043 313.965 352.093 315.976L351.074 310.14Z" fill="#4C70FF"/>
<path d="M352.259 316.496C352.259 316.496 351.219 313.376 354.205 307.55C357.19 301.725 359.166 298.324 359.166 298.324C359.166 298.324 363.691 304.815 361.049 310.525C359.059 314.58 356.731 318.46 354.09 322.124L352.259 316.496Z" fill="#4C70FF"/>
<path d="M361.351 342.656C361.351 342.656 361.725 339.39 366.833 335.375C371.94 331.359 375.154 329.04 375.154 329.04C375.154 329.04 376.579 336.831 371.805 340.919C368.308 343.78 364.578 346.345 360.654 348.585L361.351 342.656Z" fill="#4C70FF"/>
<path d="M359.988 334.584C359.988 334.584 359.427 331.339 354.101 327.584C348.775 323.829 345.425 321.738 345.425 321.738C345.425 321.738 344.448 329.591 349.451 333.409C353.109 336.066 356.981 338.415 361.029 340.43L359.988 334.584Z" fill="#4C70FF"/>
<path d="M359.988 352.227C359.988 352.227 360.258 348.94 356.056 343.957C351.854 338.975 349.128 336.104 349.128 336.104C349.128 336.104 346.184 343.448 350.064 348.409C352.908 351.904 356.04 355.154 359.426 358.125L359.988 352.227Z" fill="#4C70FF"/>
<path d="M334.16 254.998C334.974 258.338 335.97 261.63 337.145 264.86C340.547 273.826 346.07 279.038 349.316 287.099C352.561 295.161 349.316 306.863 352.519 317.38C355.723 327.896 361.028 333.16 361.028 340.545C361.028 347.931 358.157 368.475 358.157 368.475" stroke="#263238" stroke-linecap="round" stroke-linejoin="round"/>
<path d="M336.375 263.382L330.831 260.48" stroke="#263238" stroke-linecap="round" stroke-linejoin="round"/>
<path d="M335.397 259.097L336.812 255.102" stroke="#263238" stroke-linecap="round" stroke-linejoin="round"/>
<path d="M348.972 286.766C348.972 286.766 344.343 284.405 339.61 282.054" stroke="#263238" stroke-linecap="round" stroke-linejoin="round"/>
<path d="M345.82 280.723C347.185 276.437 348.98 272.3 351.177 268.376" stroke="#263238" stroke-linecap="round" stroke-linejoin="round"/>
<path d="M351.718 314.779C348.632 310.874 344.995 307.436 340.921 304.575" stroke="#263238" stroke-linecap="round" stroke-linejoin="round"/>
<path d="M353.3 319.19C354.04 316.051 355.039 312.979 356.285 310.005C358.064 306.063 358.366 305.543 358.366 305.543" stroke="#263238" stroke-linecap="round" stroke-linejoin="round"/>
<path d="M360.779 346.152C362.583 343.917 364.581 341.846 366.75 339.963C368.129 338.947 369.424 337.82 370.619 336.593" stroke="#263238" stroke-linecap="round" stroke-linejoin="round"/>
<path d="M361.029 340.544C359.543 338.147 357.877 335.866 356.046 333.72C354.243 331.752 352.281 329.936 350.179 328.291" stroke="#263238" stroke-linecap="round" stroke-linejoin="round"/>
<path d="M359.427 358.124C359.241 355.623 358.389 353.217 356.961 351.155C354.683 348.149 351.999 344.154 350.907 342.583" stroke="#263238" stroke-linecap="round" stroke-linejoin="round"/>
<path d="M39.2602 210.455L34.7041 197.442L39.2602 202.966L35.6819 183.441L41.2158 197.442L43.1714 170.095L46.4273 196.132L50.0056 190.93V197.442L54.2392 188.652L51.9612 203.944L55.862 201.343L49.6831 209.8L39.2602 210.455Z" fill="#4C70FF"/>
<path d="M53.5839 207.2H36.6597L39.7075 241.37H50.5361L53.5839 207.2Z" fill="#263238" stroke="#263238" stroke-linecap="round" stroke-linejoin="round"/>
<path d="M85.3312 240.985H27.6724V363.106H85.3312V240.985Z" fill="white" stroke="#263238" stroke-linecap="round" stroke-linejoin="round"/>
<path d="M88.483 240.985H56.4966V363.106H88.483V240.985Z" fill="white" stroke="#263238" stroke-linecap="round" stroke-linejoin="round"/>
<path d="M84.8839 240.985H56.4966V363.106H84.8839V240.985Z" fill="#263238" stroke="#263238" stroke-linecap="round" stroke-linejoin="round"/>
<path d="M81.6905 334.708H56.4966V359.714H81.6905V334.708Z" fill="#4C70FF" stroke="#263238" stroke-linecap="round" stroke-linejoin="round"/>
<path d="M81.6905 336.061H56.4966V339.264H81.6905V336.061Z" fill="white" stroke="#263238" stroke-linecap="round" stroke-linejoin="round"/>
<path d="M81.6905 354.472H56.4966V357.676H81.6905V354.472Z" fill="white" stroke="#263238" stroke-linecap="round" stroke-linejoin="round"/>
<path d="M61.271 335.229V366.851" stroke="#263238" stroke-linecap="round" stroke-linejoin="round"/>
<path d="M70.061 335.229V366.851" stroke="#263238" stroke-linecap="round" stroke-linejoin="round"/>
<path d="M77.7793 335.229V366.851" stroke="#263238" stroke-linecap="round" stroke-linejoin="round"/>
<path d="M81.6905 245.521H56.4966V282.292H81.6905V245.521Z" fill="#4C70FF" stroke="#263238" stroke-linecap="round" stroke-linejoin="round"/>
<path d="M81.6905 247.061H56.4966V250.702H81.6905V247.061Z" fill="white" stroke="#263238" stroke-linecap="round" stroke-linejoin="round"/>
<path d="M81.6905 270.631H56.4966V274.272H81.6905V270.631Z" fill="white" stroke="#263238" stroke-linecap="round" stroke-linejoin="round"/>
<path d="M61.271 246.103V282.042" stroke="#263238" stroke-linecap="round" stroke-linejoin="round"/>
<path d="M70.061 246.103V282.042" stroke="#263238" stroke-linecap="round" stroke-linejoin="round"/>
<path d="M77.7793 246.103V282.042" stroke="#263238" stroke-linecap="round" stroke-linejoin="round"/>
<path d="M81.6905 289.833H56.4966V326.605H81.6905V289.833Z" fill="#4C70FF" stroke="#263238" stroke-linecap="round" stroke-linejoin="round"/>
<path d="M81.6905 291.373H56.4966V295.014H81.6905V291.373Z" fill="white" stroke="#263238" stroke-linecap="round" stroke-linejoin="round"/>
<path d="M81.6905 314.945H56.4966V318.585H81.6905V314.945Z" fill="white" stroke="#263238" stroke-linecap="round" stroke-linejoin="round"/>
<path d="M61.271 290.426V326.355" stroke="#263238" stroke-linecap="round" stroke-linejoin="round"/>
<path d="M70.061 290.426V326.355" stroke="#263238" stroke-linecap="round" stroke-linejoin="round"/>
<path d="M77.7793 290.426V326.355" stroke="#263238" stroke-linecap="round" stroke-linejoin="round"/>
<path d="M85.3208 281.782H56.4966V285.964H85.3208V281.782Z" fill="white" stroke="#263238" stroke-linecap="round" stroke-linejoin="round"/>
<path d="M85.3208 326.376H56.4966V330.557H85.3208V326.376Z" fill="white" stroke="#263238" stroke-linecap="round" stroke-linejoin="round"/>
<path d="M85.3208 240.985V363.096" stroke="#263238" stroke-linecap="round" stroke-linejoin="round"/>
<path d="M52.4292 240.985V363.095H56.4964V245.52H84.8213V240.933L52.4292 240.985Z" fill="white" stroke="#263238" stroke-linecap="round" stroke-linejoin="round"/>
<path d="M56.4966 245.521V240.985" stroke="#263238" stroke-linecap="round" stroke-linejoin="round"/>
<path d="M85.1022 184.887C82.0752 179.051 80.8062 174.87 80.8062 173.902C80.8062 171.988 84.967 170.844 84.967 170.844C91.4579 167.411 121.988 172.373 135.729 174.661C143.421 176.002 151.203 176.767 159.009 176.95C159.009 176.95 160.913 175.431 163.17 173.517C165.427 171.603 176.141 159.017 180.344 157.914C184.546 156.811 188.353 159.443 188.353 159.443C188.353 159.443 195.229 163.604 194.075 164.405C192.92 165.206 176.141 179.665 171.939 182.338C167.737 185.012 158.968 183.867 151.332 185.396C144.758 186.707 118.129 188.33 112.023 188.829C107.437 189.917 102.624 189.516 98.2817 187.685" fill="white"/>
<path d="M188.426 159.403C188.426 159.403 184.609 156.729 180.417 157.873C176.225 159.018 165.531 171.615 163.243 173.477C160.954 175.339 159.082 176.909 159.082 176.909C151.276 176.727 143.494 175.962 135.802 174.621C122.061 172.332 91.5307 167.339 85.0397 170.803C85.0397 170.803 80.8789 171.947 80.8789 173.861C81.0234 174.931 81.2995 175.98 81.7007 176.982L82.2728 177.19C82.2728 177.19 89.8975 176.389 106.354 176.784C122.81 177.18 160.871 179.437 163.316 180.321C164.356 180.716 171.731 179.052 179.907 176.16C186.148 171.074 193.482 164.718 194.22 164.271C195.302 163.595 188.426 159.403 188.426 159.403Z" fill="#4C70FF"/>
<path opacity="0.5" d="M188.426 159.403C188.426 159.403 184.609 156.729 180.417 157.873C176.225 159.018 165.531 171.615 163.243 173.477C160.954 175.339 159.082 176.909 159.082 176.909C151.276 176.727 143.494 175.962 135.802 174.621C122.061 172.332 91.5307 167.339 85.0397 170.803C85.0397 170.803 80.8789 171.947 80.8789 173.861C81.0234 174.931 81.2995 175.98 81.7007 176.982L82.2728 177.19C82.2728 177.19 89.8975 176.389 106.354 176.784C122.81 177.18 160.871 179.437 163.316 180.321C164.356 180.716 171.731 179.052 179.907 176.16C186.148 171.074 193.482 164.718 194.22 164.271C195.302 163.595 188.426 159.403 188.426 159.403Z" fill="white"/>
<path d="M85.1022 184.887C82.0752 179.051 80.8062 174.87 80.8062 173.902C80.8062 171.988 84.967 170.844 84.967 170.844C91.4579 167.411 121.988 172.373 135.729 174.661C143.421 176.002 151.203 176.767 159.009 176.95C159.009 176.95 160.913 175.431 163.17 173.517C165.427 171.603 176.141 159.017 180.344 157.914C184.546 156.811 188.353 159.443 188.353 159.443C188.353 159.443 195.229 163.604 194.075 164.405C192.92 165.206 176.141 179.665 171.939 182.338C167.737 185.012 158.968 183.867 151.332 185.396C144.758 186.707 118.129 188.33 112.023 188.829C107.437 189.917 102.624 189.516 98.2817 187.685" stroke="#263238" stroke-linecap="round" stroke-linejoin="round"/>
<path d="M235.839 218.819C236.53 217.509 237.565 216.412 238.834 215.647C240.103 214.883 241.556 214.48 243.038 214.482H312.419C312.419 214.482 317.433 214.482 315.935 224.01C314.437 233.538 293.862 291.717 288.89 309.307C283.918 326.897 282.867 363.97 282.867 363.97H199.65C199.65 363.97 206.245 275.313 235.839 218.819Z" fill="white"/>
<path opacity="0.16" d="M267.087 214.482H243.038C241.556 214.48 240.103 214.883 238.834 215.647C237.565 216.412 236.53 217.509 235.839 218.819C206.245 275.313 199.578 363.939 199.578 363.939H236.9L246.106 328.977L284.49 336.893C284.76 333.96 285.072 330.975 285.437 328.031L284.594 318.669C284.594 318.669 276.73 310.399 274.254 308.329C271.779 306.259 273.422 302.525 273.006 286.391C272.59 270.258 258.11 258.659 252.722 248.725C247.334 238.791 255.624 232.581 263.072 222.647C265.725 219.059 266.806 216.416 267.087 214.482Z" fill="black"/>
<path d="M235.839 218.819C236.53 217.509 237.565 216.412 238.834 215.647C240.103 214.883 241.556 214.48 243.038 214.482H312.419C312.419 214.482 317.433 214.482 315.935 224.01C314.437 233.538 293.862 291.717 288.89 309.307C283.918 326.897 282.867 363.97 282.867 363.97H199.65C199.65 363.97 206.245 275.313 235.839 218.819Z" stroke="#263238" stroke-linecap="round" stroke-linejoin="round"/>
<path d="M300.384 231.031C293.373 247.393 278.54 312.167 276.126 363.938H282.825C282.825 363.938 283.866 326.823 288.848 309.275C293.831 291.727 314.427 233.537 315.894 223.978C317.36 214.418 312.378 214.45 312.378 214.45C312.378 214.45 306.012 217.913 300.384 231.031Z" fill="#263238" stroke="#263238" stroke-linecap="round" stroke-linejoin="round"/>
<path d="M178.503 198.327C178.503 198.327 167.435 191.836 163.243 180.393C159.051 168.951 196.062 150.623 212.133 149.478C228.204 148.334 232.74 152.526 242.299 168.941C251.859 185.355 258.329 207.865 253.367 218.933C248.405 230.001 240.011 232.674 246.085 241.818C252.16 250.961 269.365 276.925 268.221 289.137C267.077 301.349 255.25 312.022 238.055 313.187C220.86 314.352 197.976 304.022 178.898 287.181C159.821 270.34 164.772 245.573 171.617 237.563C178.461 229.554 188.791 226.496 189.55 218.486C190.309 210.476 178.503 198.327 178.503 198.327Z" fill="#263238" stroke="#263238" stroke-linecap="round" stroke-linejoin="round"/>
<path d="M225.676 180.217C231.553 191.16 238.908 205.817 241.207 214.669C245.222 230.168 224.563 239.925 230.295 247.383" stroke="white" stroke-linecap="round" stroke-linejoin="round"/>
<path d="M217.667 165.883C217.667 165.883 219.955 169.783 223.117 175.525" stroke="white" stroke-linecap="round" stroke-linejoin="round"/>
<path d="M248.499 193.417C249.176 195.468 249.616 197.59 249.809 199.742" stroke="white" stroke-linecap="round" stroke-linejoin="round"/>
<path d="M221.64 160.192C221.64 160.192 239.719 173.549 246.938 189.537" stroke="white" stroke-linecap="round" stroke-linejoin="round"/>
<path d="M196.55 170.21C183.641 173.83 165.074 179.707 166.582 183.098" stroke="white" stroke-linecap="round" stroke-linejoin="round"/>
<path d="M208.482 167.027C208.482 167.027 205.725 167.713 201.616 168.816" stroke="white" stroke-linecap="round" stroke-linejoin="round"/>
<path d="M192.514 160.286C199.909 157.956 207.653 156.935 215.399 157.27" stroke="white" stroke-linecap="round" stroke-linejoin="round"/>
<path d="M187.251 162.439C188.42 161.83 189.63 161.302 190.871 160.858" stroke="white" stroke-linecap="round" stroke-linejoin="round"/>
<path d="M80.8063 173.902C80.8016 173.975 80.8016 174.048 80.8063 174.121C80.8016 174.048 80.8016 173.975 80.8063 173.902ZM85.1024 184.887C83.3504 181.679 81.9551 178.288 80.9415 174.776C81.9502 178.29 83.3457 181.681 85.1024 184.887ZM80.8271 174.183C80.8271 174.246 80.8271 174.318 80.8271 174.412C80.8479 174.318 80.8375 174.246 80.8271 174.183ZM80.8791 174.474C80.8919 174.577 80.9128 174.677 80.9415 174.776C80.9128 174.677 80.8919 174.577 80.8791 174.474ZM85.1024 184.877C88.9927 192.245 93.8328 199.072 99.4989 205.181C113.24 220.067 152.934 259.002 156.71 261.675C160.486 264.349 159.384 271.973 156.71 279.609C154.037 287.244 144.113 298.332 144.498 310.524C144.883 322.715 148.659 341.439 148.316 345.256C147.973 349.074 138.424 362.056 138.424 362.056H236.89C236.89 362.056 224.615 346.452 224.615 341.116C224.615 335.78 241.467 267.407 242.226 262.445C242.985 257.483 239.938 254.051 233.832 253.666C227.726 253.281 204.446 248.319 203.301 244.501C202.157 240.684 209.407 226.183 209.407 226.183L186.523 227.328C186.523 227.328 185.379 237.251 183.849 239.165C182.32 241.079 180.032 237.251 174.685 234.588C169.339 231.925 159.082 229.626 155.223 226.568C151.364 223.51 114.769 189.121 114.769 189.121" fill="white"/>
<path d="M161.069 229.51C162.972 232.839 164.876 235.845 164.876 235.845C164.876 235.845 171.294 239.455 172.896 239.455C174.498 239.455 184.13 244.656 184.13 244.656C184.13 244.656 192.161 242.648 189.331 235.824C188.439 234.078 187.312 232.461 185.982 231.019C185.503 234.046 184.734 238.009 183.829 239.143C182.299 241.046 180.011 237.229 174.664 234.566C171.2 232.839 165.594 231.258 161.069 229.51Z" fill="#4C70FF"/>
<path d="M141.471 214.064C129.686 203.153 114.769 189.162 114.769 189.162L106.094 187.914L105.054 188.496C105.054 188.496 129.54 210.164 134.752 212.577C136.86 213.546 139.151 214.053 141.471 214.064Z" fill="#4C70FF"/>
<path d="M153.819 225.36L152.883 224.528C153.361 225.318 153.632 225.817 153.632 225.817L153.819 225.36Z" fill="#4C70FF"/>
<g opacity="0.5">
<path opacity="0.5" d="M161.069 229.51C162.972 232.839 164.876 235.845 164.876 235.845C164.876 235.845 171.294 239.455 172.896 239.455C174.498 239.455 184.13 244.656 184.13 244.656C184.13 244.656 192.161 242.648 189.331 235.824C188.439 234.078 187.312 232.461 185.982 231.019C185.503 234.046 184.734 238.009 183.829 239.143C182.299 241.046 180.011 237.229 174.664 234.566C171.2 232.839 165.594 231.258 161.069 229.51Z" fill="white"/>
<path opacity="0.5" d="M141.471 214.064C129.686 203.153 114.769 189.162 114.769 189.162L106.094 187.914L105.054 188.496C105.054 188.496 129.54 210.164 134.752 212.577C136.86 213.546 139.151 214.053 141.471 214.064Z" fill="white"/>
<path opacity="0.5" d="M153.819 225.36L152.883 224.528C153.361 225.318 153.632 225.817 153.632 225.817L153.819 225.36Z" fill="white"/>
</g>
<path d="M85.1024 184.877C88.9927 192.245 93.8328 199.072 99.4989 205.181C113.24 220.067 152.934 259.002 156.71 261.675C160.486 264.349 159.384 271.973 156.71 279.609C154.037 287.244 144.113 298.332 144.498 310.524C144.883 322.715 148.659 341.439 148.316 345.256C147.973 349.074 138.424 362.056 138.424 362.056H236.89C236.89 362.056 224.615 346.452 224.615 341.116C224.615 335.78 241.467 267.407 242.226 262.445C242.985 257.483 239.938 254.051 233.832 253.666C227.726 253.281 204.446 248.319 203.301 244.501C202.157 240.684 209.407 226.183 209.407 226.183L186.523 227.328C186.523 227.328 185.379 237.251 183.849 239.165C182.32 241.079 180.032 237.251 174.685 234.588C169.339 231.925 159.082 229.626 155.223 226.568C151.364 223.51 114.769 189.121 114.769 189.121M80.8063 173.902C80.8016 173.975 80.8016 174.048 80.8063 174.121C80.8016 174.048 80.8016 173.975 80.8063 173.902V173.902ZM85.1024 184.887C83.3504 181.679 81.9551 178.288 80.9415 174.776C81.9502 178.29 83.3457 181.681 85.1024 184.887V184.887ZM80.8271 174.183C80.8271 174.246 80.8271 174.318 80.8271 174.412C80.8479 174.318 80.8375 174.246 80.8271 174.183V174.183ZM80.8791 174.474C80.8919 174.577 80.9128 174.677 80.9415 174.776C80.9128 174.677 80.8919 174.577 80.8791 174.474Z" stroke="#263238" stroke-linecap="round" stroke-linejoin="round"/>
<path d="M114.769 189.163C114.769 189.163 102.578 189.392 95.7749 183.785" stroke="#263238" stroke-linecap="round" stroke-linejoin="round"/>
<path d="M203.312 244.502C202.168 240.695 209.418 226.184 209.418 226.184L186.533 227.328C186.533 227.328 185.389 237.252 183.86 239.166C182.331 241.08 180.042 237.252 174.696 234.589C174.29 234.381 173.843 234.183 173.385 233.985L172.001 255.736C172.001 255.736 174.009 276.8 198.08 272.796C207.826 271.173 218.228 262.477 227.205 252.699C217.968 251.003 204.186 247.425 203.312 244.502Z" fill="white"/>
<path d="M202.667 229.065C202.667 229.065 201.283 236.825 200.17 245.407C199.057 253.989 198.235 260.376 198.235 260.376L203.312 244.502L209.033 227.682C209.033 227.682 203.499 227.682 202.667 229.065Z" fill="#4C70FF"/>
<path opacity="0.5" d="M202.667 229.065C202.667 229.065 201.283 236.825 200.17 245.407C199.057 253.989 198.235 260.376 198.235 260.376L203.312 244.502L209.033 227.682C209.033 227.682 203.499 227.682 202.667 229.065Z" fill="white"/>
<path d="M203.312 244.502C202.168 240.695 209.418 226.184 209.418 226.184L186.533 227.328C186.533 227.328 185.389 237.252 183.86 239.166C182.331 241.08 180.042 237.252 174.696 234.589C174.29 234.381 173.843 234.183 173.385 233.985L172.001 255.736C172.001 255.736 174.009 276.8 198.08 272.796C207.826 271.173 218.228 262.477 227.205 252.699C217.968 251.003 204.186 247.425 203.312 244.502Z" stroke="#263238" stroke-linecap="round" stroke-linejoin="round"/>
<path d="M183.849 239.166C182.32 241.069 180.032 237.252 174.685 234.589C171.315 232.893 165.947 231.354 161.506 229.689C160.247 226.704 158.583 222.814 157.511 220.463C155.608 216.302 152.549 218.934 152.549 218.934C150.954 217.119 149.664 215.057 148.732 212.828C146.828 208.667 143.77 209.01 139.578 208.251C135.386 207.491 126.596 199.471 126.596 199.471C126.596 199.471 122.487 196.351 120.792 194.801C118.815 198.691 114.082 205.536 103.847 209.811C120.168 226.86 153.277 259.252 156.752 261.686C160.569 264.349 159.425 271.984 156.752 279.619C154.078 287.254 144.155 298.343 144.54 310.534C144.925 322.726 148.701 341.449 148.357 345.267C148.014 348.668 140.4 359.331 138.746 361.619L142.626 362.056H162.827C162.712 351.82 162.723 310.045 169.723 293.402C177.743 274.273 183.849 239.166 183.849 239.166Z" fill="#4C70FF"/>
<path opacity="0.16" d="M174.685 234.589C171.315 232.893 165.947 231.354 161.506 229.689C160.247 226.704 158.583 222.813 157.511 220.463C155.608 216.302 152.549 218.934 152.549 218.934C150.954 217.119 149.665 215.057 148.732 212.827C146.828 208.667 143.77 209.01 139.578 208.251C135.386 207.491 126.596 199.471 126.596 199.471C126.596 199.471 122.487 196.351 120.792 194.801C119.946 196.453 118.939 198.017 117.786 199.471C124.609 205.244 132.141 211.361 134.772 212.578C139.973 214.981 141.19 212.973 145.174 215.386C149.158 217.8 153.6 225.788 153.6 225.788C153.6 225.788 156.013 219.36 158.021 223.781C160.029 228.202 164.845 235.816 164.845 235.816C164.845 235.816 171.263 239.426 172.865 239.426C174.123 239.426 180.292 242.629 182.913 244.013C183.496 240.965 183.818 239.134 183.818 239.134C182.32 241.069 180.032 237.252 174.685 234.589Z" fill="black"/>
<path d="M183.849 239.166C182.32 241.069 180.032 237.252 174.685 234.589C171.315 232.893 165.947 231.354 161.506 229.689C160.247 226.704 158.583 222.814 157.511 220.463C155.608 216.302 152.549 218.934 152.549 218.934C150.954 217.119 149.664 215.057 148.732 212.828C146.828 208.667 143.77 209.01 139.578 208.251C135.386 207.491 126.596 199.471 126.596 199.471C126.596 199.471 122.487 196.351 120.792 194.801C118.815 198.691 114.082 205.536 103.847 209.811C120.168 226.86 153.277 259.252 156.752 261.686C160.569 264.349 159.425 271.984 156.752 279.619C154.078 287.254 144.155 298.343 144.54 310.534C144.925 322.726 148.701 341.449 148.357 345.267C148.014 348.668 140.4 359.331 138.746 361.619L142.626 362.056H162.827C162.712 351.82 162.723 310.045 169.723 293.402C177.743 274.273 183.849 239.166 183.849 239.166Z" stroke="#263238" stroke-linecap="round" stroke-linejoin="round"/>
<path d="M184.12 237.834C184.12 237.834 179.377 236.378 176.454 238.936C173.531 241.495 169.172 254.623 166.603 268.863C165.019 277.153 166.112 285.732 169.724 293.36C169.724 293.36 175.726 277.622 177.546 269.956C179.366 262.289 184.12 237.834 184.12 237.834Z" fill="#4C70FF"/>
<path opacity="0.16" d="M175.018 240.154C175.018 240.154 178.451 239.322 179.865 239.8C181.057 240.311 182.17 240.987 183.173 241.808L184.12 237.834C182.7 237.109 181.089 236.843 179.512 237.075C177.151 237.553 175.018 240.154 175.018 240.154Z" fill="black"/>
<path d="M184.12 237.834C184.12 237.834 179.377 236.378 176.454 238.936C173.531 241.495 169.172 254.623 166.603 268.863C165.019 277.153 166.112 285.732 169.723 293.36C169.723 293.36 175.726 277.622 177.546 269.956C179.366 262.289 184.12 237.834 184.12 237.834Z" stroke="#263238" stroke-linecap="round" stroke-linejoin="round"/>
<path d="M152.175 239.082L158.281 263.891L144.54 232.592" stroke="#263238" stroke-linecap="round" stroke-linejoin="round"/>
<path d="M192.4 362.056H236.9C236.9 362.056 224.625 346.452 224.625 341.116C224.625 335.78 241.477 267.407 242.236 262.445C242.996 257.483 239.948 254.051 233.842 253.666C227.736 253.281 204.456 248.319 203.312 244.501C203.312 244.501 194.532 275.416 191.484 296.408C188.863 314.414 191.578 351.778 192.4 362.056Z" fill="#4C70FF"/>
<path opacity="0.16" d="M233.842 253.665C228.838 253.353 212.31 249.962 205.871 246.654L208.211 252.063C212.452 254.313 217.012 255.899 221.734 256.765C229.483 258.149 236.692 257.878 241.404 264.806L241.633 265.149C241.924 263.818 242.122 262.882 242.184 262.445C243.006 257.483 239.948 254.05 233.842 253.665Z" fill="black"/>
<path d="M192.4 362.056H236.9C236.9 362.056 224.625 346.452 224.625 341.116C224.625 335.78 241.477 267.407 242.236 262.445C242.996 257.483 239.948 254.051 233.842 253.666C227.736 253.281 204.456 248.319 203.312 244.501C203.312 244.501 194.532 275.416 191.484 296.408C188.863 314.414 191.578 351.778 192.4 362.056Z" stroke="#263238" stroke-linecap="round" stroke-linejoin="round"/>
<path d="M203.312 244.501C203.312 244.501 191.536 281.949 191.484 296.408C191.484 296.408 208.211 276.155 210.395 261.925C212.58 247.695 203.312 244.501 203.312 244.501Z" fill="#4C70FF"/>
<path opacity="0.16" d="M201.283 249.286C203.053 249.227 204.81 249.6 206.403 250.372C207.996 251.144 209.377 252.292 210.427 253.718C210.427 253.718 208.117 246.925 203.312 244.501L201.283 249.286Z" fill="black"/>
<path d="M203.312 244.501C203.312 244.501 191.536 281.949 191.484 296.408C191.484 296.408 208.211 276.155 210.395 261.925C212.58 247.695 203.312 244.501 203.312 244.501Z" stroke="#263238" stroke-linecap="round" stroke-linejoin="round"/>
<path d="M329.021 355.013C329.021 355.013 337.645 355.367 343.293 356.178C347.06 356.689 350.852 356.991 354.652 357.083C354.652 357.083 351.531 350.779 348.203 349.001C344.874 347.222 338.841 344.039 333.785 344.746C328.73 345.454 321.5 350.551 322.104 352.173C322.707 353.796 325.401 354.524 329.021 355.013Z" fill="white"/>
<path d="M329.021 355.013C329.021 355.013 337.645 355.367 343.293 356.178C347.06 356.689 350.852 356.991 354.652 357.083C354.652 357.083 351.531 350.779 348.203 349.001C344.874 347.222 338.841 344.039 333.785 344.746C328.73 345.454 321.5 350.551 322.104 352.173C322.707 353.796 325.401 354.524 329.021 355.013Z" fill="#4C70FF"/>
<path opacity="0.5" d="M329.021 355.013C329.021 355.013 337.645 355.367 343.293 356.178C347.06 356.689 350.852 356.991 354.652 357.083C354.652 357.083 351.531 350.779 348.203 349.001C344.874 347.222 338.841 344.039 333.785 344.746C328.73 345.454 321.5 350.551 322.104 352.173C322.707 353.796 325.401 354.524 329.021 355.013Z" fill="white"/>
<path d="M329.021 355.013C329.021 355.013 337.645 355.367 343.293 356.178C347.06 356.689 350.852 356.991 354.652 357.083C354.652 357.083 351.531 350.779 348.203 349.001C344.874 347.222 338.841 344.039 333.785 344.746C328.73 345.454 321.5 350.551 322.104 352.173C322.707 353.796 325.401 354.524 329.021 355.013Z" stroke="#263238" stroke-linecap="round" stroke-linejoin="round"/>
<path d="M343.345 352.434C343.345 352.434 350.179 348.887 351.885 348.939C353.591 348.991 364.929 356.657 364.367 357.885C363.986 358.454 363.435 358.889 362.793 359.128C362.151 359.367 361.45 359.397 360.789 359.216C359.53 358.623 351.895 355.378 351.895 355.378L346.902 356.553L343.345 352.434Z" fill="white"/>
<path d="M343.345 352.434C343.345 352.434 350.179 348.887 351.885 348.939C353.591 348.991 364.929 356.657 364.367 357.885C363.806 359.112 361.122 360.111 360.789 359.216C360.456 358.321 351.895 355.378 351.895 355.378L346.902 356.553L343.345 352.434Z" fill="#4C70FF"/>
<path opacity="0.5" d="M343.345 352.434C343.345 352.434 350.179 348.887 351.885 348.939C353.591 348.991 364.929 356.657 364.367 357.885C363.806 359.112 361.122 360.111 360.789 359.216C360.456 358.321 351.895 355.378 351.895 355.378L346.902 356.553L343.345 352.434Z" fill="white"/>
<path d="M343.345 352.434C343.345 352.434 350.179 348.887 351.885 348.939C353.591 348.991 364.929 356.657 364.367 357.885C363.986 358.454 363.435 358.889 362.793 359.128C362.151 359.367 361.45 359.397 360.789 359.216C359.53 358.623 351.895 355.378 351.895 355.378L346.902 356.553L343.345 352.434Z" stroke="#263238" stroke-linecap="round" stroke-linejoin="round"/>
<path d="M338.466 346.598C338.466 346.598 347.579 346.307 349.389 347.222C351.198 348.138 359.375 362.16 358.147 363.179C356.92 364.199 353.529 363.897 353.633 362.763C353.737 361.629 346.101 354.119 346.101 354.119L340.162 352.819L338.466 346.598Z" fill="white"/>
<path d="M338.466 346.598C338.466 346.598 347.579 346.307 349.389 347.222C351.198 348.138 359.375 362.16 358.147 363.179C356.92 364.199 353.529 363.897 353.633 362.763C353.737 361.629 346.101 354.119 346.101 354.119L340.162 352.819L338.466 346.598Z" fill="#4C70FF"/>
<path opacity="0.5" d="M338.466 346.598C338.466 346.598 347.579 346.307 349.389 347.222C351.198 348.138 359.375 362.16 358.147 363.179C356.92 364.199 353.529 363.897 353.633 362.763C353.737 361.629 346.101 354.119 346.101 354.119L340.162 352.819L338.466 346.598Z" fill="white"/>
<path d="M338.466 346.598C338.466 346.598 347.579 346.307 349.389 347.222C351.198 348.138 359.375 362.16 358.147 363.179C356.92 364.199 353.529 363.897 353.633 362.763C353.737 361.629 346.101 354.119 346.101 354.119L340.162 352.819L338.466 346.598Z" stroke="#263238" stroke-linecap="round" stroke-linejoin="round"/>
<path d="M333.067 344.715C333.067 344.715 342.294 344.414 344.125 345.35C345.956 346.286 354.236 360.464 352.987 361.504C351.739 362.545 348.327 362.222 348.431 361.078C348.535 359.934 340.807 352.33 340.807 352.33L334.794 351.009L333.067 344.715Z" fill="white"/>
<path d="M333.067 344.715C333.067 344.715 342.294 344.414 344.125 345.35C345.956 346.286 354.236 360.464 352.987 361.504C351.739 362.545 348.327 362.222 348.431 361.078C348.535 359.934 340.807 352.33 340.807 352.33L334.794 351.009L333.067 344.715Z" fill="#4C70FF"/>
<path opacity="0.5" d="M333.067 344.715C333.067 344.715 342.294 344.414 344.125 345.35C345.956 346.286 354.236 360.464 352.987 361.504C351.739 362.545 348.327 362.222 348.431 361.078C348.535 359.934 340.807 352.33 340.807 352.33L334.794 351.009L333.067 344.715Z" fill="white"/>
<path d="M333.067 344.715C333.067 344.715 342.294 344.414 344.125 345.35C345.956 346.286 354.236 360.464 352.987 361.504C351.739 362.545 348.327 362.222 348.431 361.078C348.535 359.934 340.807 352.33 340.807 352.33L334.794 351.009L333.067 344.715Z" stroke="#263238" stroke-linecap="round" stroke-linejoin="round"/>
<path d="M228.162 291.853C234.841 302.14 248.249 328.208 252.16 331.141C258.266 335.718 299.084 346.828 303.016 349.865C306.948 352.902 306.677 355.95 310.401 357.063C314.125 358.176 328.085 361.37 333.411 361.869C338.737 362.368 336.355 359.071 336.355 359.071L327.274 352.83L335.19 350.874C335.19 350.874 343.126 360.423 344.614 360.943C346.101 361.463 348.723 360.943 348.556 359.768C348.265 357.885 339.798 342.479 336.792 341.824C333.785 341.169 315.54 343.697 315.54 343.697C315.54 343.697 277.271 317.889 276.584 316.974C276.584 316.974 274.296 310.483 272.423 307.809C270.551 305.136 269.365 305.906 269.365 305.906C269.365 305.906 270.135 302.463 268.991 301.318L262.885 295.212L262.666 295.504C261.626 293.423 260.586 291.052 259.442 288.347C256.248 280.826 244.941 259.72 243.037 256.673C241.612 254.395 229.671 252.761 223.617 252.075" fill="#4C70FF"/>
<path opacity="0.16" d="M254.75 292.508C259.743 296.939 258.079 296.939 256.966 300.829C255.853 304.72 257.798 299.446 262.51 299.727C267.222 300.007 265.839 306.093 265.277 307.206C264.715 308.319 271.102 309.702 269.989 312.188C268.876 314.674 262.51 318.284 258.911 321.894C255.312 325.503 268.325 316.068 272.756 315.798C274.109 315.704 275.222 315.881 276.158 315.86C275.176 313.077 273.914 310.4 272.392 307.871C270.478 305.198 269.334 305.968 269.334 305.968C269.334 305.968 270.104 302.525 268.959 301.381L262.853 295.275L262.635 295.566C261.595 293.485 260.555 291.114 259.41 288.409C256.217 280.888 244.91 259.783 243.006 256.735C241.581 254.457 229.639 252.824 223.585 252.137L224.137 256.953L224.272 257.057C224.272 257.057 231.751 258.441 234.248 258.721C236.744 259.002 239.792 261.208 239.511 262.882C239.23 264.557 232.032 272.026 234.248 272.587C236.463 273.149 238.96 267.043 241.456 267.875C243.953 268.708 249.726 288.076 254.75 292.508Z" fill="black"/>
<path d="M228.162 291.853C234.841 302.14 248.249 328.208 252.16 331.141C258.266 335.718 299.084 346.828 303.016 349.865C306.948 352.902 306.677 355.95 310.401 357.063C314.125 358.176 328.085 361.37 333.411 361.869C338.737 362.368 336.355 359.071 336.355 359.071L327.274 352.83L335.19 350.874C335.19 350.874 343.126 360.423 344.614 360.943C346.101 361.463 348.723 360.943 348.556 359.768C348.265 357.885 339.798 342.479 336.792 341.824C333.785 341.169 315.54 343.697 315.54 343.697C315.54 343.697 277.271 317.889 276.584 316.974C276.584 316.974 274.296 310.483 272.423 307.809C270.551 305.136 269.365 305.906 269.365 305.906C269.365 305.906 270.135 302.463 268.991 301.318L262.885 295.212L262.666 295.504C261.626 293.423 260.586 291.052 259.442 288.347C256.248 280.826 244.941 259.72 243.037 256.673C241.612 254.395 229.671 252.761 223.617 252.075" stroke="#263238" stroke-linecap="round" stroke-linejoin="round"/>
<path d="M228.266 277.736C227.986 278.673 227.746 279.609 227.559 280.566" stroke="#263238" stroke-linecap="round" stroke-linejoin="round"/>
<path d="M238.377 260.521C235.108 264.247 232.352 268.392 230.18 272.847" stroke="#263238" stroke-linecap="round" stroke-linejoin="round"/>
<path d="M253.658 319.584C256.467 315.423 260.94 310.149 265.87 308.641" stroke="#263238" stroke-linecap="round" stroke-linejoin="round"/>
<path d="M250.548 324.701C250.548 324.701 251.047 323.723 251.942 322.246" stroke="#263238" stroke-linecap="round" stroke-linejoin="round"/>
<path d="M250.548 318.128C250.548 318.128 255.655 305.354 260.763 302.067C265.87 298.78 262.947 305.354 262.947 305.354" stroke="#263238" stroke-linecap="round" stroke-linejoin="round"/>
<path d="M303.016 349.875C306.958 352.922 306.678 355.96 310.402 357.073C314.125 358.186 328.085 361.379 333.411 361.879C338.737 362.378 336.355 359.081 336.355 359.081L327.274 352.839L335.19 350.884C335.19 350.884 343.127 360.433 344.614 360.953C346.102 361.473 348.931 361.66 348.556 359.777C347.828 356.137 339.798 342.489 336.792 341.834C333.785 341.179 315.54 343.706 315.54 343.706C315.54 343.706 280.683 319.781 276.865 317.191C262.063 318.616 255.021 326.366 252.056 331.016L252.16 331.099C258.266 335.717 299.084 346.827 303.016 349.875Z" fill="white"/>
<path d="M348.546 359.819C346.653 355.19 339.787 342.531 336.781 341.875C333.775 341.22 315.529 343.748 315.529 343.748C315.529 343.748 280.672 319.823 276.854 317.233C272.969 317.571 269.157 318.493 265.547 319.969C271.05 323.089 307.728 343.893 312.357 344.819C317.267 345.859 333.65 343.165 336.531 345.1C338.362 346.328 343.813 354.972 347.495 361.109C348.546 360.953 348.931 360.755 348.546 359.819Z" fill="#4C70FF"/>
<path opacity="0.5" d="M348.546 359.819C345.592 353.193 339.787 342.531 336.781 341.875C333.775 341.22 315.529 343.748 315.529 343.748C315.529 343.748 280.672 319.823 276.854 317.233C272.969 317.571 269.157 318.493 265.547 319.969C271.05 323.089 307.728 343.893 312.357 344.819C317.267 345.859 333.65 343.165 336.531 345.1C338.362 346.328 343.813 354.972 347.495 361.109C348.546 360.953 348.962 360.745 348.546 359.819Z" fill="white"/>
<path d="M303.016 349.875C306.958 352.922 306.678 355.96 310.402 357.073C314.125 358.186 328.085 361.379 333.411 361.879C338.737 362.378 336.355 359.081 336.355 359.081L327.274 352.839L335.19 350.884C335.19 350.884 343.127 360.433 344.614 360.953C346.102 361.473 348.931 361.66 348.556 359.777C347.828 356.137 339.798 342.489 336.792 341.834C333.785 341.179 315.54 343.706 315.54 343.706C315.54 343.706 280.683 319.781 276.865 317.191C262.063 318.616 255.021 326.366 252.056 331.016L252.16 331.099C258.266 335.717 299.084 346.827 303.016 349.875Z" stroke="#263238" stroke-linecap="round" stroke-linejoin="round"/>
<path d="M211.082 168.234L179.751 181.309C179.371 186.815 178.008 192.209 175.726 197.235C172.022 205.067 174.186 219.89 177.744 227.89C181.301 235.889 196.977 232.758 202.709 231.759C206.596 231.02 210.403 229.909 214.078 228.441C215.751 229.086 217.561 229.294 219.337 229.047C221.113 228.799 222.797 228.104 224.231 227.026C224.231 227.026 207.462 179.957 211.082 168.234Z" fill="white"/>
<path d="M211.082 168.234L179.751 181.309C179.371 186.816 178.008 192.209 175.726 197.235C172.022 205.067 174.186 219.891 177.744 227.89C178.339 229.176 179.297 230.261 180.5 231.01V230.407C180.5 230.407 174.685 216 175.788 207.689C176.891 199.378 181.613 195.206 182.164 189.953C182.716 184.7 182.435 182.204 192.972 178.324C203.51 174.444 207.93 170.845 209.033 174.714C210.136 178.584 214.577 204.09 217.625 210.185C220.673 216.281 220.392 222.668 215.69 225.424C210.938 228.277 205.847 230.521 200.535 232.103L202.75 231.718C206.638 230.978 210.445 229.867 214.12 228.399C215.793 229.044 217.603 229.253 219.379 229.005C221.155 228.758 222.839 228.063 224.272 226.985C224.272 226.985 207.462 179.957 211.082 168.234Z" fill="#4C70FF"/>
<path opacity="0.5" d="M211.082 168.234L179.751 181.309C179.371 186.816 178.008 192.209 175.726 197.235C172.022 205.067 174.186 219.891 177.744 227.89C178.339 229.176 179.297 230.261 180.5 231.01V230.407C180.5 230.407 174.685 216 175.788 207.689C176.891 199.378 181.613 195.206 182.164 189.953C182.716 184.7 182.435 182.204 192.972 178.324C203.51 174.444 207.93 170.845 209.033 174.714C210.136 178.584 214.577 204.09 217.625 210.185C220.673 216.281 220.392 222.668 215.69 225.424C210.938 228.277 205.847 230.521 200.535 232.103L202.75 231.718C206.638 230.978 210.445 229.867 214.12 228.399C215.793 229.044 217.603 229.253 219.379 229.005C221.155 228.758 222.839 228.063 224.272 226.985C224.272 226.985 207.462 179.957 211.082 168.234Z" fill="white"/>
<path d="M211.082 168.234L179.751 181.309C179.371 186.815 178.008 192.209 175.726 197.235C172.022 205.067 174.186 219.89 177.744 227.89C181.301 235.889 196.977 232.758 202.709 231.759C206.596 231.02 210.403 229.909 214.078 228.441C215.751 229.086 217.561 229.294 219.337 229.047C221.113 228.799 222.797 228.104 224.231 227.026C224.231 227.026 207.462 179.957 211.082 168.234Z" stroke="#263238" stroke-linecap="round" stroke-linejoin="round"/>
<path d="M195.25 188.736C195.335 190.578 195.106 192.421 194.574 194.187C193.742 196.267 185.888 204.443 186.127 205.327C186.367 206.212 187.074 209.051 188.468 209.322" stroke="#263238" stroke-linecap="round" stroke-linejoin="round"/>
<path d="M203.957 196.048C205.049 193.864 208.637 195.996 208.585 200.916" stroke="#263238" stroke-linecap="round" stroke-linejoin="round"/>
<path d="M186.169 189.62C186.169 189.62 189.227 188.278 191.963 193.229" stroke="#263238" stroke-linecap="round" stroke-linejoin="round"/>
<path d="M194.907 184.117C194.099 183.69 193.203 183.456 192.29 183.434C191.376 183.413 190.47 183.604 189.643 183.992C186.845 185.334 185.129 186.811 185.316 185.095C185.503 183.378 188.79 181.485 189.779 181.235C190.767 180.986 195.188 180.299 194.907 184.117Z" fill="#263238"/>
<path d="M202.75 180.238C205.666 182.597 207.983 185.612 209.511 189.038C211.592 194.239 213.235 188.559 211.592 185.158C209.948 181.756 205.194 178.137 202.75 180.238Z" fill="#263238"/>
<path d="M224.688 235.92C224.688 238.343 223.315 240.309 221.63 240.309C219.945 240.309 218.582 238.343 218.582 235.92C218.582 233.496 219.945 227.328 221.63 227.328C223.315 227.328 224.688 233.496 224.688 235.92Z" fill="#4C70FF" stroke="#263238" stroke-linecap="round" stroke-linejoin="round"/>
<path d="M204.227 195.102C204.108 195.42 204.014 195.747 203.946 196.08C203.645 197.62 203.343 200.834 203.946 200.969C204.55 201.104 206.027 198.098 206.287 196.559C206.346 196.257 206.38 195.951 206.391 195.643C205.681 195.421 204.959 195.24 204.227 195.102Z" fill="#263238"/>
<path d="M186.481 189.318C186.389 189.59 186.316 189.868 186.263 190.15C185.95 191.69 185.961 195.07 186.616 195.195C187.272 195.32 188.343 192.158 188.645 190.618C188.72 190.245 188.762 189.865 188.769 189.485C188.025 189.28 187.247 189.223 186.481 189.318Z" fill="#263238"/>
<path d="M203.957 196.101L204.997 194.166C206.646 194.487 208.14 195.352 209.241 196.621" stroke="#263238" stroke-width="0.75" stroke-linecap="round" stroke-linejoin="round"/>
<path d="M186.481 189.319L187.521 188.102C187.521 188.102 187.968 187.884 190.423 188.997" stroke="#263238" stroke-width="0.75" stroke-linecap="round" stroke-linejoin="round"/>
<path d="M183.023 214.923C183.023 214.923 183.498 218.551 185.682 219.392C187.866 220.234 191.386 215.96 191.386 215.96" stroke="#263238" stroke-linecap="round" stroke-linejoin="round"/>
<path d="M107.217 356.148C104.956 356.035 102.734 355.506 100.664 354.587C100.375 354.48 100.112 354.316 99.8885 354.104C99.6655 353.892 99.4879 353.637 99.3666 353.354C99.2453 353.072 99.1828 352.767 99.1829 352.459C99.183 352.152 99.2458 351.847 99.3673 351.564C99.4889 351.282 99.6667 351.027 99.8899 350.815C100.113 350.603 100.377 350.439 100.666 350.333C100.955 350.226 101.262 350.18 101.569 350.196C101.876 350.212 102.177 350.29 102.453 350.426C104.534 351.311 107.228 351.862 107.946 351.55C109.267 350.073 111.295 341.148 108.674 336.841C108.081 335.884 107.529 335.707 107.165 335.666C105.678 335.458 103.473 336.987 102.692 337.746C102.475 337.951 102.22 338.111 101.941 338.217C101.662 338.324 101.364 338.374 101.066 338.365C100.768 338.356 100.474 338.289 100.201 338.167C99.9288 338.044 99.6831 337.87 99.4782 337.653C99.2733 337.435 99.1132 337.18 99.007 336.901C98.9009 336.622 98.8507 336.324 98.8594 336.026C98.8681 335.728 98.9355 335.434 99.0577 335.161C99.18 334.889 99.3547 334.643 99.5719 334.438C99.9775 334.043 103.733 330.662 107.738 331.203C108.731 331.348 109.677 331.72 110.504 332.29C111.33 332.86 112.014 333.613 112.502 334.49C116.361 340.784 113.719 352.756 110.754 355.128C109.724 355.857 108.478 356.216 107.217 356.148Z" fill="white"/>
<path d="M110.265 336.154C109.992 335.508 109.565 334.938 109.021 334.496C108.477 334.053 107.832 333.751 107.144 333.616C104.544 333.2 102.099 335.811 101.829 336.102C101.58 336.401 101.427 336.768 101.388 337.155C101.349 337.543 101.426 337.933 101.61 338.276C102.02 338.194 102.398 337.999 102.703 337.714C103.483 336.986 105.688 335.457 107.176 335.634C107.54 335.634 108.091 335.852 108.684 336.809C111.305 341.074 109.277 350.041 107.956 351.518C107.238 351.83 104.554 351.279 102.463 350.394C102.206 350.286 101.931 350.226 101.652 350.217C101.671 350.503 101.761 350.778 101.913 351.02C102.066 351.262 102.277 351.461 102.526 351.601C103.841 352.303 105.292 352.715 106.78 352.808C107.629 352.848 108.461 352.557 109.1 351.996C111.056 350.197 112.782 340.991 110.265 336.154Z" fill="#4C70FF"/>
<path opacity="0.5" d="M110.265 336.154C109.992 335.508 109.565 334.938 109.021 334.496C108.477 334.053 107.832 333.751 107.144 333.616C104.544 333.2 102.099 335.811 101.829 336.102C101.58 336.401 101.427 336.768 101.388 337.155C101.349 337.543 101.426 337.933 101.61 338.276C102.02 338.194 102.398 337.999 102.703 337.714C103.483 336.986 105.688 335.457 107.176 335.634C107.54 335.634 108.091 335.852 108.684 336.809C111.305 341.074 109.277 350.041 107.956 351.518C107.238 351.83 104.554 351.279 102.463 350.394C102.206 350.286 101.931 350.226 101.652 350.217C101.671 350.503 101.761 350.778 101.913 351.02C102.066 351.262 102.277 351.461 102.526 351.601C103.841 352.303 105.292 352.715 106.78 352.808C107.629 352.848 108.461 352.557 109.1 351.996C111.056 350.197 112.782 340.991 110.265 336.154Z" fill="white"/>
<path d="M107.217 356.148C104.956 356.035 102.734 355.506 100.664 354.587C100.375 354.48 100.112 354.316 99.8885 354.104C99.6655 353.892 99.4879 353.637 99.3666 353.354C99.2453 353.072 99.1828 352.767 99.1829 352.459C99.183 352.152 99.2458 351.847 99.3673 351.564C99.4889 351.282 99.6667 351.027 99.8899 350.815C100.113 350.603 100.377 350.439 100.666 350.333C100.955 350.226 101.262 350.18 101.569 350.196C101.876 350.212 102.177 350.29 102.453 350.426C104.534 351.311 107.228 351.862 107.946 351.55C109.267 350.073 111.295 341.148 108.674 336.841C108.081 335.884 107.529 335.707 107.165 335.666C105.678 335.458 103.473 336.987 102.692 337.746C102.475 337.951 102.22 338.111 101.941 338.217C101.662 338.324 101.364 338.374 101.066 338.365C100.768 338.356 100.474 338.289 100.201 338.167C99.9288 338.044 99.6831 337.87 99.4782 337.653C99.2733 337.435 99.1132 337.18 99.007 336.901C98.9009 336.622 98.8507 336.324 98.8594 336.026C98.8681 335.728 98.9355 335.434 99.0577 335.161C99.18 334.889 99.3547 334.643 99.5719 334.438C99.9775 334.043 103.733 330.662 107.738 331.203C108.731 331.348 109.677 331.72 110.504 332.29C111.33 332.86 112.014 333.613 112.502 334.49C116.361 340.784 113.719 352.756 110.754 355.128C109.724 355.857 108.478 356.216 107.217 356.148V356.148Z" stroke="#263238" stroke-linecap="round" stroke-linejoin="round"/>
<path d="M103.244 329.309H78.2266V362.513H103.244V329.309Z" fill="white"/>
<path d="M88.4726 329.309H78.2266V362.513H88.4726V329.309Z" fill="#4C70FF"/>
<path opacity="0.5" d="M88.4726 329.309H78.2266V362.513H88.4726V329.309Z" fill="white"/>
<path d="M103.244 329.309H78.2266V362.513H103.244V329.309Z" stroke="#263238" stroke-linecap="round" stroke-linejoin="round"/>
<path d="M240.718 362.056H133.847L130.362 303.305C130.266 302.735 130.294 302.151 130.445 301.594C130.596 301.036 130.867 300.518 131.238 300.075C131.608 299.632 132.071 299.274 132.593 299.028C133.116 298.781 133.685 298.65 134.263 298.644H240.26C240.841 298.644 241.416 298.77 241.943 299.014C242.471 299.259 242.938 299.615 243.314 300.059C243.689 300.503 243.963 301.023 244.117 301.584C244.27 302.144 244.3 302.731 244.203 303.305L240.718 362.056Z" fill="#263238" stroke="#263238" stroke-linecap="round" stroke-linejoin="round"/>
<path d="M139.11 300.048H239.491C240.058 300.043 240.619 300.161 241.136 300.395C241.652 300.629 242.111 300.973 242.481 301.403C242.851 301.833 243.122 302.339 243.275 302.884C243.429 303.43 243.462 304.003 243.371 304.563" stroke="white" stroke-linecap="round" stroke-linejoin="round"/>
<path d="M131.142 303.637C131.226 302.654 131.677 301.739 132.406 301.074C133.135 300.409 134.087 300.043 135.074 300.049" stroke="white" stroke-linecap="round" stroke-linejoin="round"/>
<path d="M241.165 356.334H133.399V362.055H241.165V356.334Z" fill="white" stroke="#263238" stroke-linecap="round" stroke-linejoin="round"/>
<path d="M186.897 335.156C191.114 335.156 194.533 333.107 194.533 330.579C194.533 328.051 191.114 326.002 186.897 326.002C182.681 326.002 179.262 328.051 179.262 330.579C179.262 333.107 182.681 335.156 186.897 335.156Z" fill="white" stroke="#263238" stroke-linecap="round" stroke-linejoin="round"/>
<path d="M403.708 361.38H2.33301V371.126H403.708V361.38Z" fill="#263238"/>
<path d="M299.636 0H106.541C100.032 0 94.7559 5.27659 94.7559 11.7856V122.578C94.7559 129.087 100.032 134.364 106.541 134.364H299.636C306.145 134.364 311.421 129.087 311.421 122.578V11.7856C311.421 5.27659 306.145 0 299.636 0Z" fill="#4C70FF"/>
<path d="M208.184 77.215C225.7 74.4 237.617 57.9189 234.802 40.4033C231.987 22.8878 215.506 10.9706 197.99 13.7855C180.475 16.6005 168.557 33.0816 171.372 50.5972C174.187 68.1127 190.668 80.0299 208.184 77.215Z" fill="#263238"/>
<g clip-path="url(#clip0)">
<path d="M181 46.9355L196.41 62.3749L226 32.8141L221.752 28.6248L196.41 53.9372L185.189 42.7166L181 46.9355Z" fill="white"/>
</g>
<path d="M264.289 111.095H141.846C139.363 111.095 136.982 110.109 135.226 108.353C133.471 106.597 132.484 104.216 132.484 101.733C132.484 99.2504 133.471 96.8691 135.226 95.1134C136.982 93.3577 139.363 92.3714 141.846 92.3714H264.289C266.772 92.3714 269.154 93.3577 270.909 95.1134C272.665 96.8691 273.651 99.2504 273.651 101.733C273.651 104.216 272.665 106.597 270.909 108.353C269.154 110.109 266.772 111.095 264.289 111.095Z" fill="white"/>
<path d="M158.625 104.749C158.543 104.749 158.462 104.732 158.387 104.7C158.312 104.668 158.244 104.621 158.188 104.562C158.126 104.501 158.078 104.428 158.046 104.347C158.014 104.267 157.998 104.18 158.001 104.094C158.001 103.947 158.04 103.803 158.115 103.678L159.051 102.221H157.137C157.049 102.226 156.96 102.212 156.878 102.179C156.795 102.147 156.721 102.097 156.659 102.034C156.552 101.91 156.493 101.751 156.493 101.587C156.493 101.423 156.552 101.264 156.659 101.14C156.721 101.076 156.795 101.027 156.878 100.994C156.96 100.962 157.049 100.948 157.137 100.952L159.02 101.004L158.188 99.652C158.105 99.5135 158.058 99.356 158.053 99.1943C158.05 99.1077 158.066 99.0214 158.098 98.9409C158.13 98.8604 158.178 98.7873 158.24 98.7263C158.298 98.6668 158.368 98.6196 158.445 98.5874C158.522 98.5553 158.604 98.5388 158.687 98.539C158.804 98.5373 158.918 98.5699 159.016 98.6328C159.114 98.6957 159.192 98.7861 159.239 98.8927L160.154 100.526L161.028 98.9655C161.083 98.8441 161.17 98.7401 161.28 98.6649C161.39 98.5897 161.519 98.5462 161.652 98.539C161.734 98.539 161.814 98.5556 161.89 98.5878C161.965 98.62 162.032 98.6671 162.089 98.7263C162.15 98.7834 162.198 98.8528 162.23 98.9299C162.262 99.007 162.278 99.09 162.276 99.1735C162.275 99.3212 162.231 99.4655 162.151 99.5896L161.236 101.056L163.139 101.004C163.228 100.999 163.317 101.013 163.399 101.045C163.482 101.078 163.556 101.128 163.618 101.192C163.725 101.316 163.784 101.475 163.784 101.639C163.784 101.803 163.725 101.962 163.618 102.086C163.556 102.15 163.482 102.2 163.399 102.232C163.317 102.265 163.228 102.279 163.139 102.273H161.215L162.068 103.605C162.164 103.766 162.218 103.948 162.224 104.135C162.227 104.22 162.213 104.304 162.182 104.382C162.152 104.461 162.106 104.533 162.047 104.593C161.992 104.651 161.926 104.698 161.853 104.73C161.78 104.762 161.701 104.779 161.621 104.78C161.492 104.777 161.367 104.737 161.26 104.665C161.153 104.594 161.069 104.493 161.017 104.375L160.154 102.845L159.291 104.375C159.228 104.495 159.132 104.595 159.014 104.661C158.895 104.728 158.76 104.758 158.625 104.749Z" fill="black"/>
<path d="M168.174 104.749C168.092 104.749 168.011 104.732 167.936 104.7C167.861 104.668 167.793 104.621 167.737 104.561C167.675 104.5 167.627 104.427 167.595 104.347C167.563 104.266 167.547 104.18 167.55 104.093C167.549 103.947 167.589 103.803 167.664 103.677L168.6 102.221H166.686C166.598 102.225 166.509 102.211 166.427 102.179C166.344 102.147 166.27 102.097 166.208 102.034C166.101 101.909 166.042 101.75 166.042 101.586C166.042 101.422 166.101 101.264 166.208 101.139C166.27 101.076 166.344 101.026 166.427 100.994C166.509 100.962 166.598 100.947 166.686 100.952L168.569 101.004L167.685 99.5995C167.601 99.461 167.555 99.3035 167.55 99.1419C167.547 99.0552 167.563 98.9689 167.595 98.8884C167.627 98.8079 167.675 98.7349 167.737 98.6738C167.795 98.6143 167.865 98.5671 167.942 98.5349C168.018 98.5028 168.101 98.4863 168.184 98.4865C168.301 98.4848 168.415 98.5174 168.513 98.5803C168.611 98.6432 168.688 98.7336 168.735 98.8402L169.651 100.473L170.525 98.913C170.58 98.7916 170.667 98.6876 170.777 98.6124C170.887 98.5372 171.016 98.4937 171.149 98.4865C171.23 98.4865 171.311 98.5031 171.386 98.5353C171.461 98.5675 171.529 98.6146 171.586 98.6738C171.647 98.7309 171.695 98.8003 171.727 98.8774C171.759 98.9545 171.775 99.0375 171.773 99.121C171.771 99.2688 171.728 99.4131 171.648 99.5371L170.733 101.004L172.636 100.952C172.725 100.947 172.813 100.961 172.896 100.993C172.979 101.025 173.053 101.075 173.115 101.139C173.222 101.264 173.28 101.422 173.28 101.586C173.28 101.75 173.222 101.909 173.115 102.034C173.053 102.098 172.979 102.147 172.896 102.18C172.813 102.212 172.725 102.226 172.636 102.221H170.712L171.565 103.552C171.661 103.713 171.715 103.896 171.721 104.083C171.724 104.167 171.71 104.251 171.679 104.33C171.649 104.408 171.603 104.48 171.544 104.541C171.489 104.599 171.423 104.646 171.35 104.678C171.277 104.71 171.198 104.727 171.117 104.728C170.988 104.726 170.863 104.687 170.756 104.615C170.648 104.543 170.565 104.441 170.514 104.322L169.651 102.793L168.787 104.322C168.736 104.444 168.651 104.549 168.543 104.625C168.434 104.7 168.306 104.743 168.174 104.749Z" fill="black"/>
<path d="M177.723 104.749C177.641 104.749 177.56 104.732 177.485 104.7C177.41 104.668 177.342 104.621 177.286 104.561C177.225 104.5 177.176 104.427 177.144 104.347C177.112 104.266 177.096 104.18 177.099 104.093C177.099 103.947 177.138 103.803 177.213 103.677L178.15 102.221H176.236C176.147 102.225 176.059 102.211 175.976 102.179C175.894 102.147 175.819 102.097 175.757 102.034C175.65 101.909 175.591 101.75 175.591 101.586C175.591 101.422 175.65 101.264 175.757 101.139C175.819 101.076 175.894 101.026 175.976 100.994C176.059 100.962 176.147 100.947 176.236 100.952L178.118 101.004L177.234 99.5995C177.151 99.461 177.104 99.3035 177.099 99.1419C177.096 99.0552 177.112 98.9689 177.144 98.8884C177.176 98.8079 177.225 98.7349 177.286 98.6738C177.344 98.6143 177.414 98.5671 177.491 98.5349C177.568 98.5028 177.65 98.4863 177.733 98.4865C177.85 98.4848 177.964 98.5174 178.062 98.5803C178.16 98.6432 178.238 98.7336 178.285 98.8402L179.2 100.473L180.074 98.913C180.129 98.7916 180.216 98.6876 180.326 98.6124C180.436 98.5372 180.565 98.4937 180.698 98.4865C180.78 98.4865 180.861 98.5031 180.936 98.5353C181.011 98.5675 181.079 98.6146 181.135 98.6738C181.196 98.7309 181.244 98.8003 181.276 98.8774C181.309 98.9545 181.324 99.0375 181.322 99.121C181.321 99.2688 181.277 99.4131 181.197 99.5371L180.282 101.004L182.186 100.952C182.274 100.947 182.363 100.961 182.445 100.993C182.528 101.025 182.603 101.075 182.664 101.139C182.771 101.264 182.83 101.422 182.83 101.586C182.83 101.75 182.771 101.909 182.664 102.034C182.603 102.098 182.528 102.147 182.445 102.18C182.363 102.212 182.274 102.226 182.186 102.221H180.261L181.114 103.552C181.21 103.713 181.264 103.896 181.27 104.083C181.273 104.167 181.259 104.251 181.229 104.33C181.198 104.408 181.152 104.48 181.093 104.541C181.039 104.599 180.973 104.646 180.899 104.678C180.826 104.71 180.747 104.727 180.667 104.728C180.538 104.726 180.412 104.687 180.305 104.615C180.198 104.543 180.114 104.441 180.063 104.322L179.2 102.793L178.337 104.322C178.285 104.444 178.201 104.549 178.092 104.625C177.983 104.7 177.855 104.743 177.723 104.749Z" fill="black"/>
<path d="M187.314 104.749C187.232 104.749 187.151 104.732 187.076 104.7C187.001 104.668 186.933 104.621 186.877 104.561C186.815 104.5 186.767 104.427 186.735 104.347C186.703 104.266 186.687 104.18 186.69 104.093C186.69 103.947 186.729 103.803 186.804 103.677L187.74 102.221H185.826C185.738 102.225 185.649 102.211 185.567 102.179C185.484 102.147 185.41 102.097 185.348 102.034C185.241 101.909 185.182 101.75 185.182 101.586C185.182 101.422 185.241 101.264 185.348 101.139C185.41 101.076 185.484 101.026 185.567 100.994C185.649 100.962 185.738 100.947 185.826 100.952L187.709 101.004L186.825 99.5995C186.742 99.461 186.695 99.3035 186.69 99.1419C186.687 99.0552 186.703 98.9689 186.735 98.8884C186.767 98.8079 186.815 98.7349 186.877 98.6738C186.935 98.6143 187.005 98.5671 187.082 98.5349C187.158 98.5028 187.241 98.4863 187.324 98.4865C187.441 98.4848 187.555 98.5174 187.653 98.5803C187.751 98.6432 187.829 98.7336 187.876 98.8402L188.791 100.473L189.665 98.913C189.72 98.7916 189.807 98.6876 189.917 98.6124C190.027 98.5372 190.156 98.4937 190.289 98.4865C190.371 98.4865 190.451 98.5031 190.526 98.5353C190.602 98.5675 190.669 98.6146 190.726 98.6738C190.787 98.7309 190.835 98.8003 190.867 98.8774C190.899 98.9545 190.915 99.0375 190.913 99.121C190.912 99.2688 190.868 99.4131 190.788 99.5371L189.873 101.004L191.776 100.952C191.865 100.947 191.954 100.961 192.036 100.993C192.119 101.025 192.193 101.075 192.255 101.139C192.362 101.264 192.421 101.422 192.421 101.586C192.421 101.75 192.362 101.909 192.255 102.034C192.193 102.098 192.119 102.147 192.036 102.18C191.954 102.212 191.865 102.226 191.776 102.221H189.852L190.705 103.552C190.801 103.713 190.855 103.896 190.861 104.083C190.864 104.167 190.85 104.251 190.819 104.33C190.789 104.408 190.743 104.48 190.684 104.541C190.629 104.599 190.563 104.646 190.49 104.678C190.417 104.71 190.338 104.727 190.258 104.728C190.129 104.725 190.004 104.685 189.897 104.613C189.79 104.541 189.706 104.44 189.654 104.322L188.791 102.793L187.928 104.322C187.876 104.444 187.791 104.549 187.683 104.625C187.574 104.7 187.446 104.743 187.314 104.749Z" fill="black"/>
<path d="M196.821 104.749C196.739 104.749 196.659 104.732 196.583 104.7C196.508 104.668 196.441 104.621 196.384 104.561C196.323 104.5 196.274 104.427 196.242 104.347C196.21 104.266 196.195 104.18 196.197 104.093C196.202 103.947 196.241 103.805 196.311 103.677L197.248 102.221H195.334C195.245 102.225 195.157 102.211 195.074 102.179C194.992 102.147 194.917 102.097 194.855 102.034C194.748 101.909 194.689 101.75 194.689 101.586C194.689 101.422 194.748 101.264 194.855 101.139C194.917 101.076 194.992 101.026 195.074 100.994C195.157 100.962 195.245 100.947 195.334 100.952L197.216 101.004L196.332 99.5995C196.249 99.461 196.202 99.3035 196.197 99.1419C196.195 99.0552 196.21 98.9689 196.242 98.8884C196.274 98.8079 196.323 98.7349 196.384 98.6738C196.443 98.6143 196.512 98.5671 196.589 98.5349C196.666 98.5028 196.748 98.4863 196.832 98.4865C196.948 98.4848 197.062 98.5174 197.16 98.5803C197.259 98.6432 197.336 98.7336 197.383 98.8402L198.298 100.473L199.172 98.913C199.227 98.7916 199.314 98.6876 199.424 98.6124C199.534 98.5372 199.663 98.4937 199.796 98.4865C199.878 98.4853 199.959 98.5013 200.035 98.5336C200.11 98.5658 200.177 98.6136 200.233 98.6738C200.294 98.7309 200.342 98.8003 200.374 98.8774C200.407 98.9545 200.422 99.0375 200.42 99.121C200.419 99.2688 200.376 99.4131 200.295 99.5371L199.38 101.004L201.284 100.952C201.372 100.947 201.461 100.961 201.543 100.993C201.626 101.025 201.701 101.075 201.762 101.139C201.869 101.264 201.928 101.422 201.928 101.586C201.928 101.75 201.869 101.909 201.762 102.034C201.701 102.098 201.626 102.147 201.543 102.18C201.461 102.212 201.372 102.226 201.284 102.221H199.359L200.212 103.552C200.308 103.713 200.362 103.896 200.368 104.083C200.371 104.167 200.357 104.251 200.327 104.33C200.296 104.408 200.25 104.48 200.191 104.541C200.137 104.599 200.071 104.646 199.997 104.678C199.924 104.71 199.845 104.727 199.765 104.728C199.636 104.725 199.511 104.685 199.404 104.613C199.297 104.541 199.213 104.44 199.162 104.322L198.298 102.793L197.435 104.322C197.384 104.444 197.299 104.549 197.19 104.625C197.081 104.7 196.953 104.743 196.821 104.749Z" fill="black"/>
<path d="M206.37 104.749C206.289 104.749 206.208 104.732 206.133 104.7C206.058 104.668 205.99 104.621 205.934 104.561C205.872 104.5 205.824 104.427 205.791 104.347C205.759 104.266 205.744 104.18 205.746 104.093C205.751 103.947 205.79 103.805 205.861 103.677L206.797 102.221H204.893C204.803 102.226 204.713 102.212 204.629 102.18C204.544 102.148 204.468 102.098 204.404 102.034C204.298 101.909 204.239 101.75 204.239 101.586C204.239 101.422 204.298 101.264 204.404 101.139C204.468 101.075 204.544 101.025 204.629 100.993C204.713 100.96 204.803 100.946 204.893 100.952L206.766 101.004L205.882 99.5995C205.798 99.461 205.752 99.3035 205.746 99.1419C205.744 99.0552 205.759 98.9689 205.791 98.8884C205.824 98.8079 205.872 98.7349 205.934 98.6738C205.992 98.6143 206.061 98.5671 206.138 98.5349C206.215 98.5028 206.298 98.4863 206.381 98.4865C206.497 98.4848 206.612 98.5174 206.71 98.5803C206.808 98.6432 206.885 98.7336 206.932 98.8402L207.848 100.473L208.721 98.913C208.776 98.7916 208.864 98.6876 208.974 98.6124C209.084 98.5372 209.212 98.4937 209.345 98.4865C209.427 98.4853 209.509 98.5013 209.584 98.5336C209.659 98.5658 209.727 98.6136 209.782 98.6738C209.843 98.7309 209.892 98.8003 209.924 98.8774C209.956 98.9545 209.972 99.0375 209.97 99.121C209.968 99.2688 209.925 99.4131 209.845 99.5371L208.929 101.004L210.833 100.952C210.922 100.947 211.01 100.961 211.093 100.993C211.175 101.025 211.25 101.075 211.311 101.139C211.418 101.264 211.477 101.422 211.477 101.586C211.477 101.75 211.418 101.909 211.311 102.034C211.25 102.098 211.175 102.147 211.093 102.18C211.01 102.212 210.922 102.226 210.833 102.221H208.909L209.762 103.552C209.858 103.713 209.911 103.896 209.918 104.083C209.921 104.167 209.906 104.251 209.876 104.33C209.846 104.408 209.8 104.48 209.741 104.541C209.686 104.599 209.62 104.646 209.547 104.678C209.473 104.71 209.394 104.727 209.314 104.728C209.185 104.725 209.06 104.685 208.953 104.613C208.847 104.541 208.762 104.44 208.711 104.322L207.848 102.793L206.984 104.322C206.933 104.444 206.848 104.549 206.739 104.625C206.631 104.7 206.503 104.743 206.37 104.749Z" fill="black"/>
<path d="M215.919 104.749C215.838 104.749 215.757 104.732 215.682 104.7C215.607 104.668 215.539 104.621 215.482 104.562C215.421 104.501 215.373 104.428 215.34 104.347C215.308 104.267 215.293 104.18 215.295 104.094C215.295 103.947 215.335 103.803 215.41 103.678L216.346 102.221H214.432C214.343 102.226 214.255 102.212 214.172 102.179C214.09 102.147 214.015 102.097 213.953 102.034C213.846 101.91 213.788 101.751 213.788 101.587C213.788 101.423 213.846 101.264 213.953 101.14C214.015 101.076 214.09 101.027 214.172 100.994C214.255 100.962 214.343 100.948 214.432 100.952L216.315 101.004L215.399 99.652C215.316 99.5135 215.269 99.356 215.264 99.1943C215.262 99.1077 215.277 99.0214 215.309 98.9409C215.341 98.8604 215.39 98.7873 215.451 98.7263C215.509 98.6668 215.579 98.6196 215.656 98.5874C215.733 98.5553 215.815 98.5388 215.898 98.539C216.015 98.5373 216.129 98.5699 216.227 98.6328C216.325 98.6957 216.403 98.7861 216.45 98.8927L217.365 100.526L218.239 98.9655C218.294 98.8441 218.381 98.7401 218.491 98.6649C218.601 98.5897 218.73 98.5462 218.863 98.539C218.945 98.5378 219.026 98.5538 219.102 98.586C219.177 98.6183 219.244 98.6661 219.3 98.7263C219.361 98.7834 219.409 98.8528 219.441 98.9299C219.474 99.007 219.489 99.09 219.487 99.1735C219.486 99.3213 219.443 99.4656 219.362 99.5896L218.447 101.056L220.351 101.004C220.439 100.999 220.528 101.013 220.61 101.045C220.693 101.078 220.768 101.128 220.829 101.192C220.936 101.316 220.995 101.475 220.995 101.639C220.995 101.803 220.936 101.962 220.829 102.086C220.768 102.15 220.693 102.2 220.61 102.232C220.528 102.265 220.439 102.279 220.351 102.273H218.426L219.279 103.605C219.375 103.766 219.429 103.948 219.435 104.135C219.438 104.22 219.424 104.304 219.394 104.382C219.363 104.461 219.317 104.533 219.258 104.593C219.204 104.651 219.138 104.698 219.064 104.73C218.991 104.762 218.912 104.779 218.832 104.78C218.703 104.777 218.578 104.737 218.471 104.665C218.364 104.594 218.28 104.493 218.229 104.375L217.365 102.845L216.502 104.375C216.446 104.482 216.363 104.574 216.26 104.639C216.158 104.705 216.041 104.743 215.919 104.749Z" fill="black"/>
<path d="M225.468 104.749C225.387 104.749 225.306 104.732 225.231 104.7C225.156 104.668 225.088 104.621 225.032 104.562C224.97 104.5 224.922 104.427 224.889 104.347C224.857 104.266 224.842 104.18 224.844 104.093C224.849 103.948 224.888 103.805 224.959 103.677L225.895 102.221H223.991C223.903 102.228 223.814 102.214 223.731 102.182C223.648 102.15 223.573 102.099 223.513 102.034C223.399 101.912 223.336 101.753 223.336 101.587C223.336 101.421 223.399 101.261 223.513 101.139C223.573 101.074 223.648 101.024 223.731 100.991C223.814 100.959 223.903 100.945 223.991 100.952L225.864 101.004L224.98 99.5998C224.896 99.4613 224.85 99.3037 224.844 99.1421C224.841 99.057 224.856 98.9723 224.886 98.8929C224.917 98.8135 224.963 98.741 225.023 98.6799C225.082 98.6187 225.153 98.5701 225.231 98.537C225.309 98.5038 225.394 98.4867 225.479 98.4867C225.595 98.485 225.71 98.5176 225.808 98.5805C225.906 98.6434 225.983 98.7338 226.03 98.8404L226.946 100.474L227.819 98.9132C227.874 98.7918 227.962 98.6879 228.072 98.6127C228.182 98.5374 228.31 98.4939 228.443 98.4867C228.526 98.4841 228.607 98.4995 228.683 98.5319C228.758 98.5642 228.826 98.6127 228.88 98.674C228.941 98.7311 228.989 98.8005 229.022 98.8776C229.054 98.9547 229.07 99.0377 229.068 99.1213C229.066 99.269 229.023 99.4133 228.943 99.5374L228.027 101.004L229.931 100.952C230.019 100.947 230.108 100.961 230.191 100.993C230.273 101.025 230.348 101.075 230.409 101.139C230.516 101.264 230.575 101.422 230.575 101.587C230.575 101.751 230.516 101.909 230.409 102.034C230.348 102.098 230.273 102.148 230.191 102.18C230.108 102.212 230.019 102.226 229.931 102.221H228.007L228.86 103.553C228.956 103.713 229.009 103.896 229.016 104.083C229.018 104.165 229.005 104.247 228.976 104.324C228.947 104.4 228.904 104.471 228.848 104.531C228.792 104.59 228.724 104.639 228.65 104.673C228.575 104.706 228.494 104.725 228.412 104.728C228.283 104.725 228.158 104.685 228.051 104.613C227.945 104.541 227.86 104.44 227.809 104.322L226.946 102.793L226.082 104.322C226.031 104.444 225.946 104.549 225.837 104.625C225.729 104.7 225.601 104.743 225.468 104.749Z" fill="black"/>
<path d="M235.018 104.749C234.936 104.749 234.855 104.732 234.78 104.7C234.705 104.668 234.637 104.621 234.581 104.562C234.519 104.5 234.471 104.427 234.439 104.347C234.407 104.266 234.391 104.18 234.394 104.093C234.398 103.948 234.438 103.805 234.508 103.677L235.444 102.221H233.53C233.443 102.226 233.356 102.212 233.275 102.18C233.194 102.147 233.122 102.098 233.062 102.034C232.949 101.912 232.886 101.753 232.886 101.587C232.886 101.421 232.949 101.261 233.062 101.139C233.122 101.076 233.194 101.026 233.275 100.993C233.356 100.961 233.443 100.947 233.53 100.952L235.413 101.004L234.529 99.5998C234.445 99.4613 234.399 99.3037 234.394 99.1421C234.391 99.057 234.405 98.9723 234.436 98.8929C234.466 98.8135 234.513 98.741 234.572 98.6799C234.631 98.6187 234.702 98.5701 234.78 98.537C234.859 98.5038 234.943 98.4867 235.028 98.4867C235.145 98.485 235.259 98.5176 235.357 98.5805C235.455 98.6434 235.532 98.7338 235.579 98.8404L236.495 100.474L237.369 98.9132C237.424 98.7918 237.511 98.6879 237.621 98.6127C237.731 98.5374 237.86 98.4939 237.993 98.4867C238.075 98.4841 238.156 98.4995 238.232 98.5319C238.307 98.5642 238.375 98.6127 238.43 98.674C238.491 98.7311 238.539 98.8005 238.571 98.8776C238.603 98.9547 238.619 99.0377 238.617 99.1213C238.616 99.269 238.572 99.4133 238.492 99.5374L237.577 101.004L239.48 100.952C239.569 100.947 239.657 100.961 239.74 100.993C239.823 101.025 239.897 101.075 239.959 101.139C240.066 101.264 240.124 101.422 240.124 101.587C240.124 101.751 240.066 101.909 239.959 102.034C239.897 102.098 239.823 102.148 239.74 102.18C239.657 102.212 239.569 102.226 239.48 102.221H237.556L238.409 103.553C238.505 103.713 238.559 103.896 238.565 104.083C238.568 104.165 238.554 104.247 238.525 104.324C238.497 104.4 238.453 104.471 238.397 104.531C238.341 104.59 238.274 104.639 238.199 104.673C238.124 104.706 238.044 104.725 237.962 104.728C237.833 104.725 237.708 104.685 237.601 104.613C237.494 104.541 237.41 104.44 237.358 104.322L236.495 102.793L235.631 104.322C235.58 104.444 235.495 104.549 235.387 104.625C235.278 104.7 235.15 104.743 235.018 104.749Z" fill="black"/>
<path d="M244.525 104.749C244.443 104.749 244.362 104.732 244.287 104.7C244.212 104.668 244.144 104.621 244.088 104.562C244.027 104.5 243.978 104.427 243.946 104.347C243.914 104.266 243.898 104.18 243.901 104.093C243.906 103.948 243.945 103.805 244.015 103.677L244.952 102.221H243.038C242.951 102.226 242.864 102.212 242.783 102.18C242.702 102.147 242.629 102.098 242.569 102.034C242.456 101.912 242.393 101.753 242.393 101.587C242.393 101.421 242.456 101.261 242.569 101.139C242.629 101.076 242.702 101.026 242.783 100.993C242.864 100.961 242.951 100.947 243.038 100.952L244.92 101.004L244.036 99.5998C243.953 99.4613 243.906 99.3037 243.901 99.1421C243.898 99.0554 243.914 98.9691 243.946 98.8886C243.978 98.8081 244.027 98.7351 244.088 98.674C244.146 98.6145 244.216 98.5673 244.293 98.5351C244.37 98.503 244.452 98.4865 244.535 98.4867C244.652 98.485 244.766 98.5176 244.864 98.5805C244.962 98.6434 245.04 98.7338 245.087 98.8404L246.002 100.474L246.876 98.9132C246.931 98.7918 247.018 98.6879 247.128 98.6127C247.238 98.5374 247.367 98.4939 247.5 98.4867C247.582 98.4841 247.664 98.4995 247.739 98.5319C247.815 98.5642 247.882 98.6127 247.937 98.674C247.998 98.7311 248.046 98.8005 248.078 98.8776C248.111 98.9547 248.126 99.0377 248.124 99.1213C248.123 99.269 248.08 99.4133 247.999 99.5374L247.084 101.004L248.988 100.952C249.076 100.947 249.165 100.961 249.247 100.993C249.33 101.025 249.405 101.075 249.466 101.139C249.573 101.264 249.632 101.422 249.632 101.587C249.632 101.751 249.573 101.909 249.466 102.034C249.405 102.098 249.33 102.148 249.247 102.18C249.165 102.212 249.076 102.226 248.988 102.221H247.063L247.916 103.553C248.012 103.713 248.066 103.896 248.072 104.083C248.075 104.167 248.061 104.251 248.031 104.33C248 104.409 247.954 104.48 247.895 104.541C247.841 104.599 247.775 104.646 247.701 104.678C247.628 104.71 247.549 104.727 247.469 104.728C247.34 104.725 247.215 104.685 247.108 104.613C247.001 104.541 246.917 104.44 246.866 104.322L246.002 102.793L245.139 104.322C245.088 104.444 245.003 104.549 244.894 104.625C244.785 104.7 244.657 104.743 244.525 104.749Z" fill="black"/>
<path d="M277.25 127.759H289.972" stroke="white" stroke-width="3" stroke-linecap="round" stroke-linejoin="round"/>
<path d="M100.799 34.0875V118.584C100.799 121.031 101.771 123.378 103.502 125.108C105.232 126.838 107.579 127.81 110.026 127.81H265.173" stroke="white" stroke-width="3" stroke-linecap="round" stroke-linejoin="round"/>
<path d="M100.799 11.6812V24.351" stroke="white" stroke-width="3" stroke-linecap="round" stroke-linejoin="round"/>
<defs>
<clipPath id="clip0">
<rect width="45" height="45" fill="white" transform="translate(181 23)"/>
</clipPath>
</defs>
</svg>
