<svg width="416" height="372" viewBox="0 0 416 372" fill="none" xmlns="http://www.w3.org/2000/svg">
<path d="M401.295 196.85C403.375 169.211 396.947 140.356 388.334 114.673C375.591 76.4351 350.71 37.2504 308.893 28.2006C284.781 22.9996 260.243 28.5751 239.563 41.6401C219.685 54.2059 204.196 70.4435 179.741 73.585C155.015 76.768 129.644 75.4886 104.794 75.4886C40.8935 75.4886 -10.9609 142.613 2.00009 212.536C14.9611 282.459 76.0838 330.943 127.938 330.943C174.54 330.943 212.882 302.993 257.143 295.483C279.091 291.759 301.133 296.169 322.853 290.594C348.099 284.103 371.836 268.635 385.827 246.239C395.355 230.969 399.995 214.149 401.295 196.85Z" fill="#4C70FF"/>
<path opacity="0.7" d="M401.295 196.85C403.375 169.211 396.947 140.356 388.334 114.673C375.591 76.4351 350.71 37.2504 308.893 28.2006C284.781 22.9996 260.243 28.5751 239.563 41.6401C219.685 54.2059 204.196 70.4435 179.741 73.585C155.015 76.768 129.644 75.4886 104.794 75.4886C40.8935 75.4886 -10.9609 142.613 2.00009 212.536C14.9611 282.459 76.0838 330.943 127.938 330.943C174.54 330.943 212.882 302.993 257.143 295.483C279.091 291.759 301.133 296.169 322.853 290.594C348.099 284.103 371.836 268.635 385.827 246.239C395.355 230.969 399.995 214.149 401.295 196.85Z" fill="white"/>
<path d="M393.816 187.146C393.816 187.146 393.816 181.945 386.534 174.736C379.253 167.528 374.634 163.346 374.634 163.346C374.634 163.346 371.014 175.246 377.755 182.496C382.703 187.588 388.069 192.258 393.795 196.456L393.816 187.146Z" fill="#4C70FF"/>
<path d="M383.31 219.454C383.31 219.454 383.31 214.253 376.028 207.045C368.747 199.836 364.149 195.654 364.149 195.654C364.149 195.654 360.519 207.554 367.27 214.805C372.218 219.897 377.583 224.566 383.31 228.764V219.454Z" fill="#4C70FF"/>
<path d="M393.358 195.956C393.358 195.956 393.909 190.818 401.877 184.379C409.845 177.94 414.911 174.32 414.911 174.32C414.911 174.32 417.252 186.532 409.804 193.044C404.346 197.586 398.518 201.664 392.38 205.235L393.358 195.956Z" fill="#4C70FF"/>
<path d="M380.668 234.111C380.668 234.111 381.708 229.056 390.352 223.491C398.996 217.926 404.363 214.857 404.363 214.857C404.363 214.857 405.404 227.256 397.321 232.925C391.416 236.87 385.191 240.315 378.712 243.224L380.668 234.111Z" fill="#4C70FF"/>
<path d="M383.05 275.719C383.05 275.719 383.05 270.518 390.331 263.299C397.613 256.08 402.221 251.919 402.221 251.919C402.221 251.919 405.851 263.819 399.1 271.059C394.154 276.157 388.788 280.83 383.06 285.029L383.05 275.719Z" fill="#4C70FF"/>
<path d="M382.935 285.872C382.935 285.872 383.663 280.754 377.526 272.558C371.389 264.361 367.363 259.597 367.363 259.597C367.363 259.597 362.089 270.862 367.717 278.986C371.888 284.732 376.534 290.118 381.604 295.089L382.935 285.872Z" fill="#4C70FF"/>
<path d="M375.789 315.966C375.789 315.966 375.789 310.764 383.071 303.556C390.352 296.347 394.971 292.166 394.971 292.166C394.971 292.166 398.59 304.066 391.85 311.316C386.9 316.41 381.535 321.082 375.81 325.286L375.789 315.966Z" fill="#4C70FF"/>
<path d="M380.626 343.251C380.626 343.251 379.315 338.247 384.485 329.405C389.655 320.564 393.119 315.383 393.119 315.383C393.119 315.383 399.631 325.973 394.96 334.69C391.466 340.87 387.461 346.746 382.987 352.259L380.626 343.251Z" fill="#4C70FF"/>
<path d="M394.471 185.825C394.107 191.211 393.447 196.573 392.495 201.886C389.624 216.678 382.467 226.227 379.607 239.583C376.746 252.94 384.964 270.155 382.727 287.319C380.491 304.482 373.854 314.021 375.758 325.474C377.661 336.926 387.689 367.945 387.689 367.945" stroke="#263238" stroke-linecap="round" stroke-linejoin="round"/>
<path d="M393.296 199.4L401.097 193.408" stroke="#263238" stroke-linecap="round" stroke-linejoin="round"/>
<path d="M393.66 192.503L390.383 186.688" stroke="#263238" stroke-linecap="round" stroke-linejoin="round"/>
<path d="M380.043 238.969C380.043 238.969 386.576 234.069 393.296 229.17" stroke="#263238" stroke-linecap="round" stroke-linejoin="round"/>
<path d="M383.31 228.765C383.31 228.765 377.859 218.092 371.69 211.019" stroke="#263238" stroke-linecap="round" stroke-linejoin="round"/>
<path d="M383.31 283.085C387.036 276.198 391.746 269.89 397.29 264.361" stroke="#263238" stroke-linecap="round" stroke-linejoin="round"/>
<path d="M382.04 290.346C380.058 285.676 377.689 281.18 374.957 276.906C371.149 271.278 370.598 270.55 370.598 270.55" stroke="#263238" stroke-linecap="round" stroke-linejoin="round"/>
<path d="M375.789 325.473C377.448 321.373 379.416 317.405 381.677 313.604C383.939 310.071 386.489 306.731 389.301 303.618" stroke="#263238" stroke-linecap="round" stroke-linejoin="round"/>
<path d="M382.987 352.258C382.608 348.338 383.283 344.387 384.943 340.816C387.668 335.552 390.747 328.656 392.016 325.93" stroke="#263238" stroke-linecap="round" stroke-linejoin="round"/>
<path d="M334.711 256.268C334.711 256.268 334.149 253.023 337.904 247.686C341.66 242.35 344.146 239.261 344.146 239.261C344.146 239.261 347.703 246.334 344.271 251.598C341.721 255.331 338.864 258.845 335.73 262.104L334.711 256.268Z" fill="#4C70FF"/>
<path d="M344.812 275.387C344.812 275.387 344.25 272.142 348.005 266.806C351.76 261.469 354.246 258.38 354.246 258.38C354.246 258.38 357.804 265.453 354.371 270.727C351.82 274.456 348.963 277.967 345.831 281.223L344.812 275.387Z" fill="#4C70FF"/>
<path d="M335.949 261.74C335.949 261.74 335.054 258.619 329.354 255.405C323.654 252.191 320.096 250.505 320.096 250.505C320.096 250.505 319.95 258.421 325.297 261.688C329.212 263.941 333.307 265.865 337.54 267.44L335.949 261.74Z" fill="#4C70FF"/>
<path d="M348.057 284.291C348.057 284.291 346.83 281.233 340.838 278.674C334.846 276.115 331.102 274.784 331.102 274.784C331.102 274.784 331.788 282.668 337.488 285.352C341.619 287.182 345.895 288.665 350.273 289.784L348.057 284.291Z" fill="#4C70FF"/>
<path d="M351.074 310.64C351.074 310.64 350.522 307.395 345.186 303.64C339.85 299.885 336.49 297.794 336.49 297.794C336.49 297.794 335.512 305.647 340.515 309.454C344.17 312.116 348.043 314.465 352.093 316.476L351.074 310.64Z" fill="#4C70FF"/>
<path d="M352.259 316.996C352.259 316.996 351.219 313.876 354.205 308.05C357.19 302.225 359.166 298.824 359.166 298.824C359.166 298.824 363.691 305.315 361.049 311.025C359.059 315.08 356.731 318.96 354.09 322.624L352.259 316.996Z" fill="#4C70FF"/>
<path d="M361.351 343.156C361.351 343.156 361.725 339.89 366.833 335.875C371.94 331.859 375.154 329.54 375.154 329.54C375.154 329.54 376.579 337.331 371.805 341.419C368.308 344.28 364.578 346.845 360.654 349.085L361.351 343.156Z" fill="#4C70FF"/>
<path d="M359.988 335.084C359.988 335.084 359.427 331.839 354.101 328.084C348.775 324.329 345.425 322.238 345.425 322.238C345.425 322.238 344.448 330.091 349.451 333.909C353.109 336.566 356.981 338.915 361.029 340.93L359.988 335.084Z" fill="#4C70FF"/>
<path d="M359.988 352.727C359.988 352.727 360.258 349.44 356.056 344.457C351.854 339.475 349.128 336.604 349.128 336.604C349.128 336.604 346.184 343.948 350.064 348.909C352.908 352.404 356.04 355.654 359.426 358.625L359.988 352.727Z" fill="#4C70FF"/>
<path d="M334.16 255.498C334.974 258.838 335.97 262.13 337.145 265.359C340.547 274.326 346.07 279.538 349.316 287.599C352.561 295.661 349.316 307.363 352.519 317.88C355.723 328.396 361.028 333.66 361.028 341.045C361.028 348.431 358.157 368.975 358.157 368.975" stroke="#263238" stroke-linecap="round" stroke-linejoin="round"/>
<path d="M336.375 263.882L330.831 260.98" stroke="#263238" stroke-linecap="round" stroke-linejoin="round"/>
<path d="M335.397 259.597L336.812 255.602" stroke="#263238" stroke-linecap="round" stroke-linejoin="round"/>
<path d="M348.972 287.266C348.972 287.266 344.343 284.905 339.61 282.554" stroke="#263238" stroke-linecap="round" stroke-linejoin="round"/>
<path d="M345.82 281.223C347.185 276.937 348.98 272.8 351.177 268.876" stroke="#263238" stroke-linecap="round" stroke-linejoin="round"/>
<path d="M351.718 315.279C348.632 311.374 344.995 307.936 340.921 305.075" stroke="#263238" stroke-linecap="round" stroke-linejoin="round"/>
<path d="M353.3 319.69C354.04 316.551 355.039 313.479 356.285 310.505C358.064 306.563 358.366 306.043 358.366 306.043" stroke="#263238" stroke-linecap="round" stroke-linejoin="round"/>
<path d="M360.779 346.652C362.583 344.417 364.581 342.346 366.75 340.463C368.129 339.447 369.424 338.32 370.619 337.093" stroke="#263238" stroke-linecap="round" stroke-linejoin="round"/>
<path d="M361.029 341.044C359.543 338.647 357.877 336.366 356.046 334.22C354.243 332.252 352.281 330.436 350.179 328.791" stroke="#263238" stroke-linecap="round" stroke-linejoin="round"/>
<path d="M359.427 358.624C359.241 356.123 358.389 353.717 356.961 351.655C354.683 348.649 351.999 344.654 350.907 343.083" stroke="#263238" stroke-linecap="round" stroke-linejoin="round"/>
<path d="M39.2602 210.955L34.7041 197.942L39.2602 203.466L35.6819 183.941L41.2158 197.942L43.1714 170.595L46.4273 196.631L50.0056 191.43V197.942L54.2392 189.152L51.9612 204.443L55.862 201.843L49.6831 210.3L39.2602 210.955Z" fill="#4C70FF"/>
<path d="M53.5839 207.699H36.6597L39.7075 241.87H50.5361L53.5839 207.699Z" fill="#263238" stroke="#263238" stroke-linecap="round" stroke-linejoin="round"/>
<path d="M85.3312 241.485H27.6724V363.606H85.3312V241.485Z" fill="white" stroke="#263238" stroke-linecap="round" stroke-linejoin="round"/>
<path d="M88.483 241.485H56.4966V363.606H88.483V241.485Z" fill="white" stroke="#263238" stroke-linecap="round" stroke-linejoin="round"/>
<path d="M84.8839 241.485H56.4966V363.606H84.8839V241.485Z" fill="#263238" stroke="#263238" stroke-linecap="round" stroke-linejoin="round"/>
<path d="M81.6905 335.208H56.4966V360.214H81.6905V335.208Z" fill="#4C70FF" stroke="#263238" stroke-linecap="round" stroke-linejoin="round"/>
<path d="M81.6905 336.56H56.4966V339.764H81.6905V336.56Z" fill="white" stroke="#263238" stroke-linecap="round" stroke-linejoin="round"/>
<path d="M81.6905 354.972H56.4966V358.176H81.6905V354.972Z" fill="white" stroke="#263238" stroke-linecap="round" stroke-linejoin="round"/>
<path d="M61.271 335.728V367.351" stroke="#263238" stroke-linecap="round" stroke-linejoin="round"/>
<path d="M70.061 335.728V367.351" stroke="#263238" stroke-linecap="round" stroke-linejoin="round"/>
<path d="M77.7793 335.728V367.351" stroke="#263238" stroke-linecap="round" stroke-linejoin="round"/>
<path d="M81.6905 246.021H56.4966V282.792H81.6905V246.021Z" fill="#4C70FF" stroke="#263238" stroke-linecap="round" stroke-linejoin="round"/>
<path d="M81.6905 247.561H56.4966V251.202H81.6905V247.561Z" fill="white" stroke="#263238" stroke-linecap="round" stroke-linejoin="round"/>
<path d="M81.6905 271.131H56.4966V274.772H81.6905V271.131Z" fill="white" stroke="#263238" stroke-linecap="round" stroke-linejoin="round"/>
<path d="M61.271 246.603V282.542" stroke="#263238" stroke-linecap="round" stroke-linejoin="round"/>
<path d="M70.061 246.603V282.542" stroke="#263238" stroke-linecap="round" stroke-linejoin="round"/>
<path d="M77.7793 246.603V282.542" stroke="#263238" stroke-linecap="round" stroke-linejoin="round"/>
<path d="M81.6905 290.333H56.4966V327.105H81.6905V290.333Z" fill="#4C70FF" stroke="#263238" stroke-linecap="round" stroke-linejoin="round"/>
<path d="M81.6905 291.873H56.4966V295.514H81.6905V291.873Z" fill="white" stroke="#263238" stroke-linecap="round" stroke-linejoin="round"/>
<path d="M81.6905 315.445H56.4966V319.085H81.6905V315.445Z" fill="white" stroke="#263238" stroke-linecap="round" stroke-linejoin="round"/>
<path d="M61.271 290.926V326.855" stroke="#263238" stroke-linecap="round" stroke-linejoin="round"/>
<path d="M70.061 290.926V326.855" stroke="#263238" stroke-linecap="round" stroke-linejoin="round"/>
<path d="M77.7793 290.926V326.855" stroke="#263238" stroke-linecap="round" stroke-linejoin="round"/>
<path d="M85.3208 282.282H56.4966V286.464H85.3208V282.282Z" fill="white" stroke="#263238" stroke-linecap="round" stroke-linejoin="round"/>
<path d="M85.3208 326.876H56.4966V331.057H85.3208V326.876Z" fill="white" stroke="#263238" stroke-linecap="round" stroke-linejoin="round"/>
<path d="M85.3208 241.485V363.595" stroke="#263238" stroke-linecap="round" stroke-linejoin="round"/>
<path d="M52.4292 241.485V363.595H56.4964V246.02H84.8213V241.433L52.4292 241.485Z" fill="white" stroke="#263238" stroke-linecap="round" stroke-linejoin="round"/>
<path d="M56.4966 246.021V241.485" stroke="#263238" stroke-linecap="round" stroke-linejoin="round"/>
<path d="M85.1022 185.387C82.0752 179.551 80.8062 175.37 80.8062 174.402C80.8062 172.488 84.967 171.344 84.967 171.344C91.4579 167.911 121.988 172.873 135.729 175.161C143.421 176.502 151.203 177.267 159.009 177.45C159.009 177.45 160.913 175.931 163.17 174.017C165.427 172.103 176.141 159.517 180.344 158.414C184.546 157.311 188.353 159.943 188.353 159.943C188.353 159.943 195.229 164.104 194.075 164.905C192.92 165.706 176.141 180.165 171.939 182.838C167.737 185.512 158.968 184.367 151.332 185.896C144.758 187.207 118.129 188.83 112.023 189.329C107.437 190.417 102.624 190.016 98.2817 188.185" fill="white"/>
<path d="M188.426 159.903C188.426 159.903 184.609 157.229 180.417 158.373C176.225 159.518 165.531 172.115 163.243 173.977C160.954 175.839 159.082 177.409 159.082 177.409C151.276 177.227 143.494 176.462 135.802 175.121C122.061 172.832 91.5307 167.839 85.0397 171.303C85.0397 171.303 80.8789 172.447 80.8789 174.361C81.0234 175.431 81.2995 176.48 81.7007 177.482L82.2728 177.69C82.2728 177.69 89.8975 176.889 106.354 177.284C122.81 177.68 160.871 179.937 163.316 180.821C164.356 181.216 171.731 179.552 179.907 176.66C186.148 171.574 193.482 165.218 194.22 164.771C195.302 164.095 188.426 159.903 188.426 159.903Z" fill="#4C70FF"/>
<path opacity="0.5" d="M188.426 159.903C188.426 159.903 184.609 157.229 180.417 158.373C176.225 159.518 165.531 172.115 163.243 173.977C160.954 175.839 159.082 177.409 159.082 177.409C151.276 177.227 143.494 176.462 135.802 175.121C122.061 172.832 91.5307 167.839 85.0397 171.303C85.0397 171.303 80.8789 172.447 80.8789 174.361C81.0234 175.431 81.2995 176.48 81.7007 177.482L82.2728 177.69C82.2728 177.69 89.8975 176.889 106.354 177.284C122.81 177.68 160.871 179.937 163.316 180.821C164.356 181.216 171.731 179.552 179.907 176.66C186.148 171.574 193.482 165.218 194.22 164.771C195.302 164.095 188.426 159.903 188.426 159.903Z" fill="white"/>
<path d="M85.1022 185.387C82.0752 179.551 80.8062 175.37 80.8062 174.402C80.8062 172.488 84.967 171.344 84.967 171.344C91.4579 167.911 121.988 172.873 135.729 175.161C143.421 176.502 151.203 177.267 159.009 177.45C159.009 177.45 160.913 175.931 163.17 174.017C165.427 172.103 176.141 159.517 180.344 158.414C184.546 157.311 188.353 159.943 188.353 159.943C188.353 159.943 195.229 164.104 194.075 164.905C192.92 165.706 176.141 180.165 171.939 182.838C167.737 185.512 158.968 184.367 151.332 185.896C144.758 187.207 118.129 188.83 112.023 189.329C107.437 190.417 102.624 190.016 98.2817 188.185" stroke="#263238" stroke-linecap="round" stroke-linejoin="round"/>
<path d="M235.839 219.319C236.53 218.009 237.565 216.912 238.834 216.147C240.103 215.383 241.556 214.98 243.038 214.982H312.419C312.419 214.982 317.433 214.982 315.935 224.51C314.437 234.038 293.862 292.217 288.89 309.807C283.918 327.397 282.867 364.47 282.867 364.47H199.65C199.65 364.47 206.245 275.813 235.839 219.319Z" fill="white"/>
<path opacity="0.16" d="M267.087 214.982H243.038C241.556 214.98 240.103 215.383 238.834 216.147C237.565 216.912 236.53 218.009 235.839 219.319C206.245 275.813 199.578 364.439 199.578 364.439H236.9L246.106 329.477L284.49 337.393C284.76 334.46 285.072 331.475 285.437 328.531L284.594 319.169C284.594 319.169 276.73 310.899 274.254 308.829C271.779 306.759 273.422 303.025 273.006 286.891C272.59 270.758 258.11 259.159 252.722 249.225C247.334 239.291 255.624 233.081 263.072 223.147C265.725 219.559 266.806 216.916 267.087 214.982Z" fill="black"/>
<path d="M235.839 219.319C236.53 218.009 237.565 216.912 238.834 216.147C240.103 215.383 241.556 214.98 243.038 214.982H312.419C312.419 214.982 317.433 214.982 315.935 224.51C314.437 234.038 293.862 292.217 288.89 309.807C283.918 327.397 282.867 364.47 282.867 364.47H199.65C199.65 364.47 206.245 275.813 235.839 219.319Z" stroke="#263238" stroke-linecap="round" stroke-linejoin="round"/>
<path d="M300.384 231.531C293.373 247.893 278.54 312.667 276.126 364.438H282.825C282.825 364.438 283.866 327.323 288.848 309.775C293.831 292.227 314.427 234.037 315.894 224.478C317.36 214.918 312.378 214.95 312.378 214.95C312.378 214.95 306.012 218.413 300.384 231.531Z" fill="#263238" stroke="#263238" stroke-linecap="round" stroke-linejoin="round"/>
<path d="M178.503 198.827C178.503 198.827 167.435 192.336 163.243 180.893C159.051 169.451 196.062 151.123 212.133 149.978C228.204 148.834 232.74 153.026 242.299 169.441C251.859 185.855 258.329 208.365 253.367 219.433C248.405 230.501 240.011 233.174 246.085 242.318C252.16 251.461 269.365 277.425 268.221 289.637C267.077 301.849 255.25 312.522 238.055 313.687C220.86 314.852 197.976 304.522 178.898 287.681C159.821 270.84 164.772 246.073 171.617 238.063C178.461 230.054 188.791 226.996 189.55 218.986C190.309 210.976 178.503 198.827 178.503 198.827Z" fill="#263238" stroke="#263238" stroke-linecap="round" stroke-linejoin="round"/>
<path d="M225.676 180.717C231.553 191.66 238.908 206.317 241.207 215.169C245.222 230.668 224.563 240.425 230.295 247.883" stroke="white" stroke-linecap="round" stroke-linejoin="round"/>
<path d="M217.667 166.383C217.667 166.383 219.955 170.283 223.117 176.025" stroke="white" stroke-linecap="round" stroke-linejoin="round"/>
<path d="M248.499 193.917C249.176 195.968 249.616 198.09 249.809 200.242" stroke="white" stroke-linecap="round" stroke-linejoin="round"/>
<path d="M221.64 160.692C221.64 160.692 239.719 174.049 246.938 190.037" stroke="white" stroke-linecap="round" stroke-linejoin="round"/>
<path d="M196.55 170.71C183.641 174.33 165.074 180.207 166.582 183.598" stroke="white" stroke-linecap="round" stroke-linejoin="round"/>
<path d="M208.482 167.527C208.482 167.527 205.725 168.213 201.616 169.316" stroke="white" stroke-linecap="round" stroke-linejoin="round"/>
<path d="M192.514 160.787C199.909 158.456 207.653 157.435 215.399 157.77" stroke="white" stroke-linecap="round" stroke-linejoin="round"/>
<path d="M187.251 162.939C188.42 162.33 189.63 161.802 190.871 161.358" stroke="white" stroke-linecap="round" stroke-linejoin="round"/>
<path d="M80.8063 174.402C80.8016 174.475 80.8016 174.548 80.8063 174.621C80.8016 174.548 80.8016 174.475 80.8063 174.402ZM85.1024 185.387C83.3504 182.179 81.9551 178.788 80.9415 175.276C81.9502 178.79 83.3457 182.181 85.1024 185.387ZM80.8271 174.683C80.8271 174.746 80.8271 174.818 80.8271 174.912C80.8479 174.818 80.8375 174.746 80.8271 174.683ZM80.8791 174.974C80.8919 175.077 80.9128 175.177 80.9415 175.276C80.9128 175.177 80.8919 175.077 80.8791 174.974ZM85.1024 185.377C88.9927 192.745 93.8328 199.572 99.4989 205.681C113.24 220.567 152.934 259.502 156.71 262.175C160.486 264.849 159.384 272.473 156.71 280.109C154.037 287.744 144.113 298.832 144.498 311.024C144.883 323.215 148.659 341.939 148.316 345.756C147.973 349.574 138.424 362.556 138.424 362.556H236.89C236.89 362.556 224.615 346.952 224.615 341.616C224.615 336.28 241.467 267.907 242.226 262.945C242.985 257.983 239.938 254.551 233.832 254.166C227.726 253.781 204.446 248.819 203.301 245.001C202.157 241.184 209.407 226.683 209.407 226.683L186.523 227.828C186.523 227.828 185.379 237.751 183.849 239.665C182.32 241.579 180.032 237.751 174.685 235.088C169.339 232.425 159.082 230.126 155.223 227.068C151.364 224.01 114.769 189.621 114.769 189.621" fill="white"/>
<path d="M161.069 230.01C162.972 233.339 164.876 236.345 164.876 236.345C164.876 236.345 171.294 239.955 172.896 239.955C174.498 239.955 184.13 245.156 184.13 245.156C184.13 245.156 192.161 243.148 189.331 236.324C188.439 234.577 187.312 232.961 185.982 231.519C185.503 234.546 184.734 238.509 183.829 239.643C182.299 241.546 180.011 237.729 174.664 235.066C171.2 233.339 165.594 231.758 161.069 230.01Z" fill="#4C70FF"/>
<path d="M141.471 214.564C129.686 203.653 114.769 189.662 114.769 189.662L106.094 188.414L105.054 188.996C105.054 188.996 129.54 210.664 134.752 213.077C136.86 214.046 139.151 214.553 141.471 214.564Z" fill="#4C70FF"/>
<path d="M153.819 225.86L152.883 225.028C153.361 225.818 153.632 226.317 153.632 226.317L153.819 225.86Z" fill="#4C70FF"/>
<g opacity="0.5">
<path opacity="0.5" d="M161.069 230.01C162.972 233.339 164.876 236.345 164.876 236.345C164.876 236.345 171.294 239.955 172.896 239.955C174.498 239.955 184.13 245.156 184.13 245.156C184.13 245.156 192.161 243.148 189.331 236.324C188.439 234.577 187.312 232.961 185.982 231.519C185.503 234.546 184.734 238.509 183.829 239.643C182.299 241.546 180.011 237.729 174.664 235.066C171.2 233.339 165.594 231.758 161.069 230.01Z" fill="white"/>
<path opacity="0.5" d="M141.471 214.564C129.686 203.653 114.769 189.662 114.769 189.662L106.094 188.414L105.054 188.996C105.054 188.996 129.54 210.664 134.752 213.077C136.86 214.046 139.151 214.553 141.471 214.564Z" fill="white"/>
<path opacity="0.5" d="M153.819 225.86L152.883 225.028C153.361 225.818 153.632 226.317 153.632 226.317L153.819 225.86Z" fill="white"/>
</g>
<path d="M85.1024 185.377C88.9927 192.745 93.8328 199.572 99.4989 205.681C113.24 220.567 152.934 259.502 156.71 262.175C160.486 264.849 159.384 272.473 156.71 280.109C154.037 287.744 144.113 298.832 144.498 311.024C144.883 323.215 148.659 341.939 148.316 345.756C147.973 349.574 138.424 362.556 138.424 362.556H236.89C236.89 362.556 224.615 346.952 224.615 341.616C224.615 336.28 241.467 267.907 242.226 262.945C242.985 257.983 239.938 254.551 233.832 254.166C227.726 253.781 204.446 248.819 203.301 245.001C202.157 241.184 209.407 226.683 209.407 226.683L186.523 227.828C186.523 227.828 185.379 237.751 183.849 239.665C182.32 241.579 180.032 237.751 174.685 235.088C169.339 232.425 159.082 230.126 155.223 227.068C151.364 224.01 114.769 189.621 114.769 189.621M80.8063 174.402C80.8016 174.475 80.8016 174.548 80.8063 174.621C80.8016 174.548 80.8016 174.475 80.8063 174.402V174.402ZM85.1024 185.387C83.3504 182.179 81.9551 178.788 80.9415 175.276C81.9502 178.79 83.3457 182.181 85.1024 185.387V185.387ZM80.8271 174.683C80.8271 174.746 80.8271 174.818 80.8271 174.912C80.8479 174.818 80.8375 174.746 80.8271 174.683V174.683ZM80.8791 174.974C80.8919 175.077 80.9128 175.177 80.9415 175.276C80.9128 175.177 80.8919 175.077 80.8791 174.974Z" stroke="#263238" stroke-linecap="round" stroke-linejoin="round"/>
<path d="M114.769 189.663C114.769 189.663 102.578 189.892 95.7749 184.285" stroke="#263238" stroke-linecap="round" stroke-linejoin="round"/>
<path d="M203.312 245.002C202.168 241.195 209.418 226.684 209.418 226.684L186.533 227.828C186.533 227.828 185.389 237.752 183.86 239.666C182.331 241.58 180.042 237.752 174.696 235.089C174.29 234.881 173.843 234.683 173.385 234.485L172.001 256.236C172.001 256.236 174.009 277.3 198.08 273.296C207.826 271.673 218.228 262.977 227.205 253.199C217.968 251.503 204.186 247.925 203.312 245.002Z" fill="white"/>
<path d="M202.667 229.565C202.667 229.565 201.283 237.325 200.17 245.907C199.057 254.489 198.235 260.876 198.235 260.876L203.312 245.002L209.033 228.182C209.033 228.182 203.499 228.182 202.667 229.565Z" fill="#4C70FF"/>
<path opacity="0.5" d="M202.667 229.565C202.667 229.565 201.283 237.325 200.17 245.907C199.057 254.489 198.235 260.876 198.235 260.876L203.312 245.002L209.033 228.182C209.033 228.182 203.499 228.182 202.667 229.565Z" fill="white"/>
<path d="M203.312 245.002C202.168 241.195 209.418 226.684 209.418 226.684L186.533 227.828C186.533 227.828 185.389 237.752 183.86 239.666C182.331 241.58 180.042 237.752 174.696 235.089C174.29 234.881 173.843 234.683 173.385 234.485L172.001 256.236C172.001 256.236 174.009 277.3 198.08 273.296C207.826 271.673 218.228 262.977 227.205 253.199C217.968 251.503 204.186 247.925 203.312 245.002Z" stroke="#263238" stroke-linecap="round" stroke-linejoin="round"/>
<path d="M183.85 239.666C182.321 241.569 180.032 237.752 174.685 235.089C171.315 233.393 165.948 231.854 161.506 230.189C160.247 227.204 158.583 223.314 157.512 220.963C155.608 216.802 152.55 219.434 152.55 219.434C150.954 217.619 149.665 215.557 148.732 213.328C146.829 209.167 143.77 209.51 139.578 208.751C135.386 207.991 126.597 199.971 126.597 199.971C126.597 199.971 122.488 196.851 120.792 195.301C118.816 199.191 114.083 206.036 103.847 210.311C120.168 227.36 153.278 259.752 156.752 262.186C160.57 264.849 159.426 272.484 156.752 280.119C154.079 287.754 144.155 298.843 144.54 311.034C144.925 323.226 148.701 341.949 148.358 345.767C148.014 349.168 140.4 359.831 138.746 362.119L142.626 362.556H162.827C162.713 352.32 162.723 310.545 169.724 293.902C177.744 274.773 183.85 239.666 183.85 239.666Z" fill="#4C70FF"/>
<path opacity="0.16" d="M174.685 235.089C171.315 233.393 165.947 231.854 161.506 230.189C160.247 227.204 158.583 223.313 157.511 220.963C155.608 216.802 152.549 219.434 152.549 219.434C150.954 217.619 149.665 215.557 148.732 213.327C146.828 209.167 143.77 209.51 139.578 208.751C135.386 207.991 126.596 199.971 126.596 199.971C126.596 199.971 122.487 196.851 120.792 195.301C119.946 196.953 118.939 198.517 117.786 199.971C124.609 205.744 132.141 211.861 134.772 213.078C139.973 215.481 141.19 213.473 145.174 215.886C149.158 218.3 153.6 226.288 153.6 226.288C153.6 226.288 156.013 219.86 158.021 224.281C160.029 228.702 164.845 236.316 164.845 236.316C164.845 236.316 171.263 239.926 172.865 239.926C174.123 239.926 180.292 243.129 182.913 244.513C183.496 241.465 183.818 239.634 183.818 239.634C182.32 241.569 180.032 237.752 174.685 235.089Z" fill="black"/>
<path d="M183.85 239.666C182.321 241.569 180.032 237.752 174.685 235.089C171.315 233.393 165.948 231.854 161.506 230.189C160.247 227.204 158.583 223.314 157.512 220.963C155.608 216.802 152.55 219.434 152.55 219.434C150.954 217.619 149.665 215.557 148.732 213.328C146.829 209.167 143.77 209.51 139.578 208.751C135.386 207.991 126.597 199.971 126.597 199.971C126.597 199.971 122.488 196.851 120.792 195.301C118.816 199.191 114.083 206.036 103.847 210.311C120.168 227.36 153.278 259.752 156.752 262.186C160.57 264.849 159.426 272.484 156.752 280.119C154.079 287.754 144.155 298.843 144.54 311.034C144.925 323.226 148.701 341.949 148.358 345.767C148.014 349.168 140.4 359.831 138.746 362.119L142.626 362.556H162.827C162.713 352.32 162.723 310.545 169.724 293.902C177.744 274.773 183.85 239.666 183.85 239.666Z" stroke="#263238" stroke-linecap="round" stroke-linejoin="round"/>
<path d="M184.12 238.334C184.12 238.334 179.377 236.878 176.454 239.437C173.531 241.995 169.172 255.123 166.603 269.363C165.019 277.653 166.112 286.232 169.724 293.86C169.724 293.86 175.726 278.122 177.546 270.456C179.366 262.789 184.12 238.334 184.12 238.334Z" fill="#4C70FF"/>
<path opacity="0.16" d="M175.018 240.654C175.018 240.654 178.451 239.822 179.865 240.3C181.057 240.811 182.17 241.487 183.173 242.308L184.12 238.334C182.7 237.609 181.089 237.343 179.512 237.575C177.151 238.053 175.018 240.654 175.018 240.654Z" fill="black"/>
<path d="M184.12 238.334C184.12 238.334 179.377 236.878 176.454 239.437C173.531 241.995 169.172 255.123 166.603 269.363C165.019 277.653 166.112 286.232 169.723 293.86C169.723 293.86 175.726 278.122 177.546 270.456C179.366 262.789 184.12 238.334 184.12 238.334Z" stroke="#263238" stroke-linecap="round" stroke-linejoin="round"/>
<path d="M152.175 239.582L158.281 264.391L144.54 233.092" stroke="#263238" stroke-linecap="round" stroke-linejoin="round"/>
<path d="M192.4 362.555H236.9C236.9 362.555 224.625 346.952 224.625 341.616C224.625 336.28 241.477 267.907 242.236 262.945C242.996 257.983 239.948 254.55 233.842 254.166C227.736 253.781 204.456 248.819 203.312 245.001C203.312 245.001 194.532 275.916 191.484 296.908C188.863 314.914 191.578 352.278 192.4 362.555Z" fill="#4C70FF"/>
<path opacity="0.16" d="M233.842 254.165C228.838 253.853 212.31 250.462 205.871 247.154L208.211 252.563C212.452 254.813 217.012 256.399 221.734 257.265C229.483 258.649 236.692 258.378 241.404 265.306L241.633 265.649C241.924 264.318 242.122 263.382 242.184 262.945C243.006 257.983 239.948 254.55 233.842 254.165Z" fill="black"/>
<path d="M192.4 362.555H236.9C236.9 362.555 224.625 346.952 224.625 341.616C224.625 336.28 241.477 267.907 242.236 262.945C242.996 257.983 239.948 254.55 233.842 254.166C227.736 253.781 204.456 248.819 203.312 245.001C203.312 245.001 194.532 275.916 191.484 296.908C188.863 314.914 191.578 352.278 192.4 362.555Z" stroke="#263238" stroke-linecap="round" stroke-linejoin="round"/>
<path d="M203.312 245.001C203.312 245.001 191.536 282.449 191.484 296.908C191.484 296.908 208.211 276.655 210.395 262.425C212.58 248.195 203.312 245.001 203.312 245.001Z" fill="#4C70FF"/>
<path opacity="0.16" d="M201.283 249.786C203.053 249.727 204.81 250.099 206.403 250.872C207.996 251.644 209.377 252.792 210.427 254.218C210.427 254.218 208.117 247.425 203.312 245.001L201.283 249.786Z" fill="black"/>
<path d="M203.312 245.001C203.312 245.001 191.536 282.449 191.484 296.908C191.484 296.908 208.211 276.655 210.395 262.425C212.58 248.195 203.312 245.001 203.312 245.001Z" stroke="#263238" stroke-linecap="round" stroke-linejoin="round"/>
<path d="M329.021 355.513C329.021 355.513 337.645 355.867 343.293 356.678C347.06 357.189 350.852 357.491 354.652 357.583C354.652 357.583 351.531 351.279 348.203 349.501C344.874 347.722 338.841 344.539 333.785 345.246C328.73 345.954 321.5 351.051 322.104 352.673C322.707 354.296 325.401 355.024 329.021 355.513Z" fill="white"/>
<path d="M329.021 355.513C329.021 355.513 337.645 355.867 343.293 356.678C347.06 357.189 350.852 357.491 354.652 357.583C354.652 357.583 351.531 351.279 348.203 349.501C344.874 347.722 338.841 344.539 333.785 345.246C328.73 345.954 321.5 351.051 322.104 352.673C322.707 354.296 325.401 355.024 329.021 355.513Z" fill="#4C70FF"/>
<path opacity="0.5" d="M329.021 355.513C329.021 355.513 337.645 355.867 343.293 356.678C347.06 357.189 350.852 357.491 354.652 357.583C354.652 357.583 351.531 351.279 348.203 349.501C344.874 347.722 338.841 344.539 333.785 345.246C328.73 345.954 321.5 351.051 322.104 352.673C322.707 354.296 325.401 355.024 329.021 355.513Z" fill="white"/>
<path d="M329.021 355.513C329.021 355.513 337.645 355.867 343.293 356.678C347.06 357.189 350.852 357.491 354.652 357.583C354.652 357.583 351.531 351.279 348.203 349.501C344.874 347.722 338.841 344.539 333.785 345.246C328.73 345.954 321.5 351.051 322.104 352.673C322.707 354.296 325.401 355.024 329.021 355.513Z" stroke="#263238" stroke-linecap="round" stroke-linejoin="round"/>
<path d="M343.345 352.934C343.345 352.934 350.179 349.387 351.885 349.439C353.591 349.491 364.929 357.157 364.367 358.385C363.986 358.954 363.435 359.389 362.793 359.628C362.151 359.867 361.45 359.897 360.789 359.716C359.53 359.123 351.895 355.878 351.895 355.878L346.902 357.053L343.345 352.934Z" fill="white"/>
<path d="M343.345 352.934C343.345 352.934 350.179 349.387 351.885 349.439C353.591 349.491 364.929 357.157 364.367 358.385C363.806 359.612 361.122 360.611 360.789 359.716C360.456 358.821 351.895 355.878 351.895 355.878L346.902 357.053L343.345 352.934Z" fill="#4C70FF"/>
<path opacity="0.5" d="M343.345 352.934C343.345 352.934 350.179 349.387 351.885 349.439C353.591 349.491 364.929 357.157 364.367 358.385C363.806 359.612 361.122 360.611 360.789 359.716C360.456 358.821 351.895 355.878 351.895 355.878L346.902 357.053L343.345 352.934Z" fill="white"/>
<path d="M343.345 352.934C343.345 352.934 350.179 349.387 351.885 349.439C353.591 349.491 364.929 357.157 364.367 358.385C363.986 358.954 363.435 359.389 362.793 359.628C362.151 359.867 361.45 359.897 360.789 359.716C359.53 359.123 351.895 355.878 351.895 355.878L346.902 357.053L343.345 352.934Z" stroke="#263238" stroke-linecap="round" stroke-linejoin="round"/>
<path d="M338.466 347.098C338.466 347.098 347.579 346.807 349.389 347.722C351.198 348.638 359.375 362.66 358.147 363.679C356.92 364.699 353.529 364.397 353.633 363.263C353.737 362.129 346.101 354.619 346.101 354.619L340.162 353.319L338.466 347.098Z" fill="white"/>
<path d="M338.466 347.098C338.466 347.098 347.579 346.807 349.389 347.722C351.198 348.638 359.375 362.66 358.147 363.679C356.92 364.699 353.529 364.397 353.633 363.263C353.737 362.129 346.101 354.619 346.101 354.619L340.162 353.319L338.466 347.098Z" fill="#4C70FF"/>
<path opacity="0.5" d="M338.466 347.098C338.466 347.098 347.579 346.807 349.389 347.722C351.198 348.638 359.375 362.66 358.147 363.679C356.92 364.699 353.529 364.397 353.633 363.263C353.737 362.129 346.101 354.619 346.101 354.619L340.162 353.319L338.466 347.098Z" fill="white"/>
<path d="M338.466 347.098C338.466 347.098 347.579 346.807 349.389 347.722C351.198 348.638 359.375 362.66 358.147 363.679C356.92 364.699 353.529 364.397 353.633 363.263C353.737 362.129 346.101 354.619 346.101 354.619L340.162 353.319L338.466 347.098Z" stroke="#263238" stroke-linecap="round" stroke-linejoin="round"/>
<path d="M333.067 345.215C333.067 345.215 342.294 344.914 344.125 345.85C345.956 346.786 354.236 360.964 352.987 362.004C351.739 363.045 348.327 362.722 348.431 361.578C348.535 360.434 340.807 352.83 340.807 352.83L334.794 351.509L333.067 345.215Z" fill="white"/>
<path d="M333.067 345.215C333.067 345.215 342.294 344.914 344.125 345.85C345.956 346.786 354.236 360.964 352.987 362.004C351.739 363.045 348.327 362.722 348.431 361.578C348.535 360.434 340.807 352.83 340.807 352.83L334.794 351.509L333.067 345.215Z" fill="#4C70FF"/>
<path opacity="0.5" d="M333.067 345.215C333.067 345.215 342.294 344.914 344.125 345.85C345.956 346.786 354.236 360.964 352.987 362.004C351.739 363.045 348.327 362.722 348.431 361.578C348.535 360.434 340.807 352.83 340.807 352.83L334.794 351.509L333.067 345.215Z" fill="white"/>
<path d="M333.067 345.215C333.067 345.215 342.294 344.914 344.125 345.85C345.956 346.786 354.236 360.964 352.987 362.004C351.739 363.045 348.327 362.722 348.431 361.578C348.535 360.434 340.807 352.83 340.807 352.83L334.794 351.509L333.067 345.215Z" stroke="#263238" stroke-linecap="round" stroke-linejoin="round"/>
<path d="M228.162 292.352C234.841 302.64 248.249 328.708 252.16 331.641C258.266 336.218 299.084 347.327 303.016 350.365C306.948 353.402 306.677 356.45 310.401 357.563C314.125 358.676 328.085 361.87 333.411 362.369C338.737 362.868 336.355 359.571 336.355 359.571L327.274 353.329L335.19 351.374C335.19 351.374 343.126 360.923 344.614 361.443C346.101 361.963 348.723 361.443 348.556 360.268C348.265 358.385 339.798 342.979 336.792 342.324C333.785 341.669 315.54 344.196 315.54 344.196C315.54 344.196 277.271 318.389 276.584 317.473C276.584 317.473 274.296 310.983 272.423 308.309C270.551 305.636 269.365 306.406 269.365 306.406C269.365 306.406 270.135 302.963 268.991 301.818L262.885 295.712L262.666 296.004C261.626 293.923 260.586 291.551 259.442 288.847C256.248 281.326 244.941 260.22 243.037 257.173C241.612 254.895 229.671 253.261 223.617 252.575" fill="#4C70FF"/>
<path opacity="0.16" d="M254.75 293.008C259.743 297.439 258.079 297.439 256.966 301.329C255.853 305.22 257.798 299.946 262.51 300.227C267.222 300.507 265.839 306.593 265.277 307.706C264.715 308.819 271.102 310.202 269.989 312.688C268.876 315.174 262.51 318.784 258.911 322.394C255.312 326.003 268.325 316.568 272.756 316.298C274.109 316.204 275.222 316.381 276.158 316.36C275.176 313.577 273.914 310.9 272.392 308.371C270.478 305.698 269.334 306.468 269.334 306.468C269.334 306.468 270.104 303.025 268.959 301.881L262.853 295.775L262.635 296.066C261.595 293.985 260.555 291.614 259.41 288.909C256.217 281.388 244.91 260.283 243.006 257.235C241.581 254.957 229.639 253.324 223.585 252.637L224.137 257.453L224.272 257.557C224.272 257.557 231.751 258.941 234.248 259.221C236.744 259.502 239.792 261.708 239.511 263.382C239.23 265.057 232.032 272.526 234.248 273.087C236.463 273.649 238.96 267.543 241.456 268.375C243.953 269.208 249.726 288.576 254.75 293.008Z" fill="black"/>
<path d="M228.162 292.352C234.841 302.64 248.249 328.708 252.16 331.641C258.266 336.218 299.084 347.327 303.016 350.365C306.948 353.402 306.677 356.45 310.401 357.563C314.125 358.676 328.085 361.87 333.411 362.369C338.737 362.868 336.355 359.571 336.355 359.571L327.274 353.329L335.19 351.374C335.19 351.374 343.126 360.923 344.614 361.443C346.101 361.963 348.723 361.443 348.556 360.268C348.265 358.385 339.798 342.979 336.792 342.324C333.785 341.669 315.54 344.196 315.54 344.196C315.54 344.196 277.271 318.389 276.584 317.473C276.584 317.473 274.296 310.983 272.423 308.309C270.551 305.636 269.365 306.406 269.365 306.406C269.365 306.406 270.135 302.963 268.991 301.818L262.885 295.712L262.666 296.004C261.626 293.923 260.586 291.551 259.442 288.847C256.248 281.326 244.941 260.22 243.037 257.173C241.612 254.895 229.671 253.261 223.617 252.575" stroke="#263238" stroke-linecap="round" stroke-linejoin="round"/>
<path d="M228.266 278.236C227.986 279.173 227.746 280.109 227.559 281.066" stroke="#263238" stroke-linecap="round" stroke-linejoin="round"/>
<path d="M238.377 261.021C235.108 264.747 232.352 268.892 230.18 273.347" stroke="#263238" stroke-linecap="round" stroke-linejoin="round"/>
<path d="M253.658 320.084C256.467 315.923 260.94 310.649 265.87 309.141" stroke="#263238" stroke-linecap="round" stroke-linejoin="round"/>
<path d="M250.548 325.201C250.548 325.201 251.047 324.223 251.942 322.746" stroke="#263238" stroke-linecap="round" stroke-linejoin="round"/>
<path d="M250.548 318.628C250.548 318.628 255.655 305.854 260.763 302.567C265.87 299.28 262.947 305.854 262.947 305.854" stroke="#263238" stroke-linecap="round" stroke-linejoin="round"/>
<path d="M303.016 350.375C306.958 353.422 306.678 356.46 310.402 357.573C314.125 358.686 328.085 361.879 333.411 362.379C338.737 362.878 336.355 359.581 336.355 359.581L327.274 353.339L335.19 351.384C335.19 351.384 343.127 360.933 344.614 361.453C346.102 361.973 348.931 362.16 348.556 360.277C347.828 356.637 339.798 342.989 336.792 342.334C333.785 341.679 315.54 344.206 315.54 344.206C315.54 344.206 280.683 320.281 276.865 317.691C262.063 319.116 255.021 326.866 252.056 331.516L252.16 331.599C258.266 336.217 299.084 347.327 303.016 350.375Z" fill="white"/>
<path d="M348.546 360.319C346.653 355.69 339.787 343.031 336.781 342.375C333.775 341.72 315.529 344.248 315.529 344.248C315.529 344.248 280.672 320.323 276.854 317.733C272.969 318.071 269.157 318.993 265.547 320.469C271.05 323.589 307.728 344.393 312.357 345.319C317.267 346.359 333.65 343.665 336.531 345.6C338.362 346.827 343.813 355.472 347.495 361.609C348.546 361.453 348.931 361.255 348.546 360.319Z" fill="#4C70FF"/>
<path opacity="0.5" d="M348.546 360.319C345.592 353.693 339.787 343.031 336.781 342.375C333.775 341.72 315.529 344.248 315.529 344.248C315.529 344.248 280.672 320.323 276.854 317.733C272.969 318.071 269.157 318.993 265.547 320.469C271.05 323.589 307.728 344.393 312.357 345.319C317.267 346.359 333.65 343.665 336.531 345.6C338.362 346.827 343.813 355.472 347.495 361.609C348.546 361.453 348.962 361.245 348.546 360.319Z" fill="white"/>
<path d="M303.016 350.375C306.958 353.422 306.678 356.46 310.402 357.573C314.125 358.686 328.085 361.879 333.411 362.379C338.737 362.878 336.355 359.581 336.355 359.581L327.274 353.339L335.19 351.384C335.19 351.384 343.127 360.933 344.614 361.453C346.102 361.973 348.931 362.16 348.556 360.277C347.828 356.637 339.798 342.989 336.792 342.334C333.785 341.679 315.54 344.206 315.54 344.206C315.54 344.206 280.683 320.281 276.865 317.691C262.063 319.116 255.021 326.866 252.056 331.516L252.16 331.599C258.266 336.217 299.084 347.327 303.016 350.375Z" stroke="#263238" stroke-linecap="round" stroke-linejoin="round"/>
<path d="M211.082 168.734L179.751 181.809C179.371 187.315 178.008 192.709 175.726 197.735C172.022 205.567 174.186 220.39 177.744 228.39C181.301 236.389 196.977 233.258 202.709 232.259C206.596 231.52 210.403 230.409 214.078 228.941C215.751 229.586 217.561 229.794 219.337 229.547C221.113 229.299 222.797 228.604 224.231 227.526C224.231 227.526 207.462 180.457 211.082 168.734Z" fill="white"/>
<path d="M211.082 168.734L179.751 181.809C179.371 187.316 178.008 192.709 175.726 197.735C172.022 205.567 174.186 220.391 177.744 228.39C178.339 229.676 179.297 230.761 180.5 231.51V230.907C180.5 230.907 174.685 216.5 175.788 208.189C176.891 199.878 181.613 195.706 182.164 190.453C182.716 185.2 182.435 182.704 192.972 178.824C203.51 174.944 207.93 171.345 209.033 175.214C210.136 179.084 214.577 204.59 217.625 210.685C220.673 216.781 220.392 223.168 215.69 225.924C210.938 228.777 205.847 231.021 200.535 232.603L202.75 232.218C206.638 231.478 210.445 230.367 214.12 228.899C215.793 229.544 217.603 229.753 219.379 229.505C221.155 229.258 222.839 228.563 224.272 227.485C224.272 227.485 207.462 180.457 211.082 168.734Z" fill="#4C70FF"/>
<path opacity="0.5" d="M211.082 168.734L179.751 181.809C179.371 187.316 178.008 192.709 175.726 197.735C172.022 205.567 174.186 220.391 177.744 228.39C178.339 229.676 179.297 230.761 180.5 231.51V230.907C180.5 230.907 174.685 216.5 175.788 208.189C176.891 199.878 181.613 195.706 182.164 190.453C182.716 185.2 182.435 182.704 192.972 178.824C203.51 174.944 207.93 171.345 209.033 175.214C210.136 179.084 214.577 204.59 217.625 210.685C220.673 216.781 220.392 223.168 215.69 225.924C210.938 228.777 205.847 231.021 200.535 232.603L202.75 232.218C206.638 231.478 210.445 230.367 214.12 228.899C215.793 229.544 217.603 229.753 219.379 229.505C221.155 229.258 222.839 228.563 224.272 227.485C224.272 227.485 207.462 180.457 211.082 168.734Z" fill="white"/>
<path d="M211.082 168.734L179.751 181.809C179.371 187.315 178.008 192.709 175.726 197.735C172.022 205.567 174.186 220.39 177.744 228.39C181.301 236.389 196.977 233.258 202.709 232.259C206.596 231.52 210.403 230.409 214.078 228.941C215.751 229.586 217.561 229.794 219.337 229.547C221.113 229.299 222.797 228.604 224.231 227.526C224.231 227.526 207.462 180.457 211.082 168.734Z" stroke="#263238" stroke-linecap="round" stroke-linejoin="round"/>
<path d="M195.25 189.236C195.335 191.078 195.106 192.921 194.574 194.687C193.742 196.767 185.888 204.943 186.127 205.827C186.367 206.712 187.074 209.551 188.468 209.822" stroke="#263238" stroke-linecap="round" stroke-linejoin="round"/>
<path d="M203.957 196.548C205.049 194.364 208.637 196.496 208.585 201.416" stroke="#263238" stroke-linecap="round" stroke-linejoin="round"/>
<path d="M186.169 190.12C186.169 190.12 189.227 188.778 191.963 193.729" stroke="#263238" stroke-linecap="round" stroke-linejoin="round"/>
<path d="M199.608 203.757C203.142 203.935 206.502 205.345 209.105 207.741" stroke="#263238" stroke-width="0.5" stroke-linecap="round" stroke-linejoin="round"/>
<path d="M182.477 197.255C184.304 197.499 186.089 197.993 187.782 198.722" stroke="#263238" stroke-width="0.5" stroke-linecap="round" stroke-linejoin="round"/>
<path d="M194.907 184.617C194.099 184.19 193.203 183.956 192.29 183.934C191.376 183.913 190.47 184.104 189.643 184.492C186.845 185.834 185.129 187.311 185.316 185.595C185.503 183.878 188.79 181.985 189.779 181.735C190.767 181.486 195.188 180.799 194.907 184.617Z" fill="#263238"/>
<path d="M202.75 180.738C205.666 183.097 207.983 186.112 209.511 189.538C211.592 194.739 213.235 189.059 211.592 185.658C209.948 182.256 205.194 178.637 202.75 180.738Z" fill="#263238"/>
<path d="M224.688 236.42C224.688 238.843 223.315 240.809 221.63 240.809C219.945 240.809 218.582 238.843 218.582 236.42C218.582 233.996 219.945 227.828 221.63 227.828C223.315 227.828 224.688 233.996 224.688 236.42Z" fill="#4C70FF" stroke="#263238" stroke-linecap="round" stroke-linejoin="round"/>
<path d="M204.227 195.602C204.108 195.92 204.014 196.247 203.946 196.58C203.645 198.12 203.343 201.334 203.946 201.469C204.55 201.604 206.027 198.598 206.287 197.059C206.346 196.757 206.38 196.451 206.391 196.143C205.681 195.921 204.959 195.74 204.227 195.602Z" fill="#263238"/>
<path d="M186.481 189.818C186.389 190.09 186.316 190.368 186.263 190.65C185.95 192.19 185.961 195.57 186.616 195.695C187.272 195.82 188.343 192.658 188.645 191.118C188.72 190.745 188.762 190.365 188.769 189.985C188.025 189.78 187.247 189.723 186.481 189.818Z" fill="#263238"/>
<path d="M203.957 196.601L204.997 194.666C206.646 194.988 208.14 195.852 209.241 197.121" stroke="#263238" stroke-width="0.75" stroke-linecap="round" stroke-linejoin="round"/>
<path d="M186.481 189.819L187.521 188.602C187.521 188.602 187.968 188.384 190.423 189.497" stroke="#263238" stroke-width="0.75" stroke-linecap="round" stroke-linejoin="round"/>
<path d="M182.539 218.029C182.539 218.029 184.286 214.814 186.627 214.814C188.967 214.814 190.715 220.067 190.715 220.067" stroke="#263238" stroke-linecap="round" stroke-linejoin="round"/>
<path d="M107.217 356.648C104.956 356.535 102.734 356.006 100.664 355.087C100.375 354.98 100.112 354.816 99.8885 354.604C99.6655 354.392 99.4879 354.137 99.3666 353.854C99.2453 353.572 99.1828 353.267 99.1829 352.959C99.183 352.652 99.2458 352.347 99.3673 352.064C99.4889 351.782 99.6667 351.527 99.8899 351.315C100.113 351.103 100.377 350.939 100.666 350.833C100.955 350.726 101.262 350.68 101.569 350.696C101.876 350.712 102.177 350.79 102.453 350.926C104.534 351.811 107.228 352.362 107.946 352.05C109.267 350.573 111.295 341.648 108.674 337.341C108.081 336.384 107.529 336.207 107.165 336.166C105.678 335.958 103.473 337.487 102.692 338.246C102.475 338.451 102.22 338.611 101.941 338.717C101.662 338.824 101.364 338.874 101.066 338.865C100.768 338.856 100.474 338.789 100.201 338.667C99.9288 338.544 99.6831 338.37 99.4782 338.153C99.2733 337.935 99.1132 337.68 99.007 337.401C98.9009 337.122 98.8507 336.824 98.8594 336.526C98.8681 336.228 98.9355 335.934 99.0577 335.661C99.18 335.389 99.3547 335.143 99.5719 334.938C99.9775 334.543 103.733 331.162 107.738 331.703C108.731 331.848 109.677 332.22 110.504 332.79C111.33 333.36 112.014 334.113 112.502 334.99C116.361 341.284 113.719 353.256 110.754 355.628C109.724 356.357 108.478 356.716 107.217 356.648Z" fill="white"/>
<path d="M110.265 336.654C109.992 336.008 109.565 335.438 109.021 334.996C108.477 334.553 107.832 334.251 107.144 334.116C104.544 333.7 102.099 336.311 101.829 336.602C101.58 336.901 101.427 337.268 101.388 337.655C101.349 338.043 101.426 338.433 101.61 338.776C102.02 338.694 102.398 338.499 102.703 338.214C103.483 337.486 105.688 335.957 107.176 336.134C107.54 336.134 108.091 336.352 108.684 337.309C111.305 341.574 109.277 350.541 107.956 352.018C107.238 352.33 104.554 351.779 102.463 350.894C102.206 350.786 101.931 350.726 101.652 350.717C101.671 351.003 101.761 351.278 101.913 351.52C102.066 351.762 102.277 351.961 102.526 352.101C103.841 352.803 105.292 353.215 106.78 353.308C107.629 353.348 108.461 353.057 109.1 352.496C111.056 350.697 112.782 341.491 110.265 336.654Z" fill="#4C70FF"/>
<path opacity="0.5" d="M110.265 336.654C109.992 336.008 109.565 335.438 109.021 334.996C108.477 334.553 107.832 334.251 107.144 334.116C104.544 333.7 102.099 336.311 101.829 336.602C101.58 336.901 101.427 337.268 101.388 337.655C101.349 338.043 101.426 338.433 101.61 338.776C102.02 338.694 102.398 338.499 102.703 338.214C103.483 337.486 105.688 335.957 107.176 336.134C107.54 336.134 108.091 336.352 108.684 337.309C111.305 341.574 109.277 350.541 107.956 352.018C107.238 352.33 104.554 351.779 102.463 350.894C102.206 350.786 101.931 350.726 101.652 350.717C101.671 351.003 101.761 351.278 101.913 351.52C102.066 351.762 102.277 351.961 102.526 352.101C103.841 352.803 105.292 353.215 106.78 353.308C107.629 353.348 108.461 353.057 109.1 352.496C111.056 350.697 112.782 341.491 110.265 336.654Z" fill="white"/>
<path d="M107.217 356.648C104.956 356.535 102.734 356.006 100.664 355.087C100.375 354.98 100.112 354.816 99.8885 354.604C99.6655 354.392 99.4879 354.137 99.3666 353.854C99.2453 353.572 99.1828 353.267 99.1829 352.959C99.183 352.652 99.2458 352.347 99.3673 352.064C99.4889 351.782 99.6667 351.527 99.8899 351.315C100.113 351.103 100.377 350.939 100.666 350.833C100.955 350.726 101.262 350.68 101.569 350.696C101.876 350.712 102.177 350.79 102.453 350.926C104.534 351.811 107.228 352.362 107.946 352.05C109.267 350.573 111.295 341.648 108.674 337.341C108.081 336.384 107.529 336.207 107.165 336.166C105.678 335.958 103.473 337.487 102.692 338.246C102.475 338.451 102.22 338.611 101.941 338.717C101.662 338.824 101.364 338.874 101.066 338.865C100.768 338.856 100.474 338.789 100.201 338.667C99.9288 338.544 99.6831 338.37 99.4782 338.153C99.2733 337.935 99.1132 337.68 99.007 337.401C98.9009 337.122 98.8507 336.824 98.8594 336.526C98.8681 336.228 98.9355 335.934 99.0577 335.661C99.18 335.389 99.3547 335.143 99.5719 334.938C99.9775 334.543 103.733 331.162 107.738 331.703C108.731 331.848 109.677 332.22 110.504 332.79C111.33 333.36 112.014 334.113 112.502 334.99C116.361 341.284 113.719 353.256 110.754 355.628C109.724 356.357 108.478 356.716 107.217 356.648V356.648Z" stroke="#263238" stroke-linecap="round" stroke-linejoin="round"/>
<path d="M103.244 329.809H78.2266V363.013H103.244V329.809Z" fill="white"/>
<path d="M88.4726 329.809H78.2266V363.013H88.4726V329.809Z" fill="#4C70FF"/>
<path opacity="0.5" d="M88.4726 329.809H78.2266V363.013H88.4726V329.809Z" fill="white"/>
<path d="M103.244 329.809H78.2266V363.013H103.244V329.809Z" stroke="#263238" stroke-linecap="round" stroke-linejoin="round"/>
<path d="M240.718 362.556H133.847L130.362 303.805C130.266 303.235 130.294 302.651 130.445 302.094C130.596 301.536 130.867 301.018 131.238 300.575C131.608 300.132 132.071 299.774 132.593 299.528C133.116 299.281 133.685 299.15 134.263 299.144H240.26C240.841 299.144 241.416 299.27 241.943 299.514C242.471 299.759 242.938 300.115 243.314 300.559C243.689 301.003 243.963 301.523 244.117 302.084C244.27 302.644 244.3 303.231 244.203 303.805L240.718 362.556Z" fill="#263238" stroke="#263238" stroke-linecap="round" stroke-linejoin="round"/>
<path d="M139.11 300.548H239.491C240.058 300.543 240.619 300.661 241.136 300.895C241.652 301.129 242.111 301.473 242.481 301.903C242.851 302.333 243.122 302.839 243.275 303.384C243.429 303.93 243.462 304.503 243.371 305.063" stroke="white" stroke-linecap="round" stroke-linejoin="round"/>
<path d="M131.142 304.137C131.226 303.154 131.677 302.239 132.406 301.574C133.135 300.909 134.087 300.543 135.074 300.549" stroke="white" stroke-linecap="round" stroke-linejoin="round"/>
<path d="M241.165 356.834H133.399V362.555H241.165V356.834Z" fill="white" stroke="#263238" stroke-linecap="round" stroke-linejoin="round"/>
<path d="M186.897 335.656C191.114 335.656 194.533 333.607 194.533 331.079C194.533 328.551 191.114 326.502 186.897 326.502C182.681 326.502 179.262 328.551 179.262 331.079C179.262 333.607 182.681 335.656 186.897 335.656Z" fill="white" stroke="#263238" stroke-linecap="round" stroke-linejoin="round"/>
<path d="M403.708 361.88H2.33301V371.626H403.708V361.88Z" fill="#263238"/>
<path d="M299.635 0.5H106.541C100.032 0.5 94.7554 5.77659 94.7554 12.2856V123.078C94.7554 129.587 100.032 134.864 106.541 134.864H299.635C306.144 134.864 311.421 129.587 311.421 123.078V12.2856C311.421 5.77659 306.144 0.5 299.635 0.5Z" fill="#4C70FF"/>
<path d="M208.183 77.715C225.699 74.9 237.616 58.4189 234.801 40.9033C231.986 23.3878 215.505 11.4706 197.99 14.2855C180.474 17.1005 168.557 33.5816 171.372 51.0972C174.187 68.6127 190.668 80.5299 208.183 77.715Z" fill="#263238"/>
<path d="M202.843 51.9389L192.14 65.6801C191.776 66.2521 191.275 66.7246 190.683 67.0551C190.091 67.3856 189.427 67.5637 188.749 67.5733C187.819 67.586 186.921 67.2308 186.252 66.5851C185.912 66.273 185.643 65.8912 185.463 65.4658C185.284 65.0404 185.198 64.5813 185.212 64.1198C185.245 63.0862 185.61 62.0907 186.252 61.28L198.454 46.1866L187.011 31.0827C186.48 30.3739 186.188 29.5139 186.179 28.6278C186.177 28.0994 186.283 27.5761 186.493 27.091C186.702 26.6058 187.01 26.1693 187.396 25.8089C187.759 25.4299 188.195 25.1285 188.678 24.9229C189.161 24.7173 189.68 24.6118 190.205 24.6126C190.877 24.6235 191.535 24.8025 192.12 25.1332C192.706 25.4639 193.198 25.9357 193.554 26.5058L203.894 40.1222L214.296 26.7347C214.668 26.1101 215.188 25.5869 215.81 25.2113C216.433 24.8357 217.138 24.6194 217.864 24.5814C218.315 24.5803 218.761 24.6721 219.174 24.8511C219.587 25.0301 219.959 25.2924 220.267 25.6216C220.595 25.9303 220.856 26.3026 221.035 26.7158C221.214 27.129 221.306 27.5743 221.307 28.0245C221.296 28.8302 221.018 29.6094 220.517 30.2402L208.273 45.9057L220.101 61.5089C220.66 62.2063 220.971 63.07 220.985 63.9638C220.988 64.4806 220.879 64.992 220.665 65.4625C220.452 65.9331 220.138 66.3516 219.747 66.6891C218.984 67.423 217.966 67.8331 216.907 67.8333C216.232 67.825 215.569 67.6472 214.981 67.3165C214.392 66.9857 213.895 66.5125 213.537 65.9402L202.843 51.9389Z" fill="white"/>
<path d="M264.289 111.595H141.846C139.363 111.595 136.982 110.609 135.226 108.853C133.47 107.097 132.484 104.716 132.484 102.233C132.484 99.7503 133.47 97.3691 135.226 95.6134C136.982 93.8577 139.363 92.8713 141.846 92.8713H264.289C266.772 92.8713 269.153 93.8577 270.909 95.6134C272.664 97.3691 273.651 99.7503 273.651 102.233C273.651 104.716 272.664 107.097 270.909 108.853C269.153 110.609 266.772 111.595 264.289 111.595Z" fill="white"/>
<path d="M158.624 105.249C158.543 105.249 158.462 105.232 158.387 105.2C158.312 105.168 158.244 105.121 158.187 105.062C158.126 105.001 158.078 104.928 158.045 104.847C158.013 104.767 157.998 104.68 158 104.594C158 104.447 158.04 104.303 158.115 104.178L159.051 102.721H157.137C157.048 102.726 156.96 102.712 156.877 102.679C156.795 102.647 156.72 102.597 156.658 102.534C156.551 102.41 156.493 102.251 156.493 102.087C156.493 101.923 156.551 101.764 156.658 101.64C156.72 101.576 156.795 101.527 156.877 101.494C156.96 101.462 157.048 101.448 157.137 101.452L159.02 101.504L158.187 100.152C158.104 100.014 158.058 99.856 158.052 99.6943C158.05 99.6077 158.065 99.5214 158.097 99.4409C158.13 99.3604 158.178 99.2873 158.24 99.2263C158.298 99.1668 158.367 99.1196 158.444 99.0874C158.521 99.0553 158.604 99.0388 158.687 99.039C158.803 99.0373 158.918 99.0699 159.016 99.1328C159.114 99.1957 159.191 99.2861 159.238 99.3927L160.153 101.026L161.027 99.4655C161.082 99.3441 161.17 99.2401 161.28 99.1649C161.39 99.0897 161.518 99.0462 161.651 99.039C161.733 99.039 161.814 99.0556 161.889 99.0878C161.964 99.12 162.032 99.1671 162.088 99.2263C162.149 99.2834 162.197 99.3528 162.23 99.4299C162.262 99.507 162.278 99.59 162.276 99.6735C162.274 99.8212 162.231 99.9655 162.151 100.09L161.235 101.556L163.139 101.504C163.227 101.499 163.316 101.513 163.399 101.545C163.481 101.578 163.556 101.628 163.617 101.692C163.724 101.816 163.783 101.975 163.783 102.139C163.783 102.303 163.724 102.462 163.617 102.586C163.556 102.65 163.481 102.7 163.399 102.732C163.316 102.765 163.227 102.779 163.139 102.773H161.215L162.067 104.105C162.164 104.266 162.217 104.448 162.224 104.635C162.226 104.72 162.212 104.804 162.182 104.882C162.152 104.961 162.106 105.033 162.047 105.093C161.992 105.151 161.926 105.198 161.853 105.23C161.779 105.262 161.7 105.279 161.62 105.28C161.491 105.277 161.366 105.237 161.259 105.165C161.152 105.094 161.068 104.993 161.017 104.875L160.153 103.345L159.29 104.875C159.228 104.995 159.131 105.095 159.013 105.161C158.895 105.228 158.76 105.258 158.624 105.249Z" fill="black"/>
<path d="M168.173 105.249C168.092 105.249 168.011 105.232 167.936 105.2C167.86 105.168 167.793 105.121 167.736 105.061C167.675 105 167.626 104.927 167.594 104.847C167.562 104.766 167.547 104.68 167.549 104.593C167.549 104.447 167.588 104.303 167.663 104.177L168.6 102.721H166.686C166.597 102.725 166.509 102.711 166.426 102.679C166.344 102.647 166.269 102.597 166.207 102.534C166.1 102.409 166.042 102.25 166.042 102.086C166.042 101.922 166.1 101.764 166.207 101.639C166.269 101.576 166.344 101.526 166.426 101.494C166.509 101.462 166.597 101.447 166.686 101.452L168.568 101.504L167.684 100.1C167.601 99.961 167.554 99.8035 167.549 99.6419C167.547 99.5552 167.562 99.4689 167.594 99.3884C167.626 99.3079 167.675 99.2349 167.736 99.1738C167.795 99.1143 167.864 99.0671 167.941 99.0349C168.018 99.0028 168.1 98.9863 168.184 98.9865C168.3 98.9848 168.414 99.0174 168.513 99.0803C168.611 99.1432 168.688 99.2336 168.735 99.3402L169.65 100.973L170.524 99.413C170.579 99.2916 170.666 99.1876 170.776 99.1124C170.887 99.0372 171.015 98.9937 171.148 98.9865C171.23 98.9865 171.311 99.0031 171.386 99.0353C171.461 99.0675 171.529 99.1146 171.585 99.1738C171.646 99.2309 171.694 99.3003 171.727 99.3774C171.759 99.4545 171.774 99.5375 171.772 99.621C171.771 99.7688 171.728 99.9131 171.648 100.037L170.732 101.504L172.636 101.452C172.724 101.447 172.813 101.461 172.895 101.493C172.978 101.525 173.053 101.575 173.114 101.639C173.221 101.764 173.28 101.922 173.28 102.086C173.28 102.25 173.221 102.409 173.114 102.534C173.053 102.598 172.978 102.647 172.895 102.68C172.813 102.712 172.724 102.726 172.636 102.721H170.711L171.564 104.052C171.661 104.213 171.714 104.396 171.72 104.583C171.723 104.667 171.709 104.751 171.679 104.83C171.648 104.908 171.602 104.98 171.543 105.041C171.489 105.099 171.423 105.146 171.349 105.178C171.276 105.21 171.197 105.227 171.117 105.228C170.988 105.226 170.862 105.187 170.755 105.115C170.648 105.043 170.564 104.941 170.514 104.822L169.65 103.293L168.787 104.822C168.736 104.944 168.651 105.049 168.542 105.125C168.433 105.2 168.305 105.243 168.173 105.249Z" fill="black"/>
<path d="M177.723 105.249C177.641 105.249 177.56 105.232 177.485 105.2C177.41 105.168 177.342 105.121 177.286 105.061C177.224 105 177.176 104.927 177.144 104.847C177.111 104.766 177.096 104.68 177.098 104.593C177.098 104.447 177.138 104.303 177.213 104.177L178.149 102.721H176.235C176.147 102.725 176.058 102.711 175.976 102.679C175.893 102.647 175.818 102.597 175.757 102.534C175.65 102.409 175.591 102.25 175.591 102.086C175.591 101.922 175.65 101.764 175.757 101.639C175.818 101.576 175.893 101.526 175.976 101.494C176.058 101.462 176.147 101.447 176.235 101.452L178.118 101.504L177.234 100.1C177.15 99.961 177.104 99.8035 177.098 99.6419C177.096 99.5552 177.111 99.4689 177.144 99.3884C177.176 99.3079 177.224 99.2349 177.286 99.1738C177.344 99.1143 177.414 99.0671 177.49 99.0349C177.567 99.0028 177.65 98.9863 177.733 98.9865C177.849 98.9848 177.964 99.0174 178.062 99.0803C178.16 99.1432 178.237 99.2336 178.284 99.3402L179.2 100.973L180.073 99.413C180.128 99.2916 180.216 99.1876 180.326 99.1124C180.436 99.0372 180.564 98.9937 180.698 98.9865C180.779 98.9865 180.86 99.0031 180.935 99.0353C181.01 99.0675 181.078 99.1146 181.134 99.1738C181.195 99.2309 181.244 99.3003 181.276 99.3774C181.308 99.4545 181.324 99.5375 181.322 99.621C181.32 99.7688 181.277 99.9131 181.197 100.037L180.281 101.504L182.185 101.452C182.274 101.447 182.362 101.461 182.445 101.493C182.527 101.525 182.602 101.575 182.664 101.639C182.77 101.764 182.829 101.922 182.829 102.086C182.829 102.25 182.77 102.409 182.664 102.534C182.602 102.598 182.527 102.647 182.445 102.68C182.362 102.712 182.274 102.726 182.185 102.721H180.261L181.114 104.052C181.21 104.213 181.264 104.396 181.27 104.583C181.273 104.667 181.259 104.751 181.228 104.83C181.198 104.908 181.152 104.98 181.093 105.041C181.038 105.099 180.972 105.146 180.899 105.178C180.825 105.21 180.746 105.227 180.666 105.228C180.537 105.226 180.412 105.187 180.304 105.115C180.197 105.043 180.113 104.941 180.063 104.822L179.2 103.293L178.336 104.822C178.285 104.944 178.2 105.049 178.091 105.125C177.983 105.2 177.855 105.243 177.723 105.249Z" fill="black"/>
<path d="M187.313 105.249C187.232 105.249 187.151 105.232 187.076 105.2C187.001 105.168 186.933 105.121 186.876 105.061C186.815 105 186.767 104.927 186.734 104.847C186.702 104.766 186.687 104.68 186.689 104.593C186.689 104.447 186.729 104.303 186.804 104.177L187.74 102.721H185.826C185.737 102.725 185.649 102.711 185.566 102.679C185.484 102.647 185.409 102.597 185.347 102.534C185.24 102.409 185.182 102.25 185.182 102.086C185.182 101.922 185.24 101.764 185.347 101.639C185.409 101.576 185.484 101.526 185.566 101.494C185.649 101.462 185.737 101.447 185.826 101.452L187.709 101.504L186.824 100.1C186.741 99.961 186.694 99.8035 186.689 99.6419C186.687 99.5552 186.702 99.4689 186.734 99.3884C186.767 99.3079 186.815 99.2349 186.876 99.1738C186.935 99.1143 187.004 99.0671 187.081 99.0349C187.158 99.0028 187.24 98.9863 187.324 98.9865C187.44 98.9848 187.555 99.0174 187.653 99.0803C187.751 99.1432 187.828 99.2336 187.875 99.3402L188.79 100.973L189.664 99.413C189.719 99.2916 189.807 99.1876 189.917 99.1124C190.027 99.0372 190.155 98.9937 190.288 98.9865C190.37 98.9865 190.451 99.0031 190.526 99.0353C190.601 99.0675 190.669 99.1146 190.725 99.1738C190.786 99.2309 190.834 99.3003 190.867 99.3774C190.899 99.4545 190.915 99.5375 190.912 99.621C190.911 99.7688 190.868 99.9131 190.788 100.037L189.872 101.504L191.776 101.452C191.864 101.447 191.953 101.461 192.036 101.493C192.118 101.525 192.193 101.575 192.254 101.639C192.361 101.764 192.42 101.922 192.42 102.086C192.42 102.25 192.361 102.409 192.254 102.534C192.193 102.598 192.118 102.647 192.036 102.68C191.953 102.712 191.864 102.726 191.776 102.721H189.851L190.704 104.052C190.801 104.213 190.854 104.396 190.86 104.583C190.863 104.667 190.849 104.751 190.819 104.83C190.789 104.908 190.742 104.98 190.684 105.041C190.629 105.099 190.563 105.146 190.49 105.178C190.416 105.21 190.337 105.227 190.257 105.228C190.128 105.225 190.003 105.185 189.896 105.113C189.789 105.041 189.705 104.94 189.654 104.822L188.79 103.293L187.927 104.822C187.876 104.944 187.791 105.049 187.682 105.125C187.574 105.2 187.446 105.243 187.313 105.249Z" fill="black"/>
<path d="M196.821 105.249C196.739 105.249 196.658 105.232 196.583 105.2C196.508 105.168 196.44 105.121 196.384 105.061C196.322 105 196.274 104.927 196.242 104.847C196.209 104.766 196.194 104.68 196.197 104.593C196.201 104.447 196.241 104.305 196.311 104.177L197.247 102.721H195.333C195.245 102.725 195.156 102.711 195.074 102.679C194.991 102.647 194.917 102.597 194.855 102.534C194.748 102.409 194.689 102.25 194.689 102.086C194.689 101.922 194.748 101.764 194.855 101.639C194.917 101.576 194.991 101.526 195.074 101.494C195.156 101.462 195.245 101.447 195.333 101.452L197.216 101.504L196.332 100.1C196.248 99.961 196.202 99.8035 196.197 99.6419C196.194 99.5552 196.209 99.4689 196.242 99.3884C196.274 99.3079 196.322 99.2349 196.384 99.1738C196.442 99.1143 196.512 99.0671 196.589 99.0349C196.665 99.0028 196.748 98.9863 196.831 98.9865C196.948 98.9848 197.062 99.0174 197.16 99.0803C197.258 99.1432 197.335 99.2336 197.382 99.3402L198.298 100.973L199.172 99.413C199.227 99.2916 199.314 99.1876 199.424 99.1124C199.534 99.0372 199.663 98.9937 199.796 98.9865C199.878 98.9853 199.959 99.0013 200.034 99.0336C200.109 99.0658 200.177 99.1136 200.233 99.1738C200.294 99.2309 200.342 99.3003 200.374 99.3774C200.406 99.4545 200.422 99.5375 200.42 99.621C200.418 99.7688 200.375 99.9131 200.295 100.037L199.38 101.504L201.283 101.452C201.372 101.447 201.46 101.461 201.543 101.493C201.626 101.525 201.7 101.575 201.762 101.639C201.869 101.764 201.927 101.922 201.927 102.086C201.927 102.25 201.869 102.409 201.762 102.534C201.7 102.598 201.626 102.647 201.543 102.68C201.46 102.712 201.372 102.726 201.283 102.721H199.359L200.212 104.052C200.308 104.213 200.362 104.396 200.368 104.583C200.371 104.667 200.357 104.751 200.326 104.83C200.296 104.908 200.25 104.98 200.191 105.041C200.136 105.099 200.07 105.146 199.997 105.178C199.924 105.21 199.845 105.227 199.764 105.228C199.636 105.225 199.511 105.185 199.404 105.113C199.297 105.041 199.213 104.94 199.161 104.822L198.298 103.293L197.434 104.822C197.383 104.944 197.298 105.049 197.19 105.125C197.081 105.2 196.953 105.243 196.821 105.249Z" fill="black"/>
<path d="M206.37 105.249C206.288 105.249 206.207 105.232 206.132 105.2C206.057 105.168 205.989 105.121 205.933 105.061C205.872 105 205.823 104.927 205.791 104.847C205.759 104.766 205.743 104.68 205.746 104.593C205.751 104.447 205.79 104.305 205.86 104.177L206.796 102.721H204.893C204.803 102.726 204.713 102.712 204.628 102.68C204.544 102.648 204.467 102.598 204.404 102.534C204.297 102.409 204.238 102.25 204.238 102.086C204.238 101.922 204.297 101.764 204.404 101.639C204.467 101.575 204.544 101.525 204.628 101.493C204.713 101.46 204.803 101.446 204.893 101.452L206.765 101.504L205.881 100.1C205.798 99.961 205.751 99.8035 205.746 99.6419C205.743 99.5552 205.759 99.4689 205.791 99.3884C205.823 99.3079 205.872 99.2349 205.933 99.1738C205.991 99.1143 206.061 99.0671 206.138 99.0349C206.215 99.0028 206.297 98.9863 206.38 98.9865C206.497 98.9848 206.611 99.0174 206.709 99.0803C206.807 99.1432 206.885 99.2336 206.932 99.3402L207.847 100.973L208.721 99.413C208.776 99.2916 208.863 99.1876 208.973 99.1124C209.083 99.0372 209.212 98.9937 209.345 98.9865C209.427 98.9853 209.508 99.0013 209.583 99.0336C209.659 99.0658 209.726 99.1136 209.782 99.1738C209.843 99.2309 209.891 99.3003 209.923 99.3774C209.956 99.4545 209.971 99.5375 209.969 99.621C209.968 99.7688 209.924 99.9131 209.844 100.037L208.929 101.504L210.832 101.452C210.921 101.447 211.01 101.461 211.092 101.493C211.175 101.525 211.249 101.575 211.311 101.639C211.418 101.764 211.477 101.922 211.477 102.086C211.477 102.25 211.418 102.409 211.311 102.534C211.249 102.598 211.175 102.647 211.092 102.68C211.01 102.712 210.921 102.726 210.832 102.721H208.908L209.761 104.052C209.857 104.213 209.911 104.396 209.917 104.583C209.92 104.667 209.906 104.751 209.876 104.83C209.845 104.908 209.799 104.98 209.74 105.041C209.685 105.099 209.619 105.146 209.546 105.178C209.473 105.21 209.394 105.227 209.314 105.228C209.185 105.225 209.06 105.185 208.953 105.113C208.846 105.041 208.762 104.94 208.71 104.822L207.847 103.293L206.984 104.822C206.932 104.944 206.848 105.049 206.739 105.125C206.63 105.2 206.502 105.243 206.37 105.249Z" fill="black"/>
<path d="M215.919 105.249C215.837 105.249 215.756 105.232 215.681 105.2C215.606 105.168 215.538 105.121 215.482 105.062C215.42 105.001 215.372 104.928 215.34 104.847C215.308 104.767 215.292 104.68 215.295 104.594C215.295 104.447 215.334 104.303 215.409 104.178L216.345 102.721H214.431C214.343 102.726 214.254 102.712 214.172 102.679C214.089 102.647 214.015 102.597 213.953 102.534C213.846 102.41 213.787 102.251 213.787 102.087C213.787 101.923 213.846 101.764 213.953 101.64C214.015 101.576 214.089 101.527 214.172 101.494C214.254 101.462 214.343 101.448 214.431 101.452L216.314 101.504L215.399 100.152C215.315 100.014 215.269 99.856 215.263 99.6943C215.261 99.6077 215.276 99.5214 215.309 99.4409C215.341 99.3604 215.389 99.2873 215.451 99.2263C215.509 99.1668 215.579 99.1196 215.655 99.0874C215.732 99.0553 215.815 99.0388 215.898 99.039C216.014 99.0373 216.129 99.0699 216.227 99.1328C216.325 99.1957 216.402 99.2861 216.449 99.3927L217.365 101.026L218.238 99.4655C218.294 99.3441 218.381 99.2401 218.491 99.1649C218.601 99.0897 218.729 99.0462 218.863 99.039C218.944 99.0378 219.026 99.0538 219.101 99.086C219.176 99.1183 219.244 99.1661 219.299 99.2263C219.36 99.2834 219.409 99.3528 219.441 99.4299C219.473 99.507 219.489 99.59 219.487 99.6735C219.485 99.8213 219.442 99.9656 219.362 100.09L218.447 101.556L220.35 101.504C220.439 101.499 220.527 101.513 220.61 101.545C220.692 101.578 220.767 101.628 220.829 101.692C220.936 101.816 220.994 101.975 220.994 102.139C220.994 102.303 220.936 102.462 220.829 102.586C220.767 102.65 220.692 102.7 220.61 102.732C220.527 102.765 220.439 102.779 220.35 102.773H218.426L219.279 104.105C219.375 104.266 219.429 104.448 219.435 104.635C219.438 104.72 219.424 104.804 219.393 104.882C219.363 104.961 219.317 105.033 219.258 105.093C219.203 105.151 219.137 105.198 219.064 105.23C218.99 105.262 218.911 105.279 218.831 105.28C218.703 105.277 218.577 105.237 218.471 105.165C218.364 105.094 218.28 104.993 218.228 104.875L217.365 103.345L216.501 104.875C216.445 104.982 216.362 105.074 216.26 105.139C216.158 105.205 216.04 105.243 215.919 105.249Z" fill="black"/>
<path d="M225.468 105.249C225.386 105.249 225.305 105.232 225.23 105.2C225.155 105.168 225.087 105.121 225.031 105.062C224.97 105 224.921 104.927 224.889 104.847C224.857 104.766 224.841 104.68 224.844 104.593C224.849 104.448 224.888 104.305 224.958 104.177L225.894 102.721H223.991C223.902 102.728 223.813 102.714 223.73 102.682C223.647 102.65 223.573 102.599 223.512 102.534C223.399 102.412 223.336 102.253 223.336 102.087C223.336 101.921 223.399 101.761 223.512 101.639C223.573 101.574 223.647 101.524 223.73 101.491C223.813 101.459 223.902 101.445 223.991 101.452L225.863 101.504L224.979 100.1C224.896 99.9613 224.849 99.8037 224.844 99.6421C224.841 99.557 224.855 99.4723 224.886 99.3929C224.917 99.3135 224.963 99.241 225.022 99.1799C225.081 99.1187 225.152 99.0701 225.231 99.037C225.309 99.0038 225.393 98.9867 225.478 98.9867C225.595 98.985 225.709 99.0176 225.807 99.0805C225.905 99.1434 225.983 99.2338 226.03 99.3404L226.945 100.974L227.819 99.4132C227.874 99.2918 227.961 99.1879 228.071 99.1127C228.181 99.0374 228.31 98.9939 228.443 98.9867C228.525 98.9841 228.607 98.9995 228.682 99.0319C228.758 99.0642 228.825 99.1127 228.88 99.174C228.941 99.2311 228.989 99.3005 229.021 99.3776C229.054 99.4547 229.069 99.5377 229.067 99.6213C229.066 99.769 229.022 99.9133 228.942 100.037L228.027 101.504L229.93 101.452C230.019 101.447 230.108 101.461 230.19 101.493C230.273 101.525 230.347 101.575 230.409 101.639C230.516 101.764 230.575 101.922 230.575 102.087C230.575 102.251 230.516 102.409 230.409 102.534C230.347 102.598 230.273 102.648 230.19 102.68C230.108 102.712 230.019 102.726 229.93 102.721H228.006L228.859 104.053C228.955 104.213 229.009 104.396 229.015 104.583C229.018 104.665 229.004 104.747 228.976 104.824C228.947 104.9 228.903 104.971 228.847 105.031C228.791 105.09 228.724 105.139 228.649 105.173C228.574 105.206 228.494 105.225 228.412 105.228C228.283 105.225 228.158 105.185 228.051 105.113C227.944 105.041 227.86 104.94 227.808 104.822L226.945 103.293L226.082 104.822C226.03 104.944 225.945 105.049 225.837 105.125C225.728 105.2 225.6 105.243 225.468 105.249Z" fill="black"/>
<path d="M235.017 105.249C234.936 105.249 234.855 105.232 234.78 105.2C234.704 105.168 234.637 105.121 234.58 105.062C234.519 105 234.47 104.927 234.438 104.847C234.406 104.766 234.391 104.68 234.393 104.593C234.398 104.448 234.437 104.305 234.508 104.177L235.444 102.721H233.53C233.443 102.726 233.356 102.712 233.275 102.68C233.194 102.647 233.121 102.598 233.062 102.534C232.948 102.412 232.885 102.253 232.885 102.087C232.885 101.921 232.948 101.761 233.062 101.639C233.121 101.576 233.194 101.526 233.275 101.493C233.356 101.461 233.443 101.447 233.53 101.452L235.413 101.504L234.528 100.1C234.445 99.9613 234.398 99.8037 234.393 99.6421C234.39 99.557 234.405 99.4723 234.435 99.3929C234.466 99.3135 234.512 99.241 234.571 99.1799C234.631 99.1187 234.702 99.0701 234.78 99.037C234.858 99.0038 234.943 98.9867 235.028 98.9867C235.144 98.985 235.259 99.0176 235.357 99.0805C235.455 99.1434 235.532 99.2338 235.579 99.3404L236.494 100.974L237.368 99.4132C237.423 99.2918 237.51 99.1879 237.621 99.1127C237.731 99.0374 237.859 98.9939 237.992 98.9867C238.074 98.9841 238.156 98.9995 238.231 99.0319C238.307 99.0642 238.374 99.1127 238.429 99.174C238.49 99.2311 238.538 99.3005 238.571 99.3776C238.603 99.4547 238.618 99.5377 238.616 99.6213C238.615 99.769 238.572 99.9133 238.492 100.037L237.576 101.504L239.48 101.452C239.568 101.447 239.657 101.461 239.74 101.493C239.822 101.525 239.897 101.575 239.958 101.639C240.065 101.764 240.124 101.922 240.124 102.087C240.124 102.251 240.065 102.409 239.958 102.534C239.897 102.598 239.822 102.648 239.74 102.68C239.657 102.712 239.568 102.726 239.48 102.721H237.555L238.408 104.053C238.505 104.213 238.558 104.396 238.564 104.583C238.567 104.665 238.554 104.747 238.525 104.824C238.496 104.9 238.452 104.971 238.396 105.031C238.34 105.09 238.273 105.139 238.198 105.173C238.124 105.206 238.043 105.225 237.961 105.228C237.832 105.225 237.707 105.185 237.6 105.113C237.493 105.041 237.409 104.94 237.358 104.822L236.494 103.293L235.631 104.822C235.58 104.944 235.495 105.049 235.386 105.125C235.277 105.2 235.149 105.243 235.017 105.249Z" fill="black"/>
<path d="M244.525 105.249C244.443 105.249 244.362 105.232 244.287 105.2C244.212 105.168 244.144 105.121 244.088 105.062C244.026 105 243.978 104.927 243.946 104.847C243.913 104.766 243.898 104.68 243.9 104.593C243.905 104.448 243.944 104.305 244.015 104.177L244.951 102.721H243.037C242.95 102.726 242.863 102.712 242.782 102.68C242.701 102.647 242.628 102.598 242.569 102.534C242.456 102.412 242.393 102.253 242.393 102.087C242.393 101.921 242.456 101.761 242.569 101.639C242.628 101.576 242.701 101.526 242.782 101.493C242.863 101.461 242.95 101.447 243.037 101.452L244.92 101.504L244.036 100.1C243.952 99.9613 243.906 99.8037 243.9 99.6421C243.898 99.5554 243.913 99.4691 243.946 99.3886C243.978 99.3081 244.026 99.2351 244.088 99.174C244.146 99.1145 244.216 99.0673 244.292 99.0351C244.369 99.003 244.452 98.9865 244.535 98.9867C244.651 98.985 244.766 99.0176 244.864 99.0805C244.962 99.1434 245.039 99.2338 245.086 99.3404L246.002 100.974L246.875 99.4132C246.93 99.2918 247.018 99.1879 247.128 99.1127C247.238 99.0374 247.366 98.9939 247.5 98.9867C247.582 98.9841 247.663 98.9995 247.739 99.0319C247.814 99.0642 247.882 99.1127 247.936 99.174C247.997 99.2311 248.046 99.3005 248.078 99.3776C248.11 99.4547 248.126 99.5377 248.124 99.6213C248.122 99.769 248.079 99.9133 247.999 100.037L247.083 101.504L248.987 101.452C249.076 101.447 249.164 101.461 249.247 101.493C249.329 101.525 249.404 101.575 249.466 101.639C249.572 101.764 249.631 101.922 249.631 102.087C249.631 102.251 249.572 102.409 249.466 102.534C249.404 102.598 249.329 102.648 249.247 102.68C249.164 102.712 249.076 102.726 248.987 102.721H247.063L247.916 104.053C248.012 104.213 248.066 104.396 248.072 104.583C248.075 104.667 248.061 104.751 248.03 104.83C248 104.909 247.954 104.98 247.895 105.041C247.84 105.099 247.774 105.146 247.701 105.178C247.627 105.21 247.548 105.227 247.468 105.228C247.34 105.225 247.214 105.185 247.108 105.113C247.001 105.041 246.917 104.94 246.865 104.822L246.002 103.293L245.138 104.822C245.087 104.944 245.002 105.049 244.893 105.125C244.785 105.2 244.657 105.243 244.525 105.249Z" fill="black"/>
<path d="M277.25 128.259H289.971" stroke="white" stroke-width="3" stroke-linecap="round" stroke-linejoin="round"/>
<path d="M100.799 34.5875V119.084C100.799 121.531 101.771 123.878 103.501 125.608C105.232 127.338 107.578 128.31 110.025 128.31H265.173" stroke="white" stroke-width="3" stroke-linecap="round" stroke-linejoin="round"/>
<path d="M100.799 12.1812V24.8509" stroke="white" stroke-width="3" stroke-linecap="round" stroke-linejoin="round"/>
</svg>
