<svg width="414" height="362" viewBox="0 0 414 362" fill="none" xmlns="http://www.w3.org/2000/svg">
<path d="M409.853 209.11C409.52 207.37 409.169 205.65 408.803 203.95C399.643 160.86 381.193 116.36 348.303 85.9503C334.053 72.8003 316.823 62.7503 297.623 59.1303C274.183 54.7203 249.813 60.8303 228.273 71.1303C206.733 81.4303 187.403 95.6503 167.443 108.71C154.553 117.14 140.923 125.26 125.713 127.71C107.503 130.64 88.8728 125.14 70.5028 126.89C41.7028 129.63 16.3228 151.11 5.94285 178.12C-4.43715 205.13 -0.677152 236.48 13.0028 261.98C26.6828 287.48 49.5028 307.34 75.3428 320.43C111.093 338.59 153.343 344.27 192.243 334.43C211.243 329.63 229.583 321.23 249.143 320.88C273.403 320.45 296.143 332.45 320.143 335.77C342.703 338.88 366.763 333.77 384.713 319.77C418.003 293.77 417.063 246.57 409.853 209.11Z" fill="#4C70FF"/>
<path opacity="0.7" d="M409.853 209.11C409.52 207.37 409.169 205.65 408.803 203.95C399.643 160.86 381.193 116.36 348.303 85.9503C334.053 72.8003 316.823 62.7503 297.623 59.1303C274.183 54.7203 249.813 60.8303 228.273 71.1303C206.733 81.4303 187.403 95.6503 167.443 108.71C154.553 117.14 140.923 125.26 125.713 127.71C107.503 130.64 88.8728 125.14 70.5028 126.89C41.7028 129.63 16.3228 151.11 5.94285 178.12C-4.43715 205.13 -0.677152 236.48 13.0028 261.98C26.6828 287.48 49.5028 307.34 75.3428 320.43C111.093 338.59 153.343 344.27 192.243 334.43C211.243 329.63 229.583 321.23 249.143 320.88C273.403 320.45 296.143 332.45 320.143 335.77C342.703 338.88 366.763 333.77 384.713 319.77C418.003 293.77 417.063 246.57 409.853 209.11Z" fill="white"/>
<path d="M339.713 103.43C336.463 101.65 334.983 103.13 333.803 101.65C332.623 100.17 337.053 96.3303 328.183 92.4903C328.183 92.4903 327.593 84.2103 315.473 83.9203C303.353 83.6303 306.603 92.1903 303.353 94.2603C300.103 96.3303 299.213 93.0803 295.963 95.1503C292.713 97.2203 294.193 101.36 291.533 101.95C288.873 102.54 285.323 99.2903 282.073 101.36C278.823 103.43 278.823 105.2 277.343 105.2C275.863 105.2 272.903 104.02 271.133 105.2C269.363 106.38 267.293 107.86 267.293 107.86H342.083C342.083 107.86 342.963 105.15 339.713 103.43Z" fill="white"/>
<path opacity="0.5" d="M339.713 103.43C336.463 101.65 334.983 103.13 333.803 101.65C332.623 100.17 337.053 96.3303 328.183 92.4903C328.183 92.4903 327.593 84.2103 315.473 83.9203C303.353 83.6303 306.603 92.1903 303.353 94.2603C300.103 96.3303 299.213 93.0803 295.963 95.1503C292.713 97.2203 294.193 101.36 291.533 101.95C288.873 102.54 285.323 99.2903 282.073 101.36C278.823 103.43 278.823 105.2 277.343 105.2C275.863 105.2 272.903 104.02 271.133 105.2C269.363 106.38 267.293 107.86 267.293 107.86H342.083C342.083 107.86 342.963 105.15 339.713 103.43Z" fill="white"/>
<path d="M213.053 299.43C209.793 297.65 208.323 299.13 207.133 297.65C205.943 296.17 210.383 292.33 201.523 288.49C201.523 288.49 200.933 280.21 188.813 279.92C176.693 279.63 179.943 288.19 176.693 290.26C173.443 292.33 172.553 289.08 169.303 291.15C166.053 293.22 167.523 297.36 164.863 297.95C162.203 298.54 158.653 295.29 155.403 297.36C152.153 299.43 152.153 301.2 150.673 301.2C149.193 301.2 146.243 300.02 144.463 301.2C142.683 302.38 140.623 303.86 140.623 303.86H215.413C215.413 303.86 216.303 301.15 213.053 299.43Z" fill="white"/>
<path opacity="0.5" d="M213.053 299.43C209.793 297.65 208.323 299.13 207.133 297.65C205.943 296.17 210.383 292.33 201.523 288.49C201.523 288.49 200.933 280.21 188.813 279.92C176.693 279.63 179.943 288.19 176.693 290.26C173.443 292.33 172.553 289.08 169.303 291.15C166.053 293.22 167.523 297.36 164.863 297.95C162.203 298.54 158.653 295.29 155.403 297.36C152.153 299.43 152.153 301.2 150.673 301.2C149.193 301.2 146.243 300.02 144.463 301.2C142.683 302.38 140.623 303.86 140.623 303.86H215.413C215.413 303.86 216.303 301.15 213.053 299.43Z" fill="white"/>
<path d="M152.623 266.43C147.533 263.66 145.223 265.97 143.373 263.66C141.523 261.35 148.453 255.33 134.583 249.32C134.583 249.32 133.663 236.37 114.693 235.91C95.7227 235.45 100.823 248.86 95.6927 252.1C90.5627 255.34 89.2227 250.25 84.1327 253.48C79.0427 256.71 81.3527 263.2 77.1927 264.12C73.0327 265.04 67.4827 259.96 62.3927 263.2C57.3027 266.44 57.3027 269.2 54.9927 269.2C52.6827 269.2 48.0527 267.35 45.2827 269.2C42.5127 271.05 39.2827 273.36 39.2827 273.36H156.283C156.283 273.36 157.703 269.24 152.623 266.43Z" fill="white"/>
<path opacity="0.5" d="M152.623 266.43C147.533 263.66 145.223 265.97 143.373 263.66C141.523 261.35 148.453 255.33 134.583 249.32C134.583 249.32 133.663 236.37 114.693 235.91C95.7227 235.45 100.823 248.86 95.6927 252.1C90.5627 255.34 89.2227 250.25 84.1327 253.48C79.0427 256.71 81.3527 263.2 77.1927 264.12C73.0327 265.04 67.4827 259.96 62.3927 263.2C57.3027 266.44 57.3027 269.2 54.9927 269.2C52.6827 269.2 48.0527 267.35 45.2827 269.2C42.5127 271.05 39.2827 273.36 39.2827 273.36H156.283C156.283 273.36 157.703 269.24 152.623 266.43Z" fill="white"/>
<path d="M206.023 1C171.113 1 142.723 26.47 141.733 58.22L114.223 73.29L99.7628 59.55L78.8828 91.25L64.3428 90.63L71.8028 119.56L72.4528 95.75L82.7428 97.68L99.7428 79.79L117.093 93.53L144.283 76.53C152.123 100.97 176.773 118.83 206.003 118.83C241.533 118.83 270.343 92.45 270.343 59.91C270.343 27.37 241.553 1 206.023 1Z" fill="#263238" stroke="#263238" stroke-linecap="round" stroke-linejoin="round"/>
<path d="M263.013 21.61H146.953C143.733 21.61 141.123 24.2202 141.123 27.44V93.48C141.123 96.6998 143.733 99.31 146.953 99.31H263.013C266.232 99.31 268.843 96.6998 268.843 93.48V27.44C268.843 24.2202 266.232 21.61 263.013 21.61Z" fill="#4C70FF" stroke="#263238" stroke-width="2" stroke-linecap="round" stroke-linejoin="round"/>
<path d="M210.083 58.52L268.843 28.79V27.43C268.843 25.8838 268.228 24.4009 267.135 23.3076C266.042 22.2142 264.559 21.6 263.013 21.6H146.953C145.406 21.6 143.923 22.2142 142.83 23.3076C141.737 24.4009 141.123 25.8838 141.123 27.43V29.04L198.813 58.65C200.572 59.5055 202.507 59.9391 204.463 59.9166C206.419 59.894 208.343 59.4158 210.083 58.52Z" fill="white" stroke="#263238" stroke-width="2" stroke-linecap="round" stroke-linejoin="round"/>
<path d="M266.588 50.5539C273.734 49.3888 278.582 42.6512 277.417 35.5051C276.252 28.359 269.514 23.5105 262.368 24.6756C255.222 25.8407 250.374 32.5782 251.539 39.7243C252.704 46.8704 259.441 51.719 266.588 50.5539Z" fill="#263238"/>
<path d="M263.693 45.16C263.358 44.75 263.19 44.2285 263.223 43.7V32.03L260.923 33.43C260.743 33.5504 260.53 33.6132 260.313 33.61C260.16 33.6136 260.009 33.582 259.87 33.5179C259.731 33.4538 259.609 33.3587 259.513 33.24C259.403 33.1278 259.316 32.9949 259.258 32.849C259.2 32.7031 259.171 32.5471 259.173 32.39C259.177 32.1829 259.236 31.9807 259.345 31.8047C259.455 31.6287 259.609 31.4854 259.793 31.39L263.983 28.92C264.283 28.7297 264.628 28.6227 264.983 28.61C265.201 28.6039 265.417 28.6466 265.616 28.7348C265.815 28.823 265.991 28.9547 266.133 29.12C266.448 29.5317 266.604 30.0428 266.573 30.56V43.78C266.598 44.2862 266.43 44.783 266.103 45.17C265.953 45.3389 265.768 45.4729 265.56 45.5628C265.353 45.6526 265.129 45.696 264.903 45.69C264.674 45.7014 264.446 45.6595 264.236 45.5675C264.026 45.4755 263.84 45.336 263.693 45.16Z" fill="#4C70FF"/>
<path d="M142.002 211.19C142.002 211.19 181.502 270.69 191.002 271.69C200.502 272.69 230.502 241.69 230.502 241.69L222.002 239.69L193.692 258.83C193.692 258.83 169.502 229.13 148.242 206.43L142.002 211.19Z" fill="white" stroke="#263238" stroke-width="2" stroke-linecap="round" stroke-linejoin="round"/>
<path d="M149.033 193.43C149.033 193.43 156.953 193.77 156.613 197.22C156.273 200.67 156.613 209.97 154.543 211.7C152.473 213.43 149.373 214.11 148.683 210.7C147.993 207.29 149.033 193.43 149.033 193.43Z" fill="white" stroke="#263238" stroke-width="2" stroke-linecap="round" stroke-linejoin="round"/>
<path d="M146.963 209.66C146.963 209.66 146.613 220 145.963 221.03C145.313 222.06 140.443 225.86 137.343 225.17C134.243 224.48 135.273 221.38 135.273 219.66V192.43H146.993L146.963 209.66Z" fill="#263238" stroke="#263238" stroke-linecap="round" stroke-linejoin="round"/>
<path d="M130.762 213.43C130.762 213.43 128.352 217.91 130.412 221.36C132.472 224.81 138.342 224.81 140.762 223.08C143.182 221.35 141.442 218.95 139.382 218.26C137.322 217.57 134.552 215.84 134.552 213.78C134.552 211.72 131.792 212.07 130.762 213.43Z" fill="white" stroke="#263238" stroke-width="2" stroke-linecap="round" stroke-linejoin="round"/>
<path d="M128.893 206.89C128.893 209.25 129.293 213.21 131.153 214.89C133.253 216.74 142.913 216.89 147.153 214.06C151.393 211.23 148.573 206.36 145.363 206.67C142.703 206.93 139.853 206.28 137.153 205.94C135.633 205.75 130.273 204.56 129.223 205.67C128.984 206.018 128.881 206.441 128.933 206.86L128.893 206.89Z" fill="white" stroke="#263238" stroke-width="2" stroke-linecap="round" stroke-linejoin="round"/>
<path d="M127.703 198.35C127.373 200.73 127.223 204.75 129.173 206.49C131.383 208.49 142.833 209.05 148.243 206.41C153.653 203.77 151.083 198.7 147.243 198.87C144.053 199 140.763 198.2 137.623 197.73C135.853 197.47 129.623 196.02 128.253 197.09C127.93 197.404 127.741 197.83 127.723 198.28L127.703 198.35Z" fill="white" stroke="#263238" stroke-width="2" stroke-linecap="round" stroke-linejoin="round"/>
<path d="M128.373 186.57C127.523 188.82 126.483 192.71 128.003 194.84C129.733 197.25 140.763 200.35 146.613 198.97C152.463 197.59 151.103 192.08 147.303 191.39C144.163 190.82 141.133 189.31 138.173 188.16C136.503 187.51 130.793 184.73 129.173 185.46C128.8 185.685 128.525 186.042 128.403 186.46L128.373 186.57Z" fill="white" stroke="#263238" stroke-width="2" stroke-linecap="round" stroke-linejoin="round"/>
<path d="M220.073 359.39L251.573 241.63H262.233L228.793 360.36" fill="#263238"/>
<path d="M220.073 359.39L251.573 241.63H262.233L228.793 360.36" stroke="#263238" stroke-linecap="round" stroke-linejoin="round"/>
<path d="M240.932 348.13L271.442 241.15L262.232 241.63L228.792 360.36" fill="white"/>
<path d="M240.932 348.13L271.442 241.15L262.232 241.63L228.792 360.36" stroke="#263238" stroke-width="2" stroke-linecap="round" stroke-linejoin="round"/>
<path d="M238.002 358.42L239.412 353.48" stroke="#263238" stroke-width="2" stroke-linecap="round" stroke-linejoin="round"/>
<path d="M199.002 269.29C199.002 269.29 202.452 274.46 206.592 275.15C210.732 275.84 254.502 241.37 254.502 241.37L236.572 243.43L199.002 269.29Z" fill="white" stroke="#263238" stroke-width="2" stroke-linecap="round" stroke-linejoin="round"/>
<path d="M171.212 214.01C171.212 214.01 179.452 145.68 197.872 121.93C218.002 95.9301 258.452 117.09 250.212 158.76C243.892 190.76 225.492 247.93 225.492 247.93L171.212 214.01Z" fill="#4C70FF" stroke="#263238" stroke-width="2" stroke-linecap="round" stroke-linejoin="round"/>
<path d="M230.342 113.21L338.022 147.21C341.548 148.305 344.772 150.202 347.442 152.75C354.232 159.29 364.362 173.36 355.852 194.11C348.962 210.436 339.651 225.63 328.232 239.18L225.502 247.93L246.342 167.48C246.342 167.48 256.022 132.11 230.342 113.21Z" fill="white"/>
<path d="M280.832 207.86C254.932 220 241.082 217.86 234.192 214.36L225.502 247.93L328.242 239.21C339.661 225.66 348.972 210.466 355.862 194.14C356.981 191.437 357.832 188.63 358.402 185.76C333.432 179.88 313.632 192.49 280.832 207.86Z" fill="#4C70FF"/>
<path opacity="0.5" d="M280.832 207.86C254.932 220 241.082 217.86 234.192 214.36L225.502 247.93L328.242 239.21C339.661 225.66 348.972 210.466 355.862 194.14C356.981 191.437 357.832 188.63 358.402 185.76C333.432 179.88 313.632 192.49 280.832 207.86Z" fill="white"/>
<path d="M230.342 113.21L338.022 147.21C341.548 148.305 344.772 150.202 347.442 152.75C354.232 159.29 364.362 173.36 355.852 194.11C348.962 210.436 339.651 225.63 328.232 239.18L225.502 247.93L246.342 167.48C246.342 167.48 256.022 132.11 230.342 113.21Z" stroke="#263238" stroke-width="2" stroke-linecap="round" stroke-linejoin="round"/>
<path d="M290.863 123.35L274.003 175.97C271.133 176.44 268.333 178.81 266.943 182.3C265.023 187.12 266.513 192.25 270.273 193.75C274.033 195.25 278.643 192.55 280.563 187.75C282.143 183.75 281.413 179.61 279.003 177.42L290.863 136.9L307.403 142.54L311.923 130.89L290.863 123.35Z" fill="#263238" stroke="#263238" stroke-linecap="round" stroke-linejoin="round"/>
<path d="M187.833 169.97C187.833 169.97 195.353 178.25 195.733 182.38C196.113 186.51 189.343 197.38 189.343 197.38C189.343 197.38 203.253 206.03 216.413 200.01C229.573 193.99 235.963 168.43 235.963 168.43C235.963 168.43 220.173 175.95 214.153 175.95C208.133 175.95 187.833 169.97 187.833 169.97Z" fill="#263238" stroke="#263238" stroke-linecap="round" stroke-linejoin="round"/>
<path d="M216.413 200.05C220.043 198.39 223.153 195.24 225.763 191.56C225.577 190.766 225.162 190.044 224.57 189.482C223.979 188.921 223.236 188.544 222.433 188.4C214.533 186.89 206.263 195.54 206.263 195.54C205.522 197.67 205.071 199.89 204.923 202.14C208.865 202.382 212.808 201.665 216.413 200.05Z" fill="#4C70FF" stroke="#263238" stroke-linecap="round" stroke-linejoin="round"/>
<path d="M205.503 193.29C201.265 193.127 197.124 191.983 193.403 189.95C191.573 193.81 189.333 197.42 189.333 197.42C189.333 197.42 203.243 206.07 216.403 200.05C219.954 198.233 222.993 195.555 225.243 192.26C222.163 192.6 212.123 193.6 205.503 193.29Z" fill="white" stroke="#263238" stroke-linecap="round" stroke-linejoin="round"/>
<path d="M214.153 175.99C208.153 175.99 187.833 169.99 187.833 169.99C190.293 172.72 192.489 175.676 194.393 178.82C199.393 180.82 208.183 183.91 215.283 183.91C221.391 183.853 227.359 182.075 232.503 178.78C233.869 175.405 235.024 171.948 235.963 168.43C235.963 168.43 220.173 175.99 214.153 175.99Z" fill="white" stroke="#263238" stroke-linecap="round" stroke-linejoin="round"/>
<path d="M212.653 158.69C212.653 158.69 214.913 150.8 221.303 150.04C227.693 149.28 229.573 153.8 229.573 153.8C229.573 153.8 217.503 153.8 212.653 158.69Z" fill="#263238"/>
<path d="M231.073 166.21L240.473 169.6" stroke="#263238" stroke-linecap="round" stroke-linejoin="round"/>
<path d="M202.092 151.13C201.622 153.78 200.412 155.79 199.382 155.61C198.352 155.43 197.922 153.13 198.382 150.47C198.842 147.81 200.072 145.8 201.092 145.98C202.112 146.16 202.572 148.43 202.092 151.13Z" fill="#263238"/>
<path d="M214.152 149.29C214.152 149.29 213.782 144.78 223.552 144.78C233.322 144.78 235.212 143.65 231.452 138.78C227.692 133.91 211.902 136.51 214.152 149.29Z" fill="#263238"/>
<path d="M210.393 135.76C210.393 135.76 209.643 129.36 203.633 129.36C197.623 129.36 194.223 136.51 193.853 134.25C193.483 131.99 195.733 124.1 204.003 123.35C212.273 122.6 210.393 135.76 210.393 135.76Z" fill="#263238"/>
<path d="M252.823 130.54C254.435 134.589 255.413 138.863 255.723 143.21C258.123 170.64 233.723 245.41 233.723 245.41" stroke="#263238" stroke-linecap="round" stroke-linejoin="round"/>
<path d="M243.373 119.54C245.547 120.534 247.445 122.045 248.903 123.94" stroke="#263238" stroke-linecap="round" stroke-linejoin="round"/>
<path d="M328.323 232.23C325.943 235.81 324.323 238.23 324.323 238.23" stroke="#263238" stroke-linecap="round" stroke-linejoin="round"/>
<path d="M332.203 146.64C332.203 146.64 350.383 156.93 352.783 172.02C355.183 187.11 349.353 195.02 345.923 203.23C343.923 207.94 337.153 218.73 331.703 227.09" stroke="#263238" stroke-linecap="round" stroke-linejoin="round"/>
<path d="M190.263 205.09C190.263 205.09 195.703 210.52 207.923 209.16C207.923 209.16 195.703 214.59 190.263 205.09Z" fill="#263238"/>
<path d="M80.4424 200.7C80.4424 200.7 112.272 184.01 170.372 194.24C173.044 194.709 175.792 194.099 178.015 192.545C180.238 190.991 181.755 188.62 182.232 185.95L183.072 181.26C183.476 179.009 183.116 176.688 182.048 174.666C180.981 172.644 179.268 171.037 177.182 170.1C161.752 163.17 125.852 143.95 106.982 108.33L80.4424 200.7Z" fill="#4C70FF" stroke="#263238" stroke-width="2" stroke-linecap="round" stroke-linejoin="round"/>
<path d="M108.873 127.67C108.873 127.67 124.413 152.05 150.213 160.88" stroke="white" stroke-width="2" stroke-linecap="round" stroke-linejoin="round"/>
<path d="M177.183 170.1C168.155 166.016 159.488 161.179 151.273 155.64C153.983 164.3 154.763 177.39 143.553 191.18C152.548 191.64 161.505 192.662 170.373 194.24C173.044 194.709 175.792 194.099 178.015 192.545C180.238 190.991 181.755 188.62 182.233 185.95L183.073 181.26C183.476 179.009 183.116 176.688 182.049 174.666C180.981 172.644 179.269 171.037 177.183 170.1Z" fill="#263238" stroke="#263238" stroke-linecap="round" stroke-linejoin="round"/>
<path d="M105.941 158.396C115.004 129.404 113.292 103.07 102.117 99.576C90.9419 96.0825 74.5354 116.753 65.4721 145.745C56.4088 174.737 58.1207 201.072 69.2958 204.565C80.4709 208.059 96.8774 187.388 105.941 158.396Z" fill="#263238" stroke="#263238" stroke-linecap="round" stroke-linejoin="round"/>
<path d="M101.425 156.99C109.579 130.908 108.595 107.39 99.2279 104.462C89.8609 101.533 75.6575 120.303 67.5038 146.386C59.3501 172.468 60.3337 195.986 69.7008 198.914C79.0679 201.842 93.2712 183.072 101.425 156.99Z" fill="white" stroke="#263238" stroke-linecap="round" stroke-linejoin="round"/>
<path d="M105.193 142.06L95.8926 141.57L88.8926 165.39L96.2826 170.72C98.2383 166.247 99.9476 161.67 101.403 157.01C102.951 152.103 104.216 147.112 105.193 142.06Z" fill="#263238" stroke="#263238" stroke-linecap="round" stroke-linejoin="round"/>
<path d="M96.4226 154.65C94.5026 161.23 91.1526 166.04 88.9326 165.39C86.7126 164.74 86.4826 158.89 88.4026 152.31C90.3226 145.73 93.6826 140.92 95.8926 141.57C98.1026 142.22 98.3426 148.08 96.4226 154.65Z" fill="white" stroke="#263238" stroke-linecap="round" stroke-linejoin="round"/>
<path d="M202.803 273.77C197.633 271.36 155.233 195.87 152.803 191.77C150.373 187.67 151.083 181.77 153.493 176.26C155.903 170.75 155.903 160.4 154.493 158.33C153.083 156.26 148.863 154.15 148.863 154.15C148.863 154.15 149.673 153.15 151.393 151.1C153.113 149.05 157.253 150.41 157.253 150.41C160.353 147.99 163.123 151.93 163.123 151.93C166.573 149.86 168.283 153.85 168.283 153.85C169.494 153.918 170.673 154.26 171.733 154.85C174.603 156.71 174.143 164.85 174.143 164.85C174.143 164.85 177.243 165.54 177.933 167.61C178.706 170.938 178.465 174.42 177.243 177.61C175.863 181.06 167.243 191.4 167.243 191.4L209.983 264.82" fill="white"/>
<path d="M202.803 273.77C197.633 271.36 155.233 195.87 152.803 191.77C150.373 187.67 151.083 181.77 153.493 176.26C155.903 170.75 155.903 160.4 154.493 158.33C153.083 156.26 148.863 154.15 148.863 154.15C148.863 154.15 149.673 153.15 151.393 151.1C153.113 149.05 157.253 150.41 157.253 150.41C160.353 147.99 163.123 151.93 163.123 151.93C166.573 149.86 168.283 153.85 168.283 153.85C169.494 153.918 170.673 154.26 171.733 154.85C174.603 156.71 174.143 164.85 174.143 164.85C174.143 164.85 177.243 165.54 177.933 167.61C178.706 170.938 178.465 174.42 177.243 177.61C175.863 181.06 167.243 191.4 167.243 191.4L209.983 264.82" stroke="#263238" stroke-width="2" stroke-linecap="round" stroke-linejoin="round"/>
<path d="M157.303 150.43C157.303 150.43 162.253 153.62 162.253 156.43C162.306 158.599 162.49 160.763 162.803 162.91" stroke="#263238" stroke-linecap="round" stroke-linejoin="round"/>
<path d="M163.173 151.9C163.173 151.9 166.173 155.05 166.323 156.9C166.473 158.75 166.883 164.49 166.883 164.49" stroke="#263238" stroke-linecap="round" stroke-linejoin="round"/>
<path d="M168.333 153.82C169.362 155.336 169.947 157.109 170.023 158.94C170.043 160.859 170.167 162.775 170.393 164.68" stroke="#263238" stroke-linecap="round" stroke-linejoin="round"/>
<path d="M174.192 164.85C174.192 164.85 175.582 173.75 175.022 175.61" stroke="#263238" stroke-linecap="round" stroke-linejoin="round"/>
</svg>
