<svg width="22" height="22" viewBox="0 0 22 22" fill="none" xmlns="http://www.w3.org/2000/svg">
<path d="M4.74327 12.9265C2.48804 12.9265 0.65332 14.7612 0.65332 17.0165C0.65332 19.2717 2.48804 21.1064 4.74327 21.1064C6.99851 21.1064 8.83323 19.2717 8.83323 17.0165C8.83323 14.7612 6.99851 12.9265 4.74327 12.9265ZM4.74327 20.1518C3.01454 20.1518 1.60812 18.7452 1.60812 17.0166C1.60812 15.288 3.01454 13.8814 4.74327 13.8814C6.47201 13.8814 7.87843 15.288 7.87843 17.0166C7.87843 18.7452 6.47201 20.1518 4.74327 20.1518Z" fill="#B0C1DA"/>
<path d="M4.87888 14.8768H4.77222C4.39534 14.8768 4.04684 15.0649 3.84006 15.38C3.63328 15.6951 3.59931 16.0896 3.74935 16.4353C3.78413 16.5157 3.81114 16.5987 3.83106 16.6833H3.58758C3.39921 16.6833 3.24658 16.8359 3.24658 17.0243C3.24658 17.2127 3.39921 17.3653 3.58758 17.3653H3.82928C3.8256 17.3809 3.82287 17.3967 3.81851 17.4122L3.50929 18.5399C3.48119 18.6424 3.50247 18.7524 3.56699 18.8369C3.6315 18.9214 3.73176 18.971 3.83815 18.971H5.53087C5.7191 18.971 5.87187 18.8184 5.87187 18.63C5.87187 18.4416 5.71924 18.289 5.53087 18.289H4.28527L4.47623 17.5927C4.49682 17.5178 4.51156 17.4418 4.52383 17.3654H5.04693C5.23529 17.3654 5.38793 17.2128 5.38793 17.0244C5.38793 16.8361 5.23529 16.6834 5.04693 16.6834H4.5256C4.49737 16.5054 4.44718 16.3307 4.37488 16.1639C4.31582 16.0276 4.32864 15.8783 4.41007 15.7542C4.49164 15.63 4.62354 15.5587 4.77208 15.5587H4.87874C5.11744 15.5587 5.31168 15.7529 5.31168 15.9916V16.2391C5.31168 16.4274 5.46431 16.5801 5.65268 16.5801C5.84105 16.5801 5.99368 16.4274 5.99368 16.2391V15.9916C5.99395 15.377 5.49377 14.8768 4.87888 14.8768Z" fill="#B0C1DA"/>
<path d="M17.081 12.9265C14.8259 12.9265 12.9912 14.7612 12.9912 17.0165C12.9912 19.2717 14.8259 21.1064 17.081 21.1064C19.3363 21.1064 21.171 19.2717 21.171 17.0165C21.171 14.7612 19.3363 12.9265 17.081 12.9265ZM17.081 20.1518C15.3523 20.1518 13.946 18.7452 13.946 17.0166C13.946 15.288 15.3524 13.8814 17.081 13.8814C18.8096 13.8814 20.2162 15.288 20.2162 17.0166C20.2162 18.7452 18.8098 20.1518 17.081 20.1518Z" fill="#B0C1DA"/>
<path d="M17.4223 15.0663V14.6318C17.4223 14.4434 17.2696 14.2908 17.0813 14.2908C16.8929 14.2908 16.7403 14.4434 16.7403 14.6318V15.0588C16.3141 15.1895 16.0034 15.5864 16.0034 16.0547C16.0034 16.4145 16.194 16.7548 16.5007 16.9428L17.2837 17.4228C17.3895 17.4877 17.4554 17.6052 17.4554 17.7293V17.7934C17.4554 17.9916 17.294 18.1529 17.0958 18.1529H17.045C16.8468 18.1529 16.6854 17.9916 16.6854 17.7934V17.7736C16.6854 17.5852 16.5328 17.4326 16.3444 17.4326C16.156 17.4326 16.0034 17.5852 16.0034 17.7736V17.7934C16.0034 18.2668 16.3214 18.6669 16.7548 18.7929V19.3157C16.7548 19.5041 16.9075 19.6567 17.0958 19.6567C17.2842 19.6567 17.4368 19.5041 17.4368 19.3157V18.7764C17.8439 18.6347 18.1374 18.2481 18.1374 17.7934V17.7293C18.1374 17.3695 17.9468 17.0291 17.6401 16.8412L16.8571 16.3612C16.7513 16.2963 16.6854 16.1788 16.6854 16.0547C16.6854 15.8565 16.8468 15.6951 17.045 15.6951H17.0958C17.294 15.6951 17.4554 15.8565 17.4554 16.0547V16.2251C17.4554 16.4134 17.608 16.5661 17.7964 16.5661C17.9848 16.5661 18.1374 16.4134 18.1374 16.2251V16.0547C18.1373 15.5945 17.8369 15.2037 17.4223 15.0663Z" fill="#B0C1DA"/>
<path d="M18.9995 10.1632C18.7963 9.99409 18.4962 10.0227 18.327 10.226L18.1197 10.4769V6.70958C18.1197 5.99485 17.5387 5.41378 16.8239 5.41378H16.131C15.8896 2.78399 13.6717 0.717529 10.9805 0.717529C8.288 0.717529 6.07014 2.78399 5.82871 5.41378H5.1358C4.42106 5.41378 3.84 5.99485 3.84 6.70958V10.4769L3.63267 10.226C3.4649 10.0227 3.16345 9.99409 2.96022 10.1632C2.75698 10.331 2.72834 10.6311 2.89747 10.8343L3.9764 12.1397C3.9764 12.1397 3.97776 12.1397 3.97776 12.141C3.99822 12.1656 4.02277 12.1888 4.04869 12.2106C4.05005 12.2106 4.05142 12.212 4.05278 12.212C4.05687 12.216 4.06369 12.2188 4.06915 12.2229C4.08961 12.2379 4.11143 12.2515 4.13462 12.2624C4.14281 12.2665 4.15235 12.2706 4.1619 12.2747C4.18236 12.2829 4.20419 12.2911 4.22601 12.2965C4.23556 12.2979 4.24374 12.3006 4.25193 12.302C4.28193 12.3088 4.31331 12.3129 4.34468 12.3129C4.37605 12.3129 4.40879 12.3088 4.44016 12.302C4.44834 12.3006 4.45789 12.2979 4.46607 12.2952C4.4879 12.2883 4.51109 12.2815 4.53155 12.272C4.54246 12.2679 4.55201 12.2638 4.56155 12.2597C4.58338 12.2474 4.60384 12.2351 4.6243 12.2201C4.63112 12.2147 4.63794 12.2106 4.64476 12.2051C4.64612 12.2051 4.64749 12.2038 4.64885 12.2024C4.67477 12.1806 4.69795 12.1574 4.71841 12.1315L4.71978 12.1301L5.74551 10.8261C5.90782 10.6188 5.87236 10.3187 5.66503 10.155C5.4577 9.99273 5.15762 10.0282 4.99531 10.2355L4.7948 10.4906V6.70958C4.7948 6.52135 4.94757 6.36858 5.1358 6.36858H5.82871C6.07014 8.99837 8.288 11.0662 10.9805 11.0662C13.6717 11.0662 15.8896 8.99837 16.131 6.36858H16.8239C17.0121 6.36858 17.1649 6.52135 17.1649 6.70958V10.4906L16.9644 10.2355C16.8021 10.0282 16.502 9.99273 16.2947 10.155C16.0874 10.3187 16.0519 10.6188 16.2142 10.8261L17.2399 12.1301C17.2413 12.1301 17.2413 12.1315 17.2413 12.1315C17.2618 12.1574 17.2849 12.1806 17.3109 12.2024C17.3122 12.2038 17.3136 12.2051 17.315 12.2051C17.3218 12.2106 17.3286 12.2147 17.3354 12.2201C17.3559 12.2351 17.3777 12.2474 17.3995 12.2597C17.4091 12.2638 17.4186 12.2679 17.4282 12.272C17.45 12.2815 17.4718 12.2883 17.4936 12.2952C17.5032 12.2979 17.5114 12.3006 17.5209 12.302C17.5523 12.3088 17.5837 12.3129 17.615 12.3129C17.6164 12.3129 17.6164 12.3129 17.6164 12.3129C17.6464 12.3129 17.6778 12.3088 17.7078 12.302C17.7173 12.3006 17.7255 12.2979 17.7337 12.2965C17.7555 12.2911 17.7774 12.2829 17.7992 12.2747C17.8087 12.2706 17.8169 12.2665 17.8251 12.2624C17.8483 12.2515 17.8715 12.2379 17.8933 12.2215C17.8974 12.2188 17.9028 12.216 17.9083 12.212C17.9083 12.212 17.9097 12.2106 17.911 12.2106C17.9383 12.1888 17.9615 12.1656 17.982 12.141C17.9833 12.1397 17.9833 12.1397 17.9833 12.1397L19.0636 10.8343C19.2314 10.6311 19.2027 10.331 18.9995 10.1632ZM10.9805 10.1114C8.65355 10.1114 6.76032 8.21817 6.76032 5.89118C6.76032 3.56556 8.65355 1.67233 10.9805 1.67233C13.3062 1.67233 15.1994 3.56556 15.1994 5.89118C15.1994 8.21817 13.3062 10.1114 10.9805 10.1114Z" fill="#B0C1DA"/>
<path d="M10.9849 4.06154C11.4737 4.06154 11.9333 4.25195 12.2789 4.59745C12.4122 4.73072 12.6279 4.73058 12.7611 4.59745C12.8943 4.46419 12.8943 4.2484 12.7611 4.11514C12.4914 3.84548 12.1702 3.64743 11.8207 3.52426V2.8117C11.8207 2.62333 11.6681 2.4707 11.4797 2.4707C11.2914 2.4707 11.1387 2.62333 11.1387 2.8117V3.3869C11.0874 3.38376 11.0366 3.3794 10.9847 3.3794C10.933 3.3794 10.882 3.38376 10.8309 3.3869V2.8117C10.8309 2.62333 10.6782 2.4707 10.4899 2.4707C10.3015 2.4707 10.1489 2.62333 10.1489 2.8117V3.52426C9.79942 3.64729 9.4782 3.84534 9.20853 4.11501C8.734 4.5894 8.47266 5.22025 8.47266 5.89121C8.47266 6.56216 8.734 7.19301 9.20853 7.66741C9.4782 7.93707 9.79942 8.13512 10.1489 8.25829V8.97085C10.1489 9.15921 10.3015 9.31185 10.4899 9.31185C10.6782 9.31185 10.8309 9.15921 10.8309 8.97085V8.39565C10.882 8.39878 10.933 8.40315 10.9847 8.40315C11.0366 8.40315 11.0874 8.39878 11.1387 8.39565V8.97085C11.1387 9.15921 11.2914 9.31185 11.4797 9.31185C11.6681 9.31185 11.8207 9.15921 11.8207 8.97085V8.25829C12.1702 8.13526 12.4914 7.93721 12.7611 7.66741C12.8943 7.53414 12.8943 7.31836 12.7611 7.1851C12.6278 7.05197 12.4118 7.05197 12.2789 7.1851C11.9333 7.53073 11.4737 7.72101 10.9849 7.72101C10.496 7.72101 10.0366 7.5306 9.69098 7.18496C9.34534 6.83932 9.15493 6.37993 9.15493 5.89107C9.15493 5.40221 9.34534 4.94268 9.69098 4.59704C10.0366 4.25181 10.4962 4.06154 10.9849 4.06154Z" fill="#B0C1DA"/>
</svg>
