<svg width="14" height="14" viewBox="0 0 14 14" fill="none" xmlns="http://www.w3.org/2000/svg">
<path d="M8.25 10.5L6.75 12C6.15326 12.5967 5.34391 12.932 4.5 12.932C3.65609 12.932 2.84674 12.5967 2.25 12C1.65326 11.4033 1.31802 10.5939 1.31802 9.75C1.31802 8.90609 1.65326 8.09674 2.25 7.5L3.75 6M6 3.75L7.5 2.25C8.09674 1.65326 8.90609 1.31802 9.75 1.31802C10.5939 1.31802 11.4033 1.65326 12 2.25C12.5967 2.84674 12.932 3.65609 12.932 4.5C12.932 5.34391 12.5967 6.15326 12 6.75L10.5 8.25M4.95211 9.29789L9.34477 4.90523" stroke="#7A8492" stroke-width="1.19324" stroke-linecap="round" stroke-linejoin="round"/>
</svg>
