<svg width="16" height="16" viewBox="0 0 16 16" fill="none" xmlns="http://www.w3.org/2000/svg">
<path d="M13.1738 5H6.66992C5.74765 5 5 5.74765 5 6.66992V13.1738C5 14.0961 5.74765 14.8438 6.66992 14.8438H13.1738C14.0961 14.8438 14.8438 14.0961 14.8438 13.1738V6.66992C14.8438 5.74765 14.0961 5 13.1738 5Z" stroke="#7A8492" stroke-width="0.9375" stroke-linejoin="round"/>
<path d="M11.2354 3.75L11.25 3.04688C11.2488 2.61213 11.0755 2.19555 10.7681 1.88814C10.4607 1.58073 10.0441 1.40749 9.60938 1.40625H3.28125C2.78442 1.40772 2.30836 1.60573 1.95705 1.95705C1.60573 2.30836 1.40772 2.78442 1.40625 3.28125V9.60938C1.40749 10.0441 1.58073 10.4607 1.88814 10.7681C2.19555 11.0755 2.61213 11.2488 3.04688 11.25H3.75" stroke="#7A8492" stroke-width="0.9375" stroke-linecap="round" stroke-linejoin="round"/>
</svg>
