<svg width="20" height="17" viewBox="0 0 20 17" fill="none" xmlns="http://www.w3.org/2000/svg">
<path d="M17.7711 4.8071L17.7831 5.31369C17.7831 10.4868 13.826 16.4467 6.58905 16.4467C4.36784 16.4467 2.30039 15.7991 0.558594 14.6885C0.86624 14.7243 1.1798 14.7441 1.49744 14.7441C3.34115 14.7441 5.03701 14.1183 6.38331 13.0694C4.66149 13.0376 3.20927 11.9052 2.70792 10.3517C2.94959 10.3974 3.1933 10.4193 3.44897 10.4193C3.80853 10.4193 4.15606 10.3736 4.48566 10.2842C2.6859 9.92265 1.32962 8.34333 1.32962 6.44811V6.39844C1.86093 6.69245 2.46617 6.86727 3.11136 6.88916C2.05668 6.18788 1.36155 4.98995 1.36155 3.63308C1.36155 2.91593 1.55532 2.24445 1.89287 1.66637C3.83245 4.0344 6.73282 5.59189 10.0027 5.75481C9.93479 5.46871 9.90088 5.16875 9.90088 4.86284C9.90088 2.70341 11.6627 0.951172 13.836 0.951172C14.9665 0.951172 15.9893 1.42594 16.7083 2.18681C17.6032 2.00998 18.4462 1.68421 19.2072 1.23721C18.9136 2.15107 18.2904 2.91789 17.4774 3.40259C18.2704 3.30921 19.0315 3.09662 19.7366 2.78673C19.2093 3.56943 18.5401 4.25881 17.7711 4.8071Z" fill="white"/>
</svg>
