<svg width="35" height="35" viewBox="0 0 35 35" fill="none" xmlns="http://www.w3.org/2000/svg">
<path d="M31.9829 6.03449V12.431C31.9829 22.1387 26.325 30.9557 17.5002 35C8.6753 30.9557 3.0174 22.1387 3.0174 12.431V6.03449C7.69592 6.03326 12.2266 4.39373 15.8225 1.4L17.5002 0L19.1778 1.4C22.7737 4.39373 27.3044 6.03326 31.9829 6.03449Z" fill="#4398D1"/>
<path d="M10.421 4.61035C12.5391 17.5845 18.634 25.5017 24.4331 30.2388C22.4104 32.2096 20.0654 33.8196 17.4995 35C8.67463 30.9557 3.01673 22.1387 3.01673 12.431V6.03448C5.553 6.03264 8.0652 5.54927 10.421 4.61035Z" fill="#3E8CC7"/>
<path d="M15.0863 16.8966V13.2758C15.0863 11.9428 16.1671 10.8621 17.5001 10.8621C18.8331 10.8621 19.9139 11.9428 19.9139 13.2758V16.8966H22.3276V13.2758C22.3276 10.6098 20.1661 8.44824 17.5 8.44824C14.834 8.44824 12.6724 10.6098 12.6724 13.2758V16.8966H15.0863Z" fill="#E5E5E5"/>
<path d="M22.3276 16.8966H19.9139V14.0483C20.699 14.4382 21.5046 14.7851 22.3276 15.0862V16.8966Z" fill="#D6D6D6"/>
<path d="M14.1866 9.7699C14.7212 10.377 15.2999 10.9442 15.9185 11.4656C15.3928 11.9212 15.0893 12.5808 15.0857 13.276V16.8967H12.6719V13.276C12.6731 11.9489 13.221 10.6804 14.1866 9.7699Z" fill="#D6D6D6"/>
<path d="M10.8618 15.6897H24.1377V26.5518H10.8618V15.6897Z" fill="#FDB62F"/>
<path d="M10.8618 15.6897H24.1377V26.5518H10.8618V15.6897Z" fill="#FDB62F"/>
<path d="M10.8619 26.5518H24.1377C20.3722 24.138 14.6274 24.138 10.8619 26.5518Z" fill="#FFA230"/>
<path d="M16.8966 21.1206H18.1035V24.1379H16.8966V21.1206Z" fill="#126099"/>
<path d="M17.5001 21.7241C16.8336 21.7241 16.2933 21.1837 16.2933 20.5172C16.2933 19.8506 16.8336 19.3103 17.5001 19.3103C18.1667 19.3103 18.707 19.8506 18.707 20.5172C18.707 21.1837 18.1667 21.7241 17.5001 21.7241Z" fill="#126099"/>
<path d="M24.1377 15.6896H10.8618C14.6274 18.1034 20.3722 18.1034 24.1377 15.6896Z" fill="#FDC353"/>
<path d="M27.1553 13.8792C27.1553 12.2131 25.8042 10.862 24.138 10.862C25.8042 10.862 27.1553 9.51085 27.1553 7.84473" fill="#FDC353"/>
<path d="M27.1551 7.8457C27.1551 9.51183 28.5062 10.8629 30.1724 10.8629C28.5062 10.8629 27.1551 12.2141 27.1551 13.8802" fill="#FDC353"/>
</svg>
