<svg width="51" height="33" viewBox="0 0 51 33" fill="none" xmlns="http://www.w3.org/2000/svg">
<rect x="0.0815526" y="0.0815526" width="50.2364" height="32.1317" rx="1.5495" fill="white" stroke="#BEBEBE" stroke-width="0.163105"/>
<path d="M13 9.875C13 9.1125 13.3029 8.38123 13.8421 7.84207C14.3812 7.3029 15.1125 7 15.875 7H33.125C33.8875 7 34.6188 7.3029 35.1579 7.84207C35.6971 8.38123 36 9.1125 36 9.875V21.375C36 22.1375 35.6971 22.8688 35.1579 23.4079C34.6188 23.9471 33.8875 24.25 33.125 24.25H15.875C15.1125 24.25 14.3812 23.9471 13.8421 23.4079C13.3029 22.8688 13 22.1375 13 21.375V9.875ZM15.875 8.4375C15.4938 8.4375 15.1281 8.58895 14.8585 8.85853C14.589 9.12812 14.4375 9.49375 14.4375 9.875V11.3125H34.5625V9.875C34.5625 9.49375 34.411 9.12812 34.1415 8.85853C33.8719 8.58895 33.5062 8.4375 33.125 8.4375H15.875ZM34.5625 14.1875H14.4375V21.375C14.4375 21.7562 14.589 22.1219 14.8585 22.3915C15.1281 22.661 15.4938 22.8125 15.875 22.8125H33.125C33.5062 22.8125 33.8719 22.661 34.1415 22.3915C34.411 22.1219 34.5625 21.7562 34.5625 21.375V14.1875Z" fill="black"/>
<path d="M15.875 18.5C15.875 18.1188 16.0265 17.7531 16.296 17.4835C16.5656 17.214 16.9313 17.0625 17.3125 17.0625H18.75C19.1312 17.0625 19.4969 17.214 19.7665 17.4835C20.036 17.7531 20.1875 18.1188 20.1875 18.5V19.9375C20.1875 20.3187 20.036 20.6844 19.7665 20.954C19.4969 21.2235 19.1312 21.375 18.75 21.375H17.3125C16.9313 21.375 16.5656 21.2235 16.296 20.954C16.0265 20.6844 15.875 20.3187 15.875 19.9375V18.5Z" fill="black"/>
</svg>
