<svg width="16" height="16" viewBox="0 0 16 16" fill="none" xmlns="http://www.w3.org/2000/svg">
<path d="M8 16C12.4183 16 16 12.4183 16 8C16 3.58172 12.4183 0 8 0C3.58172 0 0 3.58172 0 8C0 12.4183 3.58172 16 8 16Z" fill="#F7C04A"/>
<rect width="10" height="10" transform="translate(3 3)" fill="#F7C04A"/>
<path d="M5.91699 9.66667C6.33366 10.0833 7.16699 10.5 8.00033 10.5M8.00033 10.5C9.04199 10.5 10.0837 10.2917 10.0837 9.25C10.0837 8.20833 9.06262 8 8.00033 8M8.00033 10.5V8M8.00033 10.5V11.75M8.00033 8C6.95866 8 5.91699 7.79167 5.91699 6.75C5.91699 5.70833 6.95866 5.5 8.00033 5.5M8.00033 8V5.5M8.00033 5.5C8.83366 5.5 9.66699 5.91667 10.0837 6.33333M8.00033 5.5V4.25" stroke="black" stroke-width="0.7"/>
</svg>
