<svg width="20" height="20" viewBox="0 0 20 20" fill="none" xmlns="http://www.w3.org/2000/svg">
<path fill-rule="evenodd" clip-rule="evenodd" d="M7.16602 6.99999C7.16602 5.43518 8.43454 4.16666 9.99935 4.16666C11.5641 4.16666 12.8327 5.43518 12.8327 6.99999C12.8327 8.5648 11.5641 9.83332 9.99935 9.83332C8.43454 9.83332 7.16602 8.5648 7.16602 6.99999ZM9.99935 5.16666C8.98682 5.16666 8.16602 5.98747 8.16602 6.99999C8.16602 8.01251 8.98682 8.83332 9.99935 8.83332C11.0119 8.83332 11.8327 8.01251 11.8327 6.99999C11.8327 5.98747 11.0119 5.16666 9.99935 5.16666Z" fill="#B0C1DA"/>
<path fill-rule="evenodd" clip-rule="evenodd" d="M7.33301 11.8333C6.50458 11.8333 5.83301 12.5049 5.83301 13.3333V14.1255C5.83301 14.1376 5.84175 14.1478 5.85365 14.1498C8.59949 14.5981 11.3999 14.5981 14.1457 14.1498C14.1576 14.1478 14.1663 14.1376 14.1663 14.1255V13.3333C14.1663 12.5049 13.4947 11.8333 12.6663 11.8333H12.4391C12.4215 11.8333 12.4041 11.8361 12.3873 11.8415L11.8103 12.03C10.6338 12.4141 9.36554 12.4141 8.18899 12.03L7.61199 11.8415C7.59529 11.8361 7.57782 11.8333 7.56025 11.8333H7.33301ZM4.83301 13.3333C4.83301 11.9526 5.95229 10.8333 7.33301 10.8333H7.56025C7.68325 10.8333 7.80547 10.8528 7.92239 10.8909L8.4994 11.0794C9.47427 11.3976 10.5251 11.3976 11.4999 11.0794L12.0769 10.8909C12.1939 10.8528 12.3161 10.8333 12.4391 10.8333H12.6663C14.0471 10.8333 15.1663 11.9526 15.1663 13.3333V14.1255C15.1663 14.6276 14.8024 15.0558 14.3068 15.1367C11.4543 15.6024 8.54507 15.6024 5.69252 15.1367C5.19693 15.0558 4.83301 14.6276 4.83301 14.1255V13.3333Z" fill="#B0C1DA"/>
<circle cx="10" cy="10" r="9.5" stroke="#B0C1DA"/>
</svg>
