<svg width="22" height="16" viewBox="0 0 22 16" fill="none" xmlns="http://www.w3.org/2000/svg">
<rect width="22" height="16" rx="1" fill="#0069FF"/>
<g clip-path="url(#clip0_4190_35169)">
<path d="M18 4.56163C18 3.93772 17.4978 3.43555 16.8739 3.43555H5.12609C4.50217 3.43555 4 3.93772 4 4.56163V11.4551C4 12.0638 4.50217 12.566 5.12609 12.566H16.8891C17.513 12.566 18.0152 12.0638 18.0152 11.4399V4.56163H18ZM16.7826 4.65294V5.71816H5.21739V4.65294H16.7826ZM5.21739 11.3486V7.54424H16.7826V11.3486H5.21739ZM15.6413 9.37033C15.6413 9.70511 15.3674 9.97902 15.0326 9.97902H12.1413C11.8065 9.97902 11.5326 9.70511 11.5326 9.37033C11.5326 9.03555 11.8065 8.76163 12.1413 8.76163H15.0326C15.3674 8.76163 15.6413 9.03555 15.6413 9.37033Z" fill="white"/>
</g>
<defs>
<clipPath id="clip0_4190_35169">
<rect width="14" height="14" fill="white" transform="translate(4 1)"/>
</clipPath>
</defs>
</svg>
