<svg width="25" height="38" viewBox="0 0 25 38" fill="none" xmlns="http://www.w3.org/2000/svg">
<path d="M22.7418 5.00574H17.1137L16.5175 6.35817L16.9692 7.50262C17.0939 7.50262 16.9869 7.80845 17.0949 7.85412C17.4192 7.99129 17.6467 8.31231 17.6467 8.68654V10.7824C17.6467 11.2813 17.2422 11.6858 16.7433 11.6858H8.25747C7.75858 11.6858 7.3541 11.2813 7.3541 10.7824V8.68654C7.3541 8.31969 7.57275 8.004 7.88676 7.86245C7.98943 7.8162 8.10226 6.46216 8.22101 6.21201L7.88705 5.00574H3.7797C2.53235 5.00574 1.61158 6.0169 1.61158 7.26417L1.58447 35.1568C1.58447 36.4041 2.45109 37.4152 3.69836 37.4152H22.7418C23.9891 37.4152 25.0002 36.404 25.0002 35.1568V7.26425C25.0002 6.0169 23.9891 5.00574 22.7418 5.00574Z" fill="#42C3FC"/>
<path d="M7.88623 7.86318C7.99935 7.81218 8.12446 7.78317 8.25666 7.78317H16.7425C16.8746 7.78317 16.9998 7.81218 17.1129 7.86318V5.00574H7.88623V7.86318Z" fill="#1AA9E8"/>
<path d="M2.00252 35.1568V7.26417C2.00252 6.01683 3.01368 5.00574 4.26095 5.00574H2.25843C1.01109 5.00574 0 6.0169 0 7.26417V35.1568C0 36.4041 1.01116 37.4152 2.25843 37.4152H4.26095C3.01361 37.4152 2.00252 36.404 2.00252 35.1568Z" fill="#42C3FC"/>
<path d="M18.2691 20.2237C18.2691 22.4599 16.9967 24.3988 15.1364 25.3561C14.3463 25.7626 13.4503 22.901 12.5007 22.901C11.4016 22.901 10.5326 25.6847 9.86569 25.1513C8.59956 24.1384 8.06201 22.3105 8.06201 20.2238C8.06201 17.038 9.1673 14.6035 12.3531 14.6035C12.5986 14.6035 12.9881 14.4708 13.2255 14.5006C16.0692 14.857 18.2691 17.2835 18.2691 20.2237Z" fill="#1C8AE5"/>
<path d="M10.0265 24.3592C8.94777 23.3115 8.27678 21.8464 8.27678 20.2236C8.27678 17.3 10.4524 14.886 13.2727 14.5083C13.0199 14.4745 12.7624 14.4553 12.5003 14.4553C9.31454 14.4553 6.73193 17.0379 6.73193 20.2236C6.73193 22.4598 8.00464 24.3982 9.86495 25.3554C9.91837 25.3829 9.94797 24.7857 10.0023 24.8116L10.0265 24.3592Z" fill="#1C8AE5"/>
<path d="M12.4997 19.9331C13.3878 19.9331 14.1077 19.2132 14.1077 18.3251C14.1077 17.437 13.3878 16.717 12.4997 16.717C11.6116 16.717 10.8916 17.437 10.8916 18.3251C10.8916 19.2132 11.6116 19.9331 12.4997 19.9331Z" fill="#E9EFFF"/>
<path d="M13.6083 21.9209H11.392C10.5488 21.9209 9.86523 22.6045 9.86523 23.4476V25.3547C10.6553 25.7612 11.5505 25.9922 12.5001 25.9922C13.4497 25.9922 14.3449 25.7613 15.1349 25.3548V23.4476C15.135 22.6045 14.4515 21.9209 13.6083 21.9209Z" fill="#E9EFFF"/>
<path d="M18.9177 31.6142H6.08135C5.67775 31.6142 5.35059 31.2871 5.35059 30.8835V29.4722C5.35059 29.0686 5.67775 28.7415 6.08135 28.7415H18.9177C19.3213 28.7415 19.6485 29.0686 19.6485 29.4722V30.8835C19.6485 31.2871 19.3213 31.6142 18.9177 31.6142Z" fill="#1C8AE5"/>
<path d="M12.2261 34.6177H5.35121C5.03939 34.6177 4.78662 34.3649 4.78662 34.0531C4.78662 33.7413 5.03939 33.4885 5.35121 33.4885H12.2261C12.5379 33.4885 12.7908 33.7413 12.7908 34.0531C12.7908 34.3649 12.5379 34.6177 12.2261 34.6177Z" fill="#1C8AE5"/>
<path d="M15.4777 34.6177H14.5924C14.2805 34.6177 14.0278 34.3649 14.0278 34.0531C14.0278 33.7413 14.2806 33.4885 14.5924 33.4885H15.4777C15.7896 33.4885 16.0423 33.7413 16.0423 34.0531C16.0423 34.3649 15.7896 34.6177 15.4777 34.6177Z" fill="#1C8AE5"/>
<path d="M14.4782 9.40878H11.7199C11.3041 9.40878 11.0694 9.07174 11.0694 8.65594L11.0288 0.752837C11.0288 0.33703 11.399 0 11.8147 0H14.4782C14.8941 0 15.2311 0.33703 15.2311 0.752837V8.65594C15.2311 9.07174 14.8941 9.40878 14.4782 9.40878Z" fill="#FFDD40"/>
<path d="M11.2837 8.65594V0.752837C11.2837 0.33703 11.6207 0 12.0365 0H10.5219C10.1061 0 9.76904 0.33703 9.76904 0.752837V8.65594C9.76904 9.07174 10.1061 9.40878 10.5219 9.40878H12.0365C11.6208 9.40878 11.2837 9.07174 11.2837 8.65594Z" fill="#FFC043"/>
<path d="M19.6492 34.6177H17.7189C17.407 34.6177 17.1543 34.3649 17.1543 34.0531C17.1543 33.7413 17.4071 33.4885 17.7189 33.4885H19.6492C19.9611 33.4885 20.2138 33.7413 20.2138 34.0531C20.2138 34.3649 19.9611 34.6177 19.6492 34.6177Z" fill="#1C8AE5"/>
</svg>
