<svg width="5" height="21" viewBox="0 0 5 21" fill="none" xmlns="http://www.w3.org/2000/svg">
<path d="M2.50008 13.4998C1.11951 13.4998 0.00015671 12.3805 0.00015677 10.9999C0.00015683 9.61935 1.11951 8.5 2.50008 8.5C3.88065 8.5 5 9.61935 5 10.9999C5 12.3805 3.88065 13.4998 2.50008 13.4998Z" fill="#5153FF"/>
<path d="M2.49996 5.99789C1.11938 5.99789 3.46395e-05 4.87854 3.46998e-05 3.49797C3.47602e-05 2.1174 1.11938 0.998047 2.49996 0.998047C3.88053 0.998047 4.99988 2.1174 4.99988 3.49797C4.99988 4.87854 3.88053 5.99789 2.49996 5.99789Z" fill="#5153FF"/>
<path d="M2.50008 20.9979C1.11951 20.9979 0.00015671 19.8785 0.00015677 18.498C0.00015683 17.1174 1.11951 15.998 2.50008 15.998C3.88065 15.998 5 17.1174 5 18.498C5 19.8785 3.88065 20.9979 2.50008 20.9979Z" fill="#5153FF"/>
</svg>
