<svg width="51" height="33" viewBox="0 0 51 33" fill="none" xmlns="http://www.w3.org/2000/svg">
<rect x="0.0815526" y="0.0815526" width="50.2364" height="32.1317" rx="1.5495" fill="white" stroke="#BEBEBE" stroke-width="0.163105"/>
<path fill-rule="evenodd" clip-rule="evenodd" d="M17.3301 21.1898H14.6058L12.5629 13.1667C12.4659 12.7976 12.26 12.4714 11.9572 12.3176C11.2014 11.9311 10.3685 11.6236 9.45996 11.4685V11.1596H13.8487C14.4544 11.1596 14.9086 11.6236 14.9843 12.1625L16.0443 17.9498L18.7673 11.1596H21.416L17.3301 21.1898ZM22.9305 21.1893H20.3576L22.4762 11.1591H25.0491L22.9305 21.1893ZM28.3779 13.9377C28.4536 13.3975 28.9079 13.0886 29.4379 13.0886C30.2707 13.0111 31.1779 13.1662 31.9351 13.5513L32.3893 11.3917C31.6322 11.0828 30.7994 10.9277 30.0436 10.9277C27.5464 10.9277 25.7293 12.3171 25.7293 14.2453C25.7293 15.7122 27.0164 16.4824 27.9249 16.9464C28.9079 17.409 29.2864 17.7179 29.2107 18.1806C29.2107 18.8746 28.4536 19.1835 27.6978 19.1835C26.7892 19.1835 25.8807 18.9522 25.0492 18.5657L24.5949 20.7266C25.5035 21.1117 26.4864 21.2668 27.3949 21.2668C30.195 21.343 31.9351 19.955 31.9351 17.8717C31.9351 15.2482 28.3779 15.0944 28.3779 13.9377ZM40.9391 21.1893L38.8962 11.1591H36.7019C36.2476 11.1591 35.7933 11.468 35.6419 11.9306L31.8589 21.1893H34.5075L35.0362 19.7237H38.2905L38.5934 21.1893H40.9391ZM37.0805 13.8598L37.8363 17.64H35.7177L37.0805 13.8598Z" fill="#172B85"/>
</svg>
