<svg width="31" height="35" viewBox="0 0 31 35" fill="none" xmlns="http://www.w3.org/2000/svg">
<path d="M20.6423 33.7071V4.17252C20.6423 3.45844 20.0634 2.87964 19.3493 2.87964H1.29288C0.578799 2.87964 0 3.45851 0 4.17252V33.7071C0 34.4212 0.578867 35 1.29288 35H19.3494C20.0634 35 20.6423 34.4211 20.6423 33.7071Z" fill="#FFC250"/>
<path d="M23.5888 2.87952H19.2617C19.9758 2.87952 20.5547 3.45838 20.5547 4.1724V33.707C20.5547 34.4211 19.9758 34.9999 19.2617 34.9999H23.5888C24.3029 34.9999 24.8817 34.421 24.8817 33.707V4.17247C24.8817 3.45838 24.3029 2.87952 23.5888 2.87952Z" fill="#EAB14D"/>
<path d="M2.11328 32.4246V5.45491C2.11328 5.19965 2.3202 4.9928 2.57539 4.9928H22.3061C22.5613 4.9928 22.7682 5.19972 22.7682 5.45491V32.4246C22.7682 32.6798 22.5613 32.8867 22.3061 32.8867H2.57539C2.32014 32.8867 2.11328 32.6798 2.11328 32.4246Z" fill="#F5F5F5"/>
<path d="M22.3056 4.9928H17.9785C18.2338 4.9928 18.4406 5.19972 18.4406 5.45491V32.4246C18.4406 32.6798 18.2337 32.8867 17.9785 32.8867H22.3056C22.5608 32.8867 22.7677 32.6798 22.7677 32.4246V5.45491C22.7677 5.19972 22.5608 4.9928 22.3056 4.9928Z" fill="#EAEAEA"/>
<path d="M15.1877 1.60904V0.928389C15.1877 0.415693 14.7721 0 14.2593 0H10.6228C10.1101 0 9.69443 0.415693 9.69443 0.928389V1.60904C9.69443 1.8187 9.52442 1.98871 9.31477 1.98871H7.80129C7.29782 1.98871 6.88965 2.39688 6.88965 2.90035V4.99283H17.9925V2.90035C17.9925 2.39688 17.5843 1.98871 17.0809 1.98871H15.5674C15.3577 1.98871 15.1877 1.8187 15.1877 1.60904Z" fill="#C2D0DA"/>
<path d="M4.80176 12.4956V8.42562C4.80176 7.97472 5.16734 7.60913 5.61824 7.60913H9.68822C10.1391 7.60913 10.5047 7.97472 10.5047 8.42562V12.4956C10.5047 12.9465 10.1391 13.3121 9.68822 13.3121H5.61824C5.16728 13.3121 4.80176 12.9465 4.80176 12.4956Z" fill="#66B49D"/>
<path d="M4.80273 20.9751V16.9051C4.80273 16.4542 5.16832 16.0886 5.61922 16.0886H9.6892C10.1401 16.0886 10.5057 16.4542 10.5057 16.9051V20.9751C10.5057 21.426 10.1401 21.7916 9.6892 21.7916H5.61922C5.16825 21.7916 4.80273 21.426 4.80273 20.9751Z" fill="#66B49D"/>
<path d="M4.80273 29.4543V25.3844C4.80273 24.9335 5.16832 24.5679 5.61922 24.5679H9.6892C10.1401 24.5679 10.5057 24.9335 10.5057 25.3844V29.4543C10.5057 29.9052 10.1401 30.2708 9.6892 30.2708H5.61922C5.16825 30.2708 4.80273 29.9053 4.80273 29.4543Z" fill="#66B49D"/>
<path d="M7.30946 11.9183C7.30885 11.9183 7.3083 11.9183 7.30768 11.9183C7.07451 11.9177 6.85337 11.8048 6.71603 11.6163L6.0993 10.7693C5.92758 10.5335 5.97953 10.2031 6.21537 10.0314C6.45121 9.85976 6.78159 9.91171 6.95324 10.1475L7.31083 10.6386L8.35639 9.21814C8.52934 8.98319 8.85992 8.93301 9.0948 9.10589C9.32975 9.27877 9.38 9.60943 9.20705 9.84438L7.90057 11.6193C7.76282 11.8066 7.54188 11.9183 7.30946 11.9183Z" fill="#F6F9F9"/>
<path d="M7.30939 20.5821C7.30871 20.5821 7.30809 20.5821 7.30748 20.5821C7.07431 20.5814 6.85316 20.4686 6.7159 20.28L6.0993 19.4331C5.92758 19.1973 5.97953 18.8669 6.21537 18.6952C6.45121 18.5236 6.78159 18.5755 6.95324 18.8113L7.31083 19.3024L8.35639 17.8819C8.52934 17.6471 8.85992 17.5968 9.0948 17.7697C9.32975 17.9426 9.38 18.2732 9.20705 18.5082L7.90057 20.2831C7.76282 20.4705 7.54188 20.5821 7.30939 20.5821Z" fill="#F6F9F9"/>
<path d="M7.30937 28.877C7.30875 28.877 7.30814 28.877 7.30759 28.8769C7.07449 28.8764 6.85328 28.7635 6.71601 28.5751L6.09927 27.728C5.92755 27.4922 5.97957 27.1618 6.21541 26.9901C6.45139 26.8184 6.78163 26.8705 6.95329 27.1063L7.3108 27.5974L8.35643 26.1769C8.52938 25.942 8.85997 25.8917 9.09485 26.0646C9.3298 26.2375 9.38004 26.5681 9.20709 26.8031L7.90061 28.5781C7.76273 28.7653 7.54186 28.877 7.30937 28.877Z" fill="#F6F9F9"/>
<path d="M19.6639 9.88515H13.1346C12.8429 9.88515 12.6064 9.64869 12.6064 9.357C12.6064 9.06531 12.8429 8.82886 13.1346 8.82886H19.6639C19.9556 8.82886 20.1921 9.06531 20.1921 9.357C20.1921 9.64869 19.9556 9.88515 19.6639 9.88515Z" fill="#DDEAFB"/>
<path d="M16.4002 12.0924H13.1356C12.8439 12.0924 12.6074 11.856 12.6074 11.5643C12.6074 11.2726 12.8439 11.0361 13.1356 11.0361H16.4002C16.6919 11.0361 16.9284 11.2726 16.9284 11.5643C16.9284 11.856 16.6919 12.0924 16.4002 12.0924Z" fill="#DDEAFB"/>
<path d="M17.5155 18.3644H13.1346C12.8429 18.3644 12.6064 18.1279 12.6064 17.8363C12.6064 17.5446 12.8429 17.3081 13.1346 17.3081H17.5155C17.8072 17.3081 18.0436 17.5446 18.0436 17.8363C18.0436 18.1279 17.8072 18.3644 17.5155 18.3644Z" fill="#DDEAFB"/>
<path d="M16.4002 20.5715H13.1356C12.8439 20.5715 12.6074 20.3351 12.6074 20.0434C12.6074 19.7517 12.8439 19.5153 13.1356 19.5153H16.4002C16.6919 19.5153 16.9284 19.7517 16.9284 20.0434C16.9284 20.3351 16.6919 20.5715 16.4002 20.5715Z" fill="#DDEAFB"/>
<path d="M28.1543 13.7893L27.6357 13.1062L25.6954 11.8774L24.9495 11.7599L15.0138 27.4602C14.7741 27.8388 14.5982 28.2542 14.4932 28.6898C15.702 28.7047 16.7993 29.3995 17.3297 30.486C17.6786 30.2048 17.9789 29.8682 18.2186 29.4896L28.1543 13.7893Z" fill="#FC8086"/>
<path d="M29.5566 8.9546L28.7182 8.42365C28.0646 8.00973 27.1992 8.20422 26.7854 8.85794L26.0166 10.0729L26.2619 10.5673L28.595 12.0448L29.2215 12.1023L29.9908 10.8866C30.4042 10.2333 30.2099 9.36831 29.5566 8.9546Z" fill="#8C9BA6"/>
<path d="M24.9512 11.7554L26.0193 10.0684L29.2247 12.0979L28.1566 13.7848L24.9512 11.7554Z" fill="#C9E2E7"/>
<path d="M17.3299 30.486L14.5008 32.7658C14.1018 33.0874 13.5219 32.7203 13.642 32.222L14.4934 28.6898C15.7023 28.7047 16.7996 29.3996 17.3299 30.486Z" fill="#7C8B96"/>
<path d="M16.5877 29.5072L27.0029 13.0601L26.1105 12.495L15.6953 28.9421C16.0221 29.0798 16.3235 29.2707 16.5877 29.5072Z" fill="#FB636F"/>
</svg>
