<svg width="25" height="19" viewBox="0 0 25 19" fill="none" xmlns="http://www.w3.org/2000/svg">
<path d="M16.3487 8.34904L10.8256 5.32706C10.508 5.1533 10.1327 5.15979 9.8214 5.34423C9.50993 5.52886 9.32416 5.85501 9.32416 6.21702V12.2091C9.32416 12.5694 9.50879 12.895 9.81816 13.0798C9.97971 13.1763 10.1588 13.2248 10.3383 13.2248C10.5027 13.2248 10.6675 13.1841 10.8191 13.1025L16.3424 10.1326C16.6703 9.95616 16.8749 9.61532 16.8764 9.24282C16.8778 8.87031 16.6756 8.52795 16.3487 8.34904ZM10.7892 11.4553V6.9769L14.917 9.23557L10.7892 11.4553Z" fill="#DA2A2A"/>
<path d="M24.8159 4.46907L24.8148 4.45763C24.7936 4.25641 24.5829 2.46656 23.7127 1.55619C22.707 0.485417 21.5668 0.355336 21.0184 0.292967C20.973 0.287817 20.9315 0.283048 20.8943 0.278089L20.8506 0.273512C17.5456 0.0331876 12.5543 0.000381467 12.5043 0.000190733L12.4999 0L12.4955 0.000190733C12.4455 0.000381467 7.45424 0.0331876 4.11946 0.273512L4.0754 0.278089C4.03992 0.282858 4.00082 0.287244 3.95829 0.292204C3.41623 0.354764 2.28823 0.485035 1.27963 1.59453C0.450894 2.49517 0.211333 4.24668 0.186728 4.44352L0.183867 4.46907C0.176428 4.55281 0 6.54616 0 8.54734V10.418C0 12.4192 0.176428 14.4126 0.183867 14.4965L0.185202 14.5091C0.206374 14.7071 0.416943 16.4641 1.28306 17.3749C2.22872 18.4098 3.42443 18.5467 4.06758 18.6203C4.16924 18.632 4.25679 18.6419 4.31649 18.6524L4.37428 18.6604C6.28257 18.842 12.2657 18.9314 12.5194 18.9351L12.527 18.9352L12.5346 18.9351C12.5846 18.9349 17.5757 18.9021 20.8807 18.6617L20.9244 18.6572C20.9662 18.6516 21.0131 18.6467 21.0646 18.6413C21.6036 18.5841 22.7255 18.4653 23.7202 17.3709C24.5489 16.47 24.7887 14.7185 24.8131 14.5219L24.8159 14.4963C24.8234 14.4124 25 12.4192 25 10.418V8.54734C24.9998 6.54616 24.8234 4.553 24.8159 4.46907ZM23.5348 10.418C23.5348 12.2703 23.373 14.1778 23.3578 14.3529C23.2956 14.8352 23.0429 15.9434 22.6391 16.3823C22.0165 17.0672 21.377 17.1351 20.9101 17.1845C20.8536 17.1904 20.8014 17.1961 20.7541 17.2021C17.5574 17.4332 12.7545 17.4687 12.5333 17.47C12.2851 17.4664 6.38957 17.3762 4.53945 17.2043C4.44466 17.1889 4.34224 17.1771 4.23428 17.1649C3.68669 17.1021 2.9371 17.0163 2.36071 16.3823L2.34717 16.3678C1.95044 15.9545 1.70497 14.9182 1.6426 14.3586C1.63096 14.2262 1.46502 12.2962 1.46502 10.418V8.54734C1.46502 6.69722 1.62638 4.7918 1.64202 4.61308C1.71622 4.04488 1.97371 3.00386 2.36071 2.5831C3.00233 1.87739 3.67887 1.79919 4.12633 1.7475C4.16905 1.74254 4.20891 1.73796 4.24573 1.73319C7.48896 1.50088 12.3263 1.46636 12.4999 1.46502C12.6735 1.46617 17.5091 1.50088 20.7236 1.73319C20.763 1.73815 20.8062 1.74311 20.8525 1.74845C21.3127 1.8009 22.0083 1.88025 22.6467 2.56117L22.6526 2.56746C23.0494 2.98078 23.2948 4.03516 23.3572 4.60602C23.3683 4.73095 23.5348 6.66518 23.5348 8.54734V10.418Z" fill="#DA2A2A"/>
</svg>
